<?xml version="1.0" encoding="UTF-8"?>
<svg width="65px" height="66px" viewBox="0 0 65 66" version="1.1" xmlns="http://www.w3.org/2000/svg" xmlns:xlink="http://www.w3.org/1999/xlink">
    <title>Group 5@1.5x</title>
    <defs>
        <linearGradient x1="50%" y1="0%" x2="50%" y2="100%" id="linearGradient-1">
            <stop stop-color="#99C1FF" offset="0%"></stop>
            <stop stop-color="#307DF7" offset="100%"></stop>
        </linearGradient>
        <linearGradient x1="50%" y1="0%" x2="50%" y2="100%" id="linearGradient-2">
            <stop stop-color="#629EFD" offset="0%"></stop>
            <stop stop-color="#74AAFF" offset="100%"></stop>
        </linearGradient>
        <circle id="path-3" cx="22.5" cy="22.5" r="22.5"></circle>
        <filter x="-45.6%" y="-23.3%" width="191.1%" height="193.3%" filterUnits="objectBoundingBox" id="filter-4">
            <feMorphology radius="4" operator="erode" in="SourceAlpha" result="shadowSpreadOuter1"></feMorphology>
            <feOffset dx="0" dy="11" in="shadowSpreadOuter1" result="shadowOffsetOuter1"></feOffset>
            <feGaussianBlur stdDeviation="9" in="shadowOffsetOuter1" result="shadowBlurOuter1"></feGaussianBlur>
            <feComposite in="shadowBlurOuter1" in2="SourceAlpha" operator="out" result="shadowBlurOuter1"></feComposite>
            <feColorMatrix values="0 0 0 0 0   0 0 0 0 0.248526507   0 0 0 0 0.639068161  0 0 0 1 0" type="matrix" in="shadowBlurOuter1"></feColorMatrix>
        </filter>
    </defs>
    <g id="Inteligencia-Artificial" stroke="none" stroke-width="1" fill="none" fill-rule="evenodd">
        <g id="Boton-IA" transform="translate(-335.000000, -113.000000)">
            <g id="Group-11" transform="translate(313.000000, 90.000000)">
                <g id="Group-5" transform="translate(32.000000, 23.000000)">
                    <g id="Oval">
                        <use fill="black" fill-opacity="1" filter="url(#filter-4)" xlink:href="#path-3"></use>
                        <circle stroke="url(#linearGradient-2)" stroke-width="0.5" stroke-linejoin="square" fill="url(#linearGradient-1)" fill-rule="evenodd" cx="22.5" cy="22.5" r="22.25"></circle>
                    </g>
                    <g id="ia" transform="translate(4.500000, 4.500000)">
                        <path d="M36,0 L36,36 L0,36 L0,0 L36,0 Z" id="Vector"></path>
                        <path d="M25.7255859,14.625 C25.1042656,14.625 24.6005859,14.1213204 24.6005859,13.5 C24.6005859,12.8786796 25.1042656,12.375 25.7255859,12.375 C26.3469063,12.375 26.8505859,12.8786796 26.8505859,13.5 C26.8505859,14.1213204 26.3469063,14.625 25.7255859,14.625 Z" id="Vector"></path>
                        <path d="M23.8505859,13.5 C23.8505859,12.465 24.6905859,11.625 25.7255859,11.625 C26.7605859,11.625 27.6005859,12.465 27.6005859,13.5 C27.6005859,14.535 26.7605859,15.375 25.7255859,15.375 C24.6905859,15.375 23.8505859,14.535 23.8505859,13.5 Z M25.3505859,13.5 C25.3505859,13.92 26.1005859,13.92 26.1005859,13.5 C26.1005859,13.29 25.9355859,13.125 25.7255859,13.125 C25.5155859,13.125 25.3505859,13.29 25.3505859,13.5 Z" id="Vector" fill="#FFFFFF"></path>
                        <path d="M25.7255859,23.625 C25.1042656,23.625 24.6005859,23.1213204 24.6005859,22.5 C24.6005859,21.8786796 25.1042656,21.375 25.7255859,21.375 C26.3469063,21.375 26.8505859,21.8786796 26.8505859,22.5 C26.8505859,23.1213204 26.3469063,23.625 25.7255859,23.625 Z" id="Vector"></path>
                        <path d="M23.8505859,22.5 C23.8505859,21.465 24.6905859,20.625 25.7255859,20.625 C26.7605859,20.625 27.6005859,21.465 27.6005859,22.5 C27.6005859,23.535 26.7605859,24.375 25.7255859,24.375 C24.6905859,24.375 23.8505859,23.535 23.8505859,22.5 Z M25.3505859,22.5 C25.3505859,22.92 26.1005859,22.92 26.1005859,22.5 C26.1005859,22.29 25.9355859,22.125 25.7255859,22.125 C25.5155859,22.125 25.3505859,22.29 25.3505859,22.5 Z" id="Vector" fill="#FFFFFF"></path>
                        <path d="M29.625,19.125 C29.0036796,19.125 28.5,18.6213204 28.5,18 C28.5,17.3786796 29.0036796,16.875 29.625,16.875 C30.2463204,16.875 30.75,17.3786796 30.75,18 C30.75,18.6213204 30.2463204,19.125 29.625,19.125 Z" id="Vector"></path>
                        <path d="M27.75,18 C27.75,16.965 28.59,16.125 29.625,16.125 C30.66,16.125 31.5,16.965 31.5,18 C31.5,19.035 30.66,19.875 29.625,19.875 C28.59,19.875 27.75,19.035 27.75,18 Z M29.25,18 C29.25,18.42 30,18.42 30,18 C30,17.79 29.835,17.625 29.625,17.625 C29.415,17.625 29.25,17.79 29.25,18 Z" id="Vector" fill="#FFFFFF"></path>
                        <path d="M10.199707,14.625 C9.57838668,14.625 9.07470703,14.1213204 9.07470703,13.5 C9.07470703,12.8786796 9.57838668,12.375 10.199707,12.375 C10.8210274,12.375 11.324707,12.8786796 11.324707,13.5 C11.324707,14.1213204 10.8210274,14.625 10.199707,14.625 Z" id="Vector"></path>
                        <path d="M8.32470703,13.5 C8.32470703,12.465 9.16470703,11.625 10.199707,11.625 C11.234707,11.625 12.074707,12.465 12.074707,13.5 C12.074707,14.535 11.234707,15.375 10.199707,15.375 C9.16470703,15.375 8.32470703,14.535 8.32470703,13.5 Z M9.82470703,13.5 C9.82470703,13.92 10.574707,13.92 10.574707,13.5 C10.574707,13.29 10.409707,13.125 10.199707,13.125 C9.98970703,13.125 9.82470703,13.29 9.82470703,13.5 Z" id="Vector" fill="#FFFFFF"></path>
                        <path d="M10.199707,23.625 C9.57838668,23.625 9.07470703,23.1213204 9.07470703,22.5 C9.07470703,21.8786796 9.57838668,21.375 10.199707,21.375 C10.8210274,21.375 11.324707,21.8786796 11.324707,22.5 C11.324707,23.1213204 10.8210274,23.625 10.199707,23.625 Z" id="Vector"></path>
                        <path d="M8.32470703,22.5 C8.32470703,21.465 9.16470703,20.625 10.199707,20.625 C11.234707,20.625 12.074707,21.465 12.074707,22.5 C12.074707,23.535 11.234707,24.375 10.199707,24.375 C9.16470703,24.375 8.32470703,23.535 8.32470703,22.5 Z M9.82470703,22.5 C9.82470703,22.92 10.574707,22.92 10.574707,22.5 C10.574707,22.29 10.409707,22.125 10.199707,22.125 C9.98970703,22.125 9.82470703,22.29 9.82470703,22.5 Z" id="Vector" fill="#FFFFFF"></path>
                        <path d="M6.30029297,19.125 C5.67897262,19.125 5.17529297,18.6213204 5.17529297,18 C5.17529297,17.3786796 5.67897262,16.875 6.30029297,16.875 C6.92161332,16.875 7.42529297,17.3786796 7.42529297,18 C7.42529297,18.6213204 6.92161332,19.125 6.30029297,19.125 Z" id="Vector"></path>
                        <path d="M4.42529297,18 C4.42529297,16.965 5.26529297,16.125 6.30029297,16.125 C7.33529297,16.125 8.17529297,16.965 8.17529297,18 C8.17529297,19.035 7.33529297,19.875 6.30029297,19.875 C5.26529297,19.875 4.42529297,19.035 4.42529297,18 Z M5.92529297,18 C5.92529297,18.42 6.67529297,18.42 6.67529297,18 C6.67529297,17.79 6.51029297,17.625 6.30029297,17.625 C6.09029297,17.625 5.92529297,17.79 5.92529297,18 Z" id="Vector" fill="#FFFFFF"></path>
                        <path d="M23.8505859,8.92529297 C23.2292656,8.92529297 22.7255859,8.42161332 22.7255859,7.80029297 C22.7255859,7.17897262 23.2292656,6.67529297 23.8505859,6.67529297 C24.4719063,6.67529297 24.9755859,7.17897262 24.9755859,7.80029297 C24.9755859,8.42161332 24.4719063,8.92529297 23.8505859,8.92529297 Z" id="Vector"></path>
                        <path d="M21.9755859,7.80029261 C21.9755859,6.76529261 22.8155859,5.92529297 23.8505859,5.92529297 C24.8855859,5.92529297 25.7255859,6.76529261 25.7255859,7.80029261 C25.7255859,8.83529261 24.8855859,9.67529261 23.8505859,9.67529261 C22.8155859,9.67529261 21.9755859,8.83529261 21.9755859,7.80029261 Z M23.4755859,7.80029261 C23.4755859,8.22029261 24.2255859,8.22029261 24.2255859,7.80029261 C24.2255859,7.59029261 24.0605859,7.42529297 23.8505859,7.42529297 C23.6405859,7.42529297 23.4755859,7.59029261 23.4755859,7.80029261 Z" id="Vector" fill="#FFFFFF"></path>
                        <path d="M12.1494141,8.92529297 C11.5280937,8.92529297 11.0244141,8.42161332 11.0244141,7.80029297 C11.0244141,7.17897262 11.5280937,6.67529297 12.1494141,6.67529297 C12.7707344,6.67529297 13.2744141,7.17897262 13.2744141,7.80029297 C13.2744141,8.42161332 12.7707344,8.92529297 12.1494141,8.92529297 Z" id="Vector"></path>
                        <path d="M10.2744141,7.80029261 C10.2744141,6.76529261 11.1144141,5.92529297 12.1494141,5.92529297 C13.1844141,5.92529297 14.0244141,6.76529261 14.0244141,7.80029261 C14.0244141,8.83529261 13.1844141,9.67529261 12.1494141,9.67529261 C11.1144141,9.67529261 10.2744141,8.83529261 10.2744141,7.80029261 Z M11.7744141,7.80029261 C11.7744141,8.22029261 12.5244141,8.22029261 12.5244141,7.80029261 C12.5244141,7.59029261 12.3594141,7.42529297 12.1494141,7.42529297 C11.9394141,7.42529297 11.7744141,7.59029261 11.7744141,7.80029261 Z" id="Vector" fill="#FFFFFF"></path>
                        <path d="M18.074707,10.125 C17.4533867,10.125 16.949707,9.62132035 16.949707,9 C16.949707,8.37867965 17.4533867,7.875 18.074707,7.875 C18.6960274,7.875 19.199707,8.37867965 19.199707,9 C19.199707,9.62132035 18.6960274,10.125 18.074707,10.125 Z" id="Vector"></path>
                        <path d="M16.199707,9 C16.199707,7.965 17.039707,7.125 18.074707,7.125 C19.109707,7.125 19.949707,7.965 19.949707,9 C19.949707,10.035 19.109707,10.875 18.074707,10.875 C17.039707,10.875 16.199707,10.035 16.199707,9 Z M17.699707,9 C17.699707,9.42 18.449707,9.42 18.449707,9 C18.449707,8.79 18.284707,8.625 18.074707,8.625 C17.864707,8.625 17.699707,8.79 17.699707,9 Z" id="Vector" fill="#FFFFFF"></path>
                        <path d="M23.8505859,29.625 C23.2292656,29.625 22.7255859,29.1213204 22.7255859,28.5 C22.7255859,27.8786796 23.2292656,27.375 23.8505859,27.375 C24.4719063,27.375 24.9755859,27.8786796 24.9755859,28.5 C24.9755859,29.1213204 24.4719063,29.625 23.8505859,29.625 Z" id="Vector"></path>
                        <path d="M21.9755859,28.5 C21.9755859,27.465 22.8155859,26.625 23.8505859,26.625 C24.8855859,26.625 25.7255859,27.465 25.7255859,28.5 C25.7255859,29.535 24.8855859,30.375 23.8505859,30.375 C22.8155859,30.375 21.9755859,29.535 21.9755859,28.5 Z M23.4755859,28.5 C23.4755859,28.92 24.2255859,28.92 24.2255859,28.5 C24.2255859,28.29 24.0605859,28.125 23.8505859,28.125 C23.6405859,28.125 23.4755859,28.29 23.4755859,28.5 Z" id="Vector" fill="#FFFFFF"></path>
                        <path d="M12.1494141,29.625 C11.5280937,29.625 11.0244141,29.1213204 11.0244141,28.5 C11.0244141,27.8786796 11.5280937,27.375 12.1494141,27.375 C12.7707344,27.375 13.2744141,27.8786796 13.2744141,28.5 C13.2744141,29.1213204 12.7707344,29.625 12.1494141,29.625 Z" id="Vector"></path>
                        <path d="M10.2744141,28.5 C10.2744141,27.465 11.1144141,26.625 12.1494141,26.625 C13.1844141,26.625 14.0244141,27.465 14.0244141,28.5 C14.0244141,29.535 13.1844141,30.375 12.1494141,30.375 C11.1144141,30.375 10.2744141,29.535 10.2744141,28.5 Z M11.7744141,28.5 C11.7744141,28.92 12.5244141,28.92 12.5244141,28.5 C12.5244141,28.29 12.3594141,28.125 12.1494141,28.125 C11.9394141,28.125 11.7744141,28.29 11.7744141,28.5 Z" id="Vector" fill="#FFFFFF"></path>
                        <path d="M18.074707,28.425293 C17.4533867,28.425293 16.949707,27.9216133 16.949707,27.300293 C16.949707,26.6789726 17.4533867,26.175293 18.074707,26.175293 C18.6960274,26.175293 19.199707,26.6789726 19.199707,27.300293 C19.199707,27.9216133 18.6960274,28.425293 18.074707,28.425293 Z" id="Vector"></path>
                        <path d="M16.199707,27.300293 C16.199707,26.265293 17.039707,25.425293 18.074707,25.425293 C19.109707,25.425293 19.949707,26.265293 19.949707,27.300293 C19.949707,28.335293 19.109707,29.175293 18.074707,29.175293 C17.039707,29.175293 16.199707,28.335293 16.199707,27.300293 Z M17.699707,27.300293 C17.699707,27.720293 18.449707,27.720293 18.449707,27.300293 C18.449707,27.090293 18.284707,26.925293 18.074707,26.925293 C17.864707,26.925293 17.699707,27.090293 17.699707,27.300293 Z" id="Vector" fill="#FFFFFF"></path>
                        <path d="M12.75,18.15 C12.75,15.2450001 15.0950001,12.9 18,12.9 C20.9049999,12.9 23.25,15.2450001 23.25,18.15 C23.25,21.0549999 20.9049999,23.4 18,23.4 C15.0950001,23.4 12.75,21.0549999 12.75,18.15 Z M16.25,18.15 C16.25,19.13 17.02,19.9 18,19.9 C18.98,19.9 19.75,19.13 19.75,18.15 C19.75,17.17 18.98,16.4 18,16.4 C17.02,16.4 16.25,17.17 16.25,18.15 Z" id="Vector" fill="#FFFFFF"></path>
                    </g>
                </g>
            </g>
        </g>
    </g>
</svg>