<svg width="20" height="20" viewBox="0 0 20 20" xmlns="http://www.w3.org/2000/svg">
    <g fill="none" fill-rule="evenodd">
        <circle fill="#FFF" opacity=".108" cx="10" cy="10" r="9.302"/>
        <g fill="#D8DFE3">
            <path d="M0 10C0 4.484 4.484 0 10 0s10 4.484 10 10-4.484 10-10 10S0 15.516 0 10zm1.395 0c0 4.744 3.86 8.605 8.605 8.605 4.744 0 8.605-3.86 8.605-8.605 0-4.744-3.86-8.605-8.605-8.605-4.744 0-8.605 3.86-8.605 8.605z"/>
            <path d="M7.674 10.698A.703.703 0 0 1 6.977 10c0-.381.316-.698.697-.698h5.582c.381 0 .697.317.697.698a.703.703 0 0 1-.697.698H7.674z" fill-rule="nonzero"/>
            <path d="m9.041 13.284-2.79-2.791a.702.702 0 0 1 0-.986l2.79-2.79c.27-.27.717-.27.986 0 .27.269.27.716 0 .985L7.73 10l2.297 2.298c.27.27.27.716 0 .986a.69.69 0 0 1-.493.204.69.69 0 0 1-.493-.204z" fill-rule="nonzero"/>
        </g>
    </g>
</svg>
