<svg width="127" height="115" viewBox="0 0 127 115" xmlns="http://www.w3.org/2000/svg">
    <g fill="#009ED7" fill-rule="evenodd">
        <path d="M53.57 31.144c6.742 0 12.224 5.505 12.224 12.34 0 6.793-5.482 12.307-12.223 12.307-6.741 0-12.193-5.514-12.193-12.308 0-6.834 5.452-12.339 12.193-12.339zm0 65.41L18.389 44.12 53.571 74.54l42.56-43.2C86.492 18.03 70.802 9.363 53.067 9.363 23.762 9.363 0 33.008 0 62.182 0 91.355 23.762 115 53.068 115c29.307 0 53.064-23.645 53.064-52.818 0-9.385-2.47-18.19-6.78-25.825L53.571 96.554zM127 0 96.13 31.338a51.905 51.905 0 0 1 3.223 5.019L127 0z"/>
    </g>
</svg>
