<svg width="426" height="53" viewBox="0 0 426 53" xmlns="http://www.w3.org/2000/svg">
    <g fill="none" fill-rule="evenodd">
        <path d="M419.514 7.42h.53c.62 0 1.112-.202 1.112-.708 0-.44-.318-.737-1.024-.737-.3 0-.505.034-.618.058V7.42zm-.032 2.74h-1.12V5.33c.438-.09 1.055-.15 1.854-.15.916 0 1.325.15 1.684.36.262.207.47.585.47 1.056 0 .528-.418.95-1.007 1.123v.058c.47.175.73.524.889 1.18.144.739.237 1.03.348 1.204h-1.208c-.148-.173-.236-.616-.378-1.18-.087-.533-.388-.764-1.005-.764h-.527v1.944zm-2.977-2.528c0 2.146 1.584 3.856 3.777 3.856 2.114 0 3.685-1.71 3.685-3.827 0-2.16-1.571-3.891-3.72-3.891-2.158 0-3.742 1.73-3.742 3.862zm8.692 0c0 2.739-2.158 4.884-4.95 4.884-2.771 0-4.977-2.145-4.977-4.884 0-2.688 2.206-4.833 4.978-4.833 2.79 0 4.949 2.145 4.949 4.833z" fill="#666767"/>
        <path fill="#009ED7" d="M0 51.252h35.804v-8.374H8.377v-12.45h21.436v-8.442H8.377V9.6h27.427V1.157H0zM55.608 1.073h-8.44v13.328H40.02v8.443h7.147v28.513h8.441V22.844h7.146v-8.443h-7.146zM84.94 11.91c-3.689 0-6.88 1.148-9.526 3.415V1.157H67.04v50.095h8.373V28.587c0-2.313.797-4.236 2.434-5.872 1.634-1.634 3.553-2.43 5.87-2.43 2.313 0 4.233.796 5.87 2.433 1.635 1.633 2.432 3.556 2.432 5.869v22.665h8.441V28.587c0-4.37-1.454-8.238-4.316-11.49-3.003-3.44-6.769-5.187-11.204-5.187M110.397 0c-1.512 0-2.8.52-3.83 1.55-1.026 1.028-1.551 2.316-1.551 3.83 0 1.513.524 2.8 1.551 3.826 1.027 1.028 2.316 1.55 3.83 1.55 1.502 0 2.797-.517 3.849-1.537 1.059-1.029 1.596-2.319 1.596-3.84 0-1.519-.537-2.81-1.596-3.842C113.194.517 111.9 0 110.396 0M106.242 51.252h8.374V13.07h-8.374zM131.34 23.806c2.369-2.371 5.135-3.52 8.459-3.52 3.654 0 6.666 1.419 9.216 4.344l.697.8 6.969-4.488-.792-1.054a19.656 19.656 0 0 0-7.108-5.877 20.21 20.21 0 0 0-8.982-2.101c-5.576 0-10.401 2-14.345 5.943-3.941 3.939-5.938 8.77-5.938 14.343 0 5.53 1.997 10.333 5.938 14.275 3.986 3.986 8.81 6.005 14.345 6.005 3.126 0 6.149-.718 8.985-2.134a19.888 19.888 0 0 0 7.105-5.91l.792-1.053-6.97-4.485-.696.797c-2.547 2.927-5.562 4.346-9.216 4.346-3.372 0-6.138-1.127-8.442-3.44-2.332-2.411-3.468-5.162-3.468-8.401 0-1.69.289-3.223.856-4.558.57-1.351 1.452-2.646 2.596-3.832M186.733 30.1c-.146-.058-.453-.18-3.293-.77-1.842-.392-4.532-.945-8.089-1.674-5.06-.968-5.06-2.919-5.06-3.562 0-.8.236-1.973 2.272-2.898 1.335-.606 2.975-.91 4.873-.91 1.894 0 3.504.302 4.802.91 2.035.925 2.273 2.098 2.273 2.898v1.228h8.444v-1.228c0-3.826-1.787-6.942-5.319-9.263-2.959-1.938-6.392-2.92-10.2-2.92-3.91 0-7.347.987-10.193 2.918-3.537 2.271-5.326 5.391-5.326 9.265 0 5.03 2.277 8.464 6.83 10.218.134.047.49.163 3.3.75 1.835.386 4.53.944 8.085 1.673 4.991.963 4.991 2.867 4.991 3.49 0 .942 0 3.812-7.687 3.812-2.226 0-3.965-.266-5.206-.805-2.288-.884-2.552-2.14-2.552-3.008v-1.228h-8.374v1.228c0 3.928 1.865 7.093 5.568 9.43a20.274 20.274 0 0 0 4.928 2.098c1.726.48 3.621.724 5.636.724 2.012 0 3.901-.244 5.608-.726a20.532 20.532 0 0 0 4.915-2.116c3.676-2.317 5.541-5.482 5.541-9.41 0-4.98-2.279-8.39-6.767-10.124"/>
        <path d="M222.764 30.428h14.973v7.186c-3.56 4.322-8.06 6.423-13.748 6.423-4.925 0-9.028-1.71-12.544-5.23-3.557-3.508-5.285-7.634-5.285-12.602 0-4.969 1.728-9.09 5.29-12.609 3.51-3.515 7.61-5.222 12.539-5.222 2.782 0 5.476.633 7.999 1.878a17.17 17.17 0 0 1 6.259 5.245l.708.96 6.912-4.802-.743-1.012c-2.463-3.367-5.586-6.011-9.287-7.857A26.238 26.238 0 0 0 223.989 0c-7.2 0-13.444 2.594-18.572 7.719-5.066 5.158-7.631 11.379-7.631 18.486 0 7.105 2.565 13.347 7.645 18.566 5.159 5.114 11.403 7.705 18.558 7.705 4.456 0 8.66-1.056 12.499-3.141 3.834-2.082 7.005-5.015 9.42-8.713l.203-.301V21.986h-23.347v8.442zM251.894 51.252h8.373V1.157h-8.373zM285.447 44.037c-3.368 0-6.132-1.127-8.439-3.438-2.334-2.413-3.468-5.164-3.468-8.403 0-1.69.286-3.223.855-4.558.572-1.351 1.453-2.643 2.6-3.832 2.367-2.371 5.132-3.52 8.452-3.52 3.272 0 5.99 1.147 8.321 3.52 2.371 2.368 3.52 5.112 3.52 8.39 0 3.276-1.149 6.02-3.528 8.395-2.273 2.319-4.993 3.446-8.313 3.446m0-32.127c-5.576 0-10.4 2-14.34 5.943-3.945 3.94-5.94 8.77-5.94 14.343 0 5.53 1.995 10.333 5.94 14.275 3.986 3.986 8.81 6.005 14.34 6.005 5.437 0 10.26-2.016 14.346-6.005 3.941-3.942 5.94-8.744 5.94-14.275 0-5.573-1.999-10.402-5.945-14.348-3.987-3.94-8.813-5.938-14.34-5.938M342.754 32.196c0 3.275-1.151 6.021-3.527 8.395-2.277 2.318-4.996 3.446-8.314 3.446-3.367 0-6.134-1.128-8.44-3.439-2.336-2.412-3.466-5.163-3.466-8.402 0-1.689.285-3.224.854-4.559.569-1.35 1.45-2.643 2.596-3.831 2.366-2.371 5.136-3.52 8.456-3.52 3.27 0 5.99 1.146 8.32 3.52 2.37 2.368 3.52 5.112 3.52 8.39M332.073 11.91c-5.18 0-9.56 1.83-13.065 5.442V1.157h-8.377v50.095h8.377v-4.236c3.532 3.627 7.914 5.46 13.065 5.46 5.468 0 10.08-2.084 13.698-6.181 3.6-3.936 5.426-8.681 5.426-14.099 0-5.374-1.846-10.137-5.475-14.152-3.588-4.07-8.181-6.134-13.65-6.134M383.203 23.806c2.365 2.368 3.52 5.112 3.52 8.39 0 3.276-1.155 6.02-3.528 8.395-2.276 2.319-4.996 3.446-8.313 3.446-3.368 0-6.135-1.127-8.443-3.44-2.332-2.411-3.467-5.162-3.467-8.401 0-1.69.286-3.223.855-4.558.571-1.35 1.45-2.644 2.597-3.832 2.368-2.371 5.134-3.52 8.458-3.52 3.27 0 5.986 1.146 8.321 3.52zm3.52-6.475c-3.48-3.598-7.86-5.421-13.067-5.421-5.424 0-10.013 2.062-13.64 6.12-3.595 3.983-5.418 8.75-5.418 14.166 0 5.465 1.802 10.207 5.35 14.089 3.671 4.109 8.284 6.19 13.708 6.19 5.175 0 9.56-1.824 13.067-5.438v4.215h8.442V13.069h-8.442v4.262zM401.559 51.252h8.377V1.157h-8.377z" fill="#546E7A"/>
    </g>
</svg>
