<svg width="24" height="24" viewBox="0 0 24 24" xmlns="http://www.w3.org/2000/svg">
    <g fill="#292D32" fill-rule="evenodd">
        <path d="M12.25 12.75H8.5v3.99c0 .28.23.51.51.51h4.74c1.24 0 2.25-1.01 2.25-2.25s-1.01-2.25-2.25-2.25h-1.5zM12.25 6.75H9.01c-.28 0-.51.23-.51.51v3.99h3.75c1.24 0 2.25-1.01 2.25-2.25s-1.01-2.25-2.25-2.25z" fill-rule="nonzero"/>
        <path d="M19.87 3.05C18.92 2.36 17.68 2 16.19 2H7.81c-.2 0-.4.01-.59.03C3.94 2.24 2 4.37 2 7.81v8.38c0 1.49.36 2.73 1.05 3.68.29.42.66.79 1.08 1.08.82.6 1.86.95 3.09 1.03.19.01.39.02.59.02h8.38c3.64 0 5.81-2.17 5.81-5.81V7.81c0-1.49-.36-2.73-1.05-3.68-.29-.42-.66-.79-1.08-1.08zM9.01 18.75c-1.11 0-2.01-.9-2.01-2.01V7.26c0-1.11.9-2.01 2.01-2.01h3.24C14.32 5.25 16 6.93 16 9c0 .96-.37 1.83-.97 2.49 1.43.53 2.47 1.89 2.47 3.51 0 2.07-1.68 3.75-3.75 3.75H9.01z"/>
    </g>
</svg>
