<svg width="24" height="24" viewBox="0 0 24 24" xmlns="http://www.w3.org/2000/svg">
    <g fill="#292D32" fill-rule="evenodd">
        <path d="M7.75 12V7.22c0-.41.34-.75.75-.75s.75.34.75.75V12c0 .41-.34.75-.75.75s-.75-.34-.75-.75zM7.75 22v-3c0-.41.34-.75.75-.75s.75.34.75.75v3c0 .41-.34.75-.75.75s-.75-.34-.75-.75zM14.75 22V7.22c0-.41.34-.75.75-.75s.75.34.75.75V22c0 .41-.34.75-.75.75s-.75-.34-.75-.75z" fill-rule="nonzero"/>
        <path d="M6.05 7.85a.74.74 0 0 1-.67-.42c-.13-.26-.1-.56.07-.79.19-.25.3-.57.3-.9v-.9c0-.32-.11-.64-.3-.9a.752.752 0 0 1-.07-.79.77.77 0 0 1 .67-.42H8.3a2.548 2.548 0 0 1 1.79 4.36c-.46.49-1.1.76-1.79.76H6.05zm2.25-1.5c.28 0 .54-.11.73-.3.21-.2.32-.46.32-.75 0-.58-.47-1.05-1.05-1.05H7.19c.04.2.06.4.06.6v.9c0 .2-.02.4-.06.6H8.3z"/>
        <path d="M1.79 7.72c-.31-.28-.53-.78-.53-1.22V4.16c0-.39.18-.85.44-1.12.93-.97 1.89-1.18 2.53-1.19h.03a2.997 2.997 0 0 1 2.41 1.22c.37.49.58 1.13.58 1.78v.9a2.988 2.988 0 0 1-2.7 2.98c-.09.01-.2.02-.3.02-.66 0-1.54-.21-2.46-1.03zm2.44-4.37c-.51.01-1.01.26-1.46.73a.424.424 0 0 0-.02.1v2.33c0 .02.03.09.05.12.51.45 1.07.68 1.6.62a1.498 1.498 0 0 0 1.35-1.49v-.9c0-.32-.11-.64-.3-.9-.05-.08-.1-.12-.14-.17-.28-.28-.66-.44-1.06-.44h-.02zM15.7 7.85c-.69 0-1.33-.27-1.81-.76-.47-.46-.74-1.1-.74-1.79 0-1.41 1.14-2.55 2.55-2.55h2.25c.28 0 .54.16.67.42.13.25.1.56-.07.79-.19.25-.3.57-.3.9v.9c0 .33.11.64.3.9.17.23.2.53.07.79-.12.24-.38.4-.67.4H15.7zM14.65 5.3c0 .28.11.54.3.73.2.21.46.32.75.32h1.11c-.04-.2-.06-.4-.06-.6v-.9c0-.2.02-.4.06-.6H15.7c-.58 0-1.05.47-1.05 1.05z"/>
        <path d="M19.44 8.74c-.83-.08-1.59-.51-2.1-1.18-.39-.51-.6-1.15-.6-1.8v-.9c0-.65.21-1.29.6-1.8.07-.1.17-.22.27-.32.56-.56 1.33-.88 2.12-.88h.03c.64.01 1.6.22 2.53 1.19.26.27.44.73.44 1.12v2.34c0 .44-.22.94-.53 1.21-.91.82-1.79 1.03-2.45 1.03-.11 0-.21-.01-.31-.01zm-.75-4.95c-.04.04-.08.09-.12.14-.21.28-.32.6-.32.92v.9c0 .33.11.64.3.9.26.34.63.55 1.05.6.53.06 1.09-.17 1.63-.64l.03-.1V4.18c0-.02-.03-.09-.04-.11-.43-.45-.93-.7-1.44-.7-.02-.02-.02-.02-.03-.02-.4 0-.79.16-1.06.44zM6.25 17.5v-4c0-1.24 1.01-2.25 2.25-2.25s2.25 1.01 2.25 2.25v4c0 1.24-1.01 2.25-2.25 2.25s-2.25-1.01-2.25-2.25zm1.5-4v4c0 .41.34.75.75.75s.75-.34.75-.75v-4c0-.41-.34-.75-.75-.75s-.75.34-.75.75z"/>
    </g>
</svg>
