<svg width="24" height="24" viewBox="0 0 24 24" xmlns="http://www.w3.org/2000/svg">
    <g fill="#292D32" fill-rule="nonzero">
        <path d="M13.91 7.03 11.88 5 9.85 7.03c-.29.29-.77.29-1.06 0a.754.754 0 0 1 0-1.06l2.56-2.56c.29-.29.77-.29 1.06 0l2.56 2.56c.29.29.29.77 0 1.06-.15.15-.34.22-.53.22s-.38-.07-.53-.22z"/>
        <path d="M11.13 14.18V4.01c0-.41.34-.75.75-.75s.75.34.75.75v10.17a.749.749 0 1 1-1.5 0z"/>
        <path d="M3.25 12c0-.41.34-.75.75-.75s.75.34.75.75c0 4.27 2.98 7.25 7.25 7.25s7.25-2.98 7.25-7.25c0-.41.34-.75.75-.75s.75.34.75.75c0 5.15-3.6 8.75-8.75 8.75S3.25 17.15 3.25 12z"/>
    </g>
</svg>
