<svg width="24" height="24" viewBox="0 0 24 24" xmlns="http://www.w3.org/2000/svg">
    <g fill="#292D32" fill-rule="nonzero">
        <path d="M18.51 18.9V7.1c0-1.01-.21-1.35-1.48-1.35h-1.04c-1.27 0-1.48.34-1.48 1.35v11.8c0 .41-.34.75-.75.75s-.75-.34-.75-.75V7.1c0-1.92.98-2.85 2.98-2.85h1.04c2.01 0 2.98.93 2.98 2.85v11.8c0 .41-.34.75-.75.75s-.75-.34-.75-.75zM10.01 18.9v-6.8c0-1.01-.21-1.35-1.48-1.35H7.49c-1.27 0-1.48.34-1.48 1.35v6.8c0 .41-.34.75-.75.75s-.75-.34-.75-.75v-6.8c0-1.92.98-2.85 2.98-2.85h1.04c2.01 0 2.98.93 2.98 2.85v6.8c0 .41-.34.75-.75.75s-.75-.34-.75-.75z"/>
        <path d="M2 19.75a.749.749 0 1 1 0-1.5h20a.749.749 0 1 1 0 1.5H2z"/>
    </g>
</svg>
