<svg width="24" height="24" viewBox="0 0 24 24" xmlns="http://www.w3.org/2000/svg">
    <g fill="#292D32" fill-rule="nonzero">
        <path d="M21.25 7.85c0 1.84-.56 2.4-2.4 2.4h-2.7c-1.84 0-2.4-.56-2.4-2.4v-2.7c0-1.84.56-2.4 2.4-2.4h2.7c1.84 0 2.4.56 2.4 2.4v2.7zM10.25 18.85c0 1.84-.56 2.4-2.4 2.4h-2.7c-1.84 0-2.4-.56-2.4-2.4v-2.7c0-1.84.56-2.4 2.4-2.4h2.7c1.84 0 2.4.56 2.4 2.4v2.7z"/>
        <path d="M16.63 13.621c0 2.28-.73 3.01-3.01 3.01h-1.39a.48.48 0 0 1-.48-.48c0-2.66-1.24-3.9-3.9-3.9a.48.48 0 0 1-.48-.48v-1.39c0-2.28.73-3.01 3.01-3.01h1.39a.48.48 0 0 1 .48.48c0 2.66 1.24 3.9 3.9 3.9a.48.48 0 0 1 .48.48v1.39z"/>
    </g>
</svg>
