<svg width="24" height="24" viewBox="0 0 24 24" xmlns="http://www.w3.org/2000/svg">
    <g fill="#292D32" fill-rule="evenodd">
        <path d="M1.25 12C1.25 6.07 6.07 1.25 12 1.25S22.75 6.07 22.75 12 17.93 22.75 12 22.75 1.25 17.93 1.25 12zm1.5 0c0 5.1 4.15 9.25 9.25 9.25s9.25-4.15 9.25-9.25S17.1 2.75 12 2.75 2.75 6.9 2.75 12z"/>
        <path d="M13.9 17.25c-.3 0-.57-.17-.69-.45a.75.75 0 0 1 .13-.81l1.62-1.79c.67-.75 1.05-1.7 1.05-2.68 0-1-.41-1.94-1.16-2.65A4.182 4.182 0 0 0 12 7.75c-1.06 0-2.1.41-2.85 1.12-.75.71-1.16 1.65-1.16 2.65 0 .98.37 1.93 1.05 2.68l1.62 1.79a.753.753 0 0 1-.56 1.26H7c-.41 0-.75-.34-.75-.75s.34-.75.75-.75h1.41l-.49-.54a5.507 5.507 0 0 1-1.43-3.69c0-1.39.59-2.76 1.63-3.74A5.595 5.595 0 0 1 12 6.25c1.46 0 2.84.54 3.88 1.53 1.03.98 1.63 2.35 1.63 3.74 0 1.35-.51 2.66-1.43 3.69l-.49.54H17c.41 0 .75.34.75.75s-.34.75-.75.75h-3.1z" fill-rule="nonzero"/>
    </g>
</svg>
