<svg width="24" height="24" viewBox="0 0 24 24" xmlns="http://www.w3.org/2000/svg">
    <g fill="#292D32" fill-rule="evenodd">
        <path d="M15.39 21.07c-.01-.02-.07-.07-.12-.15-.11-.11-.24-.31-.35-.5-.44-.71-.68-1.55-.68-2.43 0-1.46.65-2.81 1.78-3.71.84-.67 1.9-1.04 2.97-1.04 1.16 0 2.23.4 3.09 1.15.12.08.26.23.39.37.81.89 1.26 2.03 1.26 3.22 0 .87-.24 1.72-.69 2.45-.24.42-.57.8-.95 1.12-.81.78-1.92 1.2-3.09 1.2-1.4 0-2.71-.61-3.61-1.68zm1.58-5.6a3.224 3.224 0 0 0-.75 4.2c.08.14.16.25.25.36.02.02.08.08.13.16.55.65 1.45 1.07 2.4 1.07.79 0 1.55-.29 2.13-.81.26-.22.48-.48.64-.76.32-.51.48-1.09.48-1.68 0-.81-.31-1.6-.87-2.21-.07-.08-.15-.16-.23-.22a3.16 3.16 0 0 0-2.15-.83c-.74 0-1.44.25-2.03.72z"/>
        <path d="M17.5 18.73c-.41 0-.75-.34-.75-.75s.34-.75.75-.75h2.99a.749.749 0 1 1 0 1.5H17.5z" fill-rule="nonzero"/>
        <path d="M18.25 19.51v-2.99c0-.41.34-.75.75-.75s.75.34.75.75v2.99a.749.749 0 1 1-1.5 0zM11.62 13.2 2.79 8.09a.752.752 0 0 1-.27-1.03c.21-.36.67-.48 1.02-.27l8.45 4.89 8.4-4.86c.36-.21.82-.08 1.02.27.21.36.08.82-.27 1.03l-8.77 5.08a.746.746 0 0 1-.75 0z" fill-rule="nonzero"/>
        <path d="M11.25 21.61v-9.07c0-.41.34-.75.75-.75s.75.34.75.75v9.07c0 .41-.34.75-.75.75s-.75-.34-.75-.75z" fill-rule="nonzero"/>
        <path d="m9.559 22.17-5.34-2.96c-1.45-.8-2.59-2.73-2.59-4.39V9.16c0-1.66 1.14-3.58 2.59-4.39l5.34-2.96c1.36-.77 3.5-.77 4.87 0l5.34 2.96c1.45.8 2.59 2.73 2.59 4.39v5.66c0 .1 0 .18-.02.28-.05.26-.24.48-.49.56-.25.09-.53.03-.74-.14-1.15-1-2.93-1.04-4.14-.07a3.224 3.224 0 0 0-.75 4.2c.08.14.16.25.25.36a.738.738 0 0 1-.21 1.14l-1.83 1.01c-.68.4-1.55.59-2.43.59-.88 0-1.76-.19-2.44-.58zm.74-19.04-5.34 2.96c-.97.53-1.81 1.97-1.81 3.07v5.66c0 1.1.85 2.54 1.81 3.07l5.34 2.96c.91.51 2.5.51 3.41 0l1.12-.62a4.67 4.67 0 0 1-.57-2.25c0-1.46.65-2.81 1.78-3.71 1.36-1.09 3.31-1.32 4.83-.67V9.14c0-1.1-.85-2.54-1.81-3.07l-5.34-2.96c-.47-.23-1.1-.36-1.72-.36-.62 0-1.25.13-1.7.38z"/>
    </g>
</svg>
