<svg width="24" height="24" viewBox="0 0 24 24" xmlns="http://www.w3.org/2000/svg">
    <g fill="#292D32" fill-rule="nonzero">
        <path d="M11 20.25c-.41 0-.75-.34-.75-.75s.34-.75.75-.75h10c.41 0 .75.34.75.75s-.34.75-.75.75H11zM11 13.25c-.41 0-.75-.34-.75-.75s.34-.75.75-.75h10c.41 0 .75.34.75.75s-.34.75-.75.75H11zM11 6.25c-.41 0-.75-.34-.75-.75s.34-.75.75-.75h10c.41 0 .75.34.75.75s-.34.75-.75.75H11zM3.47 7.03l-1-1a.754.754 0 0 1 0-1.06c.29-.29.77-.29 1.06 0l.47.47 2.47-2.47c.29-.29.77-.29 1.06 0 .29.29.29.77 0 1.06l-3 3c-.15.15-.34.22-.53.22s-.38-.07-.53-.22zM3.47 14.03l-1-1a.754.754 0 0 1 0-1.06c.29-.29.77-.29 1.06 0l.47.47 2.47-2.47c.29-.29.77-.29 1.06 0 .29.29.29.77 0 1.06l-3 3c-.15.15-.34.22-.53.22s-.38-.07-.53-.22zM3.47 21.03l-1-1a.754.754 0 0 1 0-1.06c.29-.29.77-.29 1.06 0l.47.47 2.47-2.47c.29-.29.77-.29 1.06 0 .29.29.29.77 0 1.06l-3 3c-.15.15-.34.22-.53.22s-.38-.07-.53-.22z"/>
    </g>
</svg>
