<svg width="24" height="24" viewBox="0 0 24 24" xmlns="http://www.w3.org/2000/svg">
    <g fill="#292D32" fill-rule="nonzero">
        <path d="M12 22.51c-1.36 0-2.72-.52-3.78-1.54-.36-.34-.72-.72-1.08-1.11l12.9-12.9c.25.54.44 1.11.58 1.74 1.17 5.16-1.99 9.52-4.84 12.28A5.436 5.436 0 0 1 12 22.51zM20.679 2.229l-18.45 18.46c-.3.3-.3.79 0 1.09a.758.758 0 0 0 1.08-.01l18.46-18.46c.31-.3.31-.78 0-1.08-.3-.3-.79-.3-1.09 0z"/>
        <path d="M11.999 7.16c1.31 0 2.43.8 2.91 1.94l3.98-3.98C17.119 2.98 14.439 2 11.999 2c-1.77 0-3.66.52-5.24 1.61-1.58 1.1-2.86 2.77-3.38 5.08-.84 3.67.52 6.95 2.41 9.52l5-5a3.144 3.144 0 0 1 1.21-6.05z"/>
    </g>
</svg>
