<svg width="24" height="24" viewBox="0 0 24 24" xmlns="http://www.w3.org/2000/svg">
    <g fill="#292D32" fill-rule="evenodd">
        <path d="M8.5 11.25c-.41 0-.75-.34-.75-.75s.34-.75.75-.75h7c.41 0 .75.34.75.75s-.34.75-.75.75h-7z" fill-rule="nonzero"/>
        <path d="m15.03 22.03-4.26-2.84H7c-3.44 0-5.75-2.31-5.75-5.75v-6C1.25 4 3.56 1.69 7 1.69h10c3.44 0 5.75 2.31 5.75 5.75v6c0 3.18-1.98 5.4-5 5.71v1.42c0 .65-.35 1.24-.92 1.54a1.763 1.763 0 0 1-1.8-.08zM2.75 7.43v6c0 2.58 1.67 4.25 4.25 4.25h4c.15 0 .29.04.42.13l4.45 2.96c.11.07.21.04.26.01.05-.03.13-.09.13-.22v-2.13c0-.41.34-.75.75-.75 2.58 0 4.25-1.67 4.25-4.25v-6c0-2.58-1.67-4.25-4.25-4.25H7c-2.58 0-4.25 1.67-4.25 4.25z"/>
    </g>
</svg>
