<svg width="24" height="24" viewBox="0 0 24 24" xmlns="http://www.w3.org/2000/svg">
    <g fill="#292D32" fill-rule="evenodd">
        <path d="M3 11.75c-.96 0-1.75-.79-1.75-1.75V6.68c0-.68.47-1.37 1.1-1.62l9-3.6c.38-.15.92-.15 1.3 0l9 3.6c.63.25 1.1.95 1.1 1.62V10c0 .96-.79 1.75-1.75 1.75H3zm8.9-8.9-8.99 3.6c-.06.03-.16.16-.16.23V10c0 .14.11.25.25.25h18c.14 0 .25-.11.25-.25V6.68c0-.07-.09-.2-.16-.23l-9-3.6c-.02-.01-.05-.01-.09-.01-.04 0-.08 0-.1.01zM2 22.75c-.41 0-.75-.34-.75-.75v-3c0-.96.79-1.75 1.75-1.75h18c.96 0 1.75.79 1.75 1.75v3c0 .41-.34.75-.75.75H2zm19.25-1.5V19c0-.14-.11-.25-.25-.25H3c-.14 0-.25.11-.25.25v2.25h18.5z"/>
        <path d="M3.25 18v-7c0-.41.34-.75.75-.75s.75.34.75.75v7c0 .41-.34.75-.75.75s-.75-.34-.75-.75zM7.25 18v-7c0-.41.34-.75.75-.75s.75.34.75.75v7c0 .41-.34.75-.75.75s-.75-.34-.75-.75zM11.25 18v-7c0-.41.34-.75.75-.75s.75.34.75.75v7c0 .41-.34.75-.75.75s-.75-.34-.75-.75zM15.25 18v-7c0-.41.34-.75.75-.75s.75.34.75.75v7c0 .41-.34.75-.75.75s-.75-.34-.75-.75zM19.25 18v-7c0-.41.34-.75.75-.75s.75.34.75.75v7c0 .41-.34.75-.75.75s-.75-.34-.75-.75zM1 22.75c-.41 0-.75-.34-.75-.75s.34-.75.75-.75h22c.41 0 .75.34.75.75s-.34.75-.75.75H1z" fill-rule="nonzero"/>
        <path d="M9.75 7c0-1.24 1.01-2.25 2.25-2.25S14.25 5.76 14.25 7 13.24 9.25 12 9.25 9.75 8.24 9.75 7zm1.5 0c0 .41.34.75.75.75s.75-.34.75-.75-.34-.75-.75-.75-.75.34-.75.75z"/>
    </g>
</svg>
