<svg width="24" height="24" viewBox="0 0 24 24" xmlns="http://www.w3.org/2000/svg">
    <g fill="#292D32" fill-rule="nonzero">
        <path d="M2.25 15.75v-7.5c0-.41.34-.75.75-.75s.75.34.75.75v7.5c0 .41-.34.75-.75.75s-.75-.34-.75-.75zM6.75 18.25V5.75c0-.41.34-.75.75-.75s.75.34.75.75v12.5c0 .41-.34.75-.75.75s-.75-.34-.75-.75zM11.25 20.75V3.25c0-.41.34-.75.75-.75s.75.34.75.75v17.5c0 .41-.34.75-.75.75s-.75-.34-.75-.75zM15.75 18.25V5.75c0-.41.34-.75.75-.75s.75.34.75.75v12.5c0 .41-.34.75-.75.75s-.75-.34-.75-.75zM20.25 15.75v-7.5c0-.41.34-.75.75-.75s.75.34.75.75v7.5c0 .41-.34.75-.75.75s-.75-.34-.75-.75z"/>
    </g>
</svg>
