<svg width="24" height="24" viewBox="0 0 24 24" xmlns="http://www.w3.org/2000/svg">
    <g fill="#292D32" fill-rule="evenodd">
        <path d="M10.26 16.58a2.732 2.732 0 0 1 0-3.88l1.41-1.41c.29-.29.77-.29 1.06 0 .29.29.29.77 0 1.06l-1.41 1.41a1.234 1.234 0 0 0 0 1.76c.49.49 1.28.49 1.77 0l2.22-2.22a3.253 3.253 0 0 0-4.6-4.6l-2.42 2.42a2.657 2.657 0 0 0 0 3.78c.29.29.29.77 0 1.06-.29.29-.77.29-1.06 0A4.151 4.151 0 0 1 6.01 13c0-1.12.43-2.17 1.22-2.96l2.42-2.42a4.762 4.762 0 0 1 6.72 0 4.762 4.762 0 0 1 0 6.72l-2.22 2.22c-.54.55-1.24.82-1.95.82-.7 0-1.41-.27-1.94-.8z" fill-rule="nonzero"/>
        <path d="M1.25 12C1.25 6.07 6.07 1.25 12 1.25S22.75 6.07 22.75 12 17.93 22.75 12 22.75 1.25 17.93 1.25 12zm1.5 0c0 5.1 4.15 9.25 9.25 9.25s9.25-4.15 9.25-9.25S17.1 2.75 12 2.75 2.75 6.9 2.75 12z"/>
    </g>
</svg>
