<svg width="24" height="24" viewBox="0 0 24 24" xmlns="http://www.w3.org/2000/svg">
    <g fill="#292D32" fill-rule="evenodd">
        <path d="M7.25 5V2c0-.41.34-.75.75-.75s.75.34.75.75v3c0 .41-.34.75-.75.75s-.75-.34-.75-.75zM15.25 5V2c0-.41.34-.75.75-.75s.75.34.75.75v3c0 .41-.34.75-.75.75s-.75-.34-.75-.75z" fill-rule="nonzero"/>
        <path d="M14.25 18.2c0-2.18 1.77-3.95 3.95-3.95s3.95 1.77 3.95 3.95-1.77 3.95-3.95 3.95-3.95-1.77-3.95-3.95zm1.5 0c0 1.35 1.1 2.45 2.45 2.45s2.45-1.1 2.45-2.45-1.1-2.45-2.45-2.45-2.45 1.1-2.45 2.45z"/>
        <path d="m21.47 22.53-1-1a.754.754 0 0 1 0-1.06c.29-.29.77-.29 1.06 0l1 1c.29.29.29.77 0 1.06-.15.15-.34.22-.53.22s-.38-.07-.53-.22zM8.12 14.42a.933.933 0 0 1-.33-.21c-.04-.05-.09-.1-.12-.15a.757.757 0 0 1-.09-.18.636.636 0 0 1-.06-.18c-.01-.07-.02-.14-.02-.2 0-.26.11-.52.29-.71.09-.09.2-.16.33-.21.36-.16.81-.07 1.09.21.18.19.29.45.29.71 0 .06-.01.13-.02.2-.01.06-.03.12-.06.18-.02.06-.05.12-.09.18l-.12.15c-.19.18-.45.29-.71.29-.13 0-.26-.03-.38-.08zM11.29 14.21c-.18-.19-.29-.44-.29-.71 0-.13.03-.26.08-.38s.12-.23.21-.33c.37-.37 1.04-.37 1.42 0 .18.19.29.45.29.71 0 .06-.01.13-.02.2-.01.06-.03.12-.06.18-.02.06-.05.12-.09.18l-.12.15c-.19.18-.45.29-.71.29-.26 0-.52-.11-.71-.29zM7.79 17.71c-.18-.19-.29-.45-.29-.71 0-.13.03-.26.08-.38.05-.13.12-.24.21-.33.37-.37 1.05-.37 1.42 0 .18.19.29.45.29.71 0 .26-.11.52-.29.71-.19.18-.45.29-.71.29-.26 0-.52-.11-.71-.29zM3.5 9.84c-.41 0-.75-.34-.75-.75s.34-.75.75-.75h17c.41 0 .75.34.75.75s-.34.75-.75.75h-17z" fill-rule="nonzero"/>
        <path d="M8 22.75c-3.65 0-5.75-2.1-5.75-5.75V8.5c0-3.65 2.1-5.75 5.75-5.75h8c3.65 0 5.75 2.1 5.75 5.75V13c0 .41-.34.75-.75.75s-.75-.34-.75-.75V8.5c0-2.86-1.39-4.25-4.25-4.25H8c-2.86 0-4.25 1.39-4.25 4.25V17c0 2.86 1.39 4.25 4.25 4.25h5.37c.41 0 .75.34.75.75s-.34.75-.75.75H8z" fill-rule="nonzero"/>
    </g>
</svg>
