<svg width="24" height="24" viewBox="0 0 24 24" xmlns="http://www.w3.org/2000/svg">
    <g fill="none" fill-rule="evenodd">
        <path d="M22 15c0 3.87-3.13 7-7 7l1.05-1.75M2 9c0-3.87 3.13-7 7-7L7.95 3.75" stroke="#292D32" stroke-width="1.5" stroke-linecap="round" stroke-linejoin="round" stroke-dasharray="0,0"/>
        <path d="M22 4.31c0 .28-.22.5-.5.5h-9c-.28 0-.5-.22-.5-.5V4.2c0-1.76.44-2.2 2.22-2.2h5.56C21.56 2 22 2.44 22 4.2v.11zM12 6.309v1.99c0 1.76.44 2.2 2.22 2.2h5.56c1.78 0 2.22-.44 2.22-2.2v-1.99c0-.28-.22-.5-.5-.5h-9c-.28 0-.5.22-.5.5zM12 15.81c0 .28-.22.5-.5.5h-9c-.28 0-.5-.22-.5-.5v-.11c0-1.76.44-2.2 2.22-2.2h5.56c1.78 0 2.22.44 2.22 2.2v.11zM2 17.809v1.99c0 1.76.44 2.2 2.22 2.2h5.56c1.78 0 2.22-.44 2.22-2.2v-1.99c0-.28-.22-.5-.5-.5h-9c-.28 0-.5.22-.5.5z" fill="#292D32" fill-rule="nonzero"/>
    </g>
</svg>
