<svg width="24" height="24" viewBox="0 0 24 24" xmlns="http://www.w3.org/2000/svg">
    <g fill="#292D32" fill-rule="evenodd">
        <path d="M1.25 12C1.25 6.07 6.07 1.25 12 1.25S22.75 6.07 22.75 12c0 .41-.34.75-.75.75s-.75-.34-.75-.75c0-5.1-4.15-9.25-9.25-9.25S2.75 6.9 2.75 12 6.9 21.25 12 21.25c.41 0 .75.34.75.75s-.34.75-.75.75C6.07 22.75 1.25 17.93 1.25 12z" fill-rule="nonzero"/>
        <path d="M8 21.75c-.41 0-.75-.34-.75-.75s.32-.74.73-.75a29.49 29.49 0 0 1 0-16.5.752.752 0 0 1-.73-.75c0-.41.34-.75.75-.75h1c.24 0 .47.12.61.31.14.2.18.45.1.68a27.948 27.948 0 0 0 0 17.53c.08.23.04.48-.1.68-.14.2-.37.3-.61.3H8zM15.71 12c0-2.98-.48-5.93-1.42-8.76-.13-.39.08-.82.47-.95.39-.13.82.08.95.47.99 2.98 1.5 6.09 1.5 9.24 0 .41-.34.75-.75.75s-.75-.34-.75-.75z" fill-rule="nonzero"/>
        <path d="M3.75 16.02c-.01.4-.34.73-.75.73s-.75-.34-.75-.75v-1c0-.24.12-.47.31-.61s.45-.18.68-.1c2.83.94 5.78 1.42 8.76 1.42.41 0 .75.34.75.75s-.34.75-.75.75c-2.8 0-5.57-.4-8.25-1.19zM20.76 9.71a27.948 27.948 0 0 0-17.53 0 .753.753 0 0 1-.95-.47c-.13-.39.08-.82.47-.95a29.318 29.318 0 0 1 18.47 0c.39.13.6.56.47.95-.08.31-.38.51-.69.51-.08 0-.16-.01-.24-.04z" fill-rule="nonzero"/>
        <path d="M14.82 22.35c-.31-.31-.45-.76-.38-1.23l.19-1.35c.05-.35.26-.77.51-1.02l3.54-3.54c.48-.48.95-.73 1.46-.78.63-.06 1.24.2 1.82.78.58.58.84 1.19.78 1.82-.05.5-.31.98-.78 1.46l-3.54 3.54c-.25.25-.66.46-1.01.51l-1.35.19c-.09.01-.16.02-.24.02-.38 0-.74-.14-1-.4zm5.46-6.43c-.14.01-.33.13-.54.35l-3.54 3.54a.38.38 0 0 0-.08.17l-.18 1.25 1.25-.18c.04-.01.14-.06.17-.09l3.54-3.54c.21-.21.34-.4.35-.54.02-.2-.18-.44-.35-.61-.16-.16-.39-.35-.59-.35h-.03z"/>
        <path d="M20.72 19.19a3.977 3.977 0 0 1-2.74-2.74c-.11-.4.12-.81.52-.92.4-.11.81.12.93.52.23.82.88 1.47 1.7 1.7.4.11.63.53.52.92-.1.33-.4.55-.73.55-.07 0-.14-.01-.2-.03z" fill-rule="nonzero"/>
    </g>
</svg>
