<svg width="24" height="24" viewBox="0 0 24 24" xmlns="http://www.w3.org/2000/svg">
    <g fill="#292D32" fill-rule="evenodd">
        <path d="M12.37 9.62c-.41 0-.75-.34-.75-.75s.34-.75.75-.75h5.25a.749.749 0 1 1 0 1.5h-5.25zM6.59 10.16l-.75-.75a.754.754 0 0 1 0-1.06c.29-.29.77-.29 1.06 0l.22.22 1.72-1.72c.29-.29.77-.29 1.06 0 .29.29.29.77 0 1.06l-2.25 2.25a.75.75 0 0 1-1.06 0zM12.37 16.62c-.41 0-.75-.34-.75-.75s.34-.75.75-.75h5.25a.749.749 0 1 1 0 1.5h-5.25zM6.59 17.16l-.75-.75a.754.754 0 0 1 0-1.06c.29-.29.77-.29 1.06 0l.22.22 1.72-1.72c.29-.29.77-.29 1.06 0 .29.29.29.77 0 1.06l-2.25 2.25a.75.75 0 0 1-1.06 0z" fill-rule="nonzero"/>
        <path d="M9 22.75c-5.43 0-7.75-2.32-7.75-7.75V9c0-5.43 2.32-7.75 7.75-7.75h6c5.43 0 7.75 2.32 7.75 7.75v6c0 5.43-2.32 7.75-7.75 7.75H9zM2.75 9v6c0 4.61 1.64 6.25 6.25 6.25h6c4.61 0 6.25-1.64 6.25-6.25V9c0-4.61-1.64-6.25-6.25-6.25H9C4.39 2.75 2.75 4.39 2.75 9z"/>
    </g>
</svg>
