<svg width="24" height="24" viewBox="0 0 24 24" xmlns="http://www.w3.org/2000/svg">
    <g fill="#292D32" fill-rule="nonzero">
        <path d="M17.9 12.04c-.4.25-.91.19-1.24-.14l-4.53-4.53a.998.998 0 0 1-.14-1.24l1.34-2.12c.82-1.29 2.46-1.35 3.67-.15l3.18 3.18c1.12 1.13 1.05 2.89-.16 3.66l-2.12 1.34zM5.99 20.97c-.6.08-1.14-.02-1.59-.24l3.58-3.58c.32-.31.32-.8 0-1.11a.779.779 0 0 0-1.11 0l-2.593 2.593a.721.721 0 0 1-1.226-.593l1.03-8.72c.26-2.18 1.06-2.9 3.36-2.76l1.5.09c.49.03.95.24 1.3.59l6.55 6.55c.35.35.56.81.58 1.3l.09 1.5c.23 2.31-.56 3.11-2.75 3.36l-8.72 1.02z"/>
    </g>
</svg>
