<svg width="24" height="24" viewBox="0 0 24 24" xmlns="http://www.w3.org/2000/svg">
    <g fill="#292D32" fill-rule="evenodd">
        <path d="M8.04 15.8a.754.754 0 0 1 0-1.06l6.55-6.55c.29-.29.77-.29 1.06 0 .29.29.29.77 0 1.06L9.1 15.8c-.15.15-.34.22-.53.22s-.38-.07-.53-.22z" fill-rule="nonzero"/>
        <path d="M7 9.13c0-1.09.89-1.98 1.98-1.98 1.09 0 1.98.89 1.98 1.98 0 1.09-.89 1.98-1.98 1.98-1.09 0-1.98-.89-1.98-1.98zm1.5.01c0 .27.21.48.48.48s.48-.21.48-.48a.48.48 0 0 0-.96 0zM13.54 14.86c0-1.09.889-1.98 1.979-1.98s1.98.89 1.98 1.98c0 1.09-.89 1.98-1.98 1.98-1.09 0-1.98-.89-1.98-1.98zm1.5.01c0 .27.209.48.479.48s.48-.21.48-.48-.21-.48-.48-.48a.48.48 0 0 0-.48.48z"/>
        <path d="M1.25 12C1.25 6.07 6.07 1.25 12 1.25S22.75 6.07 22.75 12 17.93 22.75 12 22.75 1.25 17.93 1.25 12zm1.5 0c0 5.1 4.15 9.25 9.25 9.25s9.25-4.15 9.25-9.25S17.1 2.75 12 2.75 2.75 6.9 2.75 12z"/>
    </g>
</svg>
