<svg width="24" height="24" viewBox="0 0 24 24" xmlns="http://www.w3.org/2000/svg">
    <g fill="#292D32" fill-rule="evenodd">
        <path d="M7.81 2C4.6 2 2 4.6 2 7.81v2.44c0 .55.45 1 1 1h18c.55 0 1-.45 1-1V7.81C22 4.6 19.4 2 16.19 2H7.81zM6 9c-.41 0-.75-.34-.75-.75v-2c0-.41.34-.75.75-.75s.75.34.75.75v2c0 .41-.34.75-.75.75zm4 0c-.41 0-.75-.34-.75-.75v-2c0-.41.34-.75.75-.75s.75.34.75.75v2c0 .41-.34.75-.75.75zm4-1c-.41 0-.75-.34-.75-.75s.34-.75.75-.75h4c.41 0 .75.34.75.75S18.41 8 18 8h-4zM7.81 22h8.37C19.4 22 22 19.4 22 16.19v-2.44c0-.55-.45-1-1-1H3c-.55 0-1 .45-1 1v2.44C2 19.4 4.6 22 7.81 22zM18 16.25c.41 0 .75.34.75.75s-.34.75-.75.75h-4c-.41 0-.75-.34-.75-.75s.34-.75.75-.75h4zm-8-1c.41 0 .75.34.75.75v2c0 .41-.34.75-.75.75s-.75-.34-.75-.75v-2c0-.41.34-.75.75-.75zm-4 0c.41 0 .75.34.75.75v2c0 .41-.34.75-.75.75s-.75-.34-.75-.75v-2c0-.41.34-.75.75-.75z"/>
    </g>
</svg>
