<svg width="24" height="24" viewBox="0 0 24 24" xmlns="http://www.w3.org/2000/svg">
    <g fill="#292D32" fill-rule="evenodd">
        <path d="M6.22 15.34a.745.745 0 0 1 .34-1.01c.87-.43 1.61-1.09 2.14-1.89.18-.27.18-.61 0-.88-.54-.8-1.28-1.46-2.14-1.89a.74.74 0 0 1-.34-1.01c.18-.37.63-.52 1-.33 1.1.55 2.04 1.38 2.72 2.4a2.3 2.3 0 0 1 0 2.54 7.077 7.077 0 0 1-2.72 2.4.742.742 0 0 1-1-.33zM13 15.75c-.41 0-.75-.34-.75-.75s.34-.75.75-.75h4c.41 0 .75.34.75.75s-.34.75-.75.75h-4z" fill-rule="nonzero"/>
        <path d="M9 22.75c-5.43 0-7.75-2.32-7.75-7.75V9c0-5.43 2.32-7.75 7.75-7.75h6c5.43 0 7.75 2.32 7.75 7.75v6c0 5.43-2.32 7.75-7.75 7.75H9zM2.75 9v6c0 4.61 1.64 6.25 6.25 6.25h6c4.61 0 6.25-1.64 6.25-6.25V9c0-4.61-1.64-6.25-6.25-6.25H9C4.39 2.75 2.75 4.39 2.75 9z"/>
    </g>
</svg>
