<?xml version="1.0" encoding="UTF-8"?>
<svg width="24px" height="24px" viewBox="0 0 24 24" version="1.1" xmlns="http://www.w3.org/2000/svg" xmlns:xlink="http://www.w3.org/1999/xlink">
    <title>56D2F900-9F38-4E81-88DA-1F47CFDF947E</title>
    <g id="Outline-Icons" stroke="none" stroke-width="1" fill="none" fill-rule="evenodd">
        <g id="Video,-Audio,-Image" transform="translate(-748.000000, -380.000000)">
            <g id="backward" transform="translate(748.000000, 380.000000)">
                <path d="M18.7000122,17.9900589 L12.3599854,14.3300552 C12.0699854,14.1600552 11.8400134,13.9600589 11.6700134,13.7400589 C11.5600134,13.6100589 11.5,13.4400572 11.5,13.2700572 L11.5,10.7100596 C11.5,10.5400596 11.5600134,10.3700584 11.6700134,10.2400584 C11.8500134,10.0200584 12.0799854,9.82007185 12.3599854,9.66007185 L18.7099915,5.9900586 C19.5499914,5.50005859 20.5600036,5.50005859 21.4100037,5.9900586 C22.2600037,6.48005861 22.7600098,7.35005498 22.7600098,8.330055 L22.7600098,15.6500626 C22.7600098,16.6300626 22.2600037,17.5000589 21.4100037,17.9900589 C20.9800037,18.2400589 20.5099878,18.360054 20.0499878,18.360054 C19.5899878,18.360054 19.1200122,18.2400589 18.7000122,17.9900589 Z M13.1099854,13.0400767 L19.4400024,16.6900711 C19.8200024,16.9100711 20.2700146,16.9100711 20.6400146,16.6900711 C21.0200146,16.4700711 21.2399902,16.0800626 21.2399902,15.6500626 L21.2399902,8.330055 C21.2399902,7.90005499 21.0200146,7.51007697 20.6400146,7.29007697 C20.2600147,7.07007697 19.8200024,7.07007697 19.4400024,7.29007697 L13.1000061,10.9500804 C13.0600061,10.9700804 13.0199902,11.000067 12.9899902,11.030067 L12.9899902,12.9600596 C13.0299902,12.9900596 13.0699854,13.0200767 13.1099854,13.0400767 Z" id="Vector" fill="#292D32"></path>
                <path d="M8.94000244,17.9900589 L2.6000061,14.3300552 C1.76000613,13.8400552 1.25,12.9700584 1.25,11.9900584 C1.25,11.0100584 1.75,10.1400621 2.6000061,9.65006208 L8.94000244,5.9900586 C9.78000242,5.50005859 10.7900146,5.50005859 11.6400146,5.9900586 C12.4900147,6.48005861 12.9899902,7.35005498 12.9899902,8.330055 L12.9899902,15.6500626 C12.9899902,16.6300626 12.4900147,17.5000589 11.6400146,17.9900589 C11.2200147,18.2400589 10.75,18.360054 10.2900085,18.360054 C9.83000854,18.360054 9.36000243,18.2400589 8.94000244,17.9900589 Z M9.69000244,7.30005622 L3.3500061,10.9600596 C2.97000611,11.1800596 2.75,11.5700682 2.75,12.0000682 C2.75,12.4300682 2.97000611,12.8200767 3.3500061,13.0400767 L9.69000244,16.7000809 C10.0700024,16.9200809 10.5200146,16.9200809 10.8900146,16.7000809 C11.2700146,16.4800809 11.4899902,16.1000723 11.4899902,15.6600723 L11.4899902,8.34006476 C11.4899902,7.91006476 11.2700146,7.52005622 10.8900146,7.30005622 C10.7000147,7.19005622 10.5000085,7.14008307 10.2900085,7.14008307 C10.0800086,7.14008307 9.88000244,7.19005622 9.69000244,7.30005622 Z" id="Vector" fill="#292D32"></path>
                <path d="M24,0 L24,24 L0,24 L0,0 L24,0 Z" id="Vector" opacity="0"></path>
            </g>
        </g>
    </g>
</svg>