<svg width="24" height="24" viewBox="0 0 24 24" xmlns="http://www.w3.org/2000/svg">
    <g fill="#292D32" fill-rule="evenodd">
        <path d="M4.25 15V8c0-.41.34-.75.75-.75s.75.34.75.75v7c0 .41-.34.75-.75.75s-.75-.34-.75-.75z" fill-rule="nonzero"/>
        <path d="M1.25 18.75c0-2.21 1.79-4 4-4s4 1.79 4 4-1.79 4-4 4-4-1.79-4-4zm1.5 0a2.5 2.5 0 0 0 5 0 2.5 2.5 0 0 0-5 0zM1.25 5c0-2.07 1.68-3.75 3.75-3.75 2.07 0 3.75 1.68 3.75 3.75 0 2.07-1.68 3.75-3.75 3.75-2.07 0-3.75-1.68-3.75-3.75zm1.5 0c0 1.24 1.01 2.25 2.25 2.25S7.25 6.24 7.25 5 6.24 2.75 5 2.75 2.75 3.76 2.75 5zM15.25 5c0-2.07 1.68-3.75 3.75-3.75 2.07 0 3.75 1.68 3.75 3.75 0 2.07-1.68 3.75-3.75 3.75-2.07 0-3.75-1.68-3.75-3.75zm1.5 0c0 1.24 1.01 2.25 2.25 2.25S21.25 6.24 21.25 5 20.24 2.75 19 2.75 16.75 3.76 16.75 5z"/>
        <path d="M4.94 15.73a.75.75 0 0 1-.54-.91c.55-2.12 2.46-3.6 4.65-3.6h.02l3.43.01h.02c2.22 0 4.21-1.41 4.94-3.51.14-.39.56-.6.95-.46.39.14.6.56.46.95-.94 2.71-3.53 4.49-6.38 4.52l-3.43-.01h-.01c-1.51 0-2.82 1.02-3.2 2.48-.08.33-.39.55-.72.55-.06 0-.12-.01-.19-.02z" fill-rule="nonzero"/>
    </g>
</svg>
