<svg width="24" height="24" viewBox="0 0 24 24" xmlns="http://www.w3.org/2000/svg">
    <g fill="#292D32" fill-rule="evenodd">
        <path d="M6.25 7c0-3.17 2.58-5.75 5.75-5.75S17.75 3.83 17.75 7s-2.58 5.75-5.75 5.75S6.25 10.17 6.25 7zm1.5 0A4.26 4.26 0 0 0 12 11.25 4.26 4.26 0 0 0 16.25 7 4.26 4.26 0 0 0 12 2.75 4.26 4.26 0 0 0 7.75 7z"/>
        <path d="M2.66 22c0-4.27 4.19-7.75 9.34-7.75 1.01 0 2 .13 2.96.4.4.11.63.52.52.92-.11.4-.52.63-.92.52-.82-.23-1.68-.34-2.56-.34-4.32 0-7.84 2.8-7.84 6.25 0 .41-.34.75-.75.75s-.75-.34-.75-.75z" fill-rule="nonzero"/>
        <path d="M14.83 21.52c-.35-.3-.66-.67-.9-1.08-.44-.72-.68-1.57-.68-2.44 0-1.25.48-2.42 1.34-3.31.9-.93 2.11-1.44 3.41-1.44 1.36 0 2.65.58 3.53 1.58A4.74 4.74 0 0 1 22.75 18c0 .38-.05.76-.15 1.12-.1.45-.29.92-.55 1.33-.83 1.42-2.39 2.3-4.05 2.3a4.7 4.7 0 0 1-3.17-1.23zm.84-5.79a3.241 3.241 0 0 0-.45 3.94c.16.28.37.53.61.74.6.55 1.37.85 2.17.85 1.13 0 2.2-.6 2.78-1.57.17-.28.3-.6.37-.91.07-.26.1-.51.1-.77 0-.8-.3-1.57-.84-2.17-.6-.7-1.48-1.09-2.41-1.09-.89 0-1.71.35-2.33.98z"/>
        <path d="M16.51 18.73c-.41 0-.75-.34-.75-.75s.34-.75.75-.75h2.99c.41 0 .75.34.75.75s-.34.75-.75.75h-2.99z" fill-rule="nonzero"/>
        <path d="M17.25 19.51v-2.99c0-.41.34-.75.75-.75s.75.34.75.75v2.99a.749.749 0 1 1-1.5 0z" fill-rule="nonzero"/>
    </g>
</svg>
