<svg width="24" height="24" viewBox="0 0 24 24" xmlns="http://www.w3.org/2000/svg">
    <g fill="#292D32" fill-rule="evenodd">
        <path d="M4.23 22.75c-2.01 0-2.98-.93-2.98-2.85V4.1c0-1.92.98-2.85 2.98-2.85h4.04c2.01 0 2.98.93 2.98 2.85v15.8c0 1.92-.98 2.85-2.98 2.85H4.23zM2.75 4.1v15.8c0 1.01.21 1.35 1.48 1.35h4.04c1.27 0 1.48-.34 1.48-1.35V4.1c0-1.01-.21-1.35-1.48-1.35H4.23c-1.27 0-1.48.34-1.48 1.35zM15.73 13.75c-2.01 0-2.98-.93-2.98-2.85V4.1c0-1.92.98-2.85 2.98-2.85h4.04c2.01 0 2.98.93 2.98 2.85v6.8c0 1.92-.98 2.85-2.98 2.85h-4.04zM14.25 4.1v6.8c0 1.01.21 1.35 1.48 1.35h4.04c1.27 0 1.48-.34 1.48-1.35V4.1c0-1.01-.21-1.35-1.48-1.35h-4.04c-1.27 0-1.48.34-1.48 1.35zM15.73 22.75c-2.01 0-2.98-.93-2.98-2.85v-1.8c0-1.92.98-2.85 2.98-2.85h4.04c2.01 0 2.98.93 2.98 2.85v1.8c0 1.92-.98 2.85-2.98 2.85h-4.04zm-1.48-4.65v1.8c0 1.01.21 1.35 1.48 1.35h4.04c1.27 0 1.48-.34 1.48-1.35v-1.8c0-1.01-.21-1.35-1.48-1.35h-4.04c-1.27 0-1.48.34-1.48 1.35z"/>
    </g>
</svg>
