<?xml version="1.0" encoding="UTF-8"?>
<svg width="24px" height="24px" viewBox="0 0 24 24" version="1.1" xmlns="http://www.w3.org/2000/svg" xmlns:xlink="http://www.w3.org/1999/xlink">
    <title>E590C458-4CCC-4FDC-91BB-B19791C60DCB</title>
    <g id="Outline-Icons" stroke="none" stroke-width="1" fill="none" fill-rule="evenodd">
        <g id="Video,-Audio,-Image" transform="translate(-556.000000, -508.000000)">
            <g id="music-square-search" transform="translate(556.000000, 508.000000)">
                <path d="M8.6499939,21.75 C3.45999384,21.75 1.25,19.5399756 1.25,14.3499756 L1.25,8.65002441 C1.25,3.46002436 3.45999384,1.25 8.6499939,1.25 L14.3500061,1.25 C19.5400062,1.25 21.75,3.46002436 21.75,8.65002441 L21.75,12.3499756 C21.75,12.7599756 21.41,13.0999756 21,13.0999756 C20.59,13.0999756 20.25,12.7599756 20.25,12.3499756 L20.25,8.65002441 C20.25,4.29002428 18.7100062,2.75 14.3500061,2.75 L8.6499939,2.75 C4.28999376,2.75 2.75,4.29002428 2.75,8.65002441 L2.75,14.3499756 C2.75,18.7099757 4.28999376,20.25 8.6499939,20.25 L12.3500061,20.25 C12.7600061,20.25 13.1000061,20.59 13.1000061,21 C13.1000061,21.41 12.7600061,21.75 12.3500061,21.75 L8.6499939,21.75 Z" id="Vector" fill="#292D32" fill-rule="nonzero"></path>
                <path d="M4.51953125,12.9699707 C4.51953125,11.7599707 5.50952816,10.7700195 6.7195282,10.7700195 C7.92952824,10.7700195 8.91952515,11.7599707 8.91952515,12.9699707 C8.91952515,14.1799707 7.92952824,15.1699829 6.7195282,15.1699829 C5.50952816,15.1699829 4.51953125,14.1799707 4.51953125,12.9699707 Z M6.01953125,12.9699707 C6.01953125,13.3499707 6.32952821,13.6699829 6.7195282,13.6699829 C7.10952818,13.6699829 7.41952515,13.3599707 7.41952515,12.9699707 C7.41952515,12.5799707 7.10952818,12.2700195 6.7195282,12.2700195 C6.3395282,12.2700195 6.01953125,12.5799707 6.01953125,12.9699707 Z" id="Vector" fill="#292D32"></path>
                <path d="M7.41992188,12.9698868 L7.41992188,7.13993073 C7.41992188,6.2299307 7.98992431,5.48991619 8.85992432,5.2499162 L11.7599182,4.45993815 C12.6599182,4.20993815 13.229917,4.44991861 13.539917,4.68991861 C13.849917,4.9299186 14.2299194,5.40994304 14.2299194,6.33994305 L14.2299194,11.9999161 C14.2299194,12.4099161 13.8899194,12.7499161 13.4799194,12.7499161 C13.0699194,12.7499161 12.7299194,12.4099161 12.7299194,11.9999161 L12.7299194,6.33994305 C12.7299194,6.01994306 12.6599286,5.89992108 12.6299286,5.87992108 C12.5999286,5.85992108 12.4599176,5.81994061 12.1499176,5.89994061 L9.25991821,6.68991852 C8.9599182,6.76991852 8.91992188,6.97992095 8.91992188,7.12992096 L8.91992188,12.959938 C8.91992188,13.379938 8.57992187,13.7198868 8.16992188,13.7198868 C7.75992188,13.7198868 7.41992188,13.3798868 7.41992188,12.9698868 Z" id="Vector" fill="#292D32" fill-rule="nonzero"></path>
                <path d="M9.83007812,11.9998169 C9.83007812,10.7898169 10.820075,9.79980469 12.0300751,9.79980469 C13.2400751,9.79980469 14.230072,10.7898169 14.230072,11.9998169 C14.230072,13.2198169 13.2400751,14.1998291 12.0300751,14.1998291 C10.820075,14.1998291 9.83007812,13.2098169 9.83007812,11.9998169 Z M11.3300781,12.0098267 C11.3300781,12.3898267 11.6400751,12.7098389 12.0300751,12.7098389 C12.4200751,12.7098389 12.730072,12.3998266 12.730072,12.0098267 C12.730072,11.6198267 12.4100751,11.3098145 12.0300751,11.3098145 C11.6500751,11.3098145 11.3300781,11.6198267 11.3300781,12.0098267 Z" id="Vector" fill="#292D32"></path>
                <path d="M7.45054572,9.03008986 C7.34054572,8.63008985 7.5805445,8.22004591 7.98054451,8.11004591 L13.2905421,6.66003373 C13.6905421,6.56003373 14.1005556,6.79006299 14.2105556,7.190063 C14.3205556,7.59006301 14.0805415,8.00004591 13.6805415,8.11004591 L8.3705439,9.56005812 C8.3005439,9.57005812 8.23054695,9.58007765 8.17054695,9.58007765 C7.84054694,9.58007765 7.54054572,9.36008987 7.45054572,9.03008986 Z" id="Vector" fill="#292D32" fill-rule="nonzero"></path>
                <path d="M13.9902344,18.079895 C13.9902344,15.899895 15.7602313,14.1298828 17.9402313,14.1298828 C20.1202314,14.1298828 21.8902283,15.899895 21.8902283,18.079895 C21.8902283,20.2598951 20.1202314,22.0299072 17.9402313,22.0299072 C15.7602313,22.0299072 13.9902344,20.2598951 13.9902344,18.079895 Z M15.4902344,18.079895 C15.4902344,19.429895 16.5902313,20.5299072 17.9402313,20.5299072 C19.2902313,20.5299072 20.3902283,19.429895 20.3902283,18.079895 C20.3902283,16.729895 19.2902313,15.6298828 17.9402313,15.6298828 C16.5902313,15.6298828 15.4902344,16.729895 15.4902344,18.079895 Z" id="Vector" fill="#292D32"></path>
                <path d="M21.2096875,22.4098217 L20.2096875,21.4098217 C19.9196875,21.1198218 19.9196875,20.6398242 20.2096875,20.3498242 C20.4996875,20.0598242 20.979685,20.0598242 21.269685,20.3498242 L22.269685,21.3498242 C22.559685,21.6398242 22.559685,22.1198218 22.269685,22.4098217 C22.119685,22.5498217 21.9296862,22.6298535 21.7396863,22.6298535 C21.5496863,22.6298535 21.3596875,22.5598218 21.2096875,22.4098217 Z" id="Vector" fill="#292D32" fill-rule="nonzero"></path>
                <path d="M24,0 L24,24 L0,24 L0,0 L24,0 Z" id="Vector" opacity="0"></path>
            </g>
        </g>
    </g>
</svg>