<svg width="24" height="24" viewBox="0 0 24 24" xmlns="http://www.w3.org/2000/svg">
    <g fill="#292D32" fill-rule="evenodd">
        <path d="M6.75 12c0-2.9 2.36-5.25 5.25-5.25S17.25 9.1 17.25 12s-2.36 5.25-5.25 5.25S6.75 14.9 6.75 12zm1.5 0c0 2.07 1.68 3.75 3.75 3.75 2.07 0 3.75-1.68 3.75-3.75 0-2.07-1.68-3.75-3.75-3.75-2.07 0-3.75 1.68-3.75 3.75z"/>
        <path d="M2 12.75c-.41 0-.75-.34-.75-.75s.34-.75.75-.75h5c.41 0 .75.34.75.75s-.34.75-.75.75H2zM17 12.75c-.41 0-.75-.34-.75-.75s.34-.75.75-.75h5c.41 0 .75.34.75.75s-.34.75-.75.75h-5z" fill-rule="nonzero"/>
    </g>
</svg>
