<svg width="24" height="24" viewBox="0 0 24 24" xmlns="http://www.w3.org/2000/svg">
    <g fill="#292D32" fill-rule="evenodd">
        <path d="M4.66 19.64a3.252 3.252 0 0 1-1.65-2.86V7.21c0-1.19.62-2.26 1.65-2.86 1.04-.6 2.27-.6 3.3 0l8.29 4.78c1.03.6 1.65 1.67 1.65 2.86s-.62 2.26-1.65 2.86l-8.29 4.78c-.52.31-1.08.46-1.65.46-.57 0-1.13-.15-1.65-.45zm.75-13.99c-.56.33-.9.91-.9 1.56v9.57c0 .65.34 1.23.9 1.56.56.32 1.24.33 1.8 0l8.29-4.78c.56-.33.9-.91.9-1.56s-.34-1.23-.9-1.56L7.21 5.66c-.28-.16-.59-.25-.9-.25-.31 0-.62.08-.9.24z"/>
        <path d="M19.49 18.18V5.82c0-.41.34-.75.75-.75s.75.34.75.75v12.36a.749.749 0 1 1-1.5 0z" fill-rule="nonzero"/>
    </g>
</svg>
