<svg width="24" height="24" viewBox="0 0 24 24" xmlns="http://www.w3.org/2000/svg">
    <g fill="#292D32" fill-rule="nonzero">
        <path d="M11.25 16c0-.41.34-.75.75-.75 3.45 0 6.25-2.8 6.25-6.25S15.45 2.75 12 2.75 5.75 5.55 5.75 9c0 .41-.34.75-.75.75s-.75-.34-.75-.75c0-4.27 3.48-7.75 7.75-7.75S19.75 4.73 19.75 9s-3.48 7.75-7.75 7.75c-.41 0-.75-.34-.75-.75z"/>
        <path d="M11.25 22v-6c0-.41.34-.75.75-.75s.75.34.75.75v6c0 .41-.34.75-.75.75s-.75-.34-.75-.75z"/>
        <path d="M9 19.75c-.41 0-.75-.34-.75-.75s.34-.75.75-.75h6c.41 0 .75.34.75.75s-.34.75-.75.75H9z"/>
    </g>
</svg>
