<svg width="24" height="24" viewBox="0 0 24 24" xmlns="http://www.w3.org/2000/svg">
    <g fill="#292D32" fill-rule="evenodd">
        <path d="M10.25 4.5H9.12C6.96 4.5 5.2 6.26 5.2 8.42v9.23c0 .19-.16.35-.35.35h-.7C2.96 18 2 17.04 2 15.85V4.15C2 2.96 2.96 2 4.15 2h4.3c1.19 0 2.15.96 2.15 2.15 0 .19-.16.35-.35.35zM22 15.85c0 1.19-.96 2.15-2.15 2.15h-.63c-.19 0-.35-.16-.35-.35V8.42c0-2.16-1.76-3.92-3.92-3.92h-1.2c-.19 0-.35-.16-.35-.35 0-1.19.96-2.15 2.15-2.15h4.3C21.04 2 22 2.96 22 4.15v11.7z" fill-rule="nonzero"/>
        <path d="M9.12 6C7.78 6 6.7 7.08 6.7 8.42v11.16C6.7 20.92 7.78 22 9.12 22h1.63c.28 0 .5-.22.5-.5V19c0-.41.34-.75.75-.75s.75.34.75.75v2.5c0 .28.22.5.5.5h1.71c1.33 0 2.41-1.08 2.41-2.41V8.42c0-1.34-1.08-2.42-2.42-2.42H9.12zm.88 8.75c-.41 0-.75-.34-.75-.75s.34-.75.75-.75h4c.41 0 .75.34.75.75s-.34.75-.75.75h-4zm0-3c-.41 0-.75-.34-.75-.75s.34-.75.75-.75h4c.41 0 .75.34.75.75s-.34.75-.75.75h-4z"/>
    </g>
</svg>
