<svg width="24" height="24" viewBox="0 0 24 24" xmlns="http://www.w3.org/2000/svg">
    <g fill="#292D32" fill-rule="evenodd">
        <path d="M8 22.75c-3.65 0-5.75-2.1-5.75-5.75V7c0-3.65 2.1-5.75 5.75-5.75h8c3.65 0 5.75 2.1 5.75 5.75v10c0 3.65-2.1 5.75-5.75 5.75H8zM3.75 7v10c0 2.86 1.39 4.25 4.25 4.25h8c2.86 0 4.25-1.39 4.25-4.25V7c0-2.86-1.39-4.25-4.25-4.25H8C5.14 2.75 3.75 4.14 3.75 7z"/>
        <path d="M8.5 11.01c-.46-.2-.75-.65-.75-1.14V2c0-.41.34-.75.75-.75h7c.41 0 .75.34.75.75v7.86c0 .5-.29.95-.75 1.14-.45.2-.98.11-1.35-.23L12 8.8l-2.15 1.98c-.24.22-.54.33-.85.33-.17 0-.34-.03-.5-.1zm4.35-3.47 1.9 1.75V2.75h-5.5v6.54l1.9-1.75a1.264 1.264 0 0 1 1.7 0z"/>
        <path d="M13.25 14.75c-.41 0-.75-.34-.75-.75s.34-.75.75-.75h4.25c.41 0 .75.34.75.75s-.34.75-.75.75h-4.25zM9 18.75c-.41 0-.75-.34-.75-.75s.34-.75.75-.75h8.5c.41 0 .75.34.75.75s-.34.75-.75.75H9z" fill-rule="nonzero"/>
    </g>
</svg>
