<svg width="24" height="24" viewBox="0 0 24 24" xmlns="http://www.w3.org/2000/svg">
    <g fill="#292D32" fill-rule="nonzero">
        <path d="M20.58 7.17V5.35c0-.73-.59-1.32-1.32-1.32H4.74c-.73 0-1.32.59-1.32 1.32v1.83c0 .41-.34.75-.75.75s-.75-.34-.75-.76V5.35c0-1.56 1.27-2.82 2.82-2.82h14.52c1.56 0 2.82 1.27 2.82 2.82v1.83c0 .41-.33.74-.75.74-.41 0-.75-.34-.75-.75z"/>
        <path d="M11.25 20.72V4.11c0-.41.34-.75.75-.75s.75.34.75.75v16.61a.749.749 0 1 1-1.5 0z"/>
        <path d="M8.06 21.47c-.41 0-.75-.34-.75-.75s.34-.75.75-.75h7.88c.41 0 .75.34.75.75s-.34.75-.75.75H8.06z"/>
    </g>
</svg>
