<svg width="24" height="24" viewBox="0 0 24 24" xmlns="http://www.w3.org/2000/svg">
    <g fill="#292D32" fill-rule="evenodd">
        <path d="M2 16.46c0 2.29 1.85 4.14 4.14 4.14h11.71c2.29 0 4.15-1.86 4.15-4.15v-4.99c0-.67-.54-1.21-1.21-1.21H3.21c-.67 0-1.21.54-1.21 1.21v5zm4 .79c-.41 0-.75-.34-.75-.75s.34-.75.75-.75h2c.41 0 .75.34.75.75s-.34.75-.75.75H6zm4.5 0c-.41 0-.75-.34-.75-.75s.34-.75.75-.75h4c.41 0 .75.34.75.75s-.34.75-.75.75h-4z"/>
        <path d="M13.5 7.538c0 .67-.54 1.21-1.21 1.21H3.21c-.68 0-1.21-.56-1.21-1.23.01-1.13.46-2.16 1.21-2.91S5 3.398 6.14 3.398h6.15c.67 0 1.21.54 1.21 1.21v2.93z" fill-rule="nonzero"/>
        <path d="M17.03 2C15.76 2 15 2.76 15 4.03v2.94C15 8.24 15.76 9 17.03 9h2.94C21.24 9 22 8.24 22 6.97V4.03C22 2.76 21.24 2 19.97 2h-2.94zm1.23 5.22a.49.49 0 0 1-.37.18h-.02c-.14 0-.27-.05-.37-.15l-1.1-1.08a.52.52 0 0 1 0-.73c.2-.2.53-.21.73 0l.7.69 2-2.34c.19-.22.51-.24.73-.06.23.18.25.51.07.72l-2.37 2.77z"/>
    </g>
</svg>
