<svg width="24" height="24" viewBox="0 0 24 24" xmlns="http://www.w3.org/2000/svg">
    <g fill="#292D32" fill-rule="evenodd">
        <path d="M9.9 19.75c-4.33 0-5.65-1.32-5.65-5.65V5c0-.41.34-.75.75-.75h9.1c4.33 0 5.65 1.32 5.65 5.65V19c0 .41-.34.75-.75.75H9.9zM5.75 14.1c0 3.49.66 4.15 4.15 4.15h8.35V9.9c0-3.49-.66-4.15-4.15-4.15H5.75v8.35z"/>
        <path d="M4.25 5V2c0-.41.34-.75.75-.75s.75.34.75.75v3c0 .41-.34.75-.75.75s-.75-.34-.75-.75z" fill-rule="nonzero"/>
        <path d="M2 5.75c-.41 0-.75-.34-.75-.75s.34-.75.75-.75h3c.41 0 .75.34.75.75s-.34.75-.75.75H2zM18.25 22v-3c0-.41.34-.75.75-.75s.75.34.75.75v3c0 .41-.34.75-.75.75s-.75-.34-.75-.75z" fill-rule="nonzero"/>
        <path d="M19 19.75c-.41 0-.75-.34-.75-.75s.34-.75.75-.75h3c.41 0 .75.34.75.75s-.34.75-.75.75h-3z" fill-rule="nonzero"/>
    </g>
</svg>
