<svg width="24" height="24" viewBox="0 0 24 24" xmlns="http://www.w3.org/2000/svg">
    <g fill="#292D32" fill-rule="nonzero">
        <path d="M9.51 22.66c-.4-.15-1.08-.64-1.08-2.19v-2.44c0-.41.34-.75.75-.75s.75.34.75.75v2.44c0 .5.09.72.13.78.03-.04.24-.14.57-.52l7.57-8.6c.28-.32.32-.52.32-.56-.02-.01-.2-.11-.62-.11h-.93c-.41 0-.75-.34-.75-.75s.34-.75.75-.75h.93c1.34 0 1.82.63 1.99 1 .17.38.32 1.15-.56 2.16l-7.57 8.6c-.71.82-1.33 1.03-1.77 1.03-.2 0-.36-.04-.48-.09zM8.43 14.47v-.43H6.09c-1.34 0-1.82-.63-1.99-1-.17-.38-.32-1.15.56-2.16l7.57-8.6c1.02-1.16 1.85-1.08 2.25-.93.4.15 1.08.64 1.08 2.19v5.31c0 .41-.34.75-.75.75s-.75-.34-.75-.75V3.52c0-.5-.09-.72-.13-.78-.03.04-.24.14-.57.52l-7.57 8.6c-.28.32-.32.52-.32.56.02.01.2.11.62.11h3.09c.41 0 .75.34.75.75v1.18c0 .42-.34.76-.75.76s-.75-.34-.75-.75z"/>
        <path d="M1.47 22.53a.754.754 0 0 1 0-1.06l20-20c.29-.29.77-.29 1.06 0 .29.29.29.77 0 1.06l-20 20c-.15.15-.34.22-.53.22s-.38-.07-.53-.22z"/>
    </g>
</svg>
