<svg width="24" height="24" viewBox="0 0 24 24" xmlns="http://www.w3.org/2000/svg">
    <g fill="#292D32" fill-rule="evenodd">
        <path d="M7 21.25c-3.65 0-5.75-2.1-5.75-5.75v-7c0-3.65 2.1-5.75 5.75-5.75h7c.41 0 .75.34.75.75s-.34.75-.75.75H7c-2.86 0-4.25 1.39-4.25 4.25v7c0 2.86 1.39 4.25 4.25 4.25h10c2.86 0 4.25-1.39 4.25-4.25v-5c0-.41.34-.75.75-.75s.75.34.75.75v5c0 3.65-2.1 5.75-5.75 5.75H7z" fill-rule="nonzero"/>
        <path d="m9.659 12.08-3.13-2.5a.748.748 0 0 1 .93-1.17l3.13 2.5c.76.61 2.05.61 2.81 0l1.18-.94c.32-.26.8-.21 1.05.12.26.32.21.8-.12 1.05l-1.18.94c-.64.53-1.49.79-2.33.79-.84 0-1.69-.26-2.34-.79z" fill-rule="nonzero"/>
        <path d="M16.25 5.5c0-1.79 1.46-3.25 3.25-3.25s3.25 1.46 3.25 3.25-1.46 3.25-3.25 3.25-3.25-1.46-3.25-3.25zm1.5 0c0 .96.79 1.75 1.75 1.75s1.75-.79 1.75-1.75-.79-1.75-1.75-1.75-1.75.79-1.75 1.75z"/>
    </g>
</svg>
