<svg width="24" height="24" viewBox="0 0 24 24" xmlns="http://www.w3.org/2000/svg">
    <g fill="#292D32" fill-rule="nonzero">
        <path d="M15.99 19.75c-2.01 0-2.98-.93-2.98-2.85V5.1c0-.41.34-.75.75-.75s.75.34.75.75v11.8c0 1.01.21 1.35 1.48 1.35h1.04c1.27 0 1.48-.34 1.48-1.35V5.1c0-.41.34-.75.75-.75s.75.34.75.75v11.8c0 1.92-.97 2.85-2.98 2.85h-1.04zM7.49 14.75c-2.01 0-2.98-.93-2.98-2.85V5.1c0-.41.34-.75.75-.75s.75.34.75.75v6.8c0 1.01.21 1.35 1.48 1.35h1.04c1.27 0 1.48-.34 1.48-1.35V5.1c0-.41.34-.75.75-.75s.75.34.75.75v6.8c0 1.92-.97 2.85-2.98 2.85H7.49z"/>
        <path d="M2 5.75a.749.749 0 1 1 0-1.5h20a.749.749 0 1 1 0 1.5H2z"/>
    </g>
</svg>
