<svg width="24" height="24" viewBox="0 0 24 24" xmlns="http://www.w3.org/2000/svg">
    <g fill="#292D32" fill-rule="evenodd">
        <path d="M.25 7C.25 5.48 1.48 4.25 3 4.25S5.75 5.48 5.75 7 4.52 9.75 3 9.75.25 8.52.25 7zm1.5 0a1.25 1.25 0 1 0 2.5 0 1.25 1.25 0 0 0-2.5 0zM18.25 7c0-1.52 1.23-2.75 2.75-2.75S23.75 5.48 23.75 7 22.52 9.75 21 9.75 18.25 8.52 18.25 7zm1.5 0a1.25 1.25 0 1 0 2.5 0 1.25 1.25 0 0 0-2.5 0z"/>
        <path d="M15 7.75c-.41 0-.75-.34-.75-.75s.34-.75.75-.75h4c.41 0 .75.34.75.75s-.34.75-.75.75h-4zM5 7.75c-.41 0-.75-.34-.75-.75s.34-.75.75-.75h4c.41 0 .75.34.75.75s-.34.75-.75.75H5z" fill-rule="nonzero"/>
        <path d="M4 20.75c-1.24 0-2.25-1.01-2.25-2.25v-2c0-1.24 1.01-2.25 2.25-2.25h2c1.24 0 2.25 1.01 2.25 2.25v2c0 .9-.53 1.7-1.35 2.05-.27.13-.58.2-.9.2H4zm-.75-4.25v2c0 .41.34.75.75.75h2c.1 0 .19-.02.29-.07.29-.12.46-.39.46-.68v-2c0-.41-.34-.75-.75-.75H4c-.41 0-.75.34-.75.75zM18 20.75c-.32 0-.63-.07-.93-.21-.79-.33-1.32-1.14-1.32-2.04v-2c0-1.24 1.01-2.25 2.25-2.25h2c1.24 0 2.25 1.01 2.25 2.25v2c0 1.24-1.01 2.25-2.25 2.25h-2zm-.75-4.25v2c0 .29.17.56.43.67.13.06.22.08.32.08h2c.41 0 .75-.34.75-.75v-2c0-.41-.34-.75-.75-.75h-2c-.41 0-.75.34-.75.75zM10.5 10.75c-1.24 0-2.25-1.01-2.25-2.25v-3c0-1.24 1.01-2.25 2.25-2.25h3c1.24 0 2.25 1.01 2.25 2.25v3c0 1.24-1.01 2.25-2.25 2.25h-3zM9.75 5.5v3c0 .41.34.75.75.75h3c.41 0 .75-.34.75-.75v-3c0-.41-.34-.75-.75-.75h-3c-.41 0-.75.34-.75.75z"/>
        <path d="M18.88 15.75a.751.751 0 0 1-.66-.83c.02-.14.02-.27.02-.41 0-2.6-1.41-5-3.59-6.1a.75.75 0 1 1 .68-1.34c2.68 1.36 4.41 4.28 4.41 7.44 0 .2-.01.39-.04.59-.03.37-.35.65-.73.65h-.09zM4.29 15.09c-.02-.2-.04-.39-.04-.59 0-3.16 1.73-6.08 4.41-7.44a.75.75 0 0 1 1.01.33c.19.37.04.82-.33 1.01-2.18 1.1-3.59 3.5-3.59 6.1 0 .14.01.27.02.41.05.41-.25.78-.66.83-.02.01-.05.01-.08.01-.38 0-.7-.28-.74-.66z" fill-rule="nonzero"/>
    </g>
</svg>
