<svg width="24" height="24" viewBox="0 0 24 24" xmlns="http://www.w3.org/2000/svg">
    <g fill="#009ed7" fill-rule="nonzero">
        <path d="M11 4.1C11 2.6 10.36 2 8.77 2H4.73C3.14 2 2.5 2.6 2.5 4.1v15.8c0 1.5.64 2.1 2.23 2.1h4.04c1.59 0 2.23-.6 2.23-2.1V4.1zM21.5 4.1c0-1.5-.64-2.1-2.23-2.1h-4.04C13.64 2 13 2.6 13 4.1v6.8c0 1.5.64 2.1 2.23 2.1h4.04c1.59 0 2.23-.6 2.23-2.1V4.1zM21.5 17.1c0-1.5-.64-2.1-2.23-2.1h-4.04c-1.59 0-2.23.6-2.23 2.1v2.8c0 1.5.64 2.1 2.23 2.1h4.04c1.59 0 2.23-.6 2.23-2.1v-2.8z"/>
    </g>
</svg>
