<svg width="24" height="24" viewBox="0 0 24 24" xmlns="http://www.w3.org/2000/svg">
    <g fill="#292D32" fill-rule="evenodd">
        <path d="M1.25 5c0-2.07 1.68-3.75 3.75-3.75 2.07 0 3.75 1.68 3.75 3.75 0 2.07-1.68 3.75-3.75 3.75-2.07 0-3.75-1.68-3.75-3.75zm1.5 0c0 1.24 1.01 2.25 2.25 2.25S7.25 6.24 7.25 5 6.24 2.75 5 2.75 2.75 3.76 2.75 5zM15.25 12c0-2.07 1.68-3.75 3.75-3.75 2.07 0 3.75 1.68 3.75 3.75 0 2.07-1.68 3.75-3.75 3.75-2.07 0-3.75-1.68-3.75-3.75zm1.5 0c0 1.24 1.01 2.25 2.25 2.25s2.25-1.01 2.25-2.25S20.24 9.75 19 9.75s-2.25 1.01-2.25 2.25zM1.25 19c0-2.07 1.68-3.75 3.75-3.75 2.07 0 3.75 1.68 3.75 3.75 0 2.07-1.68 3.75-3.75 3.75-2.07 0-3.75-1.68-3.75-3.75zm1.5 0c0 1.24 1.01 2.25 2.25 2.25S7.25 20.24 7.25 19 6.24 16.75 5 16.75 2.75 17.76 2.75 19z"/>
        <path d="M4.25 16V8c0-.41.34-.75.75-.75s.75.34.75.75c0 2.19 1.06 3.25 3.25 3.25h7c.41 0 .75.34.75.75s-.34.75-.75.75H9c-1.36 0-2.45-.35-3.25-1.01V16c0 .41-.34.75-.75.75s-.75-.34-.75-.75z" fill-rule="nonzero"/>
    </g>
</svg>
