<svg width="24" height="24" viewBox="0 0 24 24" xmlns="http://www.w3.org/2000/svg">
    <g fill="#292D32" fill-rule="evenodd">
        <path d="m18.84 5.579-3.38-3.38a.706.706 0 0 0-.99 0c-.27.27-.27.71 0 .99l2.39 2.39H7.14l2.39-2.39c.27-.27.27-.71 0-.99a.706.706 0 0 0-.99 0l-3.37 3.38h-.4c-.9 0-2.77 0-2.77 2.56 0 .97.2 1.61.62 2.03.24.25.53.38.84.45.29.07.6.08.9.08h15.28c.31 0 .6-.02.88-.08.84-.2 1.48-.8 1.48-2.48 0-2.56-1.87-2.56-2.76-2.56h-.4z" fill-rule="nonzero"/>
        <path d="M4.91 12c-.62 0-1.09.55-.99 1.16l.84 5.14c.28 1.72 1.03 3.7 4.36 3.7h5.61c3.37 0 3.97-1.69 4.33-3.58l1.01-5.23a.997.997 0 0 0-.98-1.19H4.91zm8.48 7.11c-.19 0-.38-.07-.53-.22l-.84-.85-.88.88c-.15.15-.34.22-.53.22a.71.71 0 0 1-.53-.22c-.3-.29-.3-.76 0-1.06l.88-.88-.85-.84c-.3-.3-.3-.77 0-1.06.29-.3.76-.3 1.06 0l.85.84.81-.81c.3-.3.77-.3 1.06 0 .3.29.3.76 0 1.06l-.81.81.84.85c.3.3.3.77 0 1.06a.71.71 0 0 1-.53.22z"/>
    </g>
</svg>
