<svg width="24" height="24" viewBox="0 0 24 24" xmlns="http://www.w3.org/2000/svg">
    <g fill="#292D32" fill-rule="evenodd">
        <path d="M17.25 12c0-1.52 1.23-2.75 2.75-2.75s2.75 1.23 2.75 2.75-1.23 2.75-2.75 2.75-2.75-1.23-2.75-2.75zm1.5 0a1.25 1.25 0 1 0 2.5 0 1.25 1.25 0 0 0-2.5 0zM17.25 4c0-1.52 1.23-2.75 2.75-2.75S22.75 2.48 22.75 4 21.52 6.75 20 6.75 17.25 5.52 17.25 4zm1.5 0a1.25 1.25 0 1 0 2.5 0 1.25 1.25 0 0 0-2.5 0zM17.25 20c0-1.52 1.23-2.75 2.75-2.75s2.75 1.23 2.75 2.75-1.23 2.75-2.75 2.75-2.75-1.23-2.75-2.75zm1.5 0a1.25 1.25 0 1 0 2.5 0 1.25 1.25 0 0 0-2.5 0zM1.25 12c0-1.52 1.23-2.75 2.75-2.75S6.75 10.48 6.75 12 5.52 14.75 4 14.75 1.25 13.52 1.25 12zm1.5 0a1.25 1.25 0 1 0 2.5 0 1.25 1.25 0 0 0-2.5 0z"/>
        <path d="M6 12.75c-.41 0-.75-.34-.75-.75s.34-.75.75-.75h12c.41 0 .75.34.75.75s-.34.75-.75.75H6z" fill-rule="nonzero"/>
        <path d="M14 20.75c-2.42 0-3.75-1.33-3.75-3.75V7c0-2.42 1.33-3.75 3.75-3.75h4c.41 0 .75.34.75.75s-.34.75-.75.75h-4c-1.58 0-2.25.67-2.25 2.25v10c0 1.58.67 2.25 2.25 2.25h4c.41 0 .75.34.75.75s-.34.75-.75.75h-4z" fill-rule="nonzero"/>
    </g>
</svg>
