<svg width="24" height="24" viewBox="0 0 24 24" xmlns="http://www.w3.org/2000/svg">
    <g fill="#292D32" fill-rule="evenodd">
        <path d="M14.25 11v-1c0-1.46-.36-2.25-2.25-2.25-1.89 0-2.25.79-2.25 2.25v1c0 .41-.34.75-.75.75s-.75-.34-.75-.75v-1c0-.93 0-3.75 3.75-3.75s3.75 2.82 3.75 3.75v1c0 .41-.34.75-.75.75s-.75-.34-.75-.75z" fill-rule="nonzero"/>
        <path d="M10.65 14c0-.74.61-1.35 1.35-1.35.74 0 1.35.61 1.35 1.35 0 .74-.61 1.35-1.35 1.35-.74 0-1.35-.61-1.35-1.35zm1.2 0c0 .17.3.17.3 0 0-.08-.07-.15-.15-.15-.08 0-.15.07-.15.15z"/>
        <path d="M9.5 17.75c-2.4 0-3.25-.85-3.25-3.25v-1c0-2.4.85-3.25 3.25-3.25h5c2.4 0 3.25.85 3.25 3.25v1c0 2.4-.85 3.25-3.25 3.25h-5zM7.75 13.5v1c0 1.59.16 1.75 1.75 1.75h5c1.59 0 1.75-.16 1.75-1.75v-1c0-1.59-.16-1.75-1.75-1.75h-5c-1.59 0-1.75.16-1.75 1.75z"/>
        <path d="M1.25 12C1.25 6.07 6.07 1.25 12 1.25S22.75 6.07 22.75 12 17.93 22.75 12 22.75 1.25 17.93 1.25 12zm1.5 0c0 5.1 4.15 9.25 9.25 9.25s9.25-4.15 9.25-9.25S17.1 2.75 12 2.75 2.75 6.9 2.75 12z"/>
    </g>
</svg>
