<svg width="24" height="24" viewBox="0 0 24 24" xmlns="http://www.w3.org/2000/svg">
    <g fill="#292D32" fill-rule="evenodd">
        <path d="M4.97 22.75c-3.75 0-3.75-2.08-3.75-3.75v-1c0-.96.79-1.75 1.75-1.75h18c.96 0 1.75.79 1.75 1.75v1c0 1.67 0 3.75-3.75 3.75h-14zM2.72 18v1c0 1.64 0 2.25 2.25 2.25h14c2.25 0 2.25-.61 2.25-2.25v-1c0-.14-.11-.25-.25-.25h-18c-.14 0-.25.11-.25.25z"/>
        <path d="M3.27 17.75c-.41 0-.75-.34-.75-.75v-4c0-4.1 2.91-7.7 6.91-8.55.59-.13 1.21-.2 1.84-.2h1.45c.64 0 1.26.07 1.85.2 4 .86 6.9 4.46 6.9 8.55v4c0 .41-.33.75-.75.75H3.27zm16.7-1.5V13c0-3.39-2.4-6.37-5.72-7.09-.49-.11-1-.16-1.53-.16h-1.45c-.52 0-1.03.05-1.52.16C6.43 6.62 4.02 9.6 4.02 13v3.25h15.95z"/>
        <path d="M8.87 5.38A3.256 3.256 0 0 1 12 1.25a3.256 3.256 0 0 1 3.13 4.13c-.1.38-.48.62-.88.53-.49-.11-1-.16-1.53-.16h-1.45c-.52 0-1.03.05-1.52.16-.05.01-.1.02-.16.02-.33 0-.63-.22-.72-.55zm3.85-1.13c.34 0 .69.02 1.02.06-.09-.88-.84-1.56-1.74-1.56s-1.64.68-1.74 1.56c.34-.04.67-.06 1.01-.06h1.45z"/>
        <path d="M9 11.75c-.41 0-.75-.34-.75-.75s.34-.75.75-.75h6c.41 0 .75.34.75.75s-.34.75-.75.75H9z" fill-rule="nonzero"/>
    </g>
</svg>
