<svg width="24" height="24" viewBox="0 0 24 24" xmlns="http://www.w3.org/2000/svg">
    <g fill="#292D32" fill-rule="evenodd">
        <path d="M15.7 14.4V8.5c0-.14-.11-.25-.25-.25h-2.9c-.41 0-.75-.34-.75-.75s.34-.75.75-.75h2.9c.96 0 1.75.79 1.75 1.75v5.9c0 .41-.34.75-.75.75s-.75-.34-.75-.75z" fill-rule="nonzero"/>
        <path d="m13.57 9.58-1.8-1.5a.761.761 0 0 1 0-1.16l1.8-1.5c.32-.26.79-.22 1.06.1s.22.79-.1 1.06l-1.11.92 1.11.92c.32.27.36.74.1 1.06a.759.759 0 0 1-1.06.1zM6.8 14.4v-4.2c0-.41.34-.75.75-.75s.75.34.75.75v4.2c0 .41-.34.75-.75.75s-.75-.34-.75-.75z" fill-rule="nonzero"/>
        <path d="M5 7.95c0-1.49 1.21-2.7 2.7-2.7 1.49 0 2.7 1.21 2.7 2.7 0 1.49-1.21 2.7-2.7 2.7-1.49 0-2.7-1.21-2.7-2.7zm1.5 0c0 .66.54 1.2 1.2 1.2.66 0 1.2-.54 1.2-1.2 0-.66-.54-1.2-1.2-1.2-.66 0-1.2.54-1.2 1.2zM5 16.2c0-1.41 1.14-2.55 2.55-2.55s2.55 1.14 2.55 2.55-1.14 2.55-2.55 2.55S5 17.61 5 16.2zm1.5 0a1.05 1.05 0 1 0 2.1 0 1.05 1.05 0 0 0-2.1 0zM13.9 16.2c0-1.41 1.14-2.55 2.55-2.55S19 14.79 19 16.2s-1.14 2.55-2.55 2.55-2.55-1.14-2.55-2.55zm1.5 0a1.05 1.05 0 1 0 2.1 0 1.05 1.05 0 0 0-2.1 0z"/>
        <path d="M9 22.75c-5.43 0-7.75-2.32-7.75-7.75V9c0-5.43 2.32-7.75 7.75-7.75h6c5.43 0 7.75 2.32 7.75 7.75v6c0 5.43-2.32 7.75-7.75 7.75H9zM2.75 9v6c0 4.61 1.64 6.25 6.25 6.25h6c4.61 0 6.25-1.64 6.25-6.25V9c0-4.61-1.64-6.25-6.25-6.25H9C4.39 2.75 2.75 4.39 2.75 9z"/>
    </g>
</svg>
