<svg width="24" height="24" viewBox="0 0 24 24" xmlns="http://www.w3.org/2000/svg">
    <g fill="#292D32" fill-rule="evenodd">
        <path d="M9.09 7.16c0-1.6 1.31-2.91 2.91-2.91s2.91 1.31 2.91 2.91-1.31 2.91-2.91 2.91a2.92 2.92 0 0 1-2.91-2.91zm1.5 0c0 .78.63 1.41 1.41 1.41.78 0 1.41-.63 1.41-1.41 0-.78-.63-1.41-1.41-1.41-.78 0-1.41.63-1.41 1.41zM3.88 16.84c0-1.6 1.31-2.91 2.91-2.91s2.91 1.31 2.91 2.91-1.31 2.91-2.91 2.91a2.92 2.92 0 0 1-2.91-2.91zm1.5 0c0 .78.63 1.41 1.41 1.41.78 0 1.41-.63 1.41-1.41 0-.78-.64-1.41-1.41-1.41-.78 0-1.41.63-1.41 1.41zM14.3 16.84c0-1.6 1.31-2.91 2.91-2.91s2.91 1.31 2.91 2.91-1.3 2.91-2.91 2.91a2.92 2.92 0 0 1-2.91-2.91zm1.5 0c0 .78.63 1.41 1.41 1.41.78 0 1.41-.63 1.41-1.41 0-.78-.63-1.41-1.41-1.41-.78 0-1.41.63-1.41 1.41z"/>
    </g>
</svg>
