<svg width="24" height="24" viewBox="0 0 24 24" xmlns="http://www.w3.org/2000/svg">
    <g fill="#292D32" fill-rule="evenodd">
        <path d="M10.391 18.13c-3.13 0-4.52-1.39-4.52-4.52v-3.23c0-3.13 1.39-4.52 4.52-4.52h3.23c3.13 0 4.52 1.39 4.52 4.52v3.23c-.01 3.13-1.4 4.52-4.52 4.52h-3.23zm-3.03-7.74v3.23c0 2.29.73 3.02 3.02 3.02h3.23c2.29 0 3.02-.73 3.02-3.02v-3.23c0-2.29-.73-3.02-3.02-3.02h-3.23c-2.29 0-3.02.73-3.02 3.02z"/>
        <path d="M17.38 13.52c-.41 0-.75-.34-.75-.75v-2.38c0-2.29-.73-3.02-3.02-3.02h-2.38c-.41 0-.75-.34-.75-.75v-.85c0-3.13 1.39-4.52 4.52-4.52h3.23c3.13 0 4.52 1.39 4.52 4.52V9c0 3.13-1.39 4.52-4.52 4.52h-.85zm.85-1.5c2.29 0 3.02-.73 3.02-3.02V5.77c0-2.29-.73-3.02-3.02-3.02H15c-2.29 0-3.02.73-3.02 3.02v.1h1.63c3.13 0 4.52 1.39 4.52 4.52v1.63h.1zM5.77 22.75c-3.13 0-4.52-1.39-4.52-4.52V15c0-3.13 1.39-4.52 4.52-4.52h.85c.41 0 .75.34.75.75v2.38c0 2.29.73 3.02 3.02 3.02h2.38c.41 0 .75.34.75.75v.85c0 3.13-1.39 4.52-4.52 4.52H5.77zM2.75 15v3.23c0 2.29.73 3.02 3.02 3.02H9c2.29 0 3.02-.73 3.02-3.02v-.1h-1.63c-3.13 0-4.52-1.39-4.52-4.52v-1.63h-.1c-2.29 0-3.02.73-3.02 3.02z"/>
    </g>
</svg>
