<svg width="24" height="24" viewBox="0 0 24 24" xmlns="http://www.w3.org/2000/svg">
    <g fill="#292D32" fill-rule="evenodd">
        <path d="M9 22.75c-5.43 0-7.75-2.32-7.75-7.75V9c0-5.43 2.32-7.75 7.75-7.75h6c5.43 0 7.75 2.32 7.75 7.75v6c0 5.43-2.32 7.75-7.75 7.75H9zM2.75 9v6c0 4.61 1.64 6.25 6.25 6.25h6c4.61 0 6.25-1.64 6.25-6.25V9c0-4.61-1.64-6.25-6.25-6.25H9C4.39 2.75 2.75 4.39 2.75 9z"/>
        <path d="M8 19.75c-2.42 0-3.75-1.33-3.75-3.75V8c0-2.42 1.33-3.75 3.75-3.75h8c2.42 0 3.75 1.33 3.75 3.75v8c0 2.42-1.33 3.75-3.75 3.75H8zM5.75 8v8c0 1.58.67 2.25 2.25 2.25h8c1.58 0 2.25-.67 2.25-2.25V8c0-1.58-.67-2.25-2.25-2.25H8c-1.58 0-2.25.67-2.25 2.25z"/>
        <path d="M5 15.25c-.41 0-.75-.34-.75-.75s.34-.75.75-.75h2.48c.97 0 1.75-.79 1.75-1.75s-.79-1.75-1.75-1.75H5c-.41 0-.75-.34-.75-.75s.34-.75.75-.75h2.48c1.79 0 3.25 1.46 3.25 3.25a3.25 3.25 0 0 1-3.25 3.25H5zM16 10.74c-.41 0-.75-.34-.75-.75s.34-.75.75-.75h3c.41 0 .75.34.75.75s-.34.75-.75.75h-3zM16 14.75c-.41 0-.75-.34-.75-.75s.34-.75.75-.75h3c.41 0 .75.34.75.75s-.34.75-.75.75h-3z" fill-rule="nonzero"/>
        <path d="M6.87 12.92c-.12-.05-.23-.12-.33-.21a.99.99 0 0 1-.29-.71c0-.26.11-.52.29-.71.28-.27.72-.37 1.09-.21.13.05.24.12.33.21.18.19.29.45.29.71 0 .27-.1.52-.29.71-.1.09-.21.16-.33.21-.12.05-.25.08-.38.08s-.26-.03-.38-.08z" fill-rule="nonzero"/>
    </g>
</svg>
