<svg width="24" height="24" viewBox="0 0 24 24" xmlns="http://www.w3.org/2000/svg">
    <g fill="#292D32" fill-rule="evenodd">
        <path d="M5.78 6.55c-.28 0-.54.01-.78.02-2.37.14-3 1.01-3 3.71v.58c0 .55.45 1 1 1h15c.55 0 1-.45 1-1v-.58c0-2.98-.76-3.73-3.78-3.73H5.78z" fill-rule="nonzero"/>
        <path d="M2 14.36v2.91C2 20.25 2.76 21 5.78 21h9.44c2.97 0 3.75-.72 3.78-3.57v-3.07c0-.55-.45-1-1-1H3c-.55 0-1 .45-1 1zm3.25 4.2c-.41 0-.75-.34-.75-.75s.34-.75.75-.75h1.72c.41 0 .75.34.75.75s-.34.75-.76.75H5.25zm3.86 0c-.41 0-.75-.34-.75-.75s.34-.75.75-.75h3.44a.749.749 0 1 1 0 1.5H9.11z"/>
        <path d="M22.002 8.092c0-3.13-1.79-4.49-4.49-4.49h-8.93c-.76 0-1.44.11-2.04.34-.47.17-.89.42-1.23.75-.18.17-.04.45.22.45h10.87c2.25 0 4.07 1.82 4.07 4.07v7.17c0 .25.27.39.45.21.69-.73 1.08-1.8 1.08-3.26v-5.24z" fill-rule="nonzero"/>
    </g>
</svg>
