<svg width="24" height="24" viewBox="0 0 24 24" xmlns="http://www.w3.org/2000/svg">
    <g fill="#292D32" fill-rule="nonzero">
        <path d="M3 22.75c-.41 0-.75-.34-.75-.75s.34-.75.75-.75h18c.41 0 .75.34.75.75s-.34.75-.75.75H3zM4 8.379c-.55 0-1 .45-1 1v8.62c0 .55.45 1 1 1h1.6c.55 0 1-.45 1-1v-8.62c0-.56-.45-1-1-1H4zM11.2 5.191c-.55 0-1 .45-1 1v11.81c0 .55.45 1 1 1h1.6c.55 0 1-.45 1-1V6.191c0-.55-.45-1-1-1h-1.6zM18.4 2c-.55 0-1 .45-1 1v15c0 .55.45 1 1 1H20c.55 0 1-.45 1-1V3c0-.55-.45-1-1-1h-1.6z"/>
    </g>
</svg>
