<svg width="24" height="24" viewBox="0 0 24 24" xmlns="http://www.w3.org/2000/svg">
    <g fill="#292D32" fill-rule="nonzero">
        <path d="M21.07 20.04a3.576 3.576 0 0 0-2.99-5.54c-1.98 0-3.58 1.6-3.58 3.58a3.576 3.576 0 0 0 5.54 2.99l.72.72a.728.728 0 0 0 1.03-1.03l-.72-.72zM2.012 14.729a9.494 9.494 0 0 0 4.26 4.26c.03 0 .07-.02.1-.02-.34-1.16-.6-2.35-.79-3.54-1.2-.2-2.39-.46-3.55-.8 0 .03-.02.07-.02.1zM14.578 1.941c.36 1.19.66 2.41.86 3.63 1.22.2 2.44.49 3.63.86a9.5 9.5 0 0 0-4.49-4.49zM5.57 5.57c.2-1.19.45-2.37.79-3.53-.03 0-.07-.02-.1-.02-1.88.93-3.41 2.5-4.33 4.41 1.2-.36 2.42-.66 3.64-.86zM12.85 1.5c-.02-.07-.02-.13-.03-.21C12.08 1.11 11.3 1 10.5 1c-.81 0-1.58.11-2.33.3-.01.07 0 .13-.02.21-.42 1.26-.73 2.55-.97 3.85 2.21-.24 4.43-.24 6.64 0-.24-1.3-.54-2.6-.97-3.86zM1.5 8.15c-.07.02-.13.02-.2.03-.19.74-.3 1.52-.3 2.32 0 .81.11 1.58.3 2.33.07.01.13 0 .21.02 1.26.42 2.55.73 3.86.97-.25-2.21-.25-4.43-.01-6.64-1.31.24-2.59.55-3.86.97zM19.489 8.15c-1.26-.42-2.56-.73-3.86-.97.25 2.21.25 4.43 0 6.63 1.3-.24 2.6-.54 3.86-.97.07-.02.13-.01.21-.02.18-.75.3-1.52.3-2.33 0-.79-.11-1.56-.3-2.31-.07 0-.13-.01-.21-.03zM8.15 19.499c.02.07.01.13.02.21.75.18 1.52.29 2.33.29.8 0 1.58-.11 2.32-.3.01-.07.01-.13.03-.21.42-1.26.73-2.55.97-3.86-1.1.12-2.21.21-3.32.21-1.11 0-2.22-.08-3.32-.2.24 1.31.54 2.6.97 3.86zM6.952 14.062c2.36.3 4.74.3 7.11 0 .3-2.36.3-4.74 0-7.11-2.37-.3-4.75-.3-7.11 0-.3 2.36-.3 4.74 0 7.11z"/>
    </g>
</svg>
