<svg width="24" height="24" viewBox="0 0 24 24" xmlns="http://www.w3.org/2000/svg">
    <g fill="#292D32" fill-rule="evenodd">
        <path d="M6.6 20c-1.92 0-2.85-.98-2.85-2.98v-1.04c0-2 .93-2.98 2.85-2.98h10.8c1.92 0 2.85.98 2.85 2.98v1.04c0 2-.93 2.98-2.85 2.98H6.6zm-1.35-4.02v1.04c0 1.27.34 1.48 1.35 1.48h10.8c1.01 0 1.35-.21 1.35-1.48v-1.04c0-1.27-.34-1.48-1.35-1.48H6.6c-1.01 0-1.35.21-1.35 1.48zM8.6 11.5c-1.92 0-2.85-.98-2.85-2.98V7.48c0-2.01.93-2.98 2.85-2.98h6.8c1.92 0 2.85.98 2.85 2.98v1.04c0 2-.93 2.98-2.85 2.98H8.6zM7.25 7.48v1.04c0 1.27.34 1.48 1.35 1.48h6.8c1.01 0 1.35-.21 1.35-1.48V7.48c0-1.27-.34-1.48-1.35-1.48H8.6c-1.01 0-1.35.21-1.35 1.48z"/>
        <path d="M11.25 22v-2.4c0-.41.34-.75.75-.75s.75.34.75.75V22c0 .41-.34.75-.75.75s-.75-.34-.75-.75zM11.25 13v-2c0-.41.34-.75.75-.75s.75.34.75.75v2c0 .41-.34.75-.75.75s-.75-.34-.75-.75zM11.25 4.69V2a.749.749 0 1 1 1.5 0v2.69a.749.749 0 1 1-1.5 0z" fill-rule="nonzero"/>
    </g>
</svg>
