<svg width="24" height="24" viewBox="0 0 24 24" xmlns="http://www.w3.org/2000/svg">
    <g fill="#292D32" fill-rule="nonzero">
        <path d="M12.508 12.281c-.31.18-.7.18-1.02 0l-7.7-4.46c-.55-.32-.69-1.07-.27-1.54.29-.33.62-.6.97-.79l5.42-3c1.16-.65 3.04-.65 4.2 0l5.42 3c.35.19.68.47.97.79.4.47.26 1.22-.29 1.54l-7.7 4.46zM11.43 20.959c0 .76-.77 1.26-1.45.93-1.373-.673-3.216-1.64-5.53-2.9-1.22-.69-2.22-2.43-2.22-3.86v-5.16c0-.79.83-1.29 1.51-.9l7.19 4.17c.3.19.5.53.5.9v6.82zM12.57 20.959c0 .76.77 1.26 1.45.93 1.374-.673 3.217-1.64 5.53-2.9 1.22-.69 2.22-2.43 2.22-3.86v-5.16c0-.79-.83-1.29-1.51-.9l-7.19 4.17c-.3.19-.5.53-.5.9v6.82z"/>
    </g>
</svg>
