<svg width="24" height="24" viewBox="0 0 24 24" xmlns="http://www.w3.org/2000/svg">
    <g fill="#292D32" fill-rule="nonzero">
        <path d="M1.25 12C1.25 6.07 6.07 1.25 12 1.25c.41 0 .75.34.75.75s-.34.75-.75.75C6.9 2.75 2.75 6.9 2.75 12S6.9 21.25 12 21.25s9.25-4.15 9.25-9.25c0-.41.34-.75.75-.75s.75.34.75.75c0 5.93-4.82 10.75-10.75 10.75S1.25 17.93 1.25 12z"/>
        <path d="M12.47 11.53a.754.754 0 0 1 0-1.06l8.2-8.2c.29-.29.77-.29 1.06 0 .29.29.29.77 0 1.06l-8.2 8.2c-.15.15-.34.22-.53.22s-.38-.07-.53-.22z"/>
        <path d="M21.25 6.83V2.75h-4.08c-.41 0-.75-.34-.75-.75s.34-.75.75-.75H22c.41 0 .75.34.75.75v4.83c0 .41-.34.75-.75.75s-.75-.34-.75-.75z"/>
    </g>
</svg>
