<svg width="24" height="24" viewBox="0 0 24 24" xmlns="http://www.w3.org/2000/svg">
    <g fill="#292D32" fill-rule="evenodd">
        <path d="M16 7.25c-.41 0-.75-.34-.75-.75s.34-.75.75-.75h6c.41 0 .75.34.75.75s-.34.75-.75.75h-6zM2 7.25c-.41 0-.75-.34-.75-.75s.34-.75.75-.75h4c.41 0 .75.34.75.75s-.34.75-.75.75H2z" fill-rule="nonzero"/>
        <path d="M5.75 6.5A4.26 4.26 0 0 1 10 2.25a4.26 4.26 0 0 1 4.25 4.25A4.26 4.26 0 0 1 10 10.75 4.26 4.26 0 0 1 5.75 6.5zm1.5 0c0 1.52 1.23 2.75 2.75 2.75s2.75-1.23 2.75-2.75S11.52 3.75 10 3.75 7.25 4.98 7.25 6.5z"/>
        <path d="M18 18.25c-.41 0-.75-.34-.75-.75s.34-.75.75-.75h4c.41 0 .75.34.75.75s-.34.75-.75.75h-4zM2 18.25c-.41 0-.75-.34-.75-.75s.34-.75.75-.75h6c.41 0 .75.34.75.75s-.34.75-.75.75H2z" fill-rule="nonzero"/>
        <path d="M9.75 17.5A4.26 4.26 0 0 1 14 13.25a4.26 4.26 0 0 1 4.25 4.25A4.26 4.26 0 0 1 14 21.75a4.26 4.26 0 0 1-4.25-4.25zm1.5 0c0 1.52 1.23 2.75 2.75 2.75s2.75-1.23 2.75-2.75-1.23-2.75-2.75-2.75-2.75 1.23-2.75 2.75z"/>
    </g>
</svg>
