<svg width="24" height="24" viewBox="0 0 24 24" xmlns="http://www.w3.org/2000/svg">
    <g fill="#292D32" fill-rule="evenodd">
        <path d="M16.75 2c0-.41-.34-.75-.75-.75s-.75.34-.75.75v1.5h-6.5V2c0-.41-.34-.75-.75-.75s-.75.34-.75.75v1.56c-2.7.25-4.01 1.86-4.21 4.25-.02.29.22.53.5.53h16.92c.29 0 .53-.25.5-.53-.2-2.39-1.51-4-4.21-4.25V2z" fill-rule="nonzero"/>
        <path d="M4 9.84c-.55 0-1 .45-1 1V17c0 3 1.5 5 5 5h8c3.5 0 5-2 5-5v-6.16c0-.55-.45-1-1-1H4zm4.88 8.58c-.12.05-.25.08-.38.08s-.26-.03-.38-.08-.23-.12-.33-.21c-.18-.19-.29-.45-.29-.71 0-.26.11-.52.29-.71.1-.09.21-.16.33-.21a1 1 0 0 1 .76 0c.12.05.23.12.33.21.18.19.29.45.29.71 0 .26-.11.52-.29.71-.1.09-.21.16-.33.21zm.33-3.71c-.1.09-.21.16-.33.21-.12.05-.25.08-.38.08s-.26-.03-.38-.08-.23-.12-.33-.21c-.09-.1-.16-.21-.21-.33A.995.995 0 0 1 7.5 14c0-.13.03-.26.08-.38s.12-.23.21-.33c.1-.09.21-.16.33-.21a1 1 0 0 1 .76 0c.12.05.23.12.33.21.09.1.16.21.21.33.05.12.08.25.08.38s-.03.26-.08.38-.12.23-.21.33zm3.17.21c-.12.05-.25.08-.38.08s-.26-.03-.38-.08-.23-.12-.33-.21c-.18-.19-.29-.45-.29-.71 0-.26.11-.52.29-.71.1-.09.21-.16.33-.21.24-.11.52-.11.76 0 .12.05.23.12.33.21.18.19.29.45.29.71 0 .26-.11.52-.29.71-.1.09-.21.16-.33.21z"/>
    </g>
</svg>
