<svg width="24" height="24" viewBox="0 0 24 24" xmlns="http://www.w3.org/2000/svg">
    <g fill="#292D32" fill-rule="nonzero">
        <path d="M14.43 6.39c-.41 0-.75-.34-.75-.75s.34-.75.75-.75h7.27c.41 0 .75.34.75.75s-.34.75-.75.75h-7.27zM2.3 6.39c-.41 0-.75-.34-.75-.75s.34-.75.75-.75h7.27c.41 0 .75.34.75.75s-.33.75-.74.75H2.3zM14.43 16.08c-.41 0-.75-.34-.75-.75s.34-.75.75-.75h7.27c.41 0 .75.34.75.75s-.34.75-.75.75h-7.27zM14.43 22.14c-.41 0-.75-.34-.75-.75s.34-.75.75-.75h7.27c.41 0 .75.34.75.75s-.34.75-.75.75h-7.27z"/>
        <path d="M17.34 9.27V2c0-.41.34-.75.75-.75s.75.34.75.75v7.27c0 .42-.33.75-.75.75-.41 0-.75-.34-.75-.75zM1.77 22.53a.754.754 0 0 1 0-1.06l7.27-7.27c.29-.29.77-.29 1.06 0 .29.29.29.77 0 1.06l-7.27 7.27a.71.71 0 0 1-.53.22c-.19 0-.38-.07-.53-.22z"/>
        <path d="m9.05 22.53-7.27-7.27a.754.754 0 0 1 0-1.06c.29-.29.77-.29 1.06 0l7.27 7.27c.29.29.29.77 0 1.06-.15.15-.34.22-.53.22s-.38-.07-.53-.22z"/>
    </g>
</svg>
