<?xml version="1.0" encoding="UTF-8"?>
<svg width="24px" height="24px" viewBox="0 0 24 24" version="1.1" xmlns="http://www.w3.org/2000/svg" xmlns:xlink="http://www.w3.org/1999/xlink">
    <title>2D649C88-8F0E-49E7-897F-C7E6BABAC873</title>
    <g id="Outline-Icons" stroke="none" stroke-width="1" fill="none" fill-rule="evenodd">
        <g id="Video,-Audio,-Image" transform="translate(-236.000000, -508.000000)">
            <g id="forward-15-seconds" transform="translate(236.000000, 508.000000)">
                <path d="M12.1394573,16.9202881 C11.7294573,16.9202881 11.3894573,16.5802881 11.3894573,16.1702881 C11.3894573,15.7602881 11.7294573,15.4202881 12.1394573,15.4202881 L14.4294353,15.4202881 C14.8594353,15.4202881 15.2094646,15.0703125 15.2094646,14.6403198 C15.2094646,14.2103198 14.8594353,13.8602905 14.4294353,13.8602905 L12.1394573,13.8602905 C11.8994573,13.8602905 11.669472,13.740293 11.529472,13.550293 C11.389472,13.360293 11.3494353,13.1003003 11.4294353,12.8703003 L12.1894451,10.5803223 C12.2894451,10.2703223 12.5794671,10.0703125 12.8994671,10.0703125 L15.9594646,10.0703125 C16.3694645,10.0703125 16.7094646,10.4103125 16.7094646,10.8203125 C16.7094646,11.2303125 16.3694645,11.5703125 15.9594646,11.5703125 L13.439445,11.5703125 L13.1794354,12.3602905 L14.4294353,12.3602905 C15.6894352,12.3602905 16.7094646,13.3803198 16.7094646,14.6403198 C16.7094646,15.9003198 15.6794353,16.9202881 14.4294353,16.9202881 L12.1394573,16.9202881 Z" id="Vector" fill="#292D32" fill-rule="nonzero"></path>
                <path d="M8.78954875,16.1698108 L8.78954875,12.7798572 L8.59954631,12.9998279 C8.31954631,13.3098279 7.84954877,13.3298254 7.53954877,13.0598254 C7.22954877,12.7798254 7.2095512,12.3098279 7.47955121,11.9998279 L8.9795512,10.329845 C9.18955119,10.0998449 9.51956841,10.0198327 9.80956841,10.1298327 C10.0995684,10.2398327 10.2895489,10.5198449 10.2895489,10.829845 L10.2895489,16.1798205 C10.2895489,16.5898205 9.95954886,16.9198108 9.53954887,16.9198108 C9.12954888,16.9198108 8.78954875,16.5798108 8.78954875,16.1698108 Z" id="Vector" fill="#292D32" fill-rule="nonzero"></path>
                <path d="M13.3997808,4.93975878 L11.4197392,2.46972692 C11.1597392,2.14972693 11.2097343,1.66973917 11.5397343,1.41973917 C11.8597343,1.15973918 12.3297831,1.20973429 12.5897831,1.5397343 L14.5697637,4.0097661 C14.8297637,4.32976609 14.7797686,4.80975389 14.4497685,5.05975389 C14.3097685,5.1597539 14.1397368,5.21972704 13.9797368,5.21972704 C13.7597368,5.21972704 13.5397808,5.11975878 13.3997808,4.93975878 Z" id="Vector" fill="#292D32" fill-rule="nonzero"></path>
                <path d="M2.359375,13.1097412 C2.359375,7.78974104 6.67938948,3.46972656 11.9993896,3.46972656 C12.6893896,3.46972656 13.3894141,3.54973632 14.1494141,3.72973633 C14.5494141,3.81973633 14.8094116,4.22976074 14.7094116,4.62976074 C14.6194116,5.02976075 14.2093872,5.2897583 13.8093872,5.1897583 C13.1693872,5.03975829 12.5693896,4.96972656 11.9993896,4.96972656 C7.50938988,4.96972656 3.859375,8.61974144 3.859375,13.1097412 C3.859375,17.599741 7.50938988,21.2497559 11.9993896,21.2497559 C16.4893894,21.2497559 20.1394043,17.599741 20.1394043,13.1097412 C20.1394043,11.3697412 19.5693799,9.68975592 18.4893799,8.24975586 C18.2393799,7.91975585 18.3094043,7.44976807 18.6394043,7.19976807 C18.9694043,6.94976807 19.4393921,7.01973143 19.6893921,7.34973145 C20.9693921,9.04973149 21.6394043,11.0397413 21.6394043,13.1097412 C21.6394043,18.4297414 17.3093896,22.7497559 11.9993896,22.7497559 C6.68938971,22.7497559 2.359375,18.4297414 2.359375,13.1097412 Z" id="Vector" fill="#292D32" fill-rule="nonzero"></path>
                <path d="M24,0 L24,24 L0,24 L0,0 L24,0 Z" id="Vector" opacity="0"></path>
            </g>
        </g>
    </g>
</svg>