<svg width="24" height="24" viewBox="0 0 24 24" xmlns="http://www.w3.org/2000/svg">
    <g fill="#292D32" fill-rule="evenodd">
        <path d="M2 22.75c-.41 0-.75-.34-.75-.75s.34-.75.75-.75h20c.41 0 .75.34.75.75s-.34.75-.75.75H2z" fill-rule="nonzero"/>
        <path d="M3 22.75c-.41 0-.75-.34-.75-.75v-7c0-5.38 4.37-9.75 9.75-9.75s9.75 4.37 9.75 9.75v7c0 .41-.34.75-.75.75H3zm17.25-1.5V15c0-4.55-3.7-8.25-8.25-8.25S3.75 10.45 3.75 15v6.25h16.5z"/>
        <path d="M11.25 3V2c0-.41.34-.75.75-.75s.75.34.75.75v1c0 .41-.34.75-.75.75s-.75-.34-.75-.75zM4.47 5.53l-1-1a.754.754 0 0 1 0-1.06c.29-.29.77-.29 1.06 0l1 1c.29.29.29.77 0 1.06-.15.15-.34.22-.53.22s-.38-.07-.53-.22zM18.47 5.53a.754.754 0 0 1 0-1.06l1-1c.29-.29.77-.29 1.06 0 .29.29.29.77 0 1.06l-1 1c-.15.15-.34.22-.53.22s-.38-.07-.53-.22z" fill-rule="nonzero"/>
    </g>
</svg>
