<svg width="24" height="24" viewBox="0 0 24 24" xmlns="http://www.w3.org/2000/svg">
    <g fill="#292D32" fill-rule="evenodd">
        <path d="M6.21 22.74c-2.74 0-4.96-2.23-4.96-4.97v-7.41c0-1.36.84-3.07 1.92-3.91l5.39-4.2c1.62-1.26 4.21-1.32 5.89-.14l6.18 4.33c1.19.83 2.12 2.61 2.12 4.06v7.28c0 2.73-2.22 4.96-4.96 4.96H6.21zM4.09 7.63c-.71.56-1.34 1.83-1.34 2.73v7.41a3.47 3.47 0 0 0 3.46 3.47h11.58c1.91 0 3.46-1.55 3.46-3.46V10.5c0-.96-.69-2.29-1.48-2.83l-6.18-4.33c-1.14-.8-3.02-.76-4.11.09l-5.39 4.2z"/>
        <path d="M10.5 18.75c-2.07 0-3.75-1.68-3.75-3.75v-3c0-2.07 1.68-3.75 3.75-3.75h3c2.07 0 3.75 1.68 3.75 3.75v3c0 2.07-1.68 3.75-3.75 3.75h-3zM8.25 12v3c0 1.24 1.01 2.25 2.25 2.25h3c1.24 0 2.25-1.01 2.25-2.25v-3c0-1.24-1.01-2.25-2.25-2.25h-3c-1.24 0-2.25 1.01-2.25 2.25z"/>
        <path d="M11.25 18V9c0-.41.34-.75.75-.75s.75.34.75.75v9c0 .41-.34.75-.75.75s-.75-.34-.75-.75z" fill-rule="nonzero"/>
        <path d="M7.5 14.25c-.41 0-.75-.34-.75-.75s.34-.75.75-.75h9c.41 0 .75.34.75.75s-.34.75-.75.75h-9z" fill-rule="nonzero"/>
    </g>
</svg>
