<svg width="24" height="24" viewBox="0 0 24 24" xmlns="http://www.w3.org/2000/svg">
    <g fill="#292D32" fill-rule="evenodd">
        <path d="M3.219 19.34c-.41 0-.75-.34-.75-.75v-4.94c0-5.22 4.25-9.47 9.47-9.47h.12c5.22 0 9.47 4.25 9.47 9.47v4.94c0 .41-.34.75-.75.75H3.219zm16.81-1.5v-4.19c0-4.4-3.58-7.97-7.97-7.97h-.12c-4.4 0-7.97 3.58-7.97 7.97v4.19h16.06z"/>
        <path d="M11.25 4.93V2c0-.41.34-.75.75-.75s.75.34.75.75v2.93c0 .41-.34.75-.75.75s-.75-.34-.75-.75z" fill-rule="nonzero"/>
        <path d="M7.6 18.64a.76.76 0 0 1 .2-.56c.14-.15.34-.24.55-.24h7.3c.21 0 .41.09.55.24.14.15.21.36.2.56-.16 2.3-2.09 4.11-4.4 4.11-2.31 0-4.24-1.81-4.4-4.11zm4.4 2.61c1.24 0 2.32-.79 2.73-1.91H9.27A2.917 2.917 0 0 0 12 21.25z"/>
    </g>
</svg>
