<svg width="24" height="24" viewBox="0 0 24 24" xmlns="http://www.w3.org/2000/svg">
    <g fill="#292D32" fill-rule="evenodd">
        <path d="M4.75 12C4.75 8 8 4.75 12 4.75S19.25 8 19.25 12 16 19.25 12 19.25 4.75 16 4.75 12zm1.5 0c0 3.17 2.58 5.75 5.75 5.75s5.75-2.58 5.75-5.75S15.17 6.25 12 6.25 6.25 8.83 6.25 12zM11 22v-.08c0-.55.45-1 1-1s1 .45 1 1-.45 1.04-1 1.04-1-.41-1-.96zm7.43-2.15-.13-.13a.996.996 0 1 1 1.41-1.41l.13.13a.996.996 0 1 1-1.41 1.41zm-14.28 0a.996.996 0 0 1 0-1.41l.13-.13a.996.996 0 1 1 1.41 1.41l-.13.13a1.001 1.001 0 0 1-1.41 0zM21.92 13c-.55 0-1-.45-1-1s.45-1 1-1 1.04.45 1.04 1-.41 1-.96 1h-.08zM2 13c-.55 0-1-.45-1-1s.45-1 1-1 1.04.45 1.04 1-.41 1-.96 1H2zm16.3-7.3a.996.996 0 0 1 0-1.41l.13-.13a.996.996 0 1 1 1.41 1.41l-.13.13c-.19.19-.44.29-.7.29-.26 0-.51-.1-.71-.29zm-14.02 0-.13-.14a.996.996 0 1 1 1.41-1.41l.13.13c.39.39.39 1.02 0 1.41-.19.2-.45.3-.7.3-.26 0-.51-.1-.71-.29zM11 2.08V2c0-.55.45-1 1-1s1 .45 1 1-.45 1.04-1 1.04-1-.41-1-.96z"/>
    </g>
</svg>
