<svg width="24" height="24" viewBox="0 0 24 24" xmlns="http://www.w3.org/2000/svg">
    <g fill="#292D32" fill-rule="evenodd">
        <path d="M6.2 8.68c-.23 0-.44-.1-.58-.28a.757.757 0 0 1-.15-.63l.82-3.92c.27-1.29.86-2.6 3.16-2.6h5.1c2.31 0 2.9 1.32 3.16 2.6l.82 3.92c.05.22-.01.45-.15.63-.14.18-.35.28-.58.28H6.2zm10.67-1.5-.63-3.01c-.2-.96-.43-1.41-1.7-1.41h-5.1c-1.26 0-1.5.45-1.7 1.41l-.62 3.01h9.75z"/>
        <path d="M16.41 16.65c-1.32 0-1.59-.82-1.74-1.26l-.15-.44c-.16-.48-.16-.48-.67-.48h-3.71c-.51 0-.51.01-.67.48l-.15.44c-.15.44-.42 1.26-1.74 1.26H6.22c-.63 0-1.24-.27-1.66-.73-.41-.45-.62-1.06-.56-1.67l.41-4.41c.13-1.38.58-2.66 2.96-2.66h9.25c2.38 0 2.83 1.28 2.96 2.66l.41 4.42c.06.61-.15 1.22-.56 1.67-.42.46-1.03.72-1.66.72h-1.36zm0-1.5h1.36a.72.72 0 0 0 .73-.76l-.41-4.42c-.08-.89-.12-1.3-1.46-1.3H7.38c-1.34 0-1.38.41-1.46 1.3l-.41 4.42c-.02.19.04.38.18.52.14.15.34.24.55.24H7.6c.2 0 .26-.03.27-.03-.01 0 .02-.12.05-.2l.15-.44c.19-.56.5-1.51 2.09-1.51h3.71c1.45 0 1.82.71 2.08 1.49l.15.45c.02.09.05.19.08.23-.006 0-.006 0 0 0 .02 0 .1.01.23.01z"/>
        <path d="M5.47 6.5c-.41 0-.75-.34-.75-.75S5.06 5 5.47 5h.73c.41 0 .75.34.75.75s-.34.75-.75.75h-.73zM17.8 6.5c-.41 0-.75-.34-.75-.75s.34-.75.75-.75h.73c.41 0 .75.34.75.75s-.34.75-.75.75h-.73zM7.64 11.58c-.41 0-.75-.34-.75-.75s.34-.75.75-.75h2.18a.749.749 0 1 1 0 1.5H7.64zM14.17 11.58c-.41 0-.75-.34-.75-.75s.34-.75.75-.75h2.18c.41 0 .75.34.75.75s-.34.75-.75.75h-2.18zM11.25 18v-1c0-.41.34-.75.75-.75s.75.34.75.75v1c0 .41-.34.75-.75.75s-.75-.34-.75-.75zM11.25 22v-1c0-.41.34-.75.75-.75s.75.34.75.75v1c0 .41-.34.75-.75.75s-.75-.34-.75-.75zM1.82 22.73c-.4-.1-.65-.51-.55-.91l1-4a.75.75 0 1 1 1.46.36l-1 4c-.09.34-.39.57-.73.57-.06 0-.12-.01-.18-.02zM21.27 22.18l-1-4c-.1-.4.14-.81.55-.91.4-.1.81.14.91.55l1 4c.1.4-.14.81-.55.91a.757.757 0 0 1-.91-.55z" fill-rule="nonzero"/>
    </g>
</svg>
