<svg width="24" height="24" viewBox="0 0 24 24" xmlns="http://www.w3.org/2000/svg">
    <g fill="#292D32" fill-rule="evenodd">
        <path d="M7.97 22.75c-3.42 0-4.75-1.33-4.75-4.75v-8c0-.41.34-.75.75-.75h16c.41 0 .75.34.75.75v8c0 3.42-1.33 4.75-4.75 4.75h-8zM4.72 18c0 2.58.67 3.25 3.25 3.25h8c2.58 0 3.25-.67 3.25-3.25v-7.25H4.72V18z"/>
        <path d="M4.5 10.75c-1.75 0-2.75-1-2.75-2.75V7c0-1.75 1-2.75 2.75-2.75h15c1.7 0 2.75 1.05 2.75 2.75v1c0 1.7-1.05 2.75-2.75 2.75h-15zM3.25 7v1c0 .91.34 1.25 1.25 1.25h15c.88 0 1.25-.37 1.25-1.25V7c0-.88-.37-1.25-1.25-1.25h-15c-.91 0-1.25.34-1.25 1.25z"/>
        <path d="M6.12 5.75c-.21 0-.41-.09-.55-.24-.61-.67-.59-1.7.05-2.34l1.42-1.42c.66-.66 1.75-.66 2.41 0l2.72 2.72c.21.21.28.54.16.82-.11.28-.38.46-.69.46H6.12zm3.72-1.5L8.39 2.81a.205.205 0 0 0-.29 0L6.68 4.23c0 .01-.01.01-.01.02h3.17z"/>
        <path d="M12.35 5.75a.74.74 0 0 1-.69-.46c-.12-.28-.05-.6.16-.82l2.72-2.72c.66-.66 1.75-.66 2.41 0l1.42 1.42c.64.64.67 1.67.05 2.34-.14.15-.34.24-.55.24h-5.52zm4.99-1.5-.02-.02-1.42-1.42a.205.205 0 0 0-.29 0l-1.44 1.44h3.17zM9.11 16.69c-.57-.31-.92-.9-.92-1.54V10c0-.41.34-.75.75-.75h6.04c.41 0 .75.34.75.75v5.13c0 .65-.35 1.24-.92 1.54-.57.31-1.26.27-1.8-.09l-.89-.6a.24.24 0 0 0-.28 0l-.94.62c-.29.2-.63.3-.96.3-.28 0-.57-.07-.83-.21zm.58-1.55c0 .13.08.19.13.22s.15.06.26-.01l.94-.62c.59-.39 1.35-.39 1.93 0l.89.6c.11.07.21.04.26.01.05-.03.13-.09.13-.22v-4.38H9.69V15.14z"/>
    </g>
</svg>
