<svg width="24" height="24" viewBox="0 0 24 24" xmlns="http://www.w3.org/2000/svg">
    <g fill="#292D32" fill-rule="evenodd">
        <path d="M2 8.25V6.42C2 3.98 3.98 2 6.42 2h2.32c1.63 0 2.14.53 2.79 1.4l1.4 1.86c.31.41.35.46.93.46h2.79c2.31 0 4.28 1.47 5.02 3.53H3a1 1 0 0 1-1-1z" fill-rule="nonzero"/>
        <path d="M2 11.75v4.9C2 19.6 4.4 22 7.35 22h9.3C19.6 22 22 19.6 22 16.65l-.017-4.903a1 1 0 0 0-1-.997H3a1 1 0 0 0-1 1zm10.81 5v1.75a.749.749 0 1 1-1.5 0v-1.75H9.5c-.41 0-.75-.34-.75-.75s.34-.75.75-.75h1.81V13.5a.749.749 0 1 1 1.5 0v1.75h1.69c.41 0 .75.34.75.75s-.34.75-.75.75h-1.69z"/>
    </g>
</svg>
