<svg width="24" height="24" viewBox="0 0 24 24" xmlns="http://www.w3.org/2000/svg">
    <path d="M16.5 3.25h-9c-.75 0-1.3.03-1.74.09C2.41 3.71 1.75 5.7 1.75 9v6c0 3.3.66 5.29 3.98 5.65.47.07 1.01.1 1.77.1h9c.75 0 1.3-.03 1.74-.09 3.35-.37 4.01-2.35 4.01-5.66V9c0-3.3-.66-5.29-3.98-5.65-.47-.07-1.01-.1-1.77-.1zM11.1 10c0 .55-.45 1-1 1s-1-.45-1-1 .44-1 .99-1c.56 0 1.01.45 1.01 1zm-3 0c0 .55-.45 1-1 1s-1-.45-1-1 .44-1 .99-1c.57 0 1.01.45 1.01 1zm-1.08 6.25c-.41 0-.76-.34-.76-.75s.33-.75.74-.75h10c.41 0 .75.34.75.75s-.34.75-.75.75H7.02zm6.48-5.5c-.41 0-.75-.34-.75-.75s.34-.75.75-.75H17c.41 0 .75.34.75.75s-.34.75-.75.75h-3.5z" fill="#292D32" fill-rule="evenodd"/>
</svg>
