<svg width="24" height="24" viewBox="0 0 24 24" xmlns="http://www.w3.org/2000/svg">
    <g fill="#292D32" fill-rule="evenodd">
        <path d="M7 20.75c-4.41 0-5.75-1.34-5.75-5.75v-.5c0-.41.34-.75.75-.75.96 0 1.75-.79 1.75-1.75S2.96 10.25 2 10.25c-.41 0-.75-.34-.75-.75V9c0-4.41 1.34-5.75 5.75-5.75h10c4.41 0 5.75 1.34 5.75 5.75v1c0 .41-.34.75-.75.75-.96 0-1.75.79-1.75 1.75s.79 1.75 1.75 1.75c.41 0 .75.34.75.75 0 4.41-1.34 5.75-5.75 5.75H7zm0-1.5h10c3.34 0 4.15-.59 4.24-3.59a3.25 3.25 0 0 1-2.49-3.16c0-1.53 1.07-2.82 2.5-3.16V9c0-3.57-.67-4.25-4.25-4.25H7c-3.52 0-4.23.65-4.25 4.09 1.43.34 2.5 1.63 2.5 3.16 0 1.53-1.07 2.82-2.5 3.16.02 3.44.73 4.09 4.25 4.09z"/>
        <path d="M9.25 6.5V4c0-.41.34-.75.75-.75s.75.34.75.75v2.5c0 .41-.34.75-.75.75s-.75-.34-.75-.75zM9.25 13.83v-3.67c0-.41.34-.75.75-.75s.75.34.75.75v3.67a.749.749 0 1 1-1.5 0zM9.25 20v-2.5c0-.41.34-.75.75-.75s.75.34.75.75V20c0 .41-.34.75-.75.75s-.75-.34-.75-.75z" fill-rule="nonzero"/>
    </g>
</svg>
