<svg width="24" height="24" viewBox="0 0 24 24" xmlns="http://www.w3.org/2000/svg">
    <g fill="#292D32" fill-rule="nonzero">
        <path d="M2 9.25c-.41 0-.75-.34-.75-.75s.34-.75.75-.75h12.5c.41 0 .75.34.75.75s-.34.75-.75.75H2zM6 17.25c-.41 0-.75-.34-.75-.75s.34-.75.75-.75h2c.41 0 .75.34.75.75s-.34.75-.75.75H6zM10.5 17.25c-.41 0-.75-.34-.75-.75s.34-.75.75-.75h4c.41 0 .75.34.75.75s-.34.75-.75.75h-4z"/>
        <path d="M6.44 21.25c-3.98 0-5.19-1.2-5.19-5.14V7.89c0-3.94 1.21-5.14 5.19-5.14h8.06c.41 0 .75.34.75.75s-.34.75-.75.75H6.44c-3.14 0-3.69.54-3.69 3.64v8.21c0 3.1.55 3.64 3.69 3.64h11.11c3.14 0 3.69-.54 3.69-3.64v-2.08c0-.41.34-.75.75-.75s.75.34.75.75v2.08c.01 3.95-1.2 5.15-5.18 5.15H6.44z"/>
        <path d="M19.25 9.5v-6c0-.3.18-.58.46-.69.28-.11.6-.05.82.16l2 2c.29.29.29.77 0 1.06-.29.29-.77.29-1.06 0l-.72-.72V9.5c0 .41-.34.75-.75.75s-.75-.34-.75-.75z"/>
        <path d="M17.47 6.03a.754.754 0 0 1 0-1.06l2-2c.29-.29.77-.29 1.06 0 .29.29.29.77 0 1.06l-2 2c-.15.15-.34.22-.53.22s-.38-.07-.53-.22z"/>
    </g>
</svg>
