<svg width="24" height="24" viewBox="0 0 24 24" xmlns="http://www.w3.org/2000/svg">
    <g fill="#292D32" fill-rule="evenodd">
        <path d="M6.13 18.15v-2.07c0-.41.34-.75.75-.75s.75.34.75.75v2.07a.749.749 0 1 1-1.5 0zM11.25 18.15V14c0-.41.34-.75.75-.75s.75.34.75.75v4.15a.749.749 0 1 1-1.5 0zM16.37 18.15v-6.22c0-.41.34-.75.75-.75s.75.34.75.75v6.22c0 .42-.33.75-.75.75-.41 0-.75-.34-.75-.75zM6.15 12.61c-.1-.4.14-.81.55-.91 3.68-.92 6.92-2.93 9.39-5.8l.46-.54c.27-.31.74-.35 1.06-.08.31.27.35.74.08 1.06l-.46.54a19.513 19.513 0 0 1-10.17 6.28c-.06.02-.12.02-.18.02-.34 0-.64-.23-.73-.57z" fill-rule="nonzero"/>
        <path d="M16.37 8.77V6.6h-2.18c-.41 0-.75-.34-.75-.75s.34-.75.75-.75h2.93c.41 0 .75.34.75.75v2.93c0 .41-.33.74-.75.74-.41 0-.75-.34-.75-.75z" fill-rule="nonzero"/>
        <path d="M9 22.75c-5.43 0-7.75-2.32-7.75-7.75V9c0-5.43 2.32-7.75 7.75-7.75h6c5.43 0 7.75 2.32 7.75 7.75v6c0 5.43-2.32 7.75-7.75 7.75H9zM2.75 9v6c0 4.61 1.64 6.25 6.25 6.25h6c4.61 0 6.25-1.64 6.25-6.25V9c0-4.61-1.64-6.25-6.25-6.25H9C4.39 2.75 2.75 4.39 2.75 9z"/>
    </g>
</svg>
