<svg width="24" height="24" viewBox="0 0 24 24" xmlns="http://www.w3.org/2000/svg">
    <g fill="#292D32" fill-rule="evenodd">
        <path d="M6 2C3 2 2 3.79 2 6v15c0 .83.94 1.3 1.6.8l1.71-1.28c.4-.3.96-.26 1.32.1l1.66 1.67c.39.39 1.03.39 1.42 0l1.68-1.68c.35-.35.91-.39 1.3-.09l1.71 1.28c.66.49 1.6.02 1.6-.8V4c0-1.1.9-2 2-2H6zm1.57 7.03c0 .55-.45 1-1 1s-1-.45-1-1 .45-1 1-1 1 .45 1 1zm2.86 4.05c0-.55.45-1 1-1s1 .45 1 1-.45 1-1 1c-.56 0-1-.45-1-1zM6.8 14.26c-.15.15-.34.22-.53.22s-.38-.07-.53-.22a.754.754 0 0 1 0-1.06l5.46-5.46c.29-.29.77-.29 1.06 0 .29.29.29.77 0 1.06L6.8 14.26z"/>
        <path d="M18.01 3.5c.66 0 1.29.27 1.75.72.48.49.74 1.12.74 1.78v2.42c0 .74-.33 1.08-1.08 1.08H17.5V4.01c0-.28.23-.51.51-.51V2v1.5zM16 4.01V11h3.42C21 11 22 10 22 8.42V6c0-1.1-.45-2.1-1.17-2.83A4.044 4.044 0 0 0 18.01 2c.007 0 .007 0 0 0C16.9 2 16 2.9 16 4.01z"/>
    </g>
</svg>
