<svg width="24" height="24" viewBox="0 0 24 24" xmlns="http://www.w3.org/2000/svg">
    <g fill="#292D32" fill-rule="evenodd">
        <path d="M14.319 12.59c-1.09 0-1.94-.85-1.94-1.94V9.16c0-1.09.85-1.94 1.94-1.94h1.49c1.07 0 1.94.87 1.94 1.94v2.67c0 .42-.34.76-.75.76h-2.68zm-.44-3.43v1.49c0 .2.11.44.44.44h1.93V9.17c0-.24-.2-.44-.44-.44h-1.49v-.01c-.32 0-.44.24-.44.44z"/>
        <path d="M14.26 16.41a.758.758 0 0 1 .26-1.03c1.36-.81 1.73-1.02 1.73-3.54 0-.41.34-.75.75-.75s.75.34.75.75c0 3.08-.67 3.77-2.46 4.83-.12.07-.25.11-.38.11-.26 0-.51-.13-.65-.37z" fill-rule="nonzero"/>
        <path d="M8.18 12.59c-1.09 0-1.94-.85-1.94-1.94V9.16c0-1.09.85-1.94 1.94-1.94h1.49c1.07 0 1.94.87 1.94 1.94v2.67c0 .42-.33.76-.75.76H8.18zm-.43-3.43v1.49c0 .2.11.44.44.44h1.93V9.17c0-.24-.2-.44-.44-.44H8.19v-.01c-.32 0-.44.24-.44.44z"/>
        <path d="M8.12 16.41a.758.758 0 0 1 .26-1.03c1.36-.81 1.73-1.02 1.73-3.54 0-.41.34-.75.75-.75s.75.34.75.75c0 3.08-.67 3.77-2.46 4.83-.12.07-.25.11-.38.11-.26 0-.51-.13-.65-.37z" fill-rule="nonzero"/>
        <path d="M1.25 12C1.25 6.07 6.07 1.25 12 1.25S22.75 6.07 22.75 12 17.93 22.75 12 22.75 1.25 17.93 1.25 12zm1.5 0c0 5.1 4.15 9.25 9.25 9.25s9.25-4.15 9.25-9.25S17.1 2.75 12 2.75 2.75 6.9 2.75 12z"/>
    </g>
</svg>
