<svg width="24" height="24" viewBox="0 0 24 24" xmlns="http://www.w3.org/2000/svg">
    <g fill="#292D32" fill-rule="evenodd">
        <path d="M14 22.75c-.41 0-.75-.34-.75-.75s.34-.75.75-.75h1c4.61 0 6.25-1.64 6.25-6.25V9c0-4.61-1.64-6.25-6.25-6.25H9C4.39 2.75 2.75 4.39 2.75 9v.98c0 .41-.34.75-.75.75s-.75-.34-.75-.75V9c0-5.43 2.32-7.75 7.75-7.75h6c5.43 0 7.75 2.32 7.75 7.75v6c0 5.43-2.32 7.75-7.75 7.75h-1z" fill-rule="nonzero"/>
        <path d="M12.47 11.53a.754.754 0 0 1 0-1.06l3.74-3.75H14a.749.749 0 1 1 0-1.5h4.01c.3 0 .58.18.69.46.12.28.05.6-.16.82l-5.01 5.03c-.15.15-.34.22-.53.22s-.38-.07-.53-.22z" fill-rule="nonzero"/>
        <path d="M17.26 9.99V5.97c0-.41.34-.75.75-.75s.75.34.75.75v4.01c0 .42-.34.76-.75.76s-.75-.34-.75-.75z" fill-rule="nonzero"/>
        <path d="M5.15 22.75c-2.66 0-3.9-1.24-3.9-3.9v-2.7c0-2.66 1.24-3.9 3.9-3.9h2.7c2.66 0 3.9 1.24 3.9 3.9v2.7c0 2.66-1.24 3.9-3.9 3.9h-2.7zm-2.4-6.6v2.7c0 1.84.56 2.4 2.4 2.4h2.7c1.84 0 2.4-.56 2.4-2.4v-2.7c0-1.84-.56-2.4-2.4-2.4h-2.7c-1.84 0-2.4.56-2.4 2.4z"/>
    </g>
</svg>
