<svg width="24" height="24" viewBox="0 0 24 24" xmlns="http://www.w3.org/2000/svg">
    <g fill="#292D32" fill-rule="evenodd">
        <path d="M9 22.75c-5.43 0-7.75-2.32-7.75-7.75V9c0-5.43 2.32-7.75 7.75-7.75h6c5.43 0 7.75 2.32 7.75 7.75v6c0 5.43-2.32 7.75-7.75 7.75H9zM2.75 9v6c0 4.61 1.64 6.25 6.25 6.25h6c4.61 0 6.25-1.64 6.25-6.25V9c0-4.61-1.64-6.25-6.25-6.25H9C4.39 2.75 2.75 4.39 2.75 9z"/>
        <path d="M2.52 7.86a.749.749 0 1 1 0-1.5h18.96a.749.749 0 1 1 0 1.5H2.52z" fill-rule="nonzero"/>
        <path d="M7.77 6.97V2.11c0-.41.34-.75.75-.75s.75.34.75.75v4.86c0 .41-.34.75-.75.75s-.75-.34-.75-.75zM14.73 6.52V2.11c0-.41.34-.75.75-.75s.75.34.75.75v4.41c0 .42-.33.75-.75.75-.41 0-.75-.34-.75-.75z" fill-rule="nonzero"/>
        <path d="M10.08 17.86C9.4 17.46 9 16.66 9 15.65v-2.4c0-1.01.4-1.82 1.09-2.22.69-.4 1.59-.34 2.46.17l2.08 1.2c.87.5 1.38 1.25 1.38 2.05 0 .8-.51 1.55-1.39 2.05l-2.08 1.2c-.48.28-.98.42-1.45.42-.36 0-.7-.09-1.01-.26zm.76-5.53c-.21.12-.34.46-.34.92v2.4c0 .45.13.79.34.92.21.12.57.06.96-.17l2.08-1.2c.39-.23.63-.51.63-.75s-.23-.52-.63-.75l-2.08-1.2c-.26-.15-.51-.23-.7-.23-.1 0-.19.02-.26.06z"/>
    </g>
</svg>
