<svg width="24" height="24" viewBox="0 0 24 24" xmlns="http://www.w3.org/2000/svg">
    <g fill="#292D32" fill-rule="evenodd">
        <path d="M1.25 12C1.25 6.07 6.07 1.25 12 1.25S22.75 6.07 22.75 12 17.93 22.75 12 22.75 1.25 17.93 1.25 12zm1.5 0c0 5.1 4.15 9.25 9.25 9.25s9.25-4.15 9.25-9.25S17.1 2.75 12 2.75 2.75 6.9 2.75 12z"/>
        <path d="M11.25 17V7c0-.41.34-.75.75-.75 3.17 0 5.75 2.58 5.75 5.75s-2.58 5.75-5.75 5.75c-.41 0-.75-.34-.75-.75zm1.5-.81c1.99-.35 3.5-2.1 3.5-4.18 0-2.08-1.51-3.84-3.5-4.19v8.37z"/>
        <path d="M6.25 12c0-3.17 2.58-5.75 5.75-5.75.41 0 .75.34.75.75v10c0 .41-.34.75-.75.75-3.17 0-5.75-2.58-5.75-5.75zm1.5 0c0 2.08 1.51 3.83 3.5 4.18V7.82c-1.99.35-3.5 2.1-3.5 4.18z"/>
        <path d="M11.25 22v-5c0-.41.34-.75.75-.75s.75.34.75.75v5c0 .41-.34.75-.75.75s-.75-.34-.75-.75zM11.25 7V2c0-.41.34-.75.75-.75s.75.34.75.75v5c0 .41-.34.75-.75.75s-.75-.34-.75-.75z" fill-rule="nonzero"/>
    </g>
</svg>
