<svg width="24" height="24" viewBox="0 0 24 24" xmlns="http://www.w3.org/2000/svg">
    <g fill="#292D32" fill-rule="evenodd">
        <path d="M13.43 9v6c0 3.1 2.04 3.75 3.75 3.75s3.75-.65 3.75-3.75V9c0-3.1-2.04-3.75-3.75-3.75S13.43 5.9 13.43 9zM3.07 9v6c0 3.1 2.04 3.75 3.75 3.75s3.75-.65 3.75-3.75V9c0-3.1-2.04-3.75-3.75-3.75S3.07 5.9 3.07 9z" fill-rule="nonzero"/>
        <path d="M13.43 11.25v1.5h-2.86v-1.5h2.86z"/>
        <path d="M21.75 14.5v-5c0-.41.34-.75.75-.75s.75.34.75.75v5c0 .41-.34.75-.75.75s-.75-.34-.75-.75zM.75 14.5v-5c0-.41.34-.75.75-.75s.75.34.75.75v5c0 .41-.34.75-.75.75s-.75-.34-.75-.75z" fill-rule="nonzero"/>
    </g>
</svg>
