<svg width="24" height="24" viewBox="0 0 24 24" xmlns="http://www.w3.org/2000/svg">
    <g fill="#292D32" fill-rule="evenodd">
        <path d="M2 22.75c-.41 0-.75-.34-.75-.75s.34-.75.75-.75h20c.41 0 .75.34.75.75s-.34.75-.75.75H2z" fill-rule="nonzero"/>
        <path d="M11.72 5.69a.753.753 0 0 1-.47-.7v-3c0-.25.12-.48.33-.62a.76.76 0 0 1 .7-.08c1.43.57 3.01.57 4.44 0a.76.76 0 0 1 .7.08c.21.14.33.37.33.62v3c0 .31-.19.58-.47.7-.9.36-1.84.54-2.78.54-.94 0-1.88-.18-2.78-.54zm4.53-1.22V3.02c-1.15.28-2.35.28-3.5 0v1.45c1.14.35 2.36.35 3.5 0z"/>
        <path d="M11.25 8V5c0-.41.34-.75.75-.75s.75.34.75.75v3c0 .41-.34.75-.75.75s-.75-.34-.75-.75z" fill-rule="nonzero"/>
        <path d="M4 22.75c-.41 0-.75-.34-.75-.75V11c0-2.42 1.33-3.75 3.75-3.75h10c2.42 0 3.75 1.33 3.75 3.75v11c0 .41-.34.75-.75.75H4zm15.25-1.5V11c0-1.58-.67-2.25-2.25-2.25H7c-1.58 0-2.25.67-2.25 2.25v10.25h14.5z"/>
        <path d="M4.58 12.75c-.41 0-.75-.34-.75-.75s.34-.75.75-.75h14.84c.41 0 .75.34.75.75s-.34.75-.75.75H4.58z" fill-rule="nonzero"/>
        <path d="M8.74 12v10h-1.5V12h1.5zM12.74 12v10h-1.5V12h1.5zM16.74 12v10h-1.5V12h1.5z"/>
    </g>
</svg>
