<svg width="24" height="24" viewBox="0 0 24 24" xmlns="http://www.w3.org/2000/svg">
    <g fill="#292D32" fill-rule="evenodd">
        <path d="M1.25 12C1.25 6.07 6.07 1.25 12 1.25S22.75 6.07 22.75 12 17.93 22.75 12 22.75 1.25 17.93 1.25 12zm1.5 0c0 5.1 4.15 9.25 9.25 9.25s9.25-4.15 9.25-9.25S17.1 2.75 12 2.75 2.75 6.9 2.75 12z"/>
        <path d="M8.13 15.87c-.28-.28-.53-.59-.76-.96a.747.747 0 1 1 1.27-.79c.17.28.35.5.55.7a3.977 3.977 0 0 0 5.62 0c.6-.6.98-1.38 1.11-2.25.06-.41.44-.71.85-.64.41.06.69.44.64.85-.17 1.19-.7 2.26-1.53 3.1A5.522 5.522 0 0 1 12 17.47c-1.4 0-2.8-.53-3.87-1.6zM7.23 12.07a.754.754 0 0 1-.64-.85c.17-1.19.7-2.26 1.53-3.1 2.13-2.13 5.6-2.13 7.74 0 .28.28.53.59.76.97a.747.747 0 1 1-1.27.79c-.17-.27-.35-.5-.55-.7a3.977 3.977 0 0 0-5.62 0c-.6.6-.98 1.38-1.11 2.25-.04.38-.36.65-.73.65-.04 0-.07 0-.11-.01z" fill-rule="nonzero"/>
        <path d="M7.07 17.18v-2.67c0-.41.34-.75.75-.75h2.67c.41 0 .75.34.75.75s-.34.75-.75.75H8.57v1.92a.749.749 0 1 1-1.5 0zM13.51 10.24c-.41 0-.75-.34-.75-.75s.34-.75.75-.75h1.92V6.82c0-.41.34-.75.75-.75s.75.34.75.75v2.67c0 .42-.34.75-.75.75h-2.67z" fill-rule="nonzero"/>
    </g>
</svg>
