<svg width="24" height="24" viewBox="0 0 24 24" xmlns="http://www.w3.org/2000/svg">
    <g fill="#292D32" fill-rule="evenodd">
        <path d="M2 9.25c-.41 0-.75-.34-.75-.75s.34-.75.75-.75h20c.41 0 .75.34.75.75s-.34.75-.75.75H2zM6 17.25c-.41 0-.75-.34-.75-.75s.34-.75.75-.75h2c.41 0 .75.34.75.75s-.34.75-.75.75H6zM10.5 17.25c-.41 0-.75-.34-.75-.75s.34-.75.75-.75h4c.41 0 .75.34.75.75s-.34.75-.75.75h-4z" fill-rule="nonzero"/>
        <path d="M6.44 21.25c-3.98 0-5.19-1.2-5.19-5.14V7.89c0-3.94 1.21-5.14 5.19-5.14h11.11c3.98 0 5.19 1.2 5.19 5.14v8.21c.01 3.95-1.2 5.15-5.18 5.15H6.44zM2.75 7.89v8.21c0 3.1.55 3.64 3.69 3.64h11.11c3.14 0 3.69-.54 3.69-3.64V7.89c0-3.1-.55-3.64-3.69-3.64H6.44c-3.14 0-3.69.54-3.69 3.64z"/>
    </g>
</svg>
