<svg width="24" height="24" viewBox="0 0 24 24" xmlns="http://www.w3.org/2000/svg">
    <g fill="#292D32" fill-rule="evenodd">
        <path d="M9 22.75c-5.43 0-7.75-2.32-7.75-7.75V9c0-5.43 2.32-7.75 7.75-7.75h5c.41 0 .75.34.75.75s-.34.75-.75.75H9C4.39 2.75 2.75 4.39 2.75 9v6c0 4.61 1.64 6.25 6.25 6.25h6c4.61 0 6.25-1.64 6.25-6.25v-5c0-.41.34-.75.75-.75s.75.34.75.75v5c0 5.43-2.32 7.75-7.75 7.75H9z" fill-rule="nonzero"/>
        <path d="M18 10.75c-3.42 0-4.75-1.33-4.75-4.75V2c0-.3.18-.58.46-.69.28-.12.6-.05.82.16l8 8a.751.751 0 0 1-.53 1.28h-4zM14.75 6c0 2.58.67 3.25 3.25 3.25h2.19l-5.44-5.44V6z"/>
        <path d="M7 13.75c-.41 0-.75-.34-.75-.75s.34-.75.75-.75h6c.41 0 .75.34.75.75s-.34.75-.75.75H7zM7 17.75c-.41 0-.75-.34-.75-.75s.34-.75.75-.75h4c.41 0 .75.34.75.75s-.34.75-.75.75H7z" fill-rule="nonzero"/>
    </g>
</svg>
