<svg width="24" height="24" viewBox="0 0 24 24" xmlns="http://www.w3.org/2000/svg">
    <g fill="#292D32" fill-rule="evenodd">
        <path d="M9 22.75c-3.42 0-4.75-1.33-4.75-4.75V6c0-3.42 1.33-4.75 4.75-4.75h6c3.42 0 4.75 1.33 4.75 4.75v12c0 3.42-1.33 4.75-4.75 4.75H9zM5.75 6v12c0 2.58.67 3.25 3.25 3.25h6c2.58 0 3.25-.67 3.25-3.25V6c0-2.58-.67-3.25-3.25-3.25H9c-2.58 0-3.25.67-3.25 3.25z"/>
        <path d="M8.25 15c0-2.07 1.68-3.75 3.75-3.75 2.07 0 3.75 1.68 3.75 3.75 0 2.07-1.68 3.75-3.75 3.75-2.07 0-3.75-1.68-3.75-3.75zm1.5 0c0 1.24 1.01 2.25 2.25 2.25s2.25-1.01 2.25-2.25-1.01-2.25-2.25-2.25S9.75 13.76 9.75 15zM9.75 7.5c0-1.24 1.01-2.25 2.25-2.25s2.25 1.01 2.25 2.25S13.24 9.75 12 9.75 9.75 8.74 9.75 7.5zm1.5 0c0 .41.34.75.75.75s.75-.34.75-.75-.34-.75-.75-.75-.75.34-.75.75z"/>
    </g>
</svg>
