<svg width="24" height="24" viewBox="0 0 24 24" xmlns="http://www.w3.org/2000/svg">
    <g fill="#292D32" fill-rule="evenodd">
        <path d="M2.25 12c0-1.52 1.23-2.75 2.75-2.75S7.75 10.48 7.75 12 6.52 14.75 5 14.75 2.25 13.52 2.25 12zm1.5 0a1.25 1.25 0 1 0 2.5 0 1.25 1.25 0 0 0-2.5 0zM16.25 12c0-1.52 1.23-2.75 2.75-2.75s2.75 1.23 2.75 2.75-1.23 2.75-2.75 2.75-2.75-1.23-2.75-2.75zm1.5 0a1.25 1.25 0 1 0 2.5 0 1.25 1.25 0 0 0-2.5 0zM9.25 12c0-1.52 1.23-2.75 2.75-2.75s2.75 1.23 2.75 2.75-1.23 2.75-2.75 2.75S9.25 13.52 9.25 12zm1.5 0a1.25 1.25 0 1 0 2.5 0 1.25 1.25 0 0 0-2.5 0z"/>
    </g>
</svg>
