<svg width="24" height="24" viewBox="0 0 24 24" xmlns="http://www.w3.org/2000/svg">
    <g fill="#292D32" fill-rule="evenodd">
        <path d="m20.81 21.799-1.86-1.86a.706.706 0 0 1 0-.99c.27-.27.71-.27.99 0l1.86 1.86c.27.27.27.71 0 .99-.14.13-.32.2-.5.2s-.36-.07-.49-.2z" fill-rule="nonzero"/>
        <path d="M2 11.5c0 5.24 4.26 9.5 9.5 9.5s9.5-4.26 9.5-9.5S16.74 2 11.5 2 2 6.26 2 11.5zm10.45.95v1.75c0 .41-.34.75-.75.75s-.75-.34-.75-.75v-1.75H9.2c-.41 0-.75-.34-.75-.75s.34-.75.75-.75h1.75V9.2c0-.41.34-.75.75-.75s.75.34.75.75v1.75h1.75c.41 0 .75.34.75.75s-.34.75-.75.75h-1.75z"/>
    </g>
</svg>
