<svg width="24" height="24" viewBox="0 0 24 24" xmlns="http://www.w3.org/2000/svg">
    <g fill="#292D32" fill-rule="nonzero">
        <path d="M17.74 7.79c0-.07-.01-.14-.01-.21l.01-.01c.01.07.01.15 0 .22z" opacity=".4"/>
        <path d="M3.829 20.01c-1.4-.89-1.95-2.48-1.95-4.01V8c0-3.42 1.33-4.75 4.75-4.75h6c2.89 0 4.28.95 4.65 3.31L3.829 20.01z"/>
        <path d="M20.31 2.229 1.85 20.689c-.3.3-.3.79 0 1.09.15.14.35.22.54.22.2 0 .39-.08.54-.23L21.4 3.309c.3-.3.3-.78 0-1.08-.3-.3-.79-.3-1.09 0zM22.38 15.62c0 1.43-.7 2-1.1 2.21-.19.1-.49.21-.86.21-.43 0-.96-.14-1.58-.58l-1.48-1.04c-.07 2.21-.77 3.47-2.36 4-.64.23-1.43.33-2.38.33h-6c-.24 0-.47-.01-.71-.04L15 11.63l5.65-5.65c.26.02.47.1.63.19.4.21 1.1.78 1.1 2.21v7.24z"/>
    </g>
</svg>
