<svg width="24" height="24" viewBox="0 0 24 24" xmlns="http://www.w3.org/2000/svg">
    <g fill="#292D32" fill-rule="evenodd">
        <path d="M12.001 14.381a2.38 2.38 0 1 1 0-4.76 2.38 2.38 0 0 1 0 4.76z"/>
        <path d="M19.55 18.6a.75.75 0 0 1-.15-1.05A9.17 9.17 0 0 0 21.25 12c0-2.02-.64-3.94-1.85-5.55a.75.75 0 0 1 1.2-.9c1.41 1.87 2.15 4.1 2.15 6.45 0 2.35-.74 4.58-2.15 6.45-.15.2-.37.3-.6.3a.76.76 0 0 1-.45-.15zM3.4 18.45c-1.41-1.87-2.15-4.1-2.15-6.45 0-2.35.74-4.58 2.15-6.45a.75.75 0 0 1 1.2.9A9.17 9.17 0 0 0 2.75 12c0 2.02.64 3.94 1.85 5.55a.75.75 0 0 1-1.2.9zM16.351 16.199a.75.75 0 0 1-.15-1.05c.69-.91 1.05-2 1.05-3.15s-.36-2.24-1.05-3.15a.75.75 0 0 1 1.2-.9 6.73 6.73 0 0 1 1.35 4.05c0 1.47-.47 2.88-1.35 4.05-.15.2-.37.3-.6.3a.76.76 0 0 1-.45-.15zM6.6 16.049a6.709 6.709 0 0 1-1.35-4.05c0-1.47.47-2.88 1.35-4.05a.75.75 0 0 1 1.2.9c-.69.91-1.05 2-1.05 3.15s.36 2.24 1.05 3.15a.75.75 0 0 1-1.2.9z" fill-rule="nonzero"/>
    </g>
</svg>
