<svg width="24" height="24" viewBox="0 0 24 24" xmlns="http://www.w3.org/2000/svg">
    <g fill="#292D32" fill-rule="evenodd">
        <path d="M5.25 14.14V9.85c0-.41.34-.75.75-.75s.75.34.75.75v4.29a.749.749 0 1 1-1.5 0zM8.25 15.57V8.43c0-.41.34-.75.75-.75s.75.34.75.75v7.14a.749.749 0 1 1-1.5 0zM11.25 17V7c0-.41.34-.75.75-.75s.75.34.75.75v10c0 .41-.34.75-.75.75s-.75-.34-.75-.75zM14.25 15.57V8.43c0-.41.34-.75.75-.75s.75.34.75.75v7.14a.749.749 0 1 1-1.5 0zM17.25 14.14V9.85c0-.41.34-.75.75-.75s.75.34.75.75v4.29a.749.749 0 1 1-1.5 0z" fill-rule="nonzero"/>
        <path d="M9 22.75c-5.43 0-7.75-2.32-7.75-7.75V9c0-5.43 2.32-7.75 7.75-7.75h6c5.43 0 7.75 2.32 7.75 7.75v6c0 5.43-2.32 7.75-7.75 7.75H9zM2.75 9v6c0 4.61 1.64 6.25 6.25 6.25h6c4.61 0 6.25-1.64 6.25-6.25V9c0-4.61-1.64-6.25-6.25-6.25H9C4.39 2.75 2.75 4.39 2.75 9z"/>
    </g>
</svg>
