<svg width="24" height="24" viewBox="0 0 24 24" xmlns="http://www.w3.org/2000/svg">
    <g fill="#292D32" fill-rule="evenodd">
        <path d="M9 22.75c-5.43 0-7.75-2.32-7.75-7.75V9c0-5.43 2.32-7.75 7.75-7.75h6c5.43 0 7.75 2.32 7.75 7.75v6c0 5.43-2.32 7.75-7.75 7.75H9zM2.75 9v6c0 4.61 1.64 6.25 6.25 6.25h6c4.61 0 6.25-1.64 6.25-6.25V9c0-4.61-1.64-6.25-6.25-6.25H9C4.39 2.75 2.75 4.39 2.75 9z"/>
        <path d="M6.33 9.22a.75.75 0 0 1 .33-1.01c3.34-1.67 7.33-1.67 10.67 0 .37.19.52.64.34 1.01a.76.76 0 0 1-1.01.34 10.485 10.485 0 0 0-9.33 0c-.1.05-.22.07-.33.07-.27 0-.54-.15-.67-.41z" fill-rule="nonzero"/>
        <path d="M11.25 16.29V7.93c0-.41.34-.75.75-.75s.75.34.75.75v8.37c0 .41-.34.74-.75.74s-.75-.34-.75-.75z" fill-rule="nonzero"/>
    </g>
</svg>
