<svg width="24" height="24" viewBox="0 0 24 24" xmlns="http://www.w3.org/2000/svg">
    <g fill="#292D32" fill-rule="nonzero">
        <path d="M12.141 16.92c-.41 0-.75-.34-.75-.75s.34-.75.75-.75h2.29a.781.781 0 0 0 0-1.56h-2.29c-.24 0-.47-.12-.61-.31a.746.746 0 0 1-.1-.68l.76-2.29c.1-.31.39-.51.71-.51h3.06c.41 0 .75.34.75.75s-.34.75-.75.75h-2.52l-.26.79h1.25a2.279 2.279 0 1 1 0 4.56h-2.29zM8.79 16.17v-3.39L8.6 13c-.28.31-.75.33-1.06.06A.755.755 0 0 1 7.49 12l1.5-1.67c.21-.23.54-.31.83-.2.29.11.48.39.48.7v5.35a.756.756 0 0 1-1.51-.01z"/>
        <path d="M18.642 7.199a.75.75 0 0 0-.15 1.05c1.08 1.44 1.65 3.12 1.65 4.86 0 4.49-3.65 8.14-8.14 8.14s-8.14-3.65-8.14-8.14 3.65-8.13 8.14-8.13c.58 0 1.17.07 1.81.22.03.01.06 0 .09 0s.05.02.07.02c.03 0 .05-.01.08-.01s.06-.01.1-.02c.06-.01.11-.04.16-.06.03-.02.06-.03.09-.05.01-.01.03-.01.04-.02.03-.02.04-.05.06-.07.04-.04.07-.07.1-.12.03-.04.04-.09.06-.14.01-.03.03-.06.04-.09v-.05c.01-.05.01-.1 0-.15 0-.05 0-.09-.01-.14-.01-.04-.03-.08-.05-.13a.61.61 0 0 0-.07-.14c0-.01 0-.02-.01-.03l-1.98-2.47a.748.748 0 0 0-1.05-.12c-.32.26-.37.73-.12 1.05l.82 1.02c-.08 0-.16-.01-.24-.01-5.31 0-9.64 4.32-9.64 9.64s4.32 9.64 9.64 9.64 9.64-4.32 9.64-9.64c.01-2.07-.67-4.06-1.94-5.76a.75.75 0 0 0-1.05-.15z"/>
    </g>
</svg>
