<svg width="24" height="24" viewBox="0 0 24 24" xmlns="http://www.w3.org/2000/svg">
    <g fill="#292D32" fill-rule="evenodd">
        <path d="M10.5 16.75c-2.75 0-4.75-2-4.75-4.75V6.92c0-1.47 1.2-2.67 2.67-2.67h7.17c1.47 0 2.67 1.2 2.67 2.67V12c-.01 2.75-2.01 4.75-4.76 4.75h-3zM7.25 6.92V12c0 1.62 1 3.25 3.25 3.25h3c2.25 0 3.25-1.63 3.25-3.25V6.92c0-.64-.52-1.17-1.17-1.17H8.42c-.64 0-1.17.52-1.17 1.17z"/>
        <path d="M8.75 5V2c0-.41.34-.75.75-.75s.75.34.75.75v3c0 .41-.34.75-.75.75s-.75-.34-.75-.75zM13.75 5V2c0-.41.34-.75.75-.75s.75.34.75.75v3c0 .41-.34.75-.75.75s-.75-.34-.75-.75zM11.25 22v-6c0-.41.34-.75.75-.75s.75.34.75.75v6c0 .41-.34.75-.75.75s-.75-.34-.75-.75z" fill-rule="nonzero"/>
    </g>
</svg>
