<svg width="24" height="24" viewBox="0 0 24 24" xmlns="http://www.w3.org/2000/svg">
    <g fill="#292D32" fill-rule="nonzero">
        <path d="m8.48 21.03-5.01-5.01a.754.754 0 0 1 0-1.06c.29-.29.77-.29 1.06 0l5.01 5.01c.29.29.29.77 0 1.06-.15.14-.34.22-.53.22s-.38-.07-.53-.22z"/>
        <path d="M8.26 20.5v-17c0-.41.34-.75.75-.75s.75.34.75.75v17c0 .41-.34.75-.75.75s-.75-.34-.75-.75zM19.48 9.04l-5.01-5.01a.754.754 0 0 1 0-1.06c.29-.29.77-.29 1.06 0l5.01 5.01c.29.29.29.77 0 1.06-.15.15-.34.22-.53.22s-.38-.07-.53-.22z"/>
        <path d="M14.24 20.5v-17c0-.41.34-.75.75-.75s.75.34.75.75v17a.749.749 0 1 1-1.5 0z"/>
    </g>
</svg>
