<svg width="24" height="24" viewBox="0 0 24 24" xmlns="http://www.w3.org/2000/svg">
    <g fill="#292D32" fill-rule="evenodd">
        <path d="M7 21.25c-3.65 0-5.75-2.1-5.75-5.75v-7c0-3.65 2.1-5.75 5.75-5.75h10c3.65 0 5.75 2.1 5.75 5.75v3c0 .41-.34.75-.75.75s-.75-.34-.75-.75v-3c0-2.86-1.39-4.25-4.25-4.25H7c-2.86 0-4.25 1.39-4.25 4.25v7c0 2.86 1.39 4.25 4.25 4.25h5c.41 0 .75.34.75.75s-.34.75-.75.75H7z" fill-rule="nonzero"/>
        <path d="m9.659 12.08-3.13-2.5a.748.748 0 0 1-.12-1.05c.26-.32.73-.37 1.05-.12l3.13 2.5c.76.61 2.05.61 2.81 0l3.13-2.5c.32-.26.79-.21 1.05.12.26.32.21.8-.12 1.05l-3.13 2.5c-.64.53-1.49.79-2.33.79-.84 0-1.69-.26-2.34-.79z" fill-rule="nonzero"/>
        <path d="M14.82 21.38c-.31-.31-.45-.76-.38-1.23l.19-1.35c.05-.35.26-.77.51-1.02l3.54-3.54c.48-.48.95-.73 1.46-.78.62-.06 1.24.2 1.82.78.58.58.84 1.19.78 1.82-.05.5-.31.98-.78 1.46l-3.54 3.54c-.25.25-.67.46-1.02.51l-1.35.19c-.08.01-.15.02-.23.02-.38 0-.74-.14-1-.4zm5.46-6.43c-.14.01-.33.14-.54.35l-3.54 3.54a.38.38 0 0 0-.08.17l-.18 1.25 1.25-.18c.04-.01.14-.06.17-.09l3.54-3.54c.21-.22.34-.4.35-.54.02-.2-.18-.44-.35-.61-.16-.16-.39-.35-.59-.35h-.03z"/>
        <path d="M20.72 18.22a3.977 3.977 0 0 1-2.74-2.74.76.76 0 0 1 .52-.93c.4-.11.81.12.92.52.23.82.88 1.47 1.7 1.7a.755.755 0 0 1-.2 1.48c-.07 0-.14-.01-.2-.03z" fill-rule="nonzero"/>
    </g>
</svg>
