<svg width="24" height="24" viewBox="0 0 24 24" xmlns="http://www.w3.org/2000/svg">
    <g fill="#292D32" fill-rule="nonzero">
        <path d="M9 22.75c-5.43 0-7.75-2.32-7.75-7.75V9c0-5.43 2.32-7.75 7.75-7.75h6c5.43 0 7.75 2.32 7.75 7.75v4c0 .41-.34.75-.75.75s-.75-.34-.75-.75V9c0-4.61-1.64-6.25-6.25-6.25H9C4.39 2.75 2.75 4.39 2.75 9v6c0 4.61 1.64 6.25 6.25 6.25h4c.41 0 .75.34.75.75s-.34.75-.75.75H9z"/>
        <path d="M9 22.75c-5.43 0-7.75-2.32-7.75-7.75V9c0-5.43 2.32-7.75 7.75-7.75h6c5.43 0 7.75 2.32 7.75 7.75v4c0 .41-.34.75-.75.75s-.75-.34-.75-.75V9c0-4.61-1.64-6.25-6.25-6.25H9C4.39 2.75 2.75 4.39 2.75 9v6c0 4.61 1.64 6.25 6.25 6.25h4c.41 0 .75.34.75.75s-.34.75-.75.75H9z"/>
        <path d="M6.25 13.94v-3.21c0-.41.34-.75.75-.75s.75.34.75.75v3.21a.749.749 0 1 1-1.5 0zM16.25 13.94v-3.21c0-.41.34-.75.75-.75s.75.34.75.75v3.21a.749.749 0 1 1-1.5 0z"/>
        <path d="M9 22.75c-5.43 0-7.75-2.32-7.75-7.75V9c0-5.43 2.32-7.75 7.75-7.75h6c5.43 0 7.75 2.32 7.75 7.75v4c0 .41-.34.75-.75.75s-.75-.34-.75-.75V9c0-4.61-1.64-6.25-6.25-6.25H9C4.39 2.75 2.75 4.39 2.75 9v6c0 4.61 1.64 6.25 6.25 6.25h4c.41 0 .75.34.75.75s-.34.75-.75.75H9z"/>
        <path d="m17.05 21.53-1.58-1.57a.745.745 0 0 1 0-1.06c.29-.29.77-.3 1.06 0l1.01 1 2.9-3.39c.27-.32.74-.35 1.06-.08.31.27.35.74.08 1.06l-3.42 4c-.14.16-.33.25-.54.26h-.04a.75.75 0 0 1-.53-.22zM11.25 13.5v-3c0-.41.34-.75.75-.75s.75.34.75.75v3c0 .41-.34.75-.75.75s-.75-.34-.75-.75z"/>
    </g>
</svg>
