<svg width="24" height="24" viewBox="0 0 24 24" xmlns="http://www.w3.org/2000/svg">
    <g fill="#292D32" fill-rule="evenodd">
        <path d="M11.39 15.07v-1.96c0-2.93 2.38-5.31 5.32-5.31h1.96c.41 0 .75.34.75.75s-.34.75-.75.75h-1.96c-2.1 0-3.82 1.71-3.82 3.81v1.96a.749.749 0 1 1-1.5 0z" fill-rule="nonzero"/>
        <path d="M11.391 17.25v-4.13c0-2.1-1.71-3.81-3.81-3.81h-1.96c-.41 0-.75-.34-.75-.75s.34-.75.75-.75h1.96c2.93 0 5.31 2.38 5.31 5.31v4.13c0 .41-.34.75-.75.75s-.75-.34-.75-.75z" fill-rule="nonzero"/>
        <path d="m6.61 10.88-1.8-1.8a.754.754 0 0 1 0-1.06l1.8-1.8c.29-.29.77-.29 1.06 0 .29.29.29.77 0 1.06L6.4 8.55l1.27 1.27c.29.29.29.77 0 1.06-.15.15-.34.22-.53.22s-.38-.07-.53-.22zM16.33 10.88a.754.754 0 0 1 0-1.06l1.27-1.27-1.27-1.27a.754.754 0 0 1 0-1.06c.29-.29.77-.29 1.06 0l1.8 1.8c.29.29.29.77 0 1.06l-1.8 1.8c-.14.15-.34.22-.53.22s-.38-.07-.53-.22z" fill-rule="nonzero"/>
        <path d="M9 22.75c-5.43 0-7.75-2.32-7.75-7.75V9c0-5.43 2.32-7.75 7.75-7.75h6c5.43 0 7.75 2.32 7.75 7.75v6c0 5.43-2.32 7.75-7.75 7.75H9zM2.75 9v6c0 4.61 1.64 6.25 6.25 6.25h6c4.61 0 6.25-1.64 6.25-6.25V9c0-4.61-1.64-6.25-6.25-6.25H9C4.39 2.75 2.75 4.39 2.75 9z"/>
    </g>
</svg>
