<svg width="24" height="24" viewBox="0 0 24 24" xmlns="http://www.w3.org/2000/svg">
    <g fill="#292D32" fill-rule="nonzero">
        <path d="M12 1.25C7.73 1.25 4.25 4.73 4.25 9c0 .41.34.75.75.75s.75-.34.75-.75c0-3.45 2.8-6.25 6.25-6.25s6.25 2.8 6.25 6.25-2.8 6.25-6.25 6.25c-.41 0-.75.34-.75.75v6c0 .41.34.75.75.75s.75-.34.75-.75v-5.29c3.92-.38 7-3.69 7-7.71 0-4.27-3.48-7.75-7.75-7.75z"/>
        <path d="M9 19.75c-.41 0-.75-.34-.75-.75s.34-.75.75-.75h6c.41 0 .75.34.75.75s-.34.75-.75.75H9z"/>
    </g>
</svg>
