<svg width="24" height="24" viewBox="0 0 24 24" xmlns="http://www.w3.org/2000/svg">
    <g fill="#292D32" fill-rule="evenodd">
        <path d="M7.25 5V2c0-.41.34-.75.75-.75s.75.34.75.75v3c0 .41-.34.75-.75.75s-.75-.34-.75-.75zM15.25 5V2c0-.41.34-.75.75-.75s.75.34.75.75v3c0 .41-.34.75-.75.75s-.75-.34-.75-.75zM7 13.75c-.41 0-.75-.34-.75-.75s.34-.75.75-.75h8c.41 0 .75.34.75.75s-.34.75-.75.75H7zM7 17.75c-.41 0-.75-.34-.75-.75s.34-.75.75-.75h5c.41 0 .75.34.75.75s-.34.75-.75.75H7z" fill-rule="nonzero"/>
        <path d="M9 22.75c-5.62 0-6.75-2.65-6.75-6.93V9.65c0-4.74 1.6-6.67 5.71-6.9H16.04c4.11.23 5.71 2.16 5.71 6.9v6.17c0 4.28-1.13 6.93-6.75 6.93H9zM3.75 9.65v6.17c0 3.83.73 5.43 5.25 5.43h6c4.52 0 5.25-1.6 5.25-5.43V9.65c0-4.35-1.44-5.24-4.27-5.4H8c-2.8.16-4.25 1.04-4.25 5.4z"/>
    </g>
</svg>
