<svg width="24" height="24" viewBox="0 0 24 24" xmlns="http://www.w3.org/2000/svg">
    <g fill="#292D32" fill-rule="evenodd">
        <path d="M9 22.75c-.41 0-.75-.34-.75-.75s.34-.75.75-.75h12c.41 0 .75.34.75.75s-.34.75-.75.75H9z" fill-rule="nonzero"/>
        <path d="M5.89 21.61 2.38 18.1a3.754 3.754 0 0 1 0-5.3L12.81 2.37c1.41-1.41 3.89-1.41 5.3 0l3.51 3.51a3.754 3.754 0 0 1 0 5.3L11.19 21.61c-.7.72-1.64 1.1-2.65 1.1-1 0-1.95-.39-2.65-1.1zm1.06-1.05c.85.85 2.34.85 3.18 0l10.43-10.43c.88-.88.88-2.3 0-3.18l-3.51-3.51c-.84-.84-2.33-.85-3.18 0L3.44 13.87c-.88.87-.88 2.3 0 3.18l3.51 3.51z"/>
        <path d="M14.34 17.41 6.59 9.66a.755.755 0 0 1 0-1.06c.29-.29.77-.29 1.06 0l7.75 7.75c.29.29.29.77 0 1.06-.15.15-.34.22-.53.22s-.38-.07-.53-.22z" fill-rule="nonzero"/>
        <path d="M2.99 18.19a.755.755 0 0 1 0-1.06l5.661-5.66c.29-.29.77-.29 1.06 0 .29.29.29.77 0 1.06l-5.66 5.66c-.15.15-.34.22-.53.22s-.38-.07-.53-.22zM5.81 21.02a.754.754 0 0 1 0-1.06l5.66-5.66c.29-.29.77-.29 1.06 0 .29.29.29.77 0 1.06l-5.66 5.66a.75.75 0 0 1-1.06 0z" fill-rule="nonzero"/>
    </g>
</svg>
