<svg width="24" height="24" viewBox="0 0 24 24" xmlns="http://www.w3.org/2000/svg">
    <g fill="#292D32" fill-rule="evenodd">
        <path d="M16.201 12.4c-1.9 0-3.33-1.43-3.33-3.33V5.85c0-1.9 1.43-3.33 3.33-3.33h3.22c1.83 0 3.33 1.49 3.33 3.33v5.8c0 .42-.34.75-.75.75h-5.8zm-1.83-6.54v3.22c0 1.06.77 1.83 1.83 1.83h5.05V5.86c0-1.01-.82-1.83-1.83-1.83h-3.22c-1.06 0-1.83.77-1.83 1.83z"/>
        <path d="M16.82 21.1a.758.758 0 0 1 .26-1.03c3.23-1.92 4.17-2.72 4.17-8.42 0-.41.34-.75.75-.75s.75.34.75.75c0 6.25-1.27 7.56-4.9 9.71a.746.746 0 0 1-1.03-.26z" fill-rule="nonzero"/>
        <path d="M4.57 12.4c-1.9 0-3.33-1.43-3.33-3.33V5.85c0-1.9 1.43-3.33 3.33-3.33H7.8c1.83 0 3.33 1.49 3.33 3.33v5.8c-.01.42-.34.75-.76.75h-5.8zM2.75 5.86v3.22c0 1.06.77 1.83 1.83 1.83h5.05V5.86c0-1.01-.82-1.83-1.83-1.83H4.58c-1.06 0-1.83.77-1.83 1.83z"/>
        <path d="M5.19 21.1a.758.758 0 0 1 .26-1.03c3.23-1.92 4.17-2.72 4.17-8.42 0-.41.34-.75.75-.75s.75.34.75.75c0 6.25-1.27 7.56-4.9 9.71a.746.746 0 0 1-1.03-.26z" fill-rule="nonzero"/>
    </g>
</svg>
