<svg width="24" height="24" viewBox="0 0 24 24" xmlns="http://www.w3.org/2000/svg">
    <g fill="#292D32" fill-rule="evenodd">
        <path d="M10.05 22.23 4.11 18.8c-1.2-.7-1.95-1.99-1.95-3.38V8.58c0-1.39.75-2.68 1.95-3.38l5.94-3.43c1.2-.7 2.69-.7 3.9 0l5.94 3.43c1.2.7 1.95 1.99 1.95 3.38v6.84c0 1.39-.75 2.68-1.95 3.38l-5.94 3.43c-.6.35-1.28.52-1.95.52-.67 0-1.35-.17-1.95-.52zm.75-19.16L4.86 6.5c-.74.43-1.2 1.22-1.2 2.08v6.84c0 .85.46 1.65 1.2 2.08l5.94 3.43c.74.43 1.66.43 2.4 0l5.94-3.43c.74-.43 1.2-1.22 1.2-2.08V8.58c0-.85-.46-1.65-1.2-2.08L13.2 3.07c-.37-.21-.79-.32-1.2-.32-.41 0-.83.11-1.2.32z"/>
        <path d="M8.92 8.67c0-1.7 1.38-3.08 3.08-3.08 1.7 0 3.08 1.38 3.08 3.08 0 1.7-1.38 3.08-3.08 3.08-1.7 0-3.08-1.38-3.08-3.08zm1.5 0c0 .87.71 1.58 1.58 1.58.87 0 1.58-.71 1.58-1.58 0-.87-.71-1.58-1.58-1.58-.87 0-1.58.71-1.58 1.58z"/>
        <path d="M15.25 16.66c0-1.38-1.46-2.51-3.25-2.51s-3.25 1.13-3.25 2.51c0 .41-.34.75-.75.75s-.75-.34-.75-.75c0-2.21 2.13-4.01 4.75-4.01s4.75 1.8 4.75 4.01c0 .41-.34.75-.75.75s-.75-.34-.75-.75z" fill-rule="nonzero"/>
    </g>
</svg>
