<svg width="24" height="24" viewBox="0 0 24 24" xmlns="http://www.w3.org/2000/svg">
    <g fill="#292D32" fill-rule="evenodd">
        <path d="M9 22.75c-5.43 0-7.75-2.32-7.75-7.75V9c0-5.43 2.32-7.75 7.75-7.75h6c5.43 0 7.75 2.32 7.75 7.75v6c0 5.43-2.32 7.75-7.75 7.75H9zM2.75 9v6c0 4.61 1.64 6.25 6.25 6.25h6c4.61 0 6.25-1.64 6.25-6.25V9c0-4.61-1.64-6.25-6.25-6.25H9C4.39 2.75 2.75 4.39 2.75 9z"/>
        <path d="m13.22 22.18-4.95-20c-.1-.4.15-.81.55-.91.4-.1.81.14.91.55l4.95 20c.1.4-.15.81-.55.91a.757.757 0 0 1-.91-.55z" fill-rule="nonzero"/>
        <path d="M1.28 15.21c-.12-.4.11-.81.51-.93l9.53-2.78c.4-.12.81.11.93.51s-.11.81-.51.93l-9.53 2.78a.747.747 0 0 1-.93-.51z" fill-rule="nonzero"/>
    </g>
</svg>
