<svg width="24" height="24" viewBox="0 0 24 24" xmlns="http://www.w3.org/2000/svg">
    <g fill="#292D32" fill-rule="evenodd">
        <path d="M7 19.75c-4.41 0-5.75-1.34-5.75-5.75v-4c0-4.41 1.34-5.75 5.75-5.75h6c4.41 0 5.75 1.34 5.75 5.75v4c0 4.41-1.34 5.75-5.75 5.75H7zM2.75 10v4c0 3.57.67 4.25 4.25 4.25h6c3.58 0 4.25-.68 4.25-4.25v-4c0-3.57-.67-4.25-4.25-4.25H7c-3.58 0-4.25.68-4.25 4.25z"/>
        <path d="M19.75 14.5c0-.41.34-.75.75-.75.59 0 .72-.09.73-.09.02-.06.02-.41.02-.66v-2c0-.25 0-.59-.04-.68.01.01-.16-.07-.71-.07-.41 0-.75-.34-.75-.75s.34-.75.75-.75c2.08 0 2.25 1.02 2.25 2.25v2c0 1.23-.17 2.25-2.25 2.25-.41 0-.75-.34-.75-.75z" fill-rule="nonzero"/>
    </g>
</svg>
