<svg width="24" height="24" viewBox="0 0 24 24" xmlns="http://www.w3.org/2000/svg">
    <g fill="#292D32" fill-rule="evenodd">
        <path d="M9.25 16.25v1.5c0 .41.34.75.75.75s.75-.34.75-.75v-1.5c0-.41-.34-.75-.75-.75s-.75.34-.75.75z" fill-rule="nonzero"/>
        <path d="M21 21.249V9.979c0-.62-.28-1.2-.77-1.58l-7-5.44c-.72-.57-1.74-.57-2.46 0l-7 5.44c-.49.38-.77.96-.77 1.57l-.05 11.28H2a.749.749 0 1 0 0 1.5h20a.749.749 0 1 0 0-1.5h-1zm-7.5-14.5c.41 0 .75.34.75.75s-.34.75-.75.75h-3c-.41 0-.75-.34-.75-.75s.34-.75.75-.75h3zM7 21.249v-8.75c0-.83.67-1.5 1.5-1.5h7c.83 0 1.5.67 1.5 1.5v8.75H7z"/>
    </g>
</svg>
