<svg width="24" height="24" viewBox="0 0 24 24" xmlns="http://www.w3.org/2000/svg">
    <g fill="#292D32" fill-rule="nonzero">
        <path d="M5.1 20c-.41 0-.75-.34-.75-.75s.34-.75.75-.75h11.8c1.01 0 1.35-.21 1.35-1.48v-1.04c0-1.27-.34-1.48-1.35-1.48H5.1c-.41 0-.75-.34-.75-.75s.34-.75.75-.75h11.8c1.92 0 2.85.98 2.85 2.98v1.04c0 2-.93 2.98-2.85 2.98H5.1zM5.1 11.5c-.41 0-.75-.34-.75-.75s.34-.75.75-.75h6.8c1.01 0 1.35-.21 1.35-1.48V7.48c0-1.27-.34-1.48-1.35-1.48H5.1c-.41 0-.75-.34-.75-.75s.34-.75.75-.75h6.8c1.92 0 2.85.98 2.85 2.98v1.04c0 2-.93 2.98-2.85 2.98H5.1z"/>
        <path d="M4.25 21.99v-20c0-.41.34-.75.75-.75s.75.34.75.75v20c0 .41-.34.75-.75.75s-.75-.34-.75-.75z"/>
    </g>
</svg>
