<svg width="24" height="24" viewBox="0 0 24 24" xmlns="http://www.w3.org/2000/svg">
    <g fill="#292D32" fill-rule="evenodd">
        <path d="M5.01 21.75c-1.86 0-2.76-.86-2.76-2.64V4.89c0-1.78.9-2.64 2.76-2.64h3.63c1.86 0 2.76.86 2.76 2.64v14.22c0 1.78-.9 2.64-2.76 2.64H5.01zM3.75 4.89v14.22c0 .87.17 1.14 1.26 1.14h3.63c1.08 0 1.26-.27 1.26-1.14V4.89c0-.87-.17-1.14-1.26-1.14H5.01c-1.08 0-1.26.27-1.26 1.14zM15.36 21.75c-1.86 0-2.76-.86-2.76-2.64V4.89c0-1.78.9-2.64 2.76-2.64h3.63c1.86 0 2.76.86 2.76 2.64v14.22c0 1.78-.9 2.64-2.76 2.64h-3.63zM14.1 4.89v14.22c0 .87.17 1.14 1.26 1.14h3.63c1.08 0 1.26-.27 1.26-1.14V4.89c0-.87-.17-1.14-1.26-1.14h-3.63c-1.08 0-1.26.27-1.26 1.14z"/>
    </g>
</svg>
