<svg width="24" height="24" viewBox="0 0 24 24" xmlns="http://www.w3.org/2000/svg">
    <g fill="#292D32" fill-rule="evenodd">
        <path d="M10 20.75c-4.83 0-8.75-3.93-8.75-8.75S5.17 3.25 10 3.25h4c4.83 0 8.75 3.93 8.75 8.75s-3.92 8.75-8.75 8.75h-4zM2.75 12c0 4 3.25 7.25 7.25 7.25h4c4 0 7.25-3.25 7.25-7.25S18 4.75 14 4.75h-4C6 4.75 2.75 8 2.75 12z"/>
        <path d="M9.25 12c0-2.62 2.13-4.75 4.75-4.75s4.75 2.13 4.75 4.75-2.13 4.75-4.75 4.75S9.25 14.62 9.25 12zm1.5 0c0 1.79 1.46 3.25 3.25 3.25s3.25-1.46 3.25-3.25S15.79 8.75 14 8.75s-3.25 1.46-3.25 3.25z"/>
    </g>
</svg>
