<svg width="24" height="24" viewBox="0 0 24 24" xmlns="http://www.w3.org/2000/svg">
    <g fill="#292D32" fill-rule="nonzero">
        <path d="M8.628 11.32h5.48V2.86a.869.869 0 0 0-.87-.86c-5.89 0-10 4.11-10 10s4.11 10 10 10c.47 0 .86-.38.86-.86v-8.33h-5.47a.734.734 0 0 1-.75-.74c0-.41.34-.75.75-.75z"/>
        <path d="M17.702 8.69a.754.754 0 0 0-1.06 0c-.29.29-.29.77 0 1.06l1.56 1.56h-4.1v1.5h4.09l-1.56 1.56c-.29.29-.29.77 0 1.06.15.15.34.22.53.22s.38-.07.53-.22l2.84-2.85c.3-.28.3-.75.01-1.04l-2.84-2.85z"/>
    </g>
</svg>
