<svg width="24" height="24" viewBox="0 0 24 24" xmlns="http://www.w3.org/2000/svg">
    <g fill="#292D32" fill-rule="nonzero">
        <path d="M17.55 16.6a.75.75 0 0 1-.15-1.05 5.926 5.926 0 0 0 .72-5.84.75.75 0 0 1 .4-.98c.38-.16.82.02.98.4 1.02 2.42.67 5.23-.9 7.33a.758.758 0 0 1-1.05.14z"/>
        <path d="M19.378 19.1a.75.75 0 0 1-.15-1.05c2.14-2.85 2.61-6.67 1.23-9.96a.75.75 0 0 1 .4-.98c.38-.16.82.02.98.4 1.59 3.78 1.05 8.16-1.41 11.44-.14.2-.37.3-.6.3a.76.76 0 0 1-.45-.15zM15.75 13.668v2.93c0 1.72-.62 3.01-1.73 3.63a3 3 0 0 1-1.47.37c-.8 0-1.66-.27-2.54-.82l-.64-.4c-.54-.34-.63-1.1-.18-1.55l4.85-4.87c.63-.63 1.71-.18 1.71.71zM20.68 2.229l-4.95 4.95c-.06-1.6-.66-2.8-1.72-3.39-1.12-.62-2.55-.46-4.01.45l-2.91 1.82c-.2.12-.43.19-.66.19H5c-2.42 0-3.75 1.33-3.75 3.75v4c0 2.42 1.33 3.75 3.75 3.75h.16l-2.94 2.94c-.3.3-.3.79 0 1.09.16.14.35.22.55.22.2 0 .39-.08.54-.23l18.46-18.46c.31-.3.31-.78 0-1.08-.3-.3-.79-.3-1.09 0z"/>
    </g>
</svg>
