<svg width="24" height="24" viewBox="0 0 24 24" xmlns="http://www.w3.org/2000/svg">
    <g fill="none" fill-rule="evenodd">
        <path d="M9 22.75c-5.43 0-7.75-2.32-7.75-7.75V9c0-5.43 2.32-7.75 7.75-7.75h6c5.43 0 7.75 2.32 7.75 7.75v6c0 5.43-2.32 7.75-7.75 7.75H9zM2.75 9v6c0 4.61 1.64 6.25 6.25 6.25h6c4.61 0 6.25-1.64 6.25-6.25V9c0-4.61-1.64-6.25-6.25-6.25H9C4.39 2.75 2.75 4.39 2.75 9z" fill="#292D32"/>
        <path d="M7.11 14.44v2.75M17.5 12c0 3.04-2.46 5.5-5.5 5.5-2.027 0-3.657-1.02-4.89-3.06h2.48M6.5 12c0-3.04 2.44-5.5 5.5-5.5 2.447 0 4.28 1.02 5.5 3.06m0 0V6.81m0 2.75h-2.44" stroke="#292D32" stroke-width="1.5" stroke-linecap="round" stroke-linejoin="round" stroke-dasharray="0,0"/>
    </g>
</svg>
