<svg width="24" height="24" viewBox="0 0 24 24" xmlns="http://www.w3.org/2000/svg">
    <g fill="#292D32" fill-rule="evenodd">
        <path d="M12.9 2C9.45 2 8.05 3.37 8.01 6.75h3.09c4.2 0 6.15 1.95 6.15 6.15v1.66a1 1 0 0 0 1.404.915C20.884 14.49 22 13.03 22 11.1V6.9C22 3.4 20.6 2 17.1 2h-4.2z" fill-rule="nonzero"/>
        <path d="M6.9 8C3.4 8 2 9.4 2 12.9v4.2C2 20.6 3.4 22 6.9 22h4.2c3.5 0 4.9-1.4 4.9-4.9v-4.2C16 9.4 14.6 8 11.1 8H6.9zm1.68 9.36a.71.71 0 0 1-.51.21.71.71 0 0 1-.51-.21L5.7 15.5a.712.712 0 0 1 0-1.01c.28-.28.73-.28 1.01 0l1.35 1.35 3.21-3.21c.28-.28.73-.28 1.01 0s.29.74.01 1.02l-3.71 3.71z"/>
    </g>
</svg>
