<svg width="24" height="24" viewBox="0 0 24 24" xmlns="http://www.w3.org/2000/svg">
    <g fill="#292D32" fill-rule="evenodd">
        <path d="M9 22.75c-5.43 0-7.75-2.32-7.75-7.75V9c0-5.43 2.32-7.75 7.75-7.75h6c5.43 0 7.75 2.32 7.75 7.75v6c0 5.43-2.32 7.75-7.75 7.75H9zM2.75 9v6c0 4.61 1.64 6.25 6.25 6.25h6c4.61 0 6.25-1.64 6.25-6.25V9c0-4.61-1.64-6.25-6.25-6.25H9C4.39 2.75 2.75 4.39 2.75 9z"/>
        <path d="M14.319 12.59c-1.09 0-1.94-.85-1.94-1.94V9.16c0-1.09.85-1.94 1.94-1.94h1.49c1.07 0 1.94.87 1.94 1.94v2.67c0 .42-.34.76-.75.76h-2.68zm-.44-3.43v1.49c0 .2.11.44.44.44h1.93V9.17c0-.24-.2-.44-.44-.44h-1.49v-.01c-.32 0-.44.24-.44.44z"/>
        <path d="M14.26 16.41a.758.758 0 0 1 .26-1.03c1.36-.81 1.73-1.02 1.73-3.54 0-.41.34-.75.75-.75s.75.34.75.75c0 3.08-.67 3.77-2.46 4.83-.12.07-.25.11-.38.11-.26 0-.51-.13-.65-.37z" fill-rule="nonzero"/>
        <path d="M8.18 12.59c-1.09 0-1.94-.85-1.94-1.94V9.16c0-1.09.85-1.94 1.94-1.94h1.49c1.07 0 1.94.87 1.94 1.94v2.67c0 .42-.33.76-.75.76H8.18zm-.43-3.43v1.49c0 .2.11.44.44.44h1.93V9.17c0-.24-.2-.44-.44-.44H8.19v-.01c-.32 0-.44.24-.44.44z"/>
        <path d="M8.12 16.41a.758.758 0 0 1 .26-1.03c1.36-.81 1.73-1.02 1.73-3.54 0-.41.34-.75.75-.75s.75.34.75.75c0 3.08-.67 3.77-2.46 4.83-.12.07-.25.11-.38.11-.26 0-.51-.13-.65-.37z" fill-rule="nonzero"/>
    </g>
</svg>
