<svg width="24" height="24" viewBox="0 0 24 24" xmlns="http://www.w3.org/2000/svg">
    <g fill="#292D32" fill-rule="evenodd">
        <path d="M8.5 19.75c-2.74 0-4.25-1.51-4.25-4.25v-7c0-2.74 1.51-4.25 4.25-4.25h7c2.74 0 4.25 1.51 4.25 4.25v7c0 2.74-1.51 4.25-4.25 4.25h-7zM5.75 8.5v7c0 1.93.82 2.75 2.75 2.75h7c1.93 0 2.75-.82 2.75-2.75v-7c0-1.93-.82-2.75-2.75-2.75h-7c-1.93 0-2.75.82-2.75 2.75z"/>
        <path d="M8 2.75c-.41 0-.75-.34-.75-.75s.34-.75.75-.75h8c.41 0 .75.34.75.75s-.34.75-.75.75H8zM8 22.75c-.41 0-.75-.34-.75-.75s.34-.75.75-.75h8c.41 0 .75.34.75.75s-.34.75-.75.75H8zM11.5 13.25c-.41 0-.75-.34-.75-.75v-3c0-.41.34-.75.75-.75s.75.34.75.75v2.25h2.25c.41 0 .75.34.75.75s-.34.75-.75.75h-3z" fill-rule="nonzero"/>
    </g>
</svg>
