<svg width="24" height="24" viewBox="0 0 24 24" xmlns="http://www.w3.org/2000/svg">
    <g fill="#292D32" fill-rule="evenodd">
        <path d="M8 3.75c-.41 0-.75-.34-.75-.75s.34-.75.75-.75h8c.41 0 .75.34.75.75s-.34.75-.75.75H8zM8 21.75c-.41 0-.75-.34-.75-.75s.34-.75.75-.75h8c.41 0 .75.34.75.75s-.34.75-.75.75H8z" fill-rule="nonzero"/>
        <path d="M8.5 5C6.17 5 5 6.17 5 8.5v7C5 17.83 6.17 19 8.5 19h7c2.33 0 3.5-1.17 3.5-3.5v-7C19 6.17 17.83 5 15.5 5h-7zm.5 9.75c-.41 0-.75-.33-.75-.75v-1c0-.41.34-.75.75-.75s.75.34.75.75v1c0 .41-.34.75-.75.75zm3 0c-.41 0-.75-.34-.75-.75v-4c0-.41.34-.75.75-.75s.75.34.75.75v4c0 .41-.34.75-.75.75zm3 0c-.41 0-.75-.34-.75-.75v-2c0-.41.34-.75.75-.75s.75.34.75.75v2c0 .41-.34.75-.75.75z"/>
    </g>
</svg>
