<svg width="24" height="24" viewBox="0 0 24 24" xmlns="http://www.w3.org/2000/svg">
    <g fill="#292D32" fill-rule="nonzero">
        <path d="M14.66 14.268a5.962 5.962 0 0 0-5.07-4.96c2.8-2.86 7.1-5.89 10.38-7.21.58-.22 1.16-.05 1.52.31.38.38.56.95.32 1.53-1.31 3.27-4.3 7.54-7.15 10.33z"/>
        <path d="m13.18 15.59-1.79 1.43c0-.03-.01-.07-.01-.11-.14-1.07-.64-2.06-1.45-2.87a5.029 5.029 0 0 0-2.96-1.46c-.03 0-.07-.01-.1-.01l1.45-1.83c.14-.18.29-.35.45-.53l.68.09c2.15.3 3.88 1.99 4.22 4.13l.11.66c-.2.17-.4.34-.6.5z"/>
        <path d="M9.21 20.56c-.61.62-1.43 1.04-2.43 1.16l-2.45.27c-1.34.15-2.49-1-2.34-2.35l.27-2.46c.24-2.19 2.07-3.59 4.01-3.63.19-.01.4 0 .6.02.85.11 1.67.5 2.36 1.18.67.67 1.05 1.46 1.16 2.29.02.2.04.39.04.58 0 1.1-.42 2.15-1.22 2.94z"/>
    </g>
</svg>
