<svg width="24" height="24" viewBox="0 0 24 24" xmlns="http://www.w3.org/2000/svg">
    <g fill="#292D32" fill-rule="nonzero">
        <path d="M4.78 2.75v2.03H2.75a.749.749 0 1 0 0 1.5h2.78c.41 0 .75-.34.75-.75V2.75a.749.749 0 1 0-1.5 0zM18.47 17.719c-.41 0-.75.34-.75.75v2.78c0 .41.34.75.75.75s.75-.34.75-.75v-2.03h2.03c.41 0 .75-.34.75-.75s-.34-.75-.75-.75h-2.78z"/>
        <path d="M18.47 16.72h.69v-6.67c0-2.89-2.34-5.23-5.23-5.23H7.28v.69c0 .96-.79 1.75-1.75 1.75h-.7v6.67c0 2.89 2.34 5.23 5.23 5.23h6.67v-.69h-.01c0-.96.79-1.75 1.75-1.75z"/>
    </g>
</svg>
