<?xml version="1.0" encoding="UTF-8"?>
<svg width="24px" height="24px" viewBox="0 0 24 24" version="1.1" xmlns="http://www.w3.org/2000/svg" xmlns:xlink="http://www.w3.org/1999/xlink">
    <title>7D4D27FF-42E2-43D9-8211-27DA2C0E1BC1</title>
    <g id="Outline-Icons" stroke="none" stroke-width="1" fill="none" fill-rule="evenodd">
        <g id="Essetional" transform="translate(-172.000000, -764.000000)">
            <g id="safe-home" transform="translate(172.000000, 764.000000)">
                <path d="M18.1098328,23.6999607 C16.7898327,23.3399607 15.5998474,22.5499803 14.7498474,21.4699802 C13.8398438,20.3399802 13.3398438,18.9599558 13.3398438,17.5699558 L13.3398438,15.3800147 C13.3398438,14.6600146 13.8198376,13.9300342 14.4898376,13.6500342 L17.2798462,12.5100195 C18.0998462,12.1900195 18.9898352,12.1900195 19.7998352,12.5100195 L22.5998535,13.6500342 C23.2698535,13.9300342 23.7598572,14.6600146 23.7598572,15.3800147 L23.7598572,17.5699558 C23.7598572,20.3599558 21.7598572,22.9399607 19.0098572,23.6999607 C18.8398572,23.7299607 18.6798462,23.7500095 18.5298462,23.7500095 C18.3798462,23.7500095 18.2398328,23.7299607 18.1098328,23.6999607 Z M17.829834,13.8900244 L15.059845,15.0300391 C14.959845,15.0700391 14.8398438,15.2600147 14.8398438,15.3800147 L14.8398438,17.5699558 C14.8398438,18.6199558 15.2198609,19.6700486 15.9198608,20.5400486 C16.5798609,21.3800486 17.4898584,21.9900193 18.4798584,22.2600193 C18.5098584,22.2700195 18.5698425,22.2700195 18.6198425,22.2500095 C20.6698425,21.6800095 22.2398376,19.6699557 22.2398376,17.5699558 L22.2398376,15.3800147 C22.2398376,15.2600147 22.1198572,15.0800391 22.0098572,15.0300391 L19.2298584,13.8900244 C19.0098584,13.8000244 18.779856,13.7500098 18.539856,13.7500098 C18.299856,13.7500098 18.059834,13.7900244 17.829834,13.8900244 Z" id="Vector" fill="#292D32"></path>
                <path d="M6.18045425,21.7499886 C4.44045424,21.7499886 2.84044936,20.39993 2.55044937,18.68993 L1.29047014,11.1400032 C1.08047014,9.95000315 1.67044693,8.42002273 2.61044693,7.66002274 L9.19046402,2.40001315 C10.480464,1.36001319 12.5004702,1.37002295 13.7904701,2.41002291 L20.3704567,7.66002274 C21.3204567,8.42002273 21.900464,9.95000315 21.690464,11.1400032 L21.2604713,13.729969 C21.2204713,13.949969 21.0804665,14.1499983 20.8804665,14.2599983 C20.6804665,14.3699983 20.4404726,14.3900374 20.2304726,14.3000374 L19.2304726,13.8900032 C18.7904726,13.7100032 18.2904482,13.7100032 17.8304482,13.8900032 L15.0604591,15.0300179 C14.9604591,15.0700179 14.8404579,15.2599934 14.8404579,15.3799934 L14.8404579,17.5699348 C14.8404579,18.6199348 15.220475,19.6700276 15.920475,20.5400276 C16.100475,20.7600276 16.1404713,21.0699446 16.0104713,21.3299446 C15.8904713,21.5799446 15.6304579,21.7499886 15.3404579,21.7499886 L6.18045425,21.7499886 Z M10.1304665,3.56004739 L3.55044937,8.81993484 C3.03044939,9.23993483 2.66045059,10.2199934 2.77045059,10.8799934 L4.03046036,18.4300423 C4.20046036,19.4100423 5.18045425,20.2399788 6.18045425,20.2399788 L13.9804726,20.2399788 C13.5604726,19.3899788 13.3404579,18.4700374 13.3404579,17.5500374 L13.3404579,15.3599739 C13.3404579,14.6399739 13.8204518,13.9099934 14.4904518,13.6299934 L17.2804604,12.4899788 C18.1004604,12.1699788 18.9904494,12.1699788 19.8004494,12.4899788 L19.940464,12.5500374 L20.2204628,10.8900032 C20.3304628,10.2300032 19.960464,9.2499446 19.440464,8.82994461 L12.8604469,3.57994485 C12.4804469,3.26994485 11.9804726,3.11998391 11.4804726,3.11998391 C10.9904726,3.11998391 10.4904665,3.2700474 10.1304665,3.56004739 Z" id="Vector" fill="#292D32"></path>
                <path d="M24,0 L24,24 L0,24 L0,0 L24,0 Z" id="Vector" opacity="0"></path>
            </g>
        </g>
    </g>
</svg>