<svg width="24" height="24" viewBox="0 0 24 24" xmlns="http://www.w3.org/2000/svg">
    <g fill="#292D32" fill-rule="nonzero">
        <path d="M4.201 12.001c-.22 0-.42-.15-.49-.36-2.75-9.09 11.13-12.58 12.74-2.82 1.66.21 2.97 1.15 3.78 2.41.21.33-.04.77-.43.77h-15.6zM4 15.781c-.41 0-.75-.34-.75-.75s.34-.75.75-.75h16c.41 0 .75.34.75.75s-.34.75-.75.75H4zM6 18.781c-.41 0-.75-.34-.75-.75s.34-.75.75-.75h12c.41 0 .75.34.75.75s-.34.75-.75.75H6zM9 21.781c-.41 0-.75-.34-.75-.75s.34-.75.75-.75h6c.41 0 .75.34.75.75s-.34.75-.75.75H9z"/>
    </g>
</svg>
