<svg width="24" height="24" viewBox="0 0 24 24" xmlns="http://www.w3.org/2000/svg">
    <g fill="#292D32" fill-rule="evenodd">
        <path d="M6.9 22.75c-3.91 0-5.65-1.74-5.65-5.65v-4.2c0-3.91 1.74-5.65 5.65-5.65h4.2c3.91 0 5.65 1.74 5.65 5.65v4.2c0 3.91-1.74 5.65-5.65 5.65H6.9zM2.75 12.9v4.2c0 3.1 1.05 4.15 4.15 4.15h4.2c3.1 0 4.15-1.05 4.15-4.15v-4.2c0-3.1-1.05-4.15-4.15-4.15H6.9c-3.1 0-4.15 1.05-4.15 4.15z"/>
        <path d="M16 16.75c-.41 0-.75-.34-.75-.75v-3.1c0-3.1-1.05-4.15-4.15-4.15H8c-.41 0-.75-.34-.75-.75V6.9c0-3.91 1.74-5.65 5.65-5.65h4.2c3.91 0 5.65 1.74 5.65 5.65v4.2c0 3.91-1.74 5.65-5.65 5.65H16zm1.1-1.5c3.1 0 4.15-1.05 4.15-4.15V6.9c0-3.1-1.05-4.15-4.15-4.15h-4.2c-3.1 0-4.15 1.05-4.15 4.15v.35h2.35c3.91 0 5.65 1.74 5.65 5.65v2.35h.35z"/>
    </g>
</svg>
