<svg width="24" height="24" viewBox="0 0 24 24" xmlns="http://www.w3.org/2000/svg">
    <g fill="#292D32" fill-rule="evenodd">
        <path d="M8.69 19.25C6 19.25 4.75 18 4.75 15.31v-2.73C4.75 9.9 6 8.65 8.69 8.65h2.73c2.68 0 3.94 1.25 3.94 3.94v2.73c-.01 2.68-1.26 3.93-3.94 3.93H8.69zm-2.44-6.66v2.73c0 1.87.57 2.44 2.44 2.44h2.73c1.87 0 2.44-.57 2.44-2.44v-2.73c0-1.87-.57-2.44-2.44-2.44H8.69c-1.87 0-2.44.57-2.44 2.44z"/>
        <path d="M14.6 15.35c-.41 0-.75-.34-.75-.75v-2.02c0-1.87-.57-2.44-2.44-2.44H9.4c-.41 0-.75-.34-.75-.75v-.7c0-2.68 1.25-3.94 3.94-3.94h2.73c2.68 0 3.94 1.25 3.94 3.94v2.73c-.01 2.68-1.26 3.93-3.95 3.93h-.71zm-3.18-6.7c2.68 0 3.94 1.25 3.94 3.94v1.27c1.84-.01 2.4-.58 2.4-2.44V8.69c0-1.87-.57-2.44-2.44-2.44h-2.73c-1.86 0-2.43.56-2.44 2.4h1.27z"/>
        <path d="M14.35 22.37a.764.764 0 0 1 .01-.76l1.05-1.75c.21-.36.67-.47 1.03-.26.36.21.47.67.26 1.03l-.27.45c2.76-.65 4.83-3.13 4.83-6.09 0-.41.34-.75.75-.75s.75.34.75.75c-.01 4.28-3.49 7.76-7.76 7.76-.27 0-.52-.15-.65-.38zM1.25 9c0-4.27 3.48-7.75 7.75-7.75a.752.752 0 0 1 .64 1.14L8.59 4.14c-.21.35-.67.47-1.03.25a.746.746 0 0 1-.25-1.03l.27-.45A6.261 6.261 0 0 0 2.75 9c0 .41-.34.75-.75.75s-.75-.34-.75-.75z" fill-rule="nonzero"/>
    </g>
</svg>
