<svg width="24" height="24" viewBox="0 0 24 24" xmlns="http://www.w3.org/2000/svg">
    <g fill="#292D32" fill-rule="evenodd">
        <path d="M12.001 17.35a1.63 1.63 0 1 1 0-3.26 1.63 1.63 0 0 1 0 3.26z"/>
        <path d="M18.28 8.28C18.28 5.58 17.63 2 12 2S5.72 5.58 5.72 8.28v1.25C2.92 9.88 2 11.3 2 14.79v1.86C2 20.75 3.25 22 7.35 22h9.3c4.1 0 5.35-1.25 5.35-5.35v-1.86c0-3.49-.92-4.91-3.72-5.26V8.28zm-9.3 7.44c0-1.67 1.36-3.02 3.02-3.02a3.03 3.03 0 0 1 3.02 3.02c0 1.67-1.35 3.02-3.02 3.02s-3.02-1.36-3.02-3.02zM7.12 9.44V8.28c0-2.93.83-4.88 4.88-4.88s4.88 1.95 4.88 4.88v1.17H7.35v-.01h-.23z"/>
    </g>
</svg>
