<svg width="24" height="24" viewBox="0 0 24 24" xmlns="http://www.w3.org/2000/svg">
    <g fill="#292D32" fill-rule="evenodd">
        <path d="M2.29 22.48c-.67-.39-1.05-1.17-1.05-2.14V8.98c0-2.13 1.73-3.86 3.86-3.86h7.78c2.13 0 3.86 1.73 3.86 3.86v11.36c0 .97-.38 1.74-1.05 2.14-.67.39-1.53.35-2.38-.12l-3.93-2.19c-.19-.11-.59-.11-.78 0l-3.93 2.19c-.46.26-.93.39-1.37.39-.36 0-.71-.09-1.01-.27zm.46-13.49v11.36c0 .41.12.73.31.84.19.11.53.06.89-.14l3.93-2.19c.64-.35 1.6-.35 2.24 0l3.93 2.19c.36.2.69.25.89.14.19-.11.31-.43.31-.84V8.99c0-1.3-1.06-2.36-2.36-2.36H5.11c-1.3 0-2.36 1.06-2.36 2.36z"/>
        <path d="m13.32 22.37-3.93-2.19c-.19-.1-.6-.1-.79 0l-3.92 2.19c-.85.47-1.72.51-2.38.12-.67-.39-1.05-1.17-1.05-2.13V9c0-2.13 1.73-3.86 3.86-3.86h7.78c2.13 0 3.86 1.73 3.86 3.86v11.36c0 .96-.38 1.74-1.05 2.13-.3.17-.64.26-1.01.26-.44 0-.9-.13-1.37-.38zm-3.2-3.5 3.93 2.19c.36.2.7.25.89.13.19-.11.31-.43.31-.84V8.99c0-1.3-1.06-2.36-2.36-2.36H5.11c-1.3 0-2.36 1.06-2.36 2.36v11.36c0 .41.12.73.31.84.19.11.53.06.89-.14l3.93-2.19c.32-.17.72-.26 1.12-.26.4 0 .79.09 1.12.27z"/>
        <path d="m19.32 18.49-3.69-2.06a.732.732 0 0 1-.38-.65V9c0-1.3-1.06-2.36-2.36-2.36H8c-.41 0-.75-.34-.75-.75v-.77c0-2.13 1.73-3.86 3.86-3.86h7.78c2.13 0 3.86 1.73 3.86 3.86v11.36c0 .96-.38 1.74-1.05 2.13-.3.17-.64.26-1.01.26-.44 0-.9-.13-1.37-.38zm.73-1.31c.36.2.69.25.89.13.2-.12.31-.43.31-.84V5.11c0-1.3-1.06-2.36-2.36-2.36h-7.78c-1.3 0-2.36 1.06-2.36 2.36v.02h4.14c2.13 0 3.86 1.73 3.86 3.86v6.34l3.3 1.85z"/>
    </g>
</svg>
