<?xml version="1.0" encoding="UTF-8"?>
<svg width="24px" height="24px" viewBox="0 0 24 24" version="1.1" xmlns="http://www.w3.org/2000/svg" xmlns:xlink="http://www.w3.org/1999/xlink">
    <title>3E8612D2-1597-44B5-A63C-EDA6A8A77EC8</title>
    <g id="Outline-Icons" stroke="none" stroke-width="1" fill="none" fill-rule="evenodd">
        <g id="Essetional" transform="translate(-620.000000, -700.000000)">
            <g id="filter-tick" transform="translate(620.000000, 700.000000)">
                <path d="M13.9088745,19.3500061 C13.2188745,18.9300061 12.618894,18.3099866 12.178894,17.5799866 C11.6588941,16.7299865 11.3789062,15.75 11.3789062,14.75 C11.3789062,11.72 13.8489063,9.25 16.8789062,9.25 C17.2989062,9.25 17.708877,9.30001464 18.098877,9.39001465 C20.578877,9.94001466 22.3789062,12.1900001 22.3789062,14.75 C22.3789062,15.76 22.1089282,16.7399963 21.5889282,17.5899963 C20.6089282,19.2299963 18.7989062,20.25 16.8789062,20.25 C15.8189063,20.25 14.7888745,19.9400061 13.9088745,19.3500061 Z M12.8789062,14.75 C12.8789062,15.48 13.0789233,16.1899976 13.4589233,16.8099976 C13.7789233,17.3399975 14.2089233,17.7799963 14.7089233,18.0899963 C15.3689234,18.5299963 16.1089063,18.75 16.8789062,18.75 C18.2789062,18.75 19.5888989,18.0099976 20.3088989,16.8099976 C20.6888989,16.1899976 20.8789062,15.48 20.8789062,14.75 C20.8789062,12.89 19.5689111,11.25 17.7589111,10.8500061 C17.4689111,10.7800061 17.1789063,10.75 16.8789062,10.75 C14.6689062,10.75 12.8789062,12.54 12.8789062,14.75 Z" id="Vector" fill="#292D32"></path>
                <path d="M15.6687329,16.4501224 L14.49875,15.2801089 C14.20875,14.9901089 14.20875,14.5101112 14.49875,14.2201113 C14.78875,13.9301113 15.2687475,13.9301113 15.5587475,14.2201113 L16.2187207,14.880115 L18.2287304,13.0301089 C18.5387304,12.7501089 19.0087282,12.7701174 19.2887282,13.0701174 C19.5687282,13.3701174 19.5487502,13.8501149 19.2487502,14.1301149 L16.7087719,16.4701114 C16.5687719,16.6001114 16.3787622,16.6701236 16.1987622,16.6701236 C16.0087622,16.6701236 15.8187329,16.6001224 15.6687329,16.4501224 Z" id="Vector" fill="#292D32" fill-rule="nonzero"></path>
                <path d="M24,0 L24,24 L0,24 L0,0 L24,0 Z" id="Vector" opacity="0" transform="translate(12.000000, 12.000000) rotate(-180.000000) translate(-12.000000, -12.000000) "></path>
                <path d="M9.54077148,22.3900146 C8.6507715,21.8900146 8.12078857,20.990011 8.12078857,19.980011 L8.12078857,14.6300049 C8.12078857,14.1200049 7.79076415,13.370011 7.47076416,12.980011 L3.67077637,8.98999023 C3.04077637,8.33999026 2.55078125,7.25001222 2.55078125,6.45001221 L2.55078125,4.11999512 C2.55078125,2.5099951 3.77080083,1.25 5.32080078,1.25 L18.6607666,1.25 C20.1907666,1.25 21.4307861,2.48998904 21.4307861,4.01998901 L21.4307861,6.23999023 C21.4307861,7.28999019 20.8108057,8.46999633 20.2008057,9.08999634 L18.4008179,10.6799927 C18.2208179,10.8399927 17.9707739,10.9000061 17.7307739,10.8500061 C17.4607739,10.7800061 17.1707886,10.75 16.8707886,10.75 C14.6607885,10.75 12.8707886,12.54 12.8707886,14.75 C12.8707886,15.48 13.0708057,16.1899976 13.4508057,16.8099976 C13.7708057,17.3399975 14.2008057,17.7799963 14.7008057,18.0899963 C14.9208057,18.2299963 15.060791,18.470011 15.060791,18.730011 L15.060791,19.0700073 C15.060791,19.8600073 14.5808228,20.9700024 13.7808228,21.4400024 L12.4008179,22.3299866 C11.9608179,22.6099866 11.4407861,22.75 10.9307861,22.75 C10.4507861,22.75 9.97077149,22.6300146 9.54077148,22.3900146 Z M4.06079102,4.11999512 L4.06079102,6.45001221 C4.06079102,6.81001222 4.36080322,7.54000244 4.76080322,7.94000244 L8.61077881,11.9899902 C9.1207788,12.6199902 9.63079834,13.6800049 9.63079834,14.6300049 L9.63079834,19.980011 C9.63079834,20.640011 10.0908228,20.9699866 10.2808228,21.0799866 C10.7108228,21.3199866 11.2207788,21.3100073 11.6107788,21.0700073 L13.0108032,20.1700134 C13.2808032,20.0100134 13.5508008,19.5000147 13.5708008,19.1400146 C13.0208008,18.7300147 12.5407861,18.2000061 12.1807861,17.6000061 C11.6607862,16.75 11.3807983,15.769989 11.3807983,14.769989 C11.3807983,11.739989 13.8507984,9.26998901 16.8807983,9.26998901 C17.1607983,9.26998901 17.4408057,9.28998657 17.7008057,9.32998657 L19.1807861,8.01998901 C19.5207861,7.66998902 19.9407959,6.83999997 19.9407959,6.25 L19.9407959,4.02999878 C19.9407959,3.32999879 19.3707764,2.76000977 18.6707764,2.76000977 L5.33081055,2.76000977 L5.33081055,2.75 C4.62081057,2.75 4.06079102,3.34999514 4.06079102,4.11999512 Z" id="Vector" fill="#292D32"></path>
            </g>
        </g>
    </g>
</svg>