<svg width="24" height="24" viewBox="0 0 24 24" xmlns="http://www.w3.org/2000/svg">
    <g fill="#292D32" fill-rule="evenodd">
        <path d="M4.25 9c0-4.27 3.48-7.75 7.75-7.75S19.75 4.73 19.75 9s-3.48 7.75-7.75 7.75S4.25 13.27 4.25 9zm1.5 0c0 3.45 2.8 6.25 6.25 6.25s6.25-2.8 6.25-6.25-2.8-6.25-6.25-6.25S5.75 5.55 5.75 9z"/>
        <path d="M11.25 22v-6c0-.41.34-.75.75-.75s.75.34.75.75v6c0 .41-.34.75-.75.75s-.75-.34-.75-.75z" fill-rule="nonzero"/>
        <path d="M9 19.75c-.41 0-.75-.34-.75-.75s.34-.75.75-.75h6c.41 0 .75.34.75.75s-.34.75-.75.75H9z" fill-rule="nonzero"/>
    </g>
</svg>
