<?xml version="1.0" encoding="UTF-8"?>
<svg width="24px" height="24px" viewBox="0 0 24 24" version="1.1" xmlns="http://www.w3.org/2000/svg" xmlns:xlink="http://www.w3.org/1999/xlink">
    <title>A3442999-BC89-4F06-A36D-49896F51B16C</title>
    <g id="Outline-Icons" stroke="none" stroke-width="1" fill="none" fill-rule="evenodd">
        <g id="Essetional" transform="translate(-236.000000, -636.000000)">
            <g id="mirror" transform="translate(236.000000, 636.000000)">
                <path d="M3.25,10 C3.25,5.17999983 7.17000008,1.25 12,1.25 C16.8299999,1.25 20.75,5.17999983 20.75,10 C20.75,14.8200002 16.8299999,18.75 12,18.75 C7.17000008,18.75 3.25,14.8200002 3.25,10 Z M4.75,10 C4.75,14 8,17.25 12,17.25 C16,17.25 19.25,14 19.25,10 C19.25,6 16,2.75 12,2.75 C8,2.75 4.75,6 4.75,10 Z" id="Vector" fill="#292D32"></path>
                <path d="M6,22.75 C5.59,22.75 5.25,22.41 5.25,22 C5.25,21.59 5.59,21.25 6,21.25 L18,21.25 C18.41,21.25 18.75,21.59 18.75,22 C18.75,22.41 18.41,22.75 18,22.75 L6,22.75 Z" id="Vector" fill="#292D32" fill-rule="nonzero"></path>
                <path d="M24,0 L24,24 L0,24 L0,0 L24,0 Z" id="Vector" opacity="0"></path>
            </g>
        </g>
    </g>
</svg>