<svg width="24" height="24" viewBox="0 0 24 24" xmlns="http://www.w3.org/2000/svg">
    <g fill="#292D32" fill-rule="evenodd">
        <path d="M5.75 22v-7c0-.41.34-.75.75-.75s.75.34.75.75v7c0 .41-.34.75-.75.75s-.75-.34-.75-.75zM5.75 5V2c0-.41.34-.75.75-.75s.75.34.75.75v3c0 .41-.34.75-.75.75s-.75-.34-.75-.75zM16.75 22v-3c0-.41.34-.75.75-.75s.75.34.75.75v3c0 .41-.34.75-.75.75s-.75-.34-.75-.75zM16.75 9V2c0-.41.34-.75.75-.75s.75.34.75.75v7c0 .41-.34.75-.75.75s-.75-.34-.75-.75z" fill-rule="nonzero"/>
        <path d="M5.5 15.75c-1.72 0-2.75-1.03-2.75-2.75V7c0-1.72 1.03-2.75 2.75-2.75h2c1.72 0 2.75 1.03 2.75 2.75v6c0 1.72-1.03 2.75-2.75 2.75h-2zM4.25 7v6c0 .89.36 1.25 1.25 1.25h2c.89 0 1.25-.36 1.25-1.25V7c0-.89-.36-1.25-1.25-1.25h-2c-.89 0-1.25.36-1.25 1.25zM16.5 19.75c-1.72 0-2.75-1.03-2.75-2.75v-6c0-1.72 1.03-2.75 2.75-2.75h2c1.72 0 2.75 1.03 2.75 2.75v6c0 1.72-1.03 2.75-2.75 2.75h-2zM15.25 11v6c0 .89.36 1.25 1.25 1.25h2c.89 0 1.25-.36 1.25-1.25v-6c0-.89-.36-1.25-1.25-1.25h-2c-.89 0-1.25.36-1.25 1.25z"/>
    </g>
</svg>
