<?xml version="1.0" encoding="UTF-8"?>
<svg width="24px" height="24px" viewBox="0 0 24 24" version="1.1" xmlns="http://www.w3.org/2000/svg" xmlns:xlink="http://www.w3.org/1999/xlink">
    <title>195720D8-8E74-4E81-BAC0-50500672C139</title>
    <g id="Outline-Icons" stroke="none" stroke-width="1" fill="none" fill-rule="evenodd">
        <g id="Essetional" transform="translate(-428.000000, -444.000000)">
            <g id="pet" transform="translate(428.000000, 444.000000)">
                <path d="M9.24922609,22.75 C7.62922609,22.75 6.15922606,22.1199991 5.09922612,20.9599991 C4.03922617,19.8099991 3.52922624,18.2900003 3.66922624,16.6800003 C4.00922624,12.5800004 7.62922668,9.25 11.7492266,9.25 C15.5392265,9.25 19.1192256,12.2900004 19.7492256,16.0200005 C20.0492256,17.8000004 19.6092273,19.4800003 18.5292273,20.7600002 C17.4292272,22.0400002 15.8392265,22.75 14.0392265,22.75 L9.24922609,22.75 Z M5.15922606,16.8099995 C5.05922606,17.9999995 5.42922592,19.1100008 6.1992259,19.9500008 C6.96922588,20.7900007 8.04922581,21.25 9.23922586,21.25 L14.0292263,21.25 C15.3792263,21.25 16.5692272,20.7299992 17.3592272,19.7999992 C18.1492272,18.8699992 18.4692266,17.6100005 18.2492266,16.2700005 C17.7492266,13.2300005 14.8292263,10.75 11.7392263,10.75 C8.38922644,10.75 5.43922606,13.4699996 5.15922606,16.8099995 Z" id="Vector" fill="#292D32"></path>
                <path d="M7.22070312,5 C7.22070312,3.21000004 8.68070364,1.75 10.4707036,1.75 C12.2607036,1.75 13.7207031,3.21000004 13.7207031,5 C13.7207031,6.78999996 12.2707036,8.25 10.4707036,8.25 C8.68070364,8.25 7.22070312,6.78999996 7.22070312,5 Z M8.72070312,5 C8.72070312,5.95999998 9.51070362,6.75 10.4707036,6.75 C11.4307036,6.75 12.2207031,5.95999998 12.2207031,5 C12.2207031,4.04000002 11.4407036,3.25 10.4707036,3.25 C9.51070362,3.25 8.72070312,4.04000002 8.72070312,5 Z" id="Vector" fill="#292D32"></path>
                <path d="M14.5507812,6.69995093 C14.5507812,5.17995095 15.7807803,3.94995117 17.3007803,3.94995117 C18.8207803,3.94995117 20.0507812,5.17995095 20.0507812,6.69995093 C20.0507812,8.21995091 18.8207803,9.44995117 17.3007803,9.44995117 C15.7807803,9.44995117 14.5507812,8.21995091 14.5507812,6.69995093 Z M16.0507812,6.69995093 C16.0507812,7.38995093 16.6107803,7.94995117 17.3007803,7.94995117 C17.9907803,7.94995117 18.5507812,7.38995093 18.5507812,6.69995093 C18.5507812,6.00995094 17.9907803,5.44995117 17.3007803,5.44995117 C16.6107803,5.44995117 16.0507812,6.00995094 16.0507812,6.69995093 Z" id="Vector" fill="#292D32"></path>
                <path d="M18.75,11.1999512 C18.75,9.95995116 19.76,8.94995117 21,8.94995117 C22.24,8.94995117 23.25,9.95995116 23.25,11.1999512 C23.25,12.4399512 22.24,13.4499512 21,13.4499512 C19.76,13.4499512 18.75,12.4399512 18.75,11.1999512 Z M20.25,11.1999512 C20.25,11.6099512 20.59,11.9499512 21,11.9499512 C21.41,11.9499512 21.75,11.6099512 21.75,11.1999512 C21.75,10.7899512 21.41,10.4499512 21,10.4499512 C20.59,10.4499512 20.25,10.7899512 20.25,11.1999512 Z" id="Vector" fill="#292D32"></path>
                <path d="M1.22070312,8.69995117 C1.22070312,7.17995119 2.45070314,5.94995117 3.97070312,5.94995117 C5.49070311,5.94995117 6.72070312,7.17995119 6.72070312,8.69995117 C6.72070312,10.2199512 5.49070311,11.4499512 3.97070312,11.4499512 C2.45070314,11.4499512 1.22070312,10.2199512 1.22070312,8.69995117 Z M2.72070312,8.69995117 C2.72070312,9.38995117 3.28070313,9.94995117 3.97070312,9.94995117 C4.66070312,9.94995117 5.22070312,9.38995117 5.22070312,8.69995117 C5.22070312,8.00995117 4.66070312,7.44995117 3.97070312,7.44995117 C3.28070313,7.44995117 2.72070312,8.00995117 2.72070312,8.69995117 Z" id="Vector" fill="#292D32"></path>
                <path d="M24,0 L24,24 L0,24 L0,0 L24,0 Z" id="Vector" opacity="0"></path>
            </g>
        </g>
    </g>
</svg>