<svg width="24" height="24" viewBox="0 0 24 24" xmlns="http://www.w3.org/2000/svg">
    <path d="M8 2C4.5 2 3 4 3 7v10c0 3 1.5 5 5 5h8c3.5 0 5-2 5-5V7c0-3-1.5-5-5-5H8zm2.53 15.53c-.15.15-.34.22-.53.22s-.38-.07-.53-.22l-2-2a.754.754 0 0 1 0-1.06l2-2c.29-.29.77-.29 1.06 0 .29.29.29.77 0 1.06L9.06 15l1.47 1.47c.29.29.29.77 0 1.06zm4 0c-.15.15-.34.22-.53.22s-.38-.07-.53-.22a.754.754 0 0 1 0-1.06L14.94 15l-1.47-1.47a.754.754 0 0 1 0-1.06c.29-.29.77-.29 1.06 0l2 2c.29.29.29.77 0 1.06l-2 2zm1.97-8.28c-1.52 0-2.75-1.23-2.75-2.75v-2c0-.41.34-.75.75-.75s.75.34.75.75v2c0 .69.56 1.25 1.25 1.25h2c.41 0 .75.34.75.75s-.34.75-.75.75h-2z" fill="#292D32" fill-rule="evenodd"/>
</svg>
