<svg width="24" height="24" viewBox="0 0 24 24" xmlns="http://www.w3.org/2000/svg">
    <g fill="#292D32" fill-rule="evenodd">
        <path d="M2.5 14.38A3.97 3.97 0 0 0 1 17.5c0 2.21 1.79 4 4 4a4 4 0 0 0 2.64-1c.83-.73 1.36-1.8 1.36-3a3.999 3.999 0 0 0-6.5-3.12zm3.14 4.01-1.25.75c-.12.08-.26.11-.39.11-.25 0-.5-.13-.64-.36-.21-.36-.1-.82.26-1.03l.89-.53v-1.08c0-.41.34-.75.75-.75s.74.34.74.75v1.5c0 .26-.14.51-.36.64z"/>
        <path d="M7.75 2.43C4.9 2.43 3 4.33 3 7.18v4.46c0 .35.36.6.7.51.42-.1.85-.15 1.3-.15 2.86 0 5.22 2.32 5.48 5.13.02.28.25.5.52.5h.55l4.23 2.82c.62.42 1.47-.04 1.47-.8v-2.02c1.42 0 2.61-.48 3.44-1.3.83-.84 1.31-2.03 1.31-3.45v-5.7c0-2.85-1.9-4.75-4.75-4.75h-9.5zm1.42 8.38a.715.715 0 0 1 0-1.43h6.66a.715.715 0 0 1 0 1.43H9.17z"/>
    </g>
</svg>
