<svg width="24" height="24" viewBox="0 0 24 24" xmlns="http://www.w3.org/2000/svg">
    <g fill="#292D32" fill-rule="evenodd">
        <path d="M2 3.75c-.41 0-.75-.34-.75-.75s.34-.75.75-.75h20c.41 0 .75.34.75.75s-.34.75-.75.75H2zM2 9.75c-.41 0-.75-.34-.75-.75s.34-.75.75-.75h9c.41 0 .75.34.75.75s-.34.75-.75.75H2zM2 15.75c-.41 0-.75-.34-.75-.75s.34-.75.75-.75h6c.41 0 .75.34.75.75s-.34.75-.75.75H2zM2 21.75c-.41 0-.75-.34-.75-.75s.34-.75.75-.75h4c.41 0 .75.34.75.75s-.34.75-.75.75H2z" fill-rule="nonzero"/>
        <path d="M8.91 19.82c0-1.61 1.31-2.93 2.93-2.93s2.93 1.31 2.93 2.93-1.31 2.93-2.93 2.93c-1.61 0-2.93-1.31-2.93-2.93zm1.5.01a1.43 1.43 0 1 0 2.86 0 1.43 1.43 0 0 0-2.86 0z"/>
        <path d="M13.27 19.82v-8.77c0-1.21.72-2.16 1.89-2.47l4.35-1.19c.95-.26 1.77-.16 2.35.29.58.45.88 1.18.88 2.19v8.51c0 .41-.34.75-.75.75s-.75-.34-.75-.75V9.87c0-.5-.1-.85-.29-.99-.19-.15-.58-.16-1.05-.03l-4.35 1.19c-.29.08-.78.32-.78 1.03v8.77c0 .4-.34.73-.75.73s-.75-.34-.75-.75z" fill-rule="nonzero"/>
        <path d="M16.89 18.37c0-1.61 1.31-2.93 2.93-2.93s2.93 1.31 2.93 2.93-1.31 2.93-2.93 2.93c-1.61 0-2.93-1.31-2.93-2.93zm1.5.01a1.43 1.43 0 1 0 2.86 0 1.43 1.43 0 0 0-2.86 0z"/>
        <path d="M13.3 13.8a.75.75 0 0 1 .53-.92l7.98-2.18a.75.75 0 1 1 .39 1.45l-7.98 2.18c-.07.01-.14.02-.2.02-.33 0-.63-.22-.72-.55z" fill-rule="nonzero"/>
    </g>
</svg>
