<svg width="24" height="24" viewBox="0 0 24 24" xmlns="http://www.w3.org/2000/svg">
    <g fill="#292D32" fill-rule="evenodd">
        <path d="M21.25 9V7c0-2.58-1.67-4.25-4.25-4.25H7C4.42 2.75 2.75 4.42 2.75 7v2c0 .41-.34.75-.75.75s-.75-.34-.75-.75V7c0-3.44 2.31-5.75 5.75-5.75h10c3.44 0 5.75 2.31 5.75 5.75v2c0 .41-.34.75-.75.75s-.75-.34-.75-.75zM7 22.75c-3.44 0-5.75-2.31-5.75-5.75v-2c0-.41.34-.75.75-.75s.75.34.75.75v2c0 2.58 1.67 4.25 4.25 4.25h10c2.58 0 4.25-1.67 4.25-4.25v-2c0-.41.34-.75.75-.75s.75.34.75.75v2c0 3.44-2.31 5.75-5.75 5.75H7z" fill-rule="nonzero"/>
        <path d="m11.62 12.98-5.3-3.06a.752.752 0 0 1-.27-1.03c.21-.36.67-.48 1.02-.27l4.92 2.85 4.89-2.83c.36-.21.82-.08 1.02.27.21.36.08.82-.27 1.03l-5.26 3.04a.746.746 0 0 1-.75 0z" fill-rule="nonzero"/>
        <path d="M11.25 17.77v-5.44c0-.41.34-.75.75-.75s.75.34.75.75v5.44c0 .41-.34.75-.75.75s-.75-.34-.75-.75z" fill-rule="nonzero"/>
        <path d="m10.39 18.37-3.2-1.78c-.96-.53-1.7-1.8-1.7-2.9V10.3c0-1.09.75-2.36 1.7-2.9l3.2-1.78c.92-.51 2.3-.51 3.22 0l3.2 1.78c.96.53 1.7 1.8 1.7 2.9v3.39c0 1.09-.75 2.36-1.7 2.9l-3.2 1.78c-.46.25-1.03.38-1.61.38-.58 0-1.15-.13-1.61-.38zM7.92 8.72c-.49.27-.93 1.03-.93 1.58v3.39c0 .56.44 1.31.93 1.58l3.2 1.78c.46.25 1.3.25 1.76 0l3.2-1.78c.49-.27.93-1.03.93-1.58V10.3c0-.56-.44-1.31-.93-1.58l-3.2-1.78c-.46-.25-1.3-.25-1.76 0l-3.2 1.78z"/>
    </g>
</svg>
