<svg width="24" height="24" viewBox="0 0 24 24" xmlns="http://www.w3.org/2000/svg">
    <g fill="#292D32" fill-rule="nonzero">
        <path d="M18.25 22V11c0-.41.34-.75.75-.75s.75.34.75.75v11c0 .41-.34.75-.75.75s-.75-.34-.75-.75zM18.25 7V2c0-.41.34-.75.75-.75s.75.34.75.75v5c0 .41-.34.75-.75.75s-.75-.34-.75-.75zM11.25 22v-5c0-.41.34-.75.75-.75s.75.34.75.75v5c0 .41-.34.75-.75.75s-.75-.34-.75-.75zM11.25 13V2c0-.41.34-.75.75-.75s.75.34.75.75v11c0 .41-.34.75-.75.75s-.75-.34-.75-.75zM4.25 22V11c0-.41.34-.75.75-.75s.75.34.75.75v11c0 .41-.34.75-.75.75s-.75-.34-.75-.75zM4.25 7V2c0-.41.34-.75.75-.75s.75.34.75.75v5c0 .41-.34.75-.75.75s-.75-.34-.75-.75z"/>
        <path d="M3 11.75c-.41 0-.75-.34-.75-.75s.34-.75.75-.75h4c.41 0 .75.34.75.75s-.34.75-.75.75H3zM17 11.75c-.41 0-.75-.34-.75-.75s.34-.75.75-.75h4c.41 0 .75.34.75.75s-.34.75-.75.75h-4zM10 13.75c-.41 0-.75-.34-.75-.75s.34-.75.75-.75h4c.41 0 .75.34.75.75s-.34.75-.75.75h-4z"/>
    </g>
</svg>
