<svg width="24" height="24" viewBox="0 0 24 24" xmlns="http://www.w3.org/2000/svg">
    <path d="M8 2C4.5 2 3 4 3 7v10c0 3 1.5 5 5 5h8c3.5 0 5-2 5-5V7c0-3-1.5-5-5-5H8zm4 10.25c.41 0 .75.34.75.75s-.34.75-.75.75H8c-.41 0-.75-.34-.75-.75s.34-.75.75-.75h4zm-4 5.5c-.41 0-.75-.34-.75-.75s.34-.75.75-.75h8c.41 0 .75.34.75.75s-.34.75-.75.75H8zm8.5-8.5c-1.52 0-2.75-1.23-2.75-2.75v-2c0-.41.34-.75.75-.75s.75.34.75.75v2c0 .69.56 1.25 1.25 1.25h2c.41 0 .75.34.75.75s-.34.75-.75.75h-2z" fill="#292D32" fill-rule="evenodd"/>
</svg>
