<svg width="24" height="24" viewBox="0 0 24 24" xmlns="http://www.w3.org/2000/svg">
    <g fill="#292D32" fill-rule="nonzero">
        <path d="M14.35 22.37a.745.745 0 0 1 .01-.75l1.05-1.75c.21-.36.67-.47 1.03-.26.36.21.47.67.26 1.03l-.27.45c2.76-.65 4.83-3.13 4.83-6.09 0-.41.34-.75.75-.75s.75.34.75.75c-.01 4.27-3.49 7.75-7.76 7.75-.27 0-.52-.15-.65-.38zM1.25 9c0-4.27 3.48-7.75 7.75-7.75a.745.745 0 0 1 .64 1.13L8.59 4.14c-.21.35-.67.47-1.03.25a.746.746 0 0 1-.25-1.03l.27-.45A6.261 6.261 0 0 0 2.75 9c0 .41-.34.75-.75.75s-.75-.34-.75-.75zM7.53 12.158c-.33-.18-.73-.18-1.06 0l-3.14 1.69c-.23.12-.37.37-.37.64s.14.52.37.64l3.14 1.69c.17.09.35.13.53.13.18 0 .36-.04.53-.13l3.14-1.69c.23-.12.37-.37.37-.64s-.15-.51-.37-.64l-3.14-1.69zM3.03 15.95a.727.727 0 0 0-.7.03c-.2.13-.33.36-.33.61v2.76c0 .48.26.91.69 1.12l2.92 1.46c.1.04.21.07.32.07.13 0 .26-.04.38-.11.21-.13.34-.36.34-.61v-2.76c0-.47-.27-.9-.7-1.11l-2.92-1.46zM10.962 15.95l-2.92 1.46c-.43.21-.69.64-.69 1.12v2.76c0 .25.13.48.34.61.12.06.25.1.38.1.11 0 .22-.03.32-.08l2.92-1.46c.43-.21.69-.64.69-1.12v-2.76c0-.24-.13-.47-.34-.6a.725.725 0 0 0-.7-.03zM17.53 2.139c-.33-.18-.73-.18-1.06 0l-3.14 1.69c-.23.12-.37.37-.37.64s.14.52.37.64l3.14 1.69c.17.09.35.13.53.13.18 0 .36-.04.53-.13l3.14-1.69c.23-.12.37-.37.37-.64 0-.28-.15-.52-.37-.64l-3.14-1.69zM13.03 5.92a.727.727 0 0 0-.7.03c-.2.13-.33.36-.33.61v2.76c0 .48.26.91.69 1.12l2.92 1.46c.1.05.21.08.32.08.13 0 .26-.04.38-.11.21-.13.34-.36.34-.61V8.5c0-.48-.27-.91-.7-1.12l-2.92-1.46zM20.962 5.92l-2.92 1.46c-.43.21-.69.64-.69 1.12v2.76c0 .25.13.48.34.61.12.07.25.11.38.11.11 0 .22-.03.32-.08l2.92-1.46c.43-.22.69-.65.69-1.12V6.56a.718.718 0 0 0-1.04-.64z"/>
    </g>
</svg>
