<svg width="24" height="24" viewBox="0 0 24 24" xmlns="http://www.w3.org/2000/svg">
    <g fill="#292D32" fill-rule="nonzero">
        <path d="m18.01 8.989-3-3 1.49-1.49c.42-.42.96-.62 1.5-.62s1.08.2 1.5.62c.83.83.83 2.17 0 3l-1.49 1.49zM6.5 20.5c-.83.83-2.17.83-3 0-.83-.83-.83-2.17 0-3L14.31 6.7l3 3L6.5 20.5zM10.36 2.11c.04-.13 0-.27-.09-.37a.38.38 0 0 0-.38-.1l-1.39.41-1.39-.41c-.13-.04-.27 0-.37.09-.1.1-.13.24-.09.37l.4 1.4-.41 1.39c-.04.13 0 .27.09.37.1.1.24.13.37.09l1.4-.4 1.39.41c.04.01.07.02.11.02.1 0 .19-.04.27-.11.1-.1.13-.24.09-.37l-.41-1.4.41-1.39zM6.36 8.11c.04-.13 0-.27-.09-.37-.1-.1-.24-.13-.37-.09l-1.4.4-1.39-.41c-.13-.04-.27 0-.37.09-.1.1-.13.24-.09.37l.4 1.4-.41 1.39c-.04.13 0 .27.09.37.1.1.24.13.37.09l1.39-.41 1.39.41c.03.01.07.01.11.01.1 0 .19-.04.27-.11.1-.1.13-.24.09-.37l-.4-1.38.41-1.39zM21.36 13.11c.04-.13 0-.27-.09-.37-.1-.1-.24-.13-.37-.09l-1.39.41-1.39-.41c-.13-.04-.27 0-.37.09-.1.1-.13.24-.09.37l.41 1.39-.41 1.39c-.04.13 0 .27.09.37.1.1.24.13.37.09l1.39-.41 1.39.41c.03.01.07.01.11.01.1 0 .19-.04.27-.11.1-.1.13-.24.09-.37l-.42-1.38.41-1.39z"/>
    </g>
</svg>
