<svg width="24" height="24" viewBox="0 0 24 24" xmlns="http://www.w3.org/2000/svg">
    <g fill="#292D32" fill-rule="evenodd">
        <path d="M9 22.75c-5.43 0-7.75-2.32-7.75-7.75V9c0-5.43 2.32-7.75 7.75-7.75h6c5.43 0 7.75 2.32 7.75 7.75v6c0 5.43-2.32 7.75-7.75 7.75H9zM2.75 9v6c0 4.61 1.64 6.25 6.25 6.25h6c4.61 0 6.25-1.64 6.25-6.25V9c0-4.61-1.64-6.25-6.25-6.25H9C4.39 2.75 2.75 4.39 2.75 9z"/>
        <path d="M11 12c0-.55.45-1 1-1s1 .45 1 1-.44 1-1 1-1-.45-1-1zM15 12c0-.55.45-1 1-1s1 .45 1 1-.44 1-1 1-1-.45-1-1zM7 12c0-.55.45-1 1-1s1 .45 1 1-.44 1-1 1-1-.45-1-1z" fill-rule="nonzero"/>
    </g>
</svg>
