<svg width="24" height="24" viewBox="0 0 24 24" xmlns="http://www.w3.org/2000/svg">
    <g fill="#292D32" fill-rule="nonzero">
        <path d="M21.25 9V7c0-2.58-1.67-4.25-4.25-4.25H7C4.42 2.75 2.75 4.42 2.75 7v2c0 .41-.34.75-.75.75s-.75-.34-.75-.75V7c0-3.44 2.31-5.75 5.75-5.75h10c3.44 0 5.75 2.31 5.75 5.75v2c0 .41-.34.75-.75.75s-.75-.34-.75-.75zM7 22.75c-3.44 0-5.75-2.31-5.75-5.75v-2c0-.41.34-.75.75-.75s.75.34.75.75v2c0 2.58 1.67 4.25 4.25 4.25h10c2.58 0 4.25-1.67 4.25-4.25v-2c0-.41.34-.75.75-.75s.75.34.75.75v2c0 3.44-2.31 5.75-5.75 5.75H7zM2 12.75c-.41 0-.75-.34-.75-.75s.34-.75.75-.75h20c.41 0 .75.34.75.75s-.34.75-.75.75H2z"/>
        <path d="M7.5 9c-.28 0-.5-.22-.5-.5v-2C7 5.67 7.67 5 8.5 5h7c.83 0 1.5.67 1.5 1.5v2c0 .28-.22.5-.5.5h-9zM7.5 15c-.28 0-.5.22-.5.5v2c0 .83.67 1.5 1.5 1.5h7c.82 0 1.5-.67 1.5-1.5v-2c0-.28-.22-.5-.5-.5h-9z"/>
    </g>
</svg>
