<svg width="24" height="24" viewBox="0 0 24 24" xmlns="http://www.w3.org/2000/svg">
    <g fill="#292D32" fill-rule="evenodd">
        <path d="M9 22.75c-5.43 0-7.75-2.32-7.75-7.75V9c0-5.43 2.32-7.75 7.75-7.75h6c5.43 0 7.75 2.32 7.75 7.75v6c0 5.43-2.32 7.75-7.75 7.75H9zM2.75 9v6c0 4.61 1.64 6.25 6.25 6.25h6c4.61 0 6.25-1.64 6.25-6.25V9c0-4.61-1.64-6.25-6.25-6.25H9C4.39 2.75 2.75 4.39 2.75 9z"/>
        <path d="m9.65 17.68-3.04-3.04a.754.754 0 0 1 0-1.06c.29-.29.77-.29 1.06 0l3.04 3.04c.29.29.29.77 0 1.06a.71.71 0 0 1-.53.22c-.19 0-.38-.07-.53-.22z" fill-rule="nonzero"/>
        <path d="M9.43 17.15V6.85c0-.41.34-.75.75-.75s.75.34.75.75v10.31c0 .41-.33.74-.75.74-.41 0-.75-.34-.75-.75zM16.33 10.42l-3.04-3.04a.754.754 0 0 1 0-1.06c.29-.29.77-.29 1.06 0l3.04 3.04c.29.29.29.77 0 1.06-.15.14-.34.22-.53.22s-.38-.07-.53-.22z" fill-rule="nonzero"/>
        <path d="M13.07 17.15V6.85c0-.41.34-.75.75-.75s.75.34.75.75v10.31c0 .41-.34.74-.75.74s-.75-.34-.75-.75z" fill-rule="nonzero"/>
    </g>
</svg>
