<svg width="24" height="24" viewBox="0 0 24 24" xmlns="http://www.w3.org/2000/svg">
    <g fill="#292D32" fill-rule="evenodd">
        <path d="M12.11 18.01c-.22-.1-.72-.43-.72-1.34V14l-2.3 2.11c-.3.28-.78.26-1.06-.05A.746.746 0 0 1 8.08 15l3.28-3.01-3.28-3.01a.746.746 0 0 1-.05-1.06c.28-.3.76-.33 1.06-.05l2.3 2.11V7.32c0-.9.5-1.23.72-1.34.21-.1.79-.27 1.49.3L15.66 8c.3.25.48.62.49 1 .01.38-.15.76-.44 1.02l-2.13 1.95 2.13 1.95c.29.27.45.64.44 1.02-.01.38-.19.75-.49 1l-2.06 1.72c-.38.36-.73.45-1 .45-.22 0-.39-.06-.49-.1zm.79-1.68 1.67-1.39-1.67-1.53v2.92zm0-5.74 1.67-1.53-1.67-1.39v2.92z"/>
        <path d="M1.25 12C1.25 6.07 6.07 1.25 12 1.25S22.75 6.07 22.75 12 17.93 22.75 12 22.75 1.25 17.93 1.25 12zm1.5 0c0 5.1 4.15 9.25 9.25 9.25s9.25-4.15 9.25-9.25S17.1 2.75 12 2.75 2.75 6.9 2.75 12z"/>
    </g>
</svg>
