<svg width="24" height="24" viewBox="0 0 24 24" xmlns="http://www.w3.org/2000/svg">
    <g fill="#292D32" fill-rule="evenodd">
        <path d="M14.25 21.25V2.75c0-.41.34-.75.75-.75s.75.34.75.75v18.5c0 .41-.34.75-.75.75s-.75-.34-.75-.75z" fill-rule="nonzero"/>
        <path d="M15 20V4h3c2.21 0 4 1.79 4 4v8c0 2.21-1.79 4-4 4h-3z" fill-rule="nonzero"/>
        <path d="M2 8v8c0 2.21 1.79 4 4 4h5c.55 0 1-.45 1-1V5c0-.55-.45-1-1-1H6C3.79 4 2 5.79 2 8zm5 8.25c-.41 0-.75-.34-.75-.75v-7c0-.41.34-.75.75-.75s.75.34.75.75v7c0 .41-.34.75-.75.75z"/>
    </g>
</svg>
