<svg width="24" height="24" viewBox="0 0 24 24" xmlns="http://www.w3.org/2000/svg">
    <g fill="#292D32" fill-rule="nonzero">
        <path d="M14.99 18.25c-.41 0-.75-.34-.75-.75s.34-.75.75-.75h1.51c2.62 0 4.75-2.13 4.75-4.75s-2.13-4.75-4.75-4.75H15a.749.749 0 1 1 0-1.5h1.5c3.45 0 6.25 2.8 6.25 6.25s-2.8 6.25-6.25 6.25h-1.51zM7.5 18.25c-3.45 0-6.25-2.8-6.25-6.25s2.8-6.25 6.25-6.25H9c.41 0 .75.34.75.75s-.34.75-.75.75H7.5c-2.62 0-4.75 2.13-4.75 4.75s2.13 4.75 4.75 4.75H9c.41 0 .75.34.75.75s-.34.75-.75.75H7.5z"/>
        <path d="M8 12.75c-.41 0-.75-.34-.75-.75s.34-.75.75-.75h8c.41 0 .75.34.75.75s-.34.75-.75.75H8z"/>
    </g>
</svg>
