<svg width="24" height="24" viewBox="0 0 24 24" xmlns="http://www.w3.org/2000/svg">
    <g fill="#292D32" fill-rule="evenodd">
        <path d="M3.33 13.318c0 4.78 3.89 8.68 8.67 8.68 4.78 0 8.67-3.89 8.67-8.67 0-4.78-3.89-8.68-8.67-8.68-4.78 0-8.67 3.89-8.67 8.67zm8.67.43c-.41 0-.75-.34-.75-.75v-5c0-.41.34-.75.75-.75s.75.34.75.75v5c0 .41-.34.75-.75.75z"/>
        <path d="M9.11 3.45c-.4 0-.72-.32-.72-.72 0-.4.32-.73.72-.73h5.78c.4 0 .72.32.72.72 0 .4-.32.73-.72.73H9.11z" fill-rule="nonzero"/>
    </g>
</svg>
