<svg width="24" height="24" viewBox="0 0 24 24" xmlns="http://www.w3.org/2000/svg">
    <g fill="#292D32" fill-rule="nonzero">
        <path d="M11.17 16.25c-1.33 0-2.42-1.12-2.42-2.5 0-.41.34-.75.75-.75s.75.34.75.75c0 .55.41 1 .92 1h1.88c.39 0 .7-.35.7-.78 0-.54-.15-.62-.49-.74l-3.01-1.05c-.64-.22-1.5-.69-1.5-2.16 0-1.25.99-2.28 2.2-2.28h1.88c1.33 0 2.42 1.12 2.42 2.5 0 .41-.34.75-.75.75s-.75-.34-.75-.75c0-.55-.41-1-.92-1h-1.88c-.39 0-.7.35-.7.78 0 .54.15.62.49.74l3.01 1.05c.64.22 1.5.69 1.5 2.16 0 1.26-.99 2.28-2.2 2.28h-1.88z"/>
        <path d="M11.25 16.5v-9c0-.41.34-.75.75-.75s.75.34.75.75v9c0 .41-.34.75-.75.75s-.75-.34-.75-.75z"/>
        <path d="M1.25 12C1.25 6.07 6.07 1.25 12 1.25c.41 0 .75.34.75.75s-.34.75-.75.75C6.9 2.75 2.75 6.9 2.75 12S6.9 21.25 12 21.25s9.25-4.15 9.25-9.25c0-.41.34-.75.75-.75s.75.34.75.75c0 5.93-4.82 10.75-10.75 10.75S1.25 17.93 1.25 12z"/>
        <path d="M17 7.75c-.41 0-.75-.34-.75-.75V3c0-.41.34-.75.75-.75s.75.34.75.75v3.25H21c.41 0 .75.34.75.75s-.34.75-.75.75h-4z"/>
        <path d="M16.47 7.53a.754.754 0 0 1 0-1.06l5-5c.29-.29.77-.29 1.06 0 .29.29.29.77 0 1.06l-5 5c-.15.15-.34.22-.53.22s-.38-.07-.53-.22z"/>
    </g>
</svg>
