<svg width="24" height="24" viewBox="0 0 24 24" xmlns="http://www.w3.org/2000/svg">
    <g fill="#292D32" fill-rule="evenodd">
        <path d="M1.22 12c0-5.93 4.83-10.75 10.75-10.75S22.72 6.07 22.72 12 17.9 22.75 11.97 22.75C6.05 22.75 1.22 17.93 1.22 12zm1.5 0c0 5.1 4.15 9.25 9.25 9.25s9.25-4.15 9.25-9.25-4.15-9.25-9.25-9.25S2.72 6.9 2.72 12z"/>
        <path d="M10.73 16.98c-2.53 0-3.71-1.18-3.71-3.71v-2.54c0-2.53 1.18-3.71 3.71-3.71h2.54c2.53 0 3.71 1.18 3.71 3.71v2.54c0 2.53-1.18 3.71-3.71 3.71h-2.54zm-2.21-6.25v2.54c0 1.69.52 2.21 2.21 2.21h2.54c1.69 0 2.21-.52 2.21-2.21v-2.54c0-1.69-.52-2.21-2.21-2.21h-2.54c-1.69 0-2.21.52-2.21 2.21z"/>
    </g>
</svg>
