<svg width="24" height="24" viewBox="0 0 24 24" xmlns="http://www.w3.org/2000/svg">
    <g fill="#292D32" fill-rule="evenodd">
        <path d="m8.17 20.37-4.53-4.53a5.548 5.548 0 0 1-1.61-4.17l.24-5c.11-2.39 2-4.28 4.4-4.4l5-.24c1.55-.06 3.07.51 4.17 1.61l4.53 4.53a5.535 5.535 0 0 1 0 7.81l-4.39 4.39a5.535 5.535 0 0 1-3.91 1.61c-1.41 0-2.83-.54-3.9-1.61zm1.06-1.07c.76.76 1.77 1.18 2.84 1.18 1.07 0 2.08-.42 2.84-1.18l4.39-4.39c.76-.76 1.18-1.77 1.18-2.84 0-1.07-.42-2.08-1.18-2.84L14.77 4.7c-.8-.8-1.91-1.23-3.03-1.17l-5 .24c-1.63.07-2.9 1.34-2.98 2.96l-.24 5c-.05 1.13.38 2.24 1.18 3.04l4.53 4.53z"/>
        <path d="M6.25 9.5c0-1.79 1.46-3.25 3.25-3.25s3.25 1.46 3.25 3.25-1.46 3.25-3.25 3.25-3.25-1.46-3.25-3.25zm1.5 0c0 .96.79 1.75 1.75 1.75s1.75-.79 1.75-1.75-.79-1.75-1.75-1.75-1.75.79-1.75 1.75z"/>
    </g>
</svg>
