<svg width="24" height="24" viewBox="0 0 24 24" xmlns="http://www.w3.org/2000/svg">
    <g fill="#292D32" fill-rule="evenodd">
        <path d="M11.25 13V7.75c0-.41.34-.75.75-.75s.75.34.75.75V13c0 .41-.34.75-.75.75s-.75-.34-.75-.75zM11.29 16.96c-.09-.1-.16-.21-.22-.33a.986.986 0 0 1-.07-.38c0-.26.11-.52.29-.71.37-.37 1.05-.37 1.42 0 .18.19.29.45.29.71 0 .13-.03.26-.08.38s-.12.23-.21.33a.99.99 0 0 1-.71.29.99.99 0 0 1-.71-.29z" fill-rule="nonzero"/>
        <path d="M10.05 22.23 4.11 18.8c-1.2-.7-1.95-1.99-1.95-3.38V8.58c0-1.39.75-2.68 1.95-3.38l5.94-3.43c1.2-.7 2.69-.7 3.9 0l5.94 3.43c1.2.7 1.95 1.99 1.95 3.38v6.84c0 1.39-.75 2.68-1.95 3.38l-5.94 3.43c-.6.35-1.28.52-1.95.52-.67 0-1.35-.17-1.95-.52zm.75-19.16L4.86 6.5c-.74.43-1.2 1.22-1.2 2.08v6.84c0 .85.46 1.65 1.2 2.08l5.94 3.43c.74.43 1.66.43 2.39 0l5.94-3.43c.74-.43 1.2-1.22 1.2-2.08V8.58c0-.85-.46-1.65-1.2-2.08l-5.94-3.43a2.386 2.386 0 0 0-2.39 0z"/>
    </g>
</svg>
