<svg width="24" height="24" viewBox="0 0 24 24" xmlns="http://www.w3.org/2000/svg">
    <path d="M8.22 2C4.44 2 3.5 3.01 3.5 7.04V18.3c0 2.66 1.46 3.29 3.23 1.39l.01-.01c.82-.87 2.07-.8 2.78.15l1.01 1.35c.81 1.07 2.12 1.07 2.93 0l1.01-1.35c.72-.96 1.97-1.03 2.79-.15 1.78 1.9 3.23 1.27 3.23-1.39V7.04C20.5 3.01 19.56 2 15.78 2H8.22zM10 8c0 .55-.44 1-1 1s-1-.45-1-1 .44-1 1-1c.55 0 1 .45 1 1zm4 5c0-.55.45-1 1-1s1 .45 1 1-.44 1-1 1-1-.45-1-1zm-4.83 1.32c-.15.15-.34.22-.53.22s-.38-.07-.53-.22a.754.754 0 0 1 0-1.06l6.73-6.73c.29-.29.77-.29 1.06 0 .29.29.29.77 0 1.06l-6.73 6.73z" fill="#292D32" fill-rule="evenodd"/>
</svg>
