<svg width="24" height="24" viewBox="0 0 24 24" xmlns="http://www.w3.org/2000/svg">
    <g fill="#292D32" fill-rule="evenodd">
        <path d="M5 17.75c-2.42 0-3.75-1.33-3.75-3.75v-4c0-2.42 1.33-3.75 3.75-3.75h14c2.42 0 3.75 1.33 3.75 3.75v4c0 2.42-1.33 3.75-3.75 3.75H5zM2.75 10v4c0 1.58.67 2.25 2.25 2.25h14c1.58 0 2.25-.67 2.25-2.25v-4c0-1.58-.67-2.25-2.25-2.25H5c-1.58 0-2.25.67-2.25 2.25z"/>
        <path d="M17.25 12V7c0-.41.34-.75.75-.75s.75.34.75.75v5c0 .41-.34.75-.75.75s-.75-.34-.75-.75zM5.25 11V7c0-.41.34-.75.75-.75s.75.34.75.75v4c0 .41-.34.75-.75.75s-.75-.34-.75-.75zM9.25 11.99l.05-5c0-.41.34-.74.75-.74h.01c.41 0 .75.34.74.76l-.05 5a.751.751 0 0 1-1.5-.02zM13.25 10V7c0-.41.34-.75.75-.75s.75.34.75.75v3c0 .41-.34.75-.75.75s-.75-.34-.75-.75z" fill-rule="nonzero"/>
    </g>
</svg>
