<svg width="24" height="24" viewBox="0 0 24 24" xmlns="http://www.w3.org/2000/svg">
    <g fill="#292D32" fill-rule="evenodd">
        <path d="M17.54 10.55c-3.37-2.6-7.72-2.6-11.08 0-.33.25-.8.19-1.05-.13-.25-.33-.19-.8.13-1.05 3.92-3.03 8.99-3.03 12.92 0 .33.25.39.72.13 1.05-.14.19-.37.29-.59.29-.16 0-.32-.05-.46-.16z" fill-rule="nonzero"/>
        <path d="M15.94 13.64c-2.4-1.85-5.49-1.85-7.89 0-.33.25-.8.19-1.05-.13-.25-.33-.19-.8.13-1.05 2.95-2.28 6.77-2.28 9.72 0 .33.25.39.72.13 1.05-.13.19-.35.29-.58.29-.16 0-.32-.05-.46-.16zM13.74 16.73c-1.06-.82-2.43-.82-3.49 0-.33.25-.8.19-1.05-.13-.25-.33-.19-.8.13-1.05a4.296 4.296 0 0 1 5.32 0c.33.25.39.72.13 1.05-.13.19-.35.29-.58.29-.16 0-.32-.05-.46-.16z" fill-rule="nonzero"/>
        <path d="M9 22.75c-5.43 0-7.75-2.32-7.75-7.75V9c0-5.43 2.32-7.75 7.75-7.75h6c5.43 0 7.75 2.32 7.75 7.75v6c0 5.43-2.32 7.75-7.75 7.75H9zM2.75 9v6c0 4.61 1.64 6.25 6.25 6.25h6c4.61 0 6.25-1.64 6.25-6.25V9c0-4.61-1.64-6.25-6.25-6.25H9C4.39 2.75 2.75 4.39 2.75 9z"/>
    </g>
</svg>
