<svg width="24" height="24" viewBox="0 0 24 24" xmlns="http://www.w3.org/2000/svg">
    <g fill="#292D32" fill-rule="evenodd">
        <path d="M3 22.75c-.96 0-1.75-.79-1.75-1.75V8c0-4.42 2.33-6.75 6.75-6.75h8c4.42 0 6.75 2.33 6.75 6.75v8c0 4.42-2.33 6.75-6.75 6.75H3zM2.75 8v13c0 .14.11.25.25.25h13c3.58 0 5.25-1.67 5.25-5.25V8c0-3.58-1.67-5.25-5.25-5.25H8C4.42 2.75 2.75 4.42 2.75 8z"/>
        <path d="M7 10.25c-.41 0-.75-.34-.75-.75s.34-.75.75-.75h10c.41 0 .75.34.75.75s-.34.75-.75.75H7zM7 15.25c-.41 0-.75-.34-.75-.75s.34-.75.75-.75h7c.41 0 .75.34.75.75s-.34.75-.75.75H7z" fill-rule="nonzero"/>
    </g>
</svg>
