<svg width="24" height="24" viewBox="0 0 24 24" xmlns="http://www.w3.org/2000/svg">
    <g fill="#292D32" fill-rule="evenodd">
        <path d="M7.6 22.75c-4.39 0-6.35-1.96-6.35-6.35v-3.8c0-4.39 1.96-6.35 6.35-6.35h3c.41 0 .75.34.75.75s-.34.75-.75.75h-3c-3.58 0-4.85 1.27-4.85 4.85v3.8c0 3.58 1.27 4.85 4.85 4.85h3.8c3.58 0 4.85-1.27 4.85-4.85v-3c0-.41.34-.75.75-.75s.75.34.75.75v3c0 4.39-1.96 6.35-6.35 6.35H7.6z" fill-rule="nonzero"/>
        <path d="M13.8 14.15c-2.81 0-3.95-1.14-3.95-3.95V7c0-.3.18-.58.46-.69.28-.12.6-.05.82.16l6.4 6.4c.21.21.28.54.16.82a.74.74 0 0 1-.69.46h-3.2zm-2.45-3.95c0 1.99.46 2.45 2.45 2.45h1.39l-3.84-3.84v1.39z"/>
        <path d="M11.6 2.75c-.41 0-.75-.34-.75-.75s.34-.75.75-.75h4c.41 0 .75.34.75.75s-.34.75-.75.75h-4z" fill-rule="nonzero"/>
        <path d="M6.25 5c0-2.07 1.68-3.75 3.75-3.75h2.62c.41 0 .75.34.75.75s-.34.75-.75.75H10C8.76 2.75 7.75 3.76 7.75 5c0 .41-.34.75-.75.75s-.75-.34-.75-.75zM18.44 17c0-.41.34-.75.75-.75 1.14 0 2.06-.93 2.06-2.06V8c0-.41.34-.75.75-.75s.75.34.75.75v6.19c0 1.96-1.6 3.56-3.56 3.56-.41 0-.75-.34-.75-.75z" fill-rule="nonzero"/>
        <path d="M19 8.75c-2.66 0-3.75-1.09-3.75-3.75V2c0-.3.18-.58.46-.69.28-.12.6-.05.82.16l6 6c.21.21.28.54.16.82a.74.74 0 0 1-.69.46h-3zM16.75 5c0 1.83.42 2.25 2.25 2.25h1.19l-3.44-3.44V5z"/>
    </g>
</svg>
