<svg width="24" height="24" viewBox="0 0 24 24" xmlns="http://www.w3.org/2000/svg">
    <g fill="#292D32" fill-rule="evenodd">
        <path d="M8.05 11.3h3.26V8.05h-1.16c-1.16 0-2.1.94-2.1 2.09v1.16zM10.14 15.95h1.16V12.7H8.05v1.16c0 1.15.94 2.09 2.09 2.09zM13.86 15.95c1.15 0 2.09-.94 2.09-2.09V12.7H12.7v3.25h1.16z" fill-rule="nonzero"/>
        <path d="M7.81 2C4.17 2 2 4.17 2 7.81v8.37C2 19.83 4.17 22 7.81 22h8.37c3.64 0 5.81-2.17 5.81-5.81V7.81C22 4.17 19.83 2 16.19 2H7.81zm6.05 15.35h-3.72c-1.92 0-3.49-1.56-3.49-3.49v-3.72a3.5 3.5 0 0 1 3.49-3.49h3.72c1.92 0 3.49 1.56 3.49 3.49v3.72a3.5 3.5 0 0 1-3.49 3.49z"/>
        <path d="M12.7 8.05v3.26h3.26v-1.16c-.01-1.16-.95-2.1-2.1-2.1H12.7z" fill-rule="nonzero"/>
    </g>
</svg>
