<svg width="24" height="24" viewBox="0 0 24 24" xmlns="http://www.w3.org/2000/svg">
    <path d="M2 12c0 5.52 4.48 10 10 10s10-4.48 10-10S17.52 2 12 2 2 6.48 2 12zm4 2.89c-.41 0-.75-.34-.75-.75V9.86c0-.41.34-.75.75-.75s.75.34.75.75v4.28c0 .41-.34.75-.75.75zm3 1.43c-.41 0-.75-.34-.75-.75V8.43c0-.41.34-.75.75-.75s.75.34.75.75v7.14c0 .41-.34.75-.75.75zm3 1.43c-.41 0-.75-.34-.75-.75V7c0-.41.34-.75.75-.75s.75.34.75.75v10c0 .41-.34.75-.75.75zm3-1.43c-.41 0-.75-.34-.75-.75V8.43c0-.41.34-.75.75-.75s.75.34.75.75v7.14c0 .41-.34.75-.75.75zm3-1.43c-.41 0-.75-.34-.75-.75V9.86c0-.41.34-.75.75-.75s.75.34.75.75v4.28c0 .41-.34.75-.75.75z" fill="#292D32" fill-rule="evenodd"/>
</svg>
