<svg width="24" height="24" viewBox="0 0 24 24" xmlns="http://www.w3.org/2000/svg">
    <g fill="#292D32" fill-rule="nonzero">
        <path d="M20.01 19.261c-.19 0-.38-.07-.53-.22l-4.95-4.95.53-.53.53-.53 4.95 4.95c.29.29.29.77 0 1.06-.15.15-.34.22-.53.22zM12.27 15.078c.39.39.39 1.02 0 1.41l-.9.91c-.81.8-2.09.8-2.89 0l-4.34-4.34c-.79-.79-.79-2.08 0-2.88l.91-.91c.39-.38 1.03-.38 1.42.01l5.8 5.8z"/>
        <path d="M14.78 13.99c-.4.4-1.04.4-1.44 0L7.56 8.21c-.4-.4-.4-1.04 0-1.44l3.81-3.81c.79-.79 2.08-.79 2.88 0l4.34 4.34c.79.8.79 2.08 0 2.89l-3.81 3.8zM2 21.75c-.41 0-.75-.34-.75-.75s.34-.75.75-.75h6c.41 0 .75.34.75.75s-.34.75-.75.75H2z"/>
    </g>
</svg>
