<svg width="24" height="24" viewBox="0 0 24 24" xmlns="http://www.w3.org/2000/svg">
    <g fill="#292D32" fill-rule="evenodd">
        <path d="M4.15 18.75c-1.84 0-2.9-1.06-2.9-2.9V4.15c0-1.84 1.06-2.9 2.9-2.9h4.3c1.84 0 2.9 1.06 2.9 2.9V6c0 .41-.34.75-.75.75s-.75-.34-.75-.75V4.15c0-1.02-.38-1.4-1.4-1.4h-4.3c-1.02 0-1.4.38-1.4 1.4v11.7c0 1.02.38 1.4 1.4 1.4H6.7c.41 0 .75.34.75.75s-.34.75-.75.75H4.15z" fill-rule="nonzero"/>
        <path d="M9.12 22.75c-2.01 0-3.17-1.16-3.17-3.17V8.42c0-2.01 1.16-3.17 3.17-3.17h5.84c2.01 0 3.16 1.16 3.16 3.17v11.16c0 2.01-1.15 3.17-3.16 3.17H9.12zM7.45 8.42v11.16c0 1.2.47 1.67 1.67 1.67h5.84c1.19 0 1.66-.47 1.66-1.67V8.42c0-1.2-.47-1.67-1.66-1.67H9.12c-1.2 0-1.67.47-1.67 1.67z"/>
        <path d="M17.37 18.75c-.41 0-.75-.34-.75-.75s.34-.75.75-.75h2.48c1.02 0 1.4-.38 1.4-1.4V4.15c0-1.02-.38-1.4-1.4-1.4h-4.3c-1.02 0-1.4.38-1.4 1.4V6c0 .41-.34.75-.75.75s-.75-.34-.75-.75V4.15c0-1.84 1.06-2.9 2.9-2.9h4.3c1.84 0 2.9 1.06 2.9 2.9v11.7c0 1.84-1.06 2.9-2.9 2.9h-2.48z" fill-rule="nonzero"/>
        <path d="M10 11.75c-.41 0-.75-.34-.75-.75s.34-.75.75-.75h4c.41 0 .75.34.75.75s-.34.75-.75.75h-4zM10 14.75c-.41 0-.75-.34-.75-.75s.34-.75.75-.75h4c.41 0 .75.34.75.75s-.34.75-.75.75h-4zM11.25 22v-3c0-.41.34-.75.75-.75s.75.34.75.75v3c0 .41-.34.75-.75.75s-.75-.34-.75-.75z" fill-rule="nonzero"/>
    </g>
</svg>
