<svg width="24" height="24" viewBox="0 0 24 24" xmlns="http://www.w3.org/2000/svg">
    <g fill="#292D32" fill-rule="evenodd">
        <path d="M6.25 7c0-3.17 2.58-5.75 5.75-5.75S17.75 3.83 17.75 7s-2.58 5.75-5.75 5.75S6.25 10.17 6.25 7zm1.5 0A4.26 4.26 0 0 0 12 11.25 4.26 4.26 0 0 0 16.25 7 4.26 4.26 0 0 0 12 2.75 4.26 4.26 0 0 0 7.75 7z"/>
        <path d="M19.84 22c0-3.45-3.52-6.25-7.84-6.25S4.16 18.55 4.16 22c0 .41-.34.75-.75.75s-.75-.34-.75-.75c0-4.27 4.19-7.75 9.34-7.75 5.15 0 9.34 3.48 9.34 7.75 0 .41-.34.75-.75.75s-.75-.34-.75-.75z" fill-rule="nonzero"/>
    </g>
</svg>
