<svg width="24" height="24" viewBox="0 0 24 24" xmlns="http://www.w3.org/2000/svg">
    <path d="M7.81 2C4.17 2 2 4.17 2 7.81v8.37C2 19.83 4.17 22 7.81 22h8.37c3.64 0 5.81-2.17 5.81-5.81V7.81C22 4.17 19.83 2 16.19 2H7.81zm7.23 10.27.14 2.4c.13 1.34-.33 1.8-1.6 1.95l-5.07.6c-.22.03-.42.02-.61-.04l1.98-1.98c.29-.29.29-.77 0-1.06a.767.767 0 0 0-1.07 0l-1.576 1.584a.255.255 0 0 1-.434-.214l.59-5.07c.16-1.27.62-1.68 1.96-1.6l2.39.14 1.03-1.63c.47-.74 1.43-.78 2.13-.08l1.85 1.85c.66.65.62 1.68-.09 2.13l-1.62 1.02z" fill="#292D32" fill-rule="evenodd"/>
</svg>
