<svg width="24" height="24" viewBox="0 0 24 24" xmlns="http://www.w3.org/2000/svg">
    <g fill="#292D32" fill-rule="evenodd">
        <path d="M2.91 22.5c0 .28.22.5.5.5h17.18c.28 0 .5-.22.5-.5 0-4.14-4.08-7.5-9.09-7.5s-9.09 3.36-9.09 7.5z" fill-rule="nonzero"/>
        <path d="M12 2c-1.4 0-2.68.57-3.59 1.51C7.54 4.41 7 5.65 7 7c0 .94.26 1.82.73 2.57.25.43.57.82.95 1.14.87.8 2.03 1.29 3.32 1.29 1.83 0 3.41-.98 4.28-2.43.26-.43.46-.91.57-1.41.1-.37.15-.76.15-1.16 0-1.28-.49-2.45-1.29-3.34A4.948 4.948 0 0 0 12 2zm.94 5.92v.97a.939.939 0 1 1-1.88 0v-.97h-.93a.939.939 0 1 1 0-1.88h.93v-.89a.939.939 0 1 1 1.88 0v.89h.93a.939.939 0 1 1 0 1.88h-.93z"/>
    </g>
</svg>
