<svg width="24" height="24" viewBox="0 0 24 24" xmlns="http://www.w3.org/2000/svg">
    <g fill="#292D32" fill-rule="evenodd">
        <path d="M8 22.75c-3.44 0-5.75-2.31-5.75-5.75V7c0-3.44 2.31-5.75 5.75-5.75h4.93c1.54 0 2.98.6 4.07 1.68L20.07 6a5.684 5.684 0 0 1 1.68 4.07V17c0 3.44-2.31 5.75-5.75 5.75H8zM3.75 7v10c0 2.58 1.67 4.25 4.25 4.25h8c2.58 0 4.25-1.67 4.25-4.25v-6.93c0-1.14-.44-2.2-1.25-3L15.93 4c-.8-.8-1.87-1.24-3.01-1.24H8v-.01C5.42 2.75 3.75 4.42 3.75 7z"/>
        <path d="m8.97 18.53-2-2a.755.755 0 0 1 0-1.06l2-2c.29-.29.77-.29 1.06 0 .29.29.29.77 0 1.06L8.56 16l1.47 1.47c.29.29.29.77 0 1.06-.15.15-.34.22-.53.22s-.38-.07-.53-.22zM13.97 18.53a.755.755 0 0 1 0-1.06L15.44 16l-1.47-1.47a.755.755 0 0 1 0-1.06c.29-.29.77-.29 1.06 0l2 2c.29.29.29.77 0 1.06l-2 2c-.15.15-.34.22-.53.22s-.38-.07-.53-.22z" fill-rule="nonzero"/>
    </g>
</svg>
