<svg width="24" height="24" viewBox="0 0 24 24" xmlns="http://www.w3.org/2000/svg">
    <g fill="#292D32" fill-rule="nonzero">
        <path d="M14 5.75c-.41 0-.75-.34-.75-.75s.34-.75.75-.75h6c.41 0 .75.34.75.75s-.34.75-.75.75h-6zM14 8.75c-.41 0-.75-.34-.75-.75s.34-.75.75-.75h3c.41 0 .75.34.75.75s-.34.75-.75.75h-3z"/>
        <path d="M1.25 11.5c0-5.65 4.6-10.25 10.25-10.25.41 0 .75.34.75.75s-.34.75-.75.75c-4.83 0-8.75 3.93-8.75 8.75s3.92 8.75 8.75 8.75 8.75-3.93 8.75-8.75c0-.41.34-.75.75-.75s.75.34.75.75c0 5.65-4.6 10.25-10.25 10.25S1.25 17.15 1.25 11.5zM21.47 22.53l-2-2a.754.754 0 0 1 0-1.06c.29-.29.77-.29 1.06 0l2 2c.29.29.29.77 0 1.06-.15.15-.34.22-.53.22s-.38-.07-.53-.22z"/>
    </g>
</svg>
