<svg width="24" height="24" viewBox="0 0 24 24" xmlns="http://www.w3.org/2000/svg">
    <g fill="#292D32" fill-rule="evenodd">
        <path d="M2 17.81c-.41 0-.75-.34-.75-.75s.34-.75.75-.75h10a.749.749 0 1 1 0 1.5H2z" fill-rule="nonzero"/>
        <path d="M4.23 22.75c-2.19 0-2.97-.77-2.97-2.95v-4.1c0-2.18.78-2.95 2.97-2.95h5.55c2.19 0 2.97.77 2.97 2.95v4.11c0 2.17-.78 2.94-2.97 2.94H4.23zM2.75 15.7v4.11c0 1.34.11 1.45 1.47 1.45h5.55c1.36 0 1.47-.11 1.47-1.45V15.7c0-1.34-.11-1.45-1.47-1.45H4.22c-1.36 0-1.47.11-1.47 1.45z"/>
        <path d="M14.35 22.37a.764.764 0 0 1 .01-.76l1.05-1.75c.21-.35.67-.47 1.03-.26.36.21.47.67.26 1.03l-.27.45c2.76-.65 4.83-3.13 4.83-6.09 0-.41.34-.75.75-.75s.75.34.75.75c-.01 4.28-3.49 7.76-7.76 7.76-.27 0-.52-.15-.65-.38zM1.25 9c0-4.27 3.48-7.75 7.75-7.75a.752.752 0 0 1 .64 1.14L8.59 4.14c-.21.35-.67.47-1.03.26a.749.749 0 0 1-.26-1.03l.27-.45c-2.76.65-4.83 3.13-4.83 6.09.01.4-.33.74-.74.74s-.75-.34-.75-.75z" fill-rule="nonzero"/>
        <path d="M13.25 6.5a5.25 5.25 0 1 1 10.499-.001A5.25 5.25 0 0 1 13.25 6.5zm1.5 0c0 2.07 1.68 3.75 3.75 3.75 2.07 0 3.75-1.68 3.75-3.75 0-2.07-1.68-3.75-3.75-3.75-2.07 0-3.75 1.68-3.75 3.75z"/>
    </g>
</svg>
