<svg width="24" height="24" viewBox="0 0 24 24" xmlns="http://www.w3.org/2000/svg">
    <g fill="#292D32" fill-rule="evenodd">
        <path d="m8.98 21.81-4.3-3.21c-1.14-.85-2.03-2.63-2.03-4.04V7.12c0-1.54 1.13-3.18 2.58-3.72l4.99-1.87c.99-.37 2.55-.37 3.54 0l4.99 1.87c1.45.54 2.58 2.18 2.58 3.72v7.43c0 1.42-.89 3.19-2.03 4.04L15 21.8c-.83.64-1.91.96-3 .96s-2.17-.32-3.02-.95zm-3.22-17c-.85.32-1.6 1.4-1.6 2.32v7.43c0 .95.67 2.28 1.42 2.84l4.3 3.21c1.15.86 3.09.86 4.25 0l4.3-3.21c.76-.57 1.42-1.89 1.42-2.84V7.12c0-.91-.75-1.99-1.6-2.32l-4.99-1.87c-.68-.24-1.84-.24-2.51.01L5.76 4.81z"/>
        <path d="M7.25 11.5c0-2.62 2.13-4.75 4.75-4.75s4.75 2.13 4.75 4.75-2.13 4.75-4.75 4.75-4.75-2.13-4.75-4.75zm1.5 0c0 1.79 1.46 3.25 3.25 3.25s3.25-1.46 3.25-3.25S13.79 8.25 12 8.25 8.75 9.71 8.75 11.5z"/>
        <path d="M10.36 12.89c-.21-.36-.1-.82.26-1.03l.76-.46c.08-.05.12-.13.12-.21v-.93c0-.41.34-.75.75-.75s.75.33.75.74v.93c0 .61-.33 1.19-.85 1.5l-.77.46c-.11.08-.25.11-.38.11-.25 0-.5-.13-.64-.36z" fill-rule="nonzero"/>
    </g>
</svg>
