<svg width="24" height="24" viewBox="0 0 24 24" xmlns="http://www.w3.org/2000/svg">
    <g fill="#292D32" fill-rule="evenodd">
        <path d="M22 16v1c0 1.66-1.34 3-3 3 0-1.65-1.35-3-3-3s-3 1.35-3 3h-2c0-1.65-1.35-3-3-3s-3 1.35-3 3c-1.66 0-3-1.34-3-3v-2c0-.55.45-1 1-1h9.5a2.5 2.5 0 0 0 2.5-2.5V6c0-.55.45-1 1-1h.84c.72 0 1.38.39 1.74 1.01l.64 1.12c.09.16-.03.37-.22.37a2.5 2.5 0 0 0-2.5 2.5v3a2.5 2.5 0 0 0 2.5 2.5h2.5c.28 0 .5.22.5.5z" fill-rule="nonzero"/>
        <path d="M8 22a2 2 0 1 1 0-4 2 2 0 0 1 0 4zM16 22a2 2 0 1 1 0-4 2 2 0 0 1 0 4z"/>
        <path d="M22 14h-3c-.55 0-1-.45-1-1v-3c0-.55.45-1 1-1h1.29l1.45 2.54c.17.3.26.64.26.99V14z" fill-rule="nonzero"/>
        <path d="M5.69 1.98C3.65 1.98 2 3.63 2 5.67v6.39c0 .55.45 1 1 1h9.15c1.02 0 1.85-.83 1.85-1.85V2.9c0-.51-.41-.92-.92-.92H5.69zm3.38 7.33c-.19 0-.38-.07-.53-.21l-.53-.53-.55.55c-.15.15-.34.22-.53.22s-.38-.07-.53-.22a.754.754 0 0 1 0-1.06l.55-.55-.53-.53a.754.754 0 0 1 0-1.06c.3-.29.77-.29 1.07 0l.52.53.5-.51c.3-.29.77-.29 1.07 0 .29.3.29.77 0 1.07l-.51.5.53.52c.29.3.29.77 0 1.07-.15.14-.34.21-.53.21z"/>
    </g>
</svg>
