<svg width="24" height="24" viewBox="0 0 24 24" xmlns="http://www.w3.org/2000/svg">
    <g fill="#292D32" fill-rule="nonzero">
        <path d="M21.28 2.3a.868.868 0 0 0-.28-.05h-9c-.41 0-.75.34-.75.75s.34.75.75.75h7.19L2.47 20.47c-.29.29-.29.77 0 1.06.15.15.34.22.53.22s.38-.07.53-.22L20.25 4.81V12c0 .41.34.75.75.75s.75-.34.75-.75V3c0-.1-.02-.19-.06-.29a.782.782 0 0 0-.41-.41z"/>
        <path d="M16.87 17.93 6.07 7.13a.754.754 0 0 1 0-1.06c.29-.29.77-.29 1.06 0l10.8 10.8c.29.29.29.77 0 1.06-.15.15-.34.22-.53.22s-.38-.07-.53-.22z"/>
    </g>
</svg>
