<svg width="24" height="24" viewBox="0 0 24 24" xmlns="http://www.w3.org/2000/svg">
    <g fill="#292D32" fill-rule="evenodd">
        <path d="M12 3.43c-1.78 0-3.51.52-5.09 1.49-1.58.98-3 2.41-4.16 4.23-1 1.57-1 4.12 0 5.69 2.31 3.64 5.69 5.72 9.25 5.72 1.78 0 3.51-.52 5.09-1.49 1.58-.98 3-2.41 4.16-4.23 1-1.56 1-4.12 0-5.69-2.31-3.63-5.69-5.72-9.25-5.72zM7.96 12c0-2.23 1.8-4.04 4.04-4.04s4.04 1.81 4.04 4.04-1.8 4.04-4.04 4.04S7.96 14.23 7.96 12z"/>
        <path d="M9.148 12c0 1.57 1.28 2.85 2.85 2.85s2.86-1.28 2.86-2.85-1.29-2.86-2.86-2.86c-1.57 0-2.85 1.28-2.85 2.86z" fill-rule="nonzero"/>
    </g>
</svg>
