<svg width="24" height="24" viewBox="0 0 24 24" xmlns="http://www.w3.org/2000/svg">
    <g fill="#292D32" fill-rule="nonzero">
        <path d="M16.91 15.15a.754.754 0 0 1 0-1.06l2.03-2.03-2.03-2.03a.754.754 0 0 1 0-1.06c.29-.29.77-.29 1.06 0l2.56 2.56c.29.29.29.77 0 1.06l-2.56 2.56c-.15.15-.34.22-.53.22s-.38-.07-.53-.22z"/>
        <path d="M9.76 12.81c-.41 0-.75-.34-.75-.75s.34-.75.75-.75h10.17c.41 0 .75.34.75.75s-.34.75-.75.75H9.76z"/>
        <path d="M3.01 12c0-5.15 3.6-8.75 8.75-8.75.41 0 .75.34.75.75s-.34.75-.75.75c-4.27 0-7.25 2.98-7.25 7.25s2.98 7.25 7.25 7.25c.41 0 .75.34.75.75s-.34.75-.75.75c-5.15 0-8.75-3.6-8.75-8.75z"/>
    </g>
</svg>
