<svg width="24" height="24" viewBox="0 0 24 24" xmlns="http://www.w3.org/2000/svg">
    <g fill="#292D32" fill-rule="evenodd">
        <path d="M4.4 19.6A10.681 10.681 0 0 1 1.25 12C1.25 6.07 6.07 1.25 12 1.25c2.87 0 5.57 1.12 7.6 3.15a.75.75 0 0 1 0 1.06L5.46 19.6a.75.75 0 0 1-1.06 0zM2.75 12a9.2 9.2 0 0 0 2.2 5.99L17.99 4.95A9.2 9.2 0 0 0 12 2.75C6.9 2.75 2.75 6.9 2.75 12z"/>
        <path d="M4.4 19.6a.75.75 0 0 1 0-1.06L18.54 4.4c.29-.29.77-.29 1.06 0 2.03 2.03 3.15 4.73 3.15 7.6 0 5.93-4.82 10.75-10.75 10.75-2.87 0-5.57-1.12-7.6-3.15zm7.6 1.65c5.1 0 9.25-4.15 9.25-9.25a9.2 9.2 0 0 0-2.2-5.99L6.01 19.05a9.2 9.2 0 0 0 5.99 2.2z"/>
        <path d="m12.88 22.43-5.66-5.66a.754.754 0 0 1 0-1.06c.29-.29.77-.29 1.06 0l5.66 5.66c.29.29.29.77 0 1.06a.71.71 0 0 1-.53.22c-.19 0-.38-.07-.53-.22zM17.34 19.81l-6.58-6.58a.755.755 0 0 1 0-1.06c.29-.29.77-.29 1.06 0l6.58 6.58c.29.29.29.77 0 1.06-.15.15-.34.22-.53.22s-.38-.07-.53-.22zM20.59 16 14.3 9.71a.754.754 0 0 1 0-1.06c.29-.29.77-.29 1.06 0l6.29 6.29A.75.75 0 1 1 20.59 16z" fill-rule="nonzero"/>
    </g>
</svg>
