<svg width="24" height="24" viewBox="0 0 24 24" xmlns="http://www.w3.org/2000/svg">
    <g fill="#292D32" fill-rule="evenodd">
        <path d="M10 18.25c-.41 0-.75-.34-.75-.75s.34-.75.75-.75h4c.41 0 .75.34.75.75s-.34.75-.75.75h-4zM1.25 17.5v-10c0-4.41 1.34-5.75 5.75-5.75.41 0 .75.34.75.75s-.34.75-.75.75c-3.57 0-4.25.67-4.25 4.25v10c0 .41-.34.75-.75.75s-.75-.34-.75-.75zM21.25 17.5v-10c0-3.58-.68-4.25-4.25-4.25-.41 0-.75-.34-.75-.75s.34-.75.75-.75c4.41 0 5.75 1.34 5.75 5.75v10c0 .41-.34.75-.75.75s-.75-.34-.75-.75z" fill-rule="nonzero"/>
        <path d="M4.8 22.75c-2.42 0-3.55-1.13-3.55-3.55v-3.29c0-2.42 1.13-3.55 3.55-3.55h2.4c2.42 0 3.55 1.13 3.55 3.55v3.29c0 2.42-1.13 3.55-3.55 3.55H4.8zm-2.05-6.84v3.29c0 1.59.46 2.05 2.05 2.05h2.4c1.59 0 2.05-.46 2.05-2.05v-3.29c0-1.59-.46-2.05-2.05-2.05H4.8c-1.59 0-2.05.46-2.05 2.05zM16.8 22.75c-2.42 0-3.55-1.13-3.55-3.55v-3.29c0-2.42 1.13-3.55 3.55-3.55h2.4c2.42 0 3.55 1.13 3.55 3.55v3.29c0 2.42-1.13 3.55-3.55 3.55h-2.4zm-2.05-6.84v3.29c0 1.59.46 2.05 2.05 2.05h2.4c1.59 0 2.05-.46 2.05-2.05v-3.29c0-1.59-.46-2.05-2.05-2.05h-2.4c-1.59 0-2.05.46-2.05 2.05z"/>
    </g>
</svg>
