<svg width="24" height="24" viewBox="0 0 24 24" xmlns="http://www.w3.org/2000/svg">
    <g fill="#292D32" fill-rule="evenodd">
        <path d="M3 22.75c-.41 0-.75-.34-.75-.75s.34-.75.75-.75h18c.41 0 .75.34.75.75s-.34.75-.75.75H3z" fill-rule="nonzero"/>
        <path d="M4 19.75c-.96 0-1.75-.79-1.75-1.75V9.38c0-.96.79-1.75 1.75-1.75h1.6c.96 0 1.75.79 1.75 1.75V18c0 .96-.79 1.75-1.75 1.75H4zM3.75 9.37V18c0 .14.11.25.25.25h1.6c.14 0 .25-.11.25-.25V9.38c0-.14-.11-.25-.25-.25H4v-.01c-.14 0-.25.11-.25.25zM11.2 19.75c-.96 0-1.75-.79-1.75-1.75V6.19c0-.96.79-1.75 1.75-1.75h1.6c.96 0 1.75.79 1.75 1.75V18c0 .96-.79 1.75-1.75 1.75h-1.6zm-.25-13.56V18c0 .14.11.25.25.25h1.6c.14 0 .25-.11.25-.25V6.19c0-.14-.11-.25-.25-.25h-1.6c-.14 0-.25.11-.25.25zM18.4 19.75c-.96 0-1.75-.79-1.75-1.75V3c0-.96.79-1.75 1.75-1.75H20c.96 0 1.75.79 1.75 1.75v15c0 .96-.79 1.75-1.75 1.75h-1.6zM18.15 3v15c0 .14.11.25.25.25H20c.14 0 .25-.11.25-.25V3c0-.14-.11-.25-.25-.25h-1.6c-.14 0-.25.11-.25.25z"/>
    </g>
</svg>
