<svg width="24" height="24" viewBox="0 0 24 24" xmlns="http://www.w3.org/2000/svg">
    <g fill="none" fill-rule="evenodd">
        <path d="M9 22.75c-1.32 0-2.42-.13-3.35-.41a.767.767 0 0 1-.54-.78c.25-2.99 3.28-5.34 6.89-5.34s6.63 2.34 6.89 5.34c.03.36-.19.68-.54.78-.93.28-2.03.41-3.35.41H9zm0-1.5h6c.87 0 1.62-.06 2.28-.19-.53-1.92-2.72-3.34-5.28-3.34s-4.75 1.42-5.28 3.34c.66.13 1.41.19 2.28.19z" fill="#292D32"/>
        <path d="M9 2C4 2 2 4 2 9v6c0 3.78 1.14 5.85 3.86 6.62.22-2.6 2.89-4.65 6.14-4.65 3.25 0 5.92 2.05 6.14 4.65C20.86 20.85 22 18.78 22 15V9c0-5-2-7-7-7H9zm-.58 8.58C8.42 8.6 10.02 7 12 7s3.58 1.6 3.58 3.58-1.6 3.59-3.58 3.59-3.58-1.61-3.58-3.59z" stroke="#292D32" stroke-width="1.5" stroke-linecap="round" stroke-linejoin="round" stroke-dasharray="0,0"/>
        <path d="M7.67 10.58c0-2.39 1.94-4.33 4.33-4.33s4.33 1.94 4.33 4.33A4.34 4.34 0 0 1 12 14.92a4.34 4.34 0 0 1-4.33-4.34zm1.5 0c0 1.57 1.27 2.84 2.83 2.84a2.836 2.836 0 0 0 0-5.67c-1.56 0-2.83 1.27-2.83 2.83z" fill="#292D32"/>
    </g>
</svg>
