<svg width="24" height="24" viewBox="0 0 24 24" xmlns="http://www.w3.org/2000/svg">
    <g fill="#292D32" fill-rule="evenodd">
        <path d="M17 10.75c-2.42 0-3.75-1.33-3.75-3.75V5c0-2.42 1.33-3.75 3.75-3.75h2c2.42 0 3.75 1.33 3.75 3.75v2c0 2.42-1.33 3.75-3.75 3.75h-2zM14.75 5v2c0 1.58.67 2.25 2.25 2.25h2c1.58 0 2.25-.67 2.25-2.25V5c0-1.58-.67-2.25-2.25-2.25h-2c-1.58 0-2.25.67-2.25 2.25zM5 22.75c-2.42 0-3.75-1.33-3.75-3.75v-2c0-2.42 1.33-3.75 3.75-3.75h2c2.42 0 3.75 1.33 3.75 3.75v2c0 2.42-1.33 3.75-3.75 3.75H5zM2.75 17v2c0 1.58.67 2.25 2.25 2.25h2c1.58 0 2.25-.67 2.25-2.25v-2c0-1.58-.67-2.25-2.25-2.25H5c-1.58 0-2.25.67-2.25 2.25zM1.25 6c0-2.62 2.13-4.75 4.75-4.75S10.75 3.38 10.75 6 8.62 10.75 6 10.75 1.25 8.62 1.25 6zm1.5 0c0 1.79 1.46 3.25 3.25 3.25S9.25 7.79 9.25 6 7.79 2.75 6 2.75 2.75 4.21 2.75 6zM13.25 18c0-2.62 2.13-4.75 4.75-4.75s4.75 2.13 4.75 4.75-2.13 4.75-4.75 4.75-4.75-2.13-4.75-4.75zm1.5 0c0 1.79 1.46 3.25 3.25 3.25s3.25-1.46 3.25-3.25-1.46-3.25-3.25-3.25-3.25 1.46-3.25 3.25z"/>
    </g>
</svg>
