<svg width="24" height="24" viewBox="0 0 24 24" xmlns="http://www.w3.org/2000/svg">
    <g fill="#292D32" fill-rule="evenodd">
        <path d="M7 21.25c-3.65 0-5.75-2.1-5.75-5.75v-7c0-3.65 2.1-5.75 5.75-5.75h10c3.65 0 5.75 2.1 5.75 5.75v7c0 3.65-2.1 5.75-5.75 5.75H7zM2.75 8.5v7c0 2.86 1.39 4.25 4.25 4.25h10c2.86 0 4.25-1.39 4.25-4.25v-7c0-2.86-1.39-4.25-4.25-4.25H7c-2.86 0-4.25 1.39-4.25 4.25z"/>
        <path d="M8.25 12c0-2.07 1.68-3.75 3.75-3.75 2.07 0 3.75 1.68 3.75 3.75 0 2.07-1.68 3.75-3.75 3.75-2.07 0-3.75-1.68-3.75-3.75zm1.5 0c0 1.24 1.01 2.25 2.25 2.25s2.25-1.01 2.25-2.25S13.24 9.75 12 9.75 9.75 10.76 9.75 12z"/>
        <path d="M3.75 10V8.5c0-1.79 1.46-3.25 3.25-3.25h1.5c.41 0 .75.34.75.75s-.34.75-.75.75H7c-.96 0-1.75.79-1.75 1.75V10c0 .41-.34.75-.75.75s-.75-.34-.75-.75zM18.75 10V8.5c0-.96-.79-1.75-1.75-1.75h-1.5c-.41 0-.75-.34-.75-.75s.34-.75.75-.75H17c1.79 0 3.25 1.46 3.25 3.25V10c0 .41-.34.75-.75.75s-.75-.34-.75-.75zM7 18.75c-1.79 0-3.25-1.46-3.25-3.25V14c0-.41.34-.75.75-.75s.75.34.75.75v1.5c0 .96.79 1.75 1.75 1.75h1.5c.41 0 .75.34.75.75s-.34.75-.75.75H7zM15.5 18.75c-.41 0-.75-.34-.75-.75s.34-.75.75-.75H17c.96 0 1.75-.79 1.75-1.75V14c0-.41.34-.75.75-.75s.75.34.75.75v1.5c0 1.79-1.46 3.25-3.25 3.25h-1.5z" fill-rule="nonzero"/>
    </g>
</svg>
