<svg width="24" height="24" viewBox="0 0 24 24" xmlns="http://www.w3.org/2000/svg">
    <g fill="#292D32" fill-rule="evenodd">
        <path d="M7.81 2C4.17 2 2 4.17 2 7.81v8.38c0 2.81 1.29 4.74 3.56 5.47.66.23 1.42.34 2.25.34h8.38c.83 0 1.59-.11 2.25-.34C20.71 20.93 22 19 22 16.19V7.81C22 4.17 19.83 2 16.19 2H7.81zm10.16 18.24C17 18.33 14.7 16.97 12 16.97c-2.7 0-4.99 1.35-5.97 3.27h-.01c-1.67-.54-2.52-1.9-2.52-4.04V7.81c0-2.82 1.49-4.31 4.31-4.31h8.38c2.82 0 4.31 1.49 4.31 4.31v8.38c0 2.14-.84 3.49-2.53 4.05z"/>
        <path d="M8.422 11.58c0 1.98 1.6 3.59 3.58 3.59s3.58-1.61 3.58-3.59c0-1.98-1.6-3.58-3.58-3.58s-3.58 1.6-3.58 3.58z" fill-rule="nonzero"/>
    </g>
</svg>
