<svg width="24" height="24" viewBox="0 0 24 24" xmlns="http://www.w3.org/2000/svg">
    <g fill="#292D32" fill-rule="evenodd">
        <path d="M1.25 12C1.25 6.07 6.07 1.25 12 1.25S22.75 6.07 22.75 12 17.93 22.75 12 22.75 1.25 17.93 1.25 12zm1.5 0c0 5.1 4.15 9.25 9.25 9.25s9.25-4.15 9.25-9.25S17.1 2.75 12 2.75 2.75 6.9 2.75 12z"/>
        <path d="M9.14 7.83v-2c0-.41.34-.75.75-.75s.75.34.75.75v2a.749.749 0 1 1-1.5 0zM13.36 7.83v-2c0-.41.34-.75.75-.75s.75.34.75.75v2c0 .41-.34.75-.75.75s-.75-.34-.75-.75zM7.52 10.89c-.41 0-.75-.34-.75-.75s.34-.75.75-.75h8.95a.749.749 0 1 1 0 1.5H7.52z" fill-rule="nonzero"/>
        <path d="M10.5 18.42c-2.75 0-4.75-2-4.75-4.75v-3c0-2.75 2-4.75 4.75-4.75h3c2.75 0 4.75 2 4.75 4.75v3c0 2.75-2 4.75-4.75 4.75h-3zm-3.25-7.75v3c0 1.62 1 3.25 3.25 3.25h3c2.25 0 3.25-1.63 3.25-3.25v-3c0-1.62-1-3.25-3.25-3.25h-3c-2.25 0-3.25 1.63-3.25 3.25z"/>
    </g>
</svg>
