<svg width="24" height="24" viewBox="0 0 24 24" xmlns="http://www.w3.org/2000/svg">
    <g fill="#292D32" fill-rule="evenodd">
        <path d="M1.277 12.005c0-5.918 4.81-10.728 10.728-10.728s10.728 4.81 10.728 10.728-4.82 10.728-10.728 10.728c-5.918 0-10.728-4.81-10.728-10.728zm1.497 0c0 5.09 4.142 9.23 9.231 9.23 5.09 0 9.23-4.14 9.23-9.23 0-5.09-4.14-9.23-9.23-9.23-5.09 0-9.23 4.14-9.23 9.23z"/>
        <path d="M13.77 12.734 5.609 4.55a.753.753 0 0 1 0-1.058.753.753 0 0 1 1.057 0l6.896 6.906.01-2.735c0-.409.34-.748.749-.748.409-.03.748.34.748.748l-.01 4.54c0 .3-.18.58-.46.69a.748.748 0 0 1-.828-.16zM17.334 20.507l-6.895-6.905-.01 2.734c0 .409-.34.748-.749.748a.754.754 0 0 1-.748-.748l.01-4.54c0-.3.18-.58.459-.69.28-.119.598-.05.818.16l8.163 8.183c.29.29.29.769 0 1.058-.13.15-.33.22-.519.22a.74.74 0 0 1-.529-.22z" fill-rule="nonzero"/>
    </g>
</svg>
