<svg width="24" height="24" viewBox="0 0 24 24" xmlns="http://www.w3.org/2000/svg">
    <g fill="#292D32" fill-rule="evenodd">
        <path d="m16.33 10.42-3.04-3.04a.754.754 0 0 1 0-1.06c.29-.29.77-.29 1.06 0l3.04 3.04c.29.29.29.77 0 1.06-.15.14-.34.22-.53.22s-.38-.07-.53-.22z" fill-rule="nonzero"/>
        <path d="M13.07 17.15V6.84c0-.41.34-.75.75-.75s.75.34.75.75v10.31a.749.749 0 1 1-1.5 0zM9.65 17.68l-3.04-3.04a.755.755 0 0 1 0-1.06c.29-.29.77-.29 1.06 0l3.04 3.04c.29.29.29.77 0 1.06a.71.71 0 0 1-.53.22c-.19 0-.38-.07-.53-.22z" fill-rule="nonzero"/>
        <path d="M9.43 17.15V6.84c0-.41.34-.75.75-.75s.75.34.75.75v10.31c0 .42-.33.75-.75.75-.41 0-.75-.34-.75-.75z" fill-rule="nonzero"/>
        <path d="M1.25 12C1.25 6.07 6.07 1.25 12 1.25S22.75 6.07 22.75 12 17.93 22.75 12 22.75 1.25 17.93 1.25 12zm1.5 0c0 5.1 4.15 9.25 9.25 9.25s9.25-4.15 9.25-9.25S17.1 2.75 12 2.75 2.75 6.9 2.75 12z"/>
    </g>
</svg>
