<svg width="24" height="24" viewBox="0 0 24 24" xmlns="http://www.w3.org/2000/svg">
    <g fill="#292D32" fill-rule="evenodd">
        <path d="M1.9 10.78c-.41 0-.75-.34-.75-.75s.34-.75.75-.75h20a.749.749 0 1 1 0 1.5h-20z" fill-rule="nonzero"/>
        <path d="M6.35 21.28c-3.98 0-5.2-1.2-5.2-5.14V7.92c0-3.15.67-4.9 4.24-5.11.31-.01.62-.02.96-.02h11.11c3.98 0 5.2 1.2 5.2 5.14v4.41c0 .41-.34.75-.75.75s-.75-.34-.75-.75V7.93c0-3.09-.55-3.64-3.7-3.64H6.35c-.32 0-.61.01-.89.02-2.17.13-2.81.62-2.81 3.62v8.22c0 3.09.55 3.64 3.7 3.64h5.11c.41 0 .75.34.75.75s-.34.74-.75.74H6.35z" fill-rule="nonzero"/>
        <path d="M13.15 18.03c0-2.62 2.13-4.75 4.75-4.75s4.75 2.13 4.75 4.75-2.13 4.75-4.75 4.75-4.75-2.13-4.75-4.75zm1.5 0c0 1.79 1.46 3.25 3.25 3.25s3.25-1.46 3.25-3.25-1.46-3.25-3.25-3.25-3.25 1.46-3.25 3.25z"/>
        <path d="m18.44 19.68-2.11-2.11a.755.755 0 0 1 0-1.06c.29-.29.77-.29 1.06 0l2.11 2.11c.29.29.29.77 0 1.06-.14.14-.34.22-.53.22s-.38-.07-.53-.22z" fill-rule="nonzero"/>
        <path d="M16.3 19.7a.754.754 0 0 1 0-1.06l2.11-2.11c.29-.29.77-.29 1.06 0 .29.29.29.77 0 1.06l-2.11 2.11a.71.71 0 0 1-.53.22c-.19 0-.38-.07-.53-.22zM5.9 16.78c-.41 0-.75-.34-.75-.75s.34-.75.75-.75h4a.749.749 0 1 1 0 1.5h-4z" fill-rule="nonzero"/>
    </g>
</svg>
