<svg width="24" height="24" viewBox="0 0 24 24" xmlns="http://www.w3.org/2000/svg">
    <g fill="none" fill-rule="evenodd">
        <path d="M6.6 19.25c-1.5 0-2.1-.64-2.1-2.23v-1.04c0-1.59.6-2.23 2.1-2.23h10.8c1.5 0 2.1.64 2.1 2.23v1.04c0 1.59-.6 2.23-2.1 2.23H6.6z" fill="#292D32" fill-rule="nonzero"/>
        <path d="M12 21.25V18"/>
        <path d="M12.75 21.25c0 .41-.34.75-.75.75s-.75-.34-.75-.75v-2h1.5v2z" fill="#292D32" fill-rule="nonzero"/>
        <path d="M12 14v-4"/>
        <path d="M12.75 10.75v3h-1.5v-3h1.5z" fill="#292D32"/>
        <path d="M12 2.75V6"/>
        <path d="M12.75 5.25h-1.5v-2.5c0-.41.34-.75.75-.75s.75.34.75.75v2.5zM8.6 10.75c-1.5 0-2.1-.64-2.1-2.23V7.48c0-1.59.6-2.23 2.1-2.23h6.8c1.5 0 2.1.64 2.1 2.23v1.04c0 1.59-.6 2.23-2.1 2.23H8.6z" fill="#292D32" fill-rule="nonzero"/>
    </g>
</svg>
