<?xml version="1.0" encoding="UTF-8"?>
<svg width="24px" height="24px" viewBox="0 0 24 24" version="1.1" xmlns="http://www.w3.org/2000/svg" xmlns:xlink="http://www.w3.org/1999/xlink">
    <title>745D337F-1AD4-408D-B994-B489F773990C</title>
    <g id="Outline-Icons" stroke="none" stroke-width="1" fill="none" fill-rule="evenodd">
        <g id="Money" transform="translate(-556.000000, -252.000000)">
            <g id="percentage-square" transform="translate(556.000000, 252.000000)">
                <path d="M9,22.75 C3.57000017,22.75 1.25,20.4299998 1.25,15 L1.25,9 C1.25,3.57000017 3.57000017,1.25 9,1.25 L15,1.25 C20.4299998,1.25 22.75,3.57000017 22.75,9 L22.75,15 C22.75,20.4299998 20.4299998,22.75 15,22.75 L9,22.75 Z M2.75,9 L2.75,15 C2.75,19.6100001 4.38999987,21.25 9,21.25 L15,21.25 C19.6100001,21.25 21.25,19.6100001 21.25,15 L21.25,9 C21.25,4.38999987 19.6100001,2.75 15,2.75 L9,2.75 C4.38999987,2.75 2.75,4.38999987 2.75,9 Z" id="Vector" fill="#292D32"></path>
                <path d="M8.03976563,15.8001418 C7.74976563,15.5101418 7.74976563,15.0301442 8.03976563,14.7401443 L14.5897536,8.19015625 C14.8797536,7.90015626 15.3597512,7.90015626 15.6497512,8.19015625 C15.9397512,8.48015624 15.9397512,8.96015379 15.6497512,9.25015378 L9.09976315,15.8001418 C8.94976315,15.9501418 8.75976437,16.0201426 8.56976438,16.0201426 C8.37976438,16.0201426 8.18976563,15.9501418 8.03976563,15.8001418 Z" id="Vector" fill="#292D32" fill-rule="nonzero"></path>
                <path d="M7,9.12991333 C7,8.0399133 7.89001095,7.14990234 8.98001099,7.14990234 C10.070011,7.14990234 10.9599915,8.0399133 10.9599915,9.12991333 C10.9599915,10.2199134 10.070011,11.1098938 8.98001099,11.1098938 C7.89001095,11.1098938 7,10.2199134 7,9.12991333 Z M8.5,9.1399231 C8.5,9.40992311 8.71001098,9.61990356 8.98001099,9.61990356 C9.250011,9.61990356 9.45999146,9.40992311 9.45999146,9.1399231 C9.45999146,8.86992308 9.24001098,8.65991211 8.98001099,8.65991211 C8.720011,8.65991211 8.5,8.86992308 8.5,9.1399231 Z" id="Vector" fill="#292D32"></path>
                <path d="M13.5390625,14.8598633 C13.5390625,13.7698632 14.4290429,12.8798828 15.519043,12.8798828 C16.609043,12.8798828 17.499054,13.7698632 17.499054,14.8598633 C17.499054,15.9498633 16.609043,16.8398743 15.519043,16.8398743 C14.4290429,16.8398743 13.5390625,15.9498633 13.5390625,14.8598633 Z M15.0390625,14.869873 C15.0390625,15.1398731 15.249043,15.349884 15.519043,15.349884 C15.789043,15.349884 15.999054,15.1398731 15.999054,14.869873 C15.999054,14.599873 15.789043,14.3898926 15.519043,14.3898926 C15.259043,14.3898926 15.0390625,14.599873 15.0390625,14.869873 Z" id="Vector" fill="#292D32"></path>
                <path d="M24,0 L24,24 L0,24 L0,0 L24,0 Z" id="Vector" opacity="0"></path>
            </g>
        </g>
    </g>
</svg>