<svg width="24" height="24" viewBox="0 0 24 24" xmlns="http://www.w3.org/2000/svg">
    <path d="M7.81 2C4.17 2 2 4.17 2 7.81v8.37C2 19.83 4.17 22 7.81 22h8.37c3.64 0 5.81-2.17 5.81-5.81V7.81C22 4.17 19.83 2 16.19 2H7.81zm1.42 5.66c.81 0 1.48.66 1.48 1.48 0 .81-.66 1.48-1.48 1.48a1.49 1.49 0 0 1-1.48-1.48c0-.81.66-1.48 1.48-1.48zm-.94 8.14a.754.754 0 0 1 0-1.06l6.55-6.55c.29-.29.77-.29 1.06 0 .29.29.29.77 0 1.06L9.35 15.8c-.15.15-.34.22-.53.22s-.38-.07-.53-.22zm6-.94c0-.81.66-1.48 1.48-1.48.81 0 1.48.66 1.48 1.48s-.66 1.48-1.48 1.48c-.81 0-1.48-.66-1.48-1.48z" fill="#292D32" fill-rule="evenodd"/>
</svg>
