<svg width="24" height="24" viewBox="0 0 24 24" xmlns="http://www.w3.org/2000/svg">
    <g fill="#292D32" fill-rule="nonzero">
        <path d="M2.5 13.25c0-5.24 4.26-9.5 9.5-9.5s9.5 4.26 9.5 9.5c0 .41-.34.75-.75.75s-.75-.34-.75-.75c0-4.41-3.59-8-8-8s-8 3.59-8 8 3.59 8 8 8c.41 0 .75.34.75.75s-.34.75-.75.75c-5.24 0-9.5-4.26-9.5-9.5z"/>
        <path d="M11.25 13V8c0-.41.34-.75.75-.75s.75.34.75.75v5c0 .41-.34.75-.75.75s-.75-.34-.75-.75zM9 2.75c-.41 0-.75-.34-.75-.75s.34-.75.75-.75h6c.41 0 .75.34.75.75s-.34.75-.75.75H9zM18.25 21v-4c0-.41.34-.75.75-.75s.75.34.75.75v4c0 .41-.34.75-.75.75s-.75-.34-.75-.75zM15.25 21v-4c0-.41.34-.75.75-.75s.75.34.75.75v4c0 .41-.34.75-.75.75s-.75-.34-.75-.75z"/>
    </g>
</svg>
