<svg width="24" height="24" viewBox="0 0 24 24" xmlns="http://www.w3.org/2000/svg">
    <g fill="#292D32" fill-rule="evenodd">
        <path d="M1.25 12C1.25 6.07 6.07 1.25 12 1.25S22.75 6.07 22.75 12 17.93 22.75 12 22.75 1.25 17.93 1.25 12zm1.5 0c0 5.1 4.15 9.25 9.25 9.25s9.25-4.15 9.25-9.25S17.1 2.75 12 2.75 2.75 6.9 2.75 12z"/>
        <path d="M9.6 13.23v-2.47c0-1.32 1.08-2.4 2.4-2.4 1.32 0 2.4 1.08 2.4 2.4v2.47a2.4 2.4 0 0 1-2.4 2.4c-1.32 0-2.4-1.08-2.4-2.4zm1.5-2.46v2.47c0 .5.4.9.9.9s.9-.4.9-.9v-2.47c0-.5-.41-.9-.9-.9-.49 0-.9.4-.9.9z"/>
        <path d="M6.25 13.07v-2.14c0-3.17 2.58-5.75 5.75-5.75 2.96 0 5.42 2.22 5.72 5.16a.75.75 0 0 1-.67.82.744.744 0 0 1-.82-.67A4.236 4.236 0 0 0 12 6.68a4.26 4.26 0 0 0-4.25 4.25v2.14A4.26 4.26 0 0 0 12 17.32c2.2 0 4.06-1.72 4.24-3.91a.752.752 0 1 1 1.5.12c-.24 2.97-2.76 5.29-5.74 5.29-3.17 0-5.75-2.58-5.75-5.75z" fill-rule="nonzero"/>
    </g>
</svg>
