<svg width="24" height="24" viewBox="0 0 24 24" xmlns="http://www.w3.org/2000/svg">
    <g fill="#292D32" fill-rule="evenodd">
        <path d="M8.3 16.75c-2.42 0-3.55-1.13-3.55-3.55v-2.4c0-2.42 1.13-3.55 3.55-3.55h2.4c2.42 0 3.55 1.13 3.55 3.55v2.4c0 2.42-1.13 3.55-3.55 3.55H8.3zM6.25 10.8v2.4c0 1.59.46 2.05 2.05 2.05h2.4c1.59 0 2.05-.46 2.05-2.05v-2.4c0-1.59-.46-2.05-2.05-2.05H8.3c-1.59 0-2.05.46-2.05 2.05z"/>
        <path d="M7 20.75c-4.41 0-5.75-1.34-5.75-5.75V9c0-4.41 1.34-5.75 5.75-5.75h10c4.41 0 5.75 1.34 5.75 5.75v6c0 4.41-1.34 5.75-5.75 5.75H7zM2.75 9v6c0 3.57.67 4.25 4.25 4.25h10c3.58 0 4.25-.68 4.25-4.25V9c0-3.57-.67-4.25-4.25-4.25H7c-3.58 0-4.25.68-4.25 4.25z"/>
    </g>
</svg>
