<svg width="24" height="24" viewBox="0 0 24 24" xmlns="http://www.w3.org/2000/svg">
    <g fill="#292D32" fill-rule="evenodd">
        <path d="M3.75 14.5v-5c0-4.55 3.7-8.25 8.25-8.25s8.25 3.7 8.25 8.25v5c0 4.55-3.7 8.25-8.25 8.25s-8.25-3.7-8.25-8.25zm1.5-5v5c0 3.72 3.03 6.75 6.75 6.75s6.75-3.03 6.75-6.75v-5c0-3.72-3.03-6.75-6.75-6.75S5.25 5.78 5.25 9.5z"/>
        <path d="M9.75 9.5v-2c0-1.24 1.01-2.25 2.25-2.25s2.25 1.01 2.25 2.25v2c0 1.24-1.01 2.25-2.25 2.25S9.75 10.74 9.75 9.5zm1.5-2v2c0 .41.34.75.75.75s.75-.34.75-.75v-2c0-.41-.34-.75-.75-.75s-.75.34-.75.75z"/>
        <path d="M11.25 6V2c0-.41.34-.75.75-.75s.75.34.75.75v4c0 .41-.34.75-.75.75s-.75-.34-.75-.75z" fill-rule="nonzero"/>
    </g>
</svg>
