<svg width="24" height="24" viewBox="0 0 24 24" xmlns="http://www.w3.org/2000/svg">
    <g fill="#292D32" fill-rule="evenodd">
        <path d="M3 10v5c0 2 1 3 3 3l2-2v-1h1l8-8H6c-2 0-3 1-3 3zm3.25 1c0-.41.34-.75.75-.75h2c.41 0 .75.34.75.75s-.34.75-.75.75H7c-.41 0-.75-.34-.75-.75z"/>
        <path d="M8 16v-1h1l-1 1zM17 7H7V5c0-1.66 1.34-3 3-3h4c1.66 0 3 1.34 3 3v2z" fill-rule="nonzero"/>
        <path d="m21.47 1.471-20 20c-.29.29-.29.77 0 1.06.15.15.34.22.53.22s.38-.07.53-.22l20-20c.29-.29.29-.77 0-1.06a.754.754 0 0 0-1.06 0zM12.604 14.396 12 15l-.75.75L8.8 18.2c-.64.64-.77 1.8-.25 2.54C9.09 21.5 9.99 22 11 22h2c1.66 0 3-1.34 3-3v-3.25h1c.41 0 .75-.34.75-.75s-.34-.75-.75-.75h-4.043a.5.5 0 0 0-.353.146z" fill-rule="nonzero"/>
        <path d="M15.46 11.54c-.63.63-.18 1.71.71 1.71h.74c.87 0 1.68.59 1.82 1.45.18 1.09-.66 2.05-1.73 2.05v.75a.5.5 0 0 0 .5.5h.5c1.66 0 3-1.34 3-3v-5c0-.79-.16-1.43-.47-1.91-.34-.51-1.08-.54-1.51-.11l-3.56 3.56z" fill-rule="nonzero"/>
    </g>
</svg>
