<svg width="24" height="24" viewBox="0 0 24 24" xmlns="http://www.w3.org/2000/svg">
    <g fill="#292D32" fill-rule="evenodd">
        <path d="M7 4C4 4 2 5.5 2 9v3.56c0 .37.38.6.71.45.98-.45 2.11-.62 3.3-.41 2.63.47 4.56 2.91 4.49 5.58-.01.42-.07.83-.18 1.23-.08.31.17.6.49.6H17c3 0 5-1.5 5-5V9c0-3.5-2-5-5-5H7zm2.5 8a2.5 2.5 0 0 1 5 0 2.5 2.5 0 0 1-5 0zm9 2.75c-.41 0-.75-.34-.75-.75v-4c0-.41.34-.75.75-.75s.75.34.75.75v4c0 .41-.34.75-.75.75z"/>
        <path d="M2 15.36A4 4 0 0 0 1 18c0 .75.21 1.46.58 2.06A3.97 3.97 0 0 0 5 22c1.01 0 1.93-.37 2.63-1 .31-.26.58-.58.79-.94.37-.6.58-1.31.58-2.06 0-2.21-1.79-4-4-4-1.2 0-2.27.53-3 1.36zm4.07 4.44c-.19 0-.38-.07-.53-.22l-.53-.53-.55.55c-.15.15-.34.22-.53.22s-.38-.07-.53-.22a.754.754 0 0 1 0-1.06l.55-.55-.53-.53a.754.754 0 0 1 0-1.06c.29-.29.77-.29 1.06 0l.53.53.5-.5c.29-.29.77-.29 1.06 0 .29.29.29.77 0 1.06l-.5.5.53.53c.29.29.29.76 0 1.06-.15.15-.34.22-.53.22z"/>
    </g>
</svg>
