<?xml version="1.0" encoding="UTF-8"?>
<svg width="24px" height="24px" viewBox="0 0 24 24" version="1.1" xmlns="http://www.w3.org/2000/svg" xmlns:xlink="http://www.w3.org/1999/xlink">
    <title>22019861-8003-40B3-86E9-E37AD2F510FB</title>
    <g id="Outline-Icons" stroke="none" stroke-width="1" fill="none" fill-rule="evenodd">
        <g id="Essetional" transform="translate(-620.000000, -444.000000)">
            <g id="sticker" transform="translate(620.000000, 444.000000)">
                <path d="M10.0893192,22.5899086 C5.68931913,21.8399086 2.09931925,18.2399092 1.36931923,13.8199091 C0.789319247,10.3099091 1.87931919,6.87990928 4.3693192,4.38990927 C6.85931921,1.89990926 10.289319,0.819909319 13.789319,1.38990931 C18.1993189,2.11990933 21.8093185,5.69990969 22.5593185,10.0999098 C22.7193184,11.0699098 22.7593194,12.0199095 22.6793194,12.9199095 L22.6793194,12.9299097 C22.6593194,13.1599097 22.6193185,13.3799098 22.5593185,13.5999098 C22.4893185,13.8499098 22.2993185,14.0399093 22.0593185,14.1199093 C21.8193185,14.1999093 21.5493195,14.1399089 21.3493195,13.9799089 C20.4093195,13.1899089 19.2093184,12.7499094 17.9693184,12.7499094 C15.0693183,12.7499094 12.7193193,15.1099083 12.7193193,17.9999084 C12.7193193,19.2399085 13.1593189,20.4399076 13.9493189,21.3799076 C14.1193189,21.5799076 14.1693192,21.8399086 14.0893192,22.0899086 C14.0093192,22.3399086 13.8193188,22.5199086 13.5693188,22.5899086 C13.3493188,22.6499086 13.1293187,22.6899075 12.8993187,22.7099075 C12.5993187,22.7399075 12.2893193,22.7499084 11.9693193,22.7499084 C11.3593193,22.7499084 10.7293192,22.6999086 10.0893192,22.5899086 Z M5.43931913,5.45990944 C3.29931903,7.59990954 2.35931909,10.5599093 2.85931909,13.5799093 C3.48931909,17.3699093 6.5593195,20.4699091 10.3493195,21.1099091 C10.9493195,21.2099091 11.5193188,21.2699084 12.0693188,21.2499084 C11.5293187,20.2599084 11.2393188,19.1399084 11.2393188,17.9999084 C11.2393188,14.2799084 14.2693188,11.2499094 17.9893188,11.2499094 C19.1293188,11.2499094 20.2493188,11.5399093 21.2393188,12.0799093 C21.2493188,11.5299093 21.1993195,10.9599091 21.0993195,10.3599091 C20.4593195,6.57990909 17.3593187,3.4999094 13.5693188,2.8799094 C13.0193188,2.78990939 12.4893193,2.74990928 11.9693193,2.74990928 C9.5193193,2.74990928 7.19931912,3.69990945 5.43931913,5.45990944 Z" id="Vector" fill="#292D32"></path>
                <path d="M12.8107033,22.3400002 C11.7907033,21.1300001 11.2207031,19.59 11.2207031,18 C11.2207031,14.28 14.2507021,11.25 17.9707022,11.25 C19.5607022,11.25 21.1007023,11.8100002 22.3107023,12.8400002 C22.5407023,13.0300002 22.6307021,13.3399999 22.5507021,13.6199999 C22.3707021,14.2399999 22.050703,14.7799998 21.590703,15.2399998 L15.2107029,21.6200008 C14.7507029,22.0800008 14.200703,22.3999999 13.590703,22.5799999 C13.520703,22.5999999 13.450703,22.6100006 13.380703,22.6100006 C13.160703,22.6100006 12.9507033,22.5200002 12.8107033,22.3400002 Z M12.7207031,18 C12.7207031,19.0599999 13.040703,20.0900007 13.630703,20.9500008 C13.820703,20.8500008 13.9907025,20.7199995 14.1507025,20.5599995 L20.5307035,14.1800003 C20.6907035,14.0200003 20.8207029,13.8499998 20.9207029,13.6599998 C20.0607029,13.0699999 19.0307021,12.75 17.9707022,12.75 C15.0707021,12.75 12.7207031,15.1099999 12.7207031,18 Z" id="Vector" fill="#292D32"></path>
                <path d="M24,0 L24,24 L0,24 L0,0 L24,0 Z" id="Vector" opacity="0"></path>
            </g>
        </g>
    </g>
</svg>