<svg width="24" height="24" viewBox="0 0 24 24" xmlns="http://www.w3.org/2000/svg">
    <g fill="#292D32" fill-rule="evenodd">
        <path d="M14.33 5.85c0-1.77 1.44-3.21 3.21-3.21s3.21 1.44 3.21 3.21-1.44 3.21-3.21 3.21-3.21-1.44-3.21-3.21zm1.5-.01c0 .94.77 1.71 1.71 1.71s1.71-.77 1.71-1.71-.77-1.71-1.71-1.71-1.71.77-1.71 1.71zM3.25 5.85c0-1.77 1.44-3.21 3.21-3.21s3.21 1.44 3.21 3.21-1.44 3.21-3.21 3.21-3.21-1.44-3.21-3.21zm1.5-.01c0 .94.77 1.71 1.71 1.71s1.71-.77 1.71-1.71a1.71 1.71 0 1 0-3.42 0zM14.33 18.16c0-1.77 1.44-3.21 3.21-3.21s3.21 1.44 3.21 3.21-1.44 3.21-3.21 3.21-3.21-1.44-3.21-3.21zm1.5-.01c0 .94.77 1.71 1.71 1.71s1.71-.77 1.71-1.71-.77-1.71-1.71-1.71-1.71.77-1.71 1.71zM3.25 18.16c0-1.77 1.44-3.21 3.21-3.21s3.21 1.44 3.21 3.21-1.44 3.21-3.21 3.21-3.21-1.44-3.21-3.21zm1.5-.01c0 .94.77 1.71 1.71 1.71s1.71-.77 1.71-1.71a1.71 1.71 0 1 0-3.42 0z"/>
    </g>
</svg>
