<svg width="24" height="24" viewBox="0 0 24 24" xmlns="http://www.w3.org/2000/svg">
    <g fill="#292D32" fill-rule="evenodd">
        <path d="M17.75 12c0-3.17-2.58-5.75-5.75-5.75S6.25 8.83 6.25 12c0 .41-.34.75-.75.75s-.75-.34-.75-.75C4.75 8 8 4.75 12 4.75S19.25 8 19.25 12c0 .41-.34.75-.75.75s-.75-.34-.75-.75z" fill-rule="nonzero"/>
        <path d="M21.92 13c-.55 0-1-.45-1-1s.45-1 1-1 1.04.45 1.04 1-.41 1-.96 1h-.08zM2 13c-.55 0-1-.45-1-1s.45-1 1-1 1.04.45 1.04 1-.41 1-.96 1H2zm16.3-7.3a.996.996 0 0 1 0-1.41l.13-.13a.996.996 0 1 1 1.41 1.41l-.13.13c-.19.19-.44.29-.7.29-.26 0-.51-.1-.71-.29zm-14.02 0-.13-.13a.996.996 0 1 1 1.41-1.41l.13.13A.996.996 0 1 1 4.28 5.7zM11 2.08V2c0-.55.45-1 1-1s1 .45 1 1-.45 1.04-1 1.04-1-.41-1-.96z"/>
        <path d="M4 15.75c-.41 0-.75-.34-.75-.75s.34-.75.75-.75h16c.41 0 .75.34.75.75s-.34.75-.75.75H4zM6 18.75c-.41 0-.75-.34-.75-.75s.34-.75.75-.75h12c.41 0 .75.34.75.75s-.34.75-.75.75H6zM9 21.75c-.41 0-.75-.34-.75-.75s.34-.75.75-.75h6c.41 0 .75.34.75.75s-.34.75-.75.75H9z" fill-rule="nonzero"/>
    </g>
</svg>
