<svg width="24" height="24" viewBox="0 0 24 24" xmlns="http://www.w3.org/2000/svg">
    <g fill="#292D32" fill-rule="evenodd">
        <path d="M13.43 15V9c0-3.1 2.04-3.75 3.75-3.75s3.75.65 3.75 3.75v6c0 3.1-2.04 3.75-3.75 3.75s-3.75-.65-3.75-3.75zm1.5-6v6c0 1.62.63 2.25 2.25 2.25s2.25-.63 2.25-2.25V9c0-1.62-.63-2.25-2.25-2.25s-2.25.63-2.25 2.25zM3.07 15V9c0-3.1 2.04-3.75 3.75-3.75s3.75.65 3.75 3.75v6c0 3.1-2.04 3.75-3.75 3.75S3.07 18.1 3.07 15zm1.5-6v6c0 1.62.63 2.25 2.25 2.25s2.25-.63 2.25-2.25V9c0-1.62-.63-2.25-2.25-2.25S4.57 7.38 4.57 9z"/>
        <path d="M9.82 12.75c-.41 0-.75-.34-.75-.75s.34-.75.75-.75h4.36a.749.749 0 1 1 0 1.5H9.82zM21.75 14.5v-5c0-.41.34-.75.75-.75s.75.34.75.75v5c0 .41-.34.75-.75.75s-.75-.34-.75-.75zM.75 14.5v-5c0-.41.34-.75.75-.75s.75.34.75.75v5c0 .41-.34.75-.75.75s-.75-.34-.75-.75z" fill-rule="nonzero"/>
    </g>
</svg>
