<svg width="24" height="24" viewBox="0 0 24 24" xmlns="http://www.w3.org/2000/svg">
    <g fill="#292D32" fill-rule="nonzero">
        <path d="m7.63 17.91-2.35 1.34c-1.64.94-2.99.16-2.99-1.74V7.78c0-.63.45-1.41 1.01-1.73l4.33-2.48c.11-.06.23-.11.37-.14v13.856a.71.71 0 0 1-.37.624zM14.283 20.155l-4.25-2.048a.5.5 0 0 1-.283-.45V4.447a.5.5 0 0 1 .722-.449l4.25 2.105A.5.5 0 0 1 15 6.55v13.153a.5.5 0 0 1-.717.45zM22 16.22c0 .63-.45 1.41-1.01 1.73l-3.491 2.001a.5.5 0 0 1-.749-.434V6.33a.5.5 0 0 1 .252-.434L19.01 4.75C20.65 3.81 22 4.59 22 6.49v9.73z"/>
    </g>
</svg>
