<svg width="24" height="24" viewBox="0 0 24 24" xmlns="http://www.w3.org/2000/svg">
    <g fill="#292D32" fill-rule="evenodd">
        <path d="M7.01 9.71c-.41 0-.75-.34-.75-.75s.34-.75.75-.75h9.98c.41 0 .75.34.75.75s-.34.75-.75.75H7.01z" fill-rule="nonzero"/>
        <path d="M11.25 8.96V7.28c0-.41.34-.75.75-.75s.75.34.75.75v1.68c0 .41-.34.75-.75.75s-.75-.34-.75-.75zM6.25 16.72c0-.41.34-.75.75-.75 3.72 0 6.75-3.15 6.75-7.03 0-.41.34-.75.75-.75s.75.34.75.75c0 4.71-3.7 8.53-8.25 8.53-.41 0-.75-.34-.75-.75z" fill-rule="nonzero"/>
        <path d="M11.861 14.7a.75.75 0 0 1 1.2-.9c1.06 1.4 2.46 2.17 3.95 2.17.41 0 .75.34.75.75s-.35.75-.76.75c-1.97 0-3.8-.98-5.14-2.77z" fill-rule="nonzero"/>
        <path d="M1.25 12C1.25 6.07 6.07 1.25 12 1.25S22.75 6.07 22.75 12 17.93 22.75 12 22.75 1.25 17.93 1.25 12zm1.5 0c0 5.1 4.15 9.25 9.25 9.25s9.25-4.15 9.25-9.25S17.1 2.75 12 2.75 2.75 6.9 2.75 12z"/>
    </g>
</svg>
