<svg width="24" height="24" viewBox="0 0 24 24" xmlns="http://www.w3.org/2000/svg">
    <g fill="#292D32" fill-rule="nonzero">
        <path d="M22 18.25h-7v.25c0 1.5-.9 2-2 2H7c-1.1 0-2-.5-2-2v-.25H2c-.41 0-.75-.34-.75-.75s.34-.75.75-.75h3v-.25c0-1.5.9-2 2-2h6c1.1 0 2 .5 2 2v.25h7c.41 0 .75.34.75.75s-.34.75-.75.75zM22 7.25h-3v.25c0 1.5-.9 2-2 2h-6c-1.1 0-2-.5-2-2v-.25H2c-.41 0-.75-.34-.75-.75s.34-.75.75-.75h7V5.5c0-1.5.9-2 2-2h6c1.1 0 2 .5 2 2v.25h3c.41 0 .75.34.75.75s-.34.75-.75.75z"/>
    </g>
</svg>
