<svg width="24" height="24" viewBox="0 0 24 24" xmlns="http://www.w3.org/2000/svg">
    <g fill="#292D32" fill-rule="evenodd">
        <path d="M1 22.75c-.41 0-.75-.34-.75-.75s.34-.75.75-.75h22c.41 0 .75.34.75.75s-.34.75-.75.75H1z" fill-rule="nonzero"/>
        <path d="M19.03 22.01v-4.46c0-.41.34-.75.75-.75s.75.34.75.75v4.46a.749.749 0 1 1-1.5 0z" fill-rule="nonzero"/>
        <path d="M16.85 15.35v-2.27a2.949 2.949 0 1 1 5.9 0v2.27a2.949 2.949 0 1 1-5.9 0zm1.5-2.26v2.27a1.451 1.451 0 0 0 2.9 0v-2.27a1.451 1.451 0 0 0-2.9 0z"/>
        <path d="M13.55 22V6.03c0-1.59-.67-2.27-2.23-2.27H5.09c-1.57 0-2.25.68-2.25 2.27V22c0 .41-.34.75-.75.75s-.75-.34-.75-.75V6.03c0-2.43 1.33-3.77 3.75-3.77h6.23c2.41 0 3.73 1.34 3.73 3.77V22c0 .41-.34.75-.75.75s-.75-.34-.75-.75z" fill-rule="nonzero"/>
        <path d="M5.8 9c-.41 0-.75-.34-.75-.75s.34-.75.75-.75h4.95c.41 0 .75.34.75.75s-.34.75-.75.75H5.8zM5.8 12.75c-.41 0-.75-.34-.75-.75s.34-.75.75-.75h4.95c.41 0 .75.34.75.75s-.34.75-.75.75H5.8zM7.5 22v-3.75c0-.41.34-.75.75-.75s.75.34.75.75V22c0 .41-.34.75-.75.75s-.75-.34-.75-.75z" fill-rule="nonzero"/>
    </g>
</svg>
