<svg width="24" height="24" viewBox="0 0 24 24" xmlns="http://www.w3.org/2000/svg">
    <g fill="#292D32" fill-rule="nonzero">
        <path d="M14.35 22.368a.764.764 0 0 1 .01-.76l1.05-1.75a.751.751 0 1 1 1.29.77l-.27.45c2.76-.65 4.83-3.13 4.83-6.09 0-.41.34-.75.75-.75s.75.34.75.75c-.01 4.28-3.49 7.76-7.76 7.76-.27 0-.52-.15-.65-.38zM1.25 9c0-4.27 3.48-7.75 7.75-7.75a.752.752 0 0 1 .64 1.14L8.59 4.14c-.21.35-.67.47-1.03.25a.746.746 0 0 1-.25-1.03l.27-.45A6.261 6.261 0 0 0 2.75 9c0 .41-.34.75-.75.75s-.75-.34-.75-.75zM14.8 15.57c0 2.45-.98 3.43-3.43 3.43H8.43C5.98 19 5 18.02 5 15.57v-2.94c0-2.45.98-3.43 3.43-3.43h2.94c2.45 0 3.43.98 3.43 3.43v2.94z"/>
        <path d="M12.63 5c-2.41 0-3.39.96-3.42 3.32h2.16c2.94 0 4.3 1.37 4.3 4.3v2.16c2.37-.03 3.321-1.01 3.321-3.42V8.43c.01-2.45-.97-3.43-3.42-3.43h-2.94z"/>
    </g>
</svg>
