<svg width="24" height="24" viewBox="0 0 24 24" xmlns="http://www.w3.org/2000/svg">
    <g fill="#292D32" fill-rule="evenodd">
        <path d="M1.22 12c0-5.93 4.83-10.75 10.75-10.75S22.72 6.07 22.72 12 17.9 22.75 11.97 22.75C6.05 22.75 1.22 17.93 1.22 12zm1.5 0c0 5.1 4.15 9.25 9.25 9.25s9.25-4.15 9.25-9.25-4.15-9.25-9.25-9.25S2.72 6.9 2.72 12z"/>
        <path d="M8.71 15.95c-.92 0-1.46-.53-1.46-1.42V9.47c0-.89.55-1.42 1.46-1.42H10c.92 0 1.46.53 1.46 1.42v5.06c.01.89-.54 1.42-1.45 1.42h-1.3zm1.26-1.5v-4.9H8.76l-.01 4.9h1.22zM14 15.95c-.92 0-1.46-.53-1.46-1.42V9.47c0-.89.55-1.42 1.46-1.42h1.29c.92 0 1.46.53 1.46 1.42v5.06c0 .89-.55 1.42-1.46 1.42H14zm1.25-1.5v-4.9h-1.21l-.01 4.9h1.22z"/>
    </g>
</svg>
