<svg width="24" height="24" viewBox="0 0 24 24" xmlns="http://www.w3.org/2000/svg">
    <g fill="#292D32" fill-rule="evenodd">
        <path d="M15.25 5c0-2.07 1.68-3.75 3.75-3.75 2.07 0 3.75 1.68 3.75 3.75 0 2.07-1.68 3.75-3.75 3.75-2.07 0-3.75-1.68-3.75-3.75zm1.5 0c0 1.24 1.01 2.25 2.25 2.25S21.25 6.24 21.25 5 20.24 2.75 19 2.75 16.75 3.76 16.75 5z"/>
        <path d="M1.25 12C1.25 6.07 6.07 1.25 12 1.25c.73 0 1.46.07 2.17.22.41.08.67.48.58.89-.08.41-.48.67-.88.58A8.99 8.99 0 0 0 12 2.75C6.9 2.75 2.75 6.9 2.75 12S6.9 21.25 12 21.25s9.25-4.15 9.25-9.25c0-.62-.06-1.24-.18-1.84-.08-.41.18-.8.59-.88.41-.09.8.18.88.59.14.7.21 1.42.21 2.14 0 5.92-4.82 10.74-10.75 10.74S1.25 17.93 1.25 12z" fill-rule="nonzero"/>
    </g>
</svg>
