<svg width="24" height="24" viewBox="0 0 24 24" xmlns="http://www.w3.org/2000/svg">
    <g fill="#292D32" fill-rule="evenodd">
        <path d="M8.75 12c0-1.79 1.46-3.25 3.25-3.25s3.25 1.46 3.25 3.25-1.46 3.25-3.25 3.25S8.75 13.79 8.75 12zm1.5 0c0 .96.79 1.75 1.75 1.75s1.75-.79 1.75-1.75-.79-1.75-1.75-1.75-1.75.79-1.75 1.75z"/>
        <path d="M17.75 14.5v-5c0-.41.34-.75.75-.75s.75.34.75.75v5c0 .41-.34.75-.75.75s-.75-.34-.75-.75z" fill-rule="nonzero"/>
        <path d="M.94 20.44C.49 19.72.25 18.87.25 18c0-2.62 2.13-4.75 4.75-4.75S9.75 15.38 9.75 18c0 .87-.24 1.72-.69 2.45-.84 1.42-2.4 2.3-4.06 2.3-1.66 0-3.22-.88-4.06-2.31zM1.75 18c0 .59.16 1.17.47 1.67.58.98 1.65 1.58 2.78 1.58A3.256 3.256 0 0 0 8.25 18c0-1.79-1.46-3.25-3.25-3.25S1.75 16.21 1.75 18z"/>
        <path d="m3.899 19.52-.99-.99a.755.755 0 0 1 0-1.06c.29-.29.77-.29 1.06 0l.48.48 1.6-1.48c.3-.28.78-.26 1.06.04s.26.78-.04 1.06l-2.13 1.97c-.15.13-.33.2-.51.2-.19 0-.38-.07-.53-.22z" fill-rule="nonzero"/>
        <path d="M8.5 20.75c-.41 0-.75-.34-.75-.75s.34-.75.75-.75H17c2.86 0 4.25-1.39 4.25-4.25V9c0-2.86-1.39-4.25-4.25-4.25H7C4.14 4.75 2.75 6.14 2.75 9v6.3c0 .41-.34.75-.75.75s-.75-.34-.75-.75V9c0-3.65 2.1-5.75 5.75-5.75h10c3.65 0 5.75 2.1 5.75 5.75v6c0 3.65-2.1 5.75-5.75 5.75H8.5z" fill-rule="nonzero"/>
    </g>
</svg>
