<svg width="24" height="24" viewBox="0 0 24 24" xmlns="http://www.w3.org/2000/svg">
    <g fill="#292D32" fill-rule="evenodd">
        <path d="M1.25 12C1.25 6.07 6.07 1.25 12 1.25S22.75 6.07 22.75 12 17.93 22.75 12 22.75 1.25 17.93 1.25 12zm1.5 0c0 5.1 4.15 9.25 9.25 9.25s9.25-4.15 9.25-9.25S17.1 2.75 12 2.75 2.75 6.9 2.75 12z"/>
        <path d="M11.25 14.5v-6c0-.41.34-.75.75-.75s.75.34.75.75v6c0 .41-.34.75-.75.75s-.75-.34-.75-.75z" fill-rule="nonzero"/>
        <path d="m11.47 16.03-3-3a.754.754 0 0 1 0-1.06c.29-.29.77-.29 1.06 0L12 14.44l2.47-2.47c.29-.29.77-.29 1.06 0 .29.29.29.77 0 1.06l-3 3c-.15.15-.34.22-.53.22s-.38-.07-.53-.22z" fill-rule="nonzero"/>
    </g>
</svg>
