<svg width="24" height="24" viewBox="0 0 24 24" xmlns="http://www.w3.org/2000/svg">
    <g fill="#292D32" fill-rule="evenodd">
        <path d="M7 21.25c-3.65 0-5.75-2.1-5.75-5.75v-7c0-3.65 2.1-5.75 5.75-5.75h10c3.65 0 5.75 2.1 5.75 5.75v7c0 3.65-2.1 5.75-5.75 5.75H7zM2.75 8.5v7c0 2.86 1.39 4.25 4.25 4.25h10c2.86 0 4.25-1.39 4.25-4.25v-7c0-2.86-1.39-4.25-4.25-4.25H7c-2.86 0-4.25 1.39-4.25 4.25z"/>
        <path d="M5.25 16V8c0-.41.34-.75.75-.75s.75.34.75.75v8c0 .41-.34.75-.75.75s-.75-.34-.75-.75zM8.25 12V8c0-.41.34-.75.75-.75s.75.34.75.75v4c0 .41-.34.75-.75.75s-.75-.34-.75-.75zM8.25 16v-1c0-.41.34-.75.75-.75s.75.34.75.75v1c0 .41-.34.75-.75.75s-.75-.34-.75-.75zM14.25 9V8c0-.41.34-.75.75-.75s.75.34.75.75v1c0 .41-.34.75-.75.75s-.75-.34-.75-.75zM11.25 16V8c0-.41.34-.75.75-.75s.75.34.75.75v8c0 .41-.34.75-.75.75s-.75-.34-.75-.75zM14.25 16v-4c0-.41.34-.75.75-.75s.75.34.75.75v4c0 .41-.34.75-.75.75s-.75-.34-.75-.75zM17.25 16V8c0-.41.34-.75.75-.75s.75.34.75.75v8c0 .41-.34.75-.75.75s-.75-.34-.75-.75z" fill-rule="nonzero"/>
    </g>
</svg>
