<svg width="24" height="24" viewBox="0 0 24 24" xmlns="http://www.w3.org/2000/svg">
    <g fill="#292D32" fill-rule="evenodd">
        <path d="M7.5 5V2c0-.41.34-.75.75-.75S9 1.59 9 2v3c0 .41-.34.75-.75.75S7.5 5.41 7.5 5zM15 5V2c0-.41.34-.75.75-.75s.75.34.75.75v3c0 .41-.34.75-.75.75S15 5.41 15 5zM12.9 13.29c0-.5-.38-.79-.9-.79s-.9.29-.9.79c0 .49.38.8.9.8s.9-.31.9-.8z" fill-rule="nonzero"/>
        <path d="M12 17c-.63 0-1.14-.416-1.14-.93 0-.513.51-.93 1.14-.93.629 0 1.14.417 1.14.93 0 .514-.511.93-1.14.93z"/>
        <path d="M17.96 5.31v.1c0 1.17-.84 2.25-2.01 2.37-1.35.14-2.49-.92-2.49-2.24V4.5c0-.55-.45-1-1-1h-.92c-.55 0-1 .45-1 1v1.04c0 .79-.41 1.49-1.03 1.88-.09.06-.19.11-.29.16-.09.05-.19.09-.3.12-.12.04-.25.07-.39.08-.16.02-.32.02-.48 0-.14-.01-.27-.04-.39-.08-.1-.03-.2-.07-.3-.12-.1-.05-.2-.1-.29-.16-.63-.44-1.03-1.2-1.03-2.01v-.1c0-.77-.82-1.23-1.47-.9-.01.01-.02.01-.03.02-.04.02-.07.04-.11.07-.03.03-.07.05-.1.08-.28.22-.53.47-.74.74-.11.12-.2.25-.28.38a3.498 3.498 0 0 0-.27.46c-.02.02-.03.03-.03.05-.06.12-.12.24-.16.37-.03.05-.04.09-.06.14-.06.15-.1.3-.14.45-.04.14-.07.29-.09.44a5.902 5.902 0 0 0-.06.76v8.76A4.87 4.87 0 0 0 7.37 22h9.26a4.87 4.87 0 0 0 4.87-4.87V8.37c0-1.59-.76-2.98-1.93-3.87-.66-.49-1.61-.02-1.61.81zM9.5 16.24c0-.68.35-1.27.96-1.62-.44-.31-.73-.77-.73-1.4 0-1.3 1.04-1.97 2.27-1.97s2.26.67 2.26 1.97c0 .63-.28 1.09-.73 1.4.62.35.97.94.97 1.62 0 1.24-.96 2.01-2.5 2.01-1.55 0-2.5-.77-2.5-2.01z"/>
    </g>
</svg>
