<?xml version="1.0" encoding="utf-8"?>
<!-- Generator: Adobe Illustrator 25.2.1, SVG Export Plug-In . SVG Version: 6.00 Build 0)  -->
<svg version="1.1" id="Capa_1" xmlns="http://www.w3.org/2000/svg" xmlns:xlink="http://www.w3.org/1999/xlink" x="0px" y="0px"
	 viewBox="0 0 24 24" style="enable-background:new 0 0 24 24;" xml:space="preserve">
<style type="text/css">
	.st0{fill:#292D32;}
</style>
<g>
	<path class="st0" d="M7.46,16.49c-1.01-1.02-1.94-2.11-2.79-3.27c-0.82-1.14-1.48-2.28-1.96-3.41C2.24,8.67,2,7.58,2,6.54
		c0-0.68,0.12-1.33,0.36-1.93C2.6,4,2.98,3.44,3.51,2.94C4.15,2.31,4.85,2,5.59,2C5.87,2,6.15,2.06,6.4,2.18
		c0.26,0.12,0.49,0.3,0.67,0.56l2.32,3.27c0.18,0.25,0.31,0.48,0.4,0.7c0.09,0.21,0.14,0.42,0.14,0.61c0,0.24-0.07,0.48-0.21,0.71
		C9.59,8.26,9.4,8.5,9.16,8.74L8.4,9.53c-0.11,0.11-0.16,0.24-0.16,0.4c0,0.08,0.01,0.15,0.03,0.23c0.03,0.08,0.06,0.14,0.08,0.2
		c0.18,0.33,0.49,0.76,0.93,1.28c0.45,0.52,0.93,1.05,1.45,1.58l2.14,1.91c0.28,0.21,0.53,0.37,0.74,0.48
		c0.05,0.02,0.11,0.05,0.18,0.08c0.08,0.03,0.16,0.04,0.25,0.04c0.17,0,0.3-0.06,0.41-0.17l0.76-0.75c0.25-0.25,0.49-0.44,0.72-0.56
		c0.23-0.14,0.46-0.21,0.71-0.21c0.19,0,0.39,0.04,0.61,0.13c0.22,0.09,0.45,0.22,0.7,0.39l3.31,2.35c0.26,0.18,0.44,0.39,0.55,0.64
		c0.1,0.25,0.16,0.5,0.16,0.78s-0.05,0.57-0.15,0.85c-0.03,0.08-0.06,0.16-0.1,0.24c-0.17,0.36-0.39,0.7-0.68,1.02
		c-0.49,0.54-1.03,0.93-1.64,1.18c-0.01,0-0.02,0.01-0.03,0.01C18.78,21.87,18.14,22,17.45,22c-1.02,0-2.11-0.24-3.26-0.73
		s-2.3-1.15-3.44-1.98C10.36,19,9.97,18.71,9.6,18.4L7.46,16.49z"/>
</g>
</svg>
