<svg width="24" height="24" viewBox="0 0 24 24" xmlns="http://www.w3.org/2000/svg">
    <g fill="#292D32" fill-rule="nonzero">
        <path d="M10.93 19.261c-.45 0-.82-.37-.82-.82 0-.45.37-.82.82-.82H20c.45 0 .82.37.82.82 0 .46-.37.82-.82.82h-9.07zM10.93 12.968c-.45 0-.82-.37-.82-.82 0-.45.37-.82.82-.82H20c.45 0 .82.37.82.82 0 .45-.37.82-.82.82h-9.07zM10.93 6.671c-.45 0-.82-.37-.82-.82 0-.45.37-.82.82-.82H20c.45 0 .82.37.82.82 0 .45-.37.82-.82.82h-9.07zM4.33 7.792l-.91-.91a.82.82 0 0 1 1.16-1.16l.33.33 2.14-2.14a.82.82 0 0 1 1.16 1.16l-2.72 2.72c-.16.15-.36.24-.58.24-.22 0-.43-.09-.58-.24zM4.33 14.089l-.91-.91a.82.82 0 0 1 1.16-1.16l.33.33 2.14-2.14a.82.82 0 0 1 1.16 1.16l-2.72 2.72a.818.818 0 0 1-1.16 0zM4.33 20.089l-.91-.91a.82.82 0 0 1 1.16-1.16l.33.33 2.14-2.14a.82.82 0 0 1 1.16 1.16l-2.72 2.72a.818.818 0 0 1-1.16 0z"/>
    </g>
</svg>
