<svg width="24" height="24" viewBox="0 0 24 24" xmlns="http://www.w3.org/2000/svg">
    <g fill="#292D32" fill-rule="evenodd">
        <path d="M10 22.25c-3.3 0-5.29-.66-5.66-4.01-.06-.45-.09-.99-.09-1.74v-9c0-.75.03-1.3.1-1.77C4.71 2.41 6.7 1.75 10 1.75h4c3.3 0 5.29.66 5.66 4.01.06.45.09.99.09 1.74v9c0 .75-.03 1.3-.1 1.77-.36 3.32-2.35 3.98-5.65 3.98h-4zM5.83 5.92c-.05.42-.08.9-.08 1.58v9c0 .68.03 1.16.08 1.55.22 2.03.86 2.7 4.17 2.7h4c3.31 0 3.94-.67 4.17-2.67.06-.42.08-.9.08-1.58v-9c0-.68-.03-1.16-.08-1.55-.22-2.03-.86-2.7-4.17-2.7h-4c-3.31 0-3.94.67-4.17 2.67z"/>
        <path d="M1.25 19.5v-15c0-.41.34-.75.75-.75s.75.34.75.75v15c0 .41-.34.75-.75.75s-.75-.34-.75-.75zM21.25 19V4c0-.41.34-.75.75-.75s.75.34.75.75v15c0 .41-.34.75-.75.75s-.75-.34-.75-.75z" fill-rule="nonzero"/>
    </g>
</svg>
