<svg width="24" height="24" viewBox="0 0 24 24" xmlns="http://www.w3.org/2000/svg">
    <g fill="#292D32" fill-rule="evenodd">
        <path d="M8 2C5.79 2 4 3.79 4 6v7.25c0 .55.45 1 1 1h15c.55 0 1-.45 1-1V6c0-2.21-1.79-4-4-4H8zM7 12.75c-.41 0-.75-.34-.75-.75s.34-.75.75-.75h1c.41 0 .75.34.75.75s-.34.75-.75.75H7zm0-2.5c-.41 0-.75-.34-.75-.75s.34-.75.75-.75h1c.41 0 .75.34.75.75s-.34.75-.75.75H7zm0-2.5c-.41 0-.75-.34-.75-.75s.34-.75.75-.75h1c.41 0 .75.34.75.75s-.34.75-.75.75H7zM4 18c0 2.21 1.79 4 4 4h9c2.21 0 4-1.79 4-4v-1.25c0-.55-.45-1-1-1H5c-.55 0-1 .45-1 1V18zm13 1.75c-.26 0-.52-.11-.71-.29-.18-.19-.29-.45-.29-.71 0-.26.11-.52.29-.71.37-.37 1.04-.37 1.42 0 .18.19.29.45.29.71 0 .26-.11.52-.29.71-.19.18-.45.29-.71.29z"/>
    </g>
</svg>
