<svg width="24" height="24" viewBox="0 0 24 24" xmlns="http://www.w3.org/2000/svg">
    <g fill="#292D32" fill-rule="evenodd">
        <path d="M9 22.75c-4.41 0-5.75-1.34-5.75-5.75V7c0-4.41 1.34-5.75 5.75-5.75h6c4.41 0 5.75 1.34 5.75 5.75v10c0 4.41-1.34 5.75-5.75 5.75H9zM4.75 7v10c0 3.57.67 4.25 4.25 4.25h6c3.58 0 4.25-.68 4.25-4.25V7c0-3.57-.67-4.25-4.25-4.25H9c-3.58 0-4.25.68-4.25 4.25z"/>
        <path d="M10 6.25c-.41 0-.75-.34-.75-.75s.34-.75.75-.75h4c.41 0 .75.34.75.75s-.34.75-.75.75h-4z" fill-rule="nonzero"/>
        <path d="M9.7 17.56a2.3 2.3 0 1 1 4.6 0 2.3 2.3 0 0 1-4.6 0zm1.5-.01c0 .44.36.8.8.8.44 0 .8-.36.8-.8 0-.44-.36-.8-.8-.8-.44 0-.8.36-.8.8z"/>
    </g>
</svg>
