<svg width="24" height="24" viewBox="0 0 24 24" xmlns="http://www.w3.org/2000/svg">
    <g fill="#292D32" fill-rule="evenodd">
        <path d="M2 9.25c-.41 0-.75-.34-.75-.75s.34-.75.75-.75h11c.41 0 .75.34.75.75s-.34.75-.75.75H2zM6 17.25c-.41 0-.75-.34-.75-.75s.34-.75.75-.75h2c.41 0 .75.34.75.75s-.34.75-.75.75H6zM10.5 17.25c-.41 0-.75-.34-.75-.75s.34-.75.75-.75h4c.41 0 .75.34.75.75s-.34.75-.75.75h-4z" fill-rule="nonzero"/>
        <path d="M6.44 21.25c-3.98 0-5.19-1.2-5.19-5.14V7.89c0-3.94 1.21-5.14 5.19-5.14h6.84c.41 0 .75.34.75.75s-.34.75-.75.75H6.44c-3.14 0-3.69.54-3.69 3.64v8.22c0 3.1.55 3.64 3.69 3.64h11.12c3.14 0 3.69-.54 3.69-3.64v-4.78c0-.41.34-.75.75-.75s.75.34.75.75v4.78c0 3.94-1.21 5.14-5.19 5.14H6.44z" fill-rule="nonzero"/>
        <path d="M17 6.5c-.41 0-.75-.34-.75-.75v-2.5c0-.41.34-.75.75-.75h3.13c1.07 0 2 .93 2 2-.01 1.1-.9 2-2.01 2H17zM20.13 5c.28 0 .5-.22.5-.5 0-.22-.24-.5-.5-.5h-2.38v1h2.38z"/>
        <path d="M17 9c-.41 0-.75-.34-.75-.75v-2.5c0-.41.34-.75.75-.75h3.57c1.2 0 2.18.9 2.18 2s-.98 2-2.18 2H17zm3.57-1.5c.37 0 .68-.23.68-.5s-.31-.5-.68-.5h-2.82v1h2.82z"/>
        <path d="M18.01 9.5V8.25c0-.41.34-.75.75-.75s.75.34.75.75V9.5c0 .42-.33.75-.75.75-.41 0-.75-.34-.75-.75zM18.01 3.25V2c0-.41.34-.75.75-.75s.75.34.75.75v1.25a.749.749 0 1 1-1.5 0z" fill-rule="nonzero"/>
        <path d="M16 4c-.41 0-.75-.34-.75-.75s.34-.75.75-.75h2.19c.41 0 .75.34.75.75s-.34.75-.75.75H16zM16 9c-.41 0-.75-.34-.75-.75s.34-.75.75-.75h2.19c.41 0 .75.34.75.75s-.34.75-.75.75H16z" fill-rule="nonzero"/>
    </g>
</svg>
