<svg width="24" height="24" viewBox="0 0 24 24" xmlns="http://www.w3.org/2000/svg">
    <g fill="#292D32" fill-rule="evenodd">
        <path d="M13.89 14.322c0 .36.29.65.65.65.36 0 .65-.29.65-.65a.662.662 0 0 0-.65-.65c-.36 0-.65.29-.65.65zM8.41 15.31c0 .36.29.65.65.65.36 0 .65-.29.65-.65 0-.36-.29-.65-.65-.65-.36 0-.65.29-.65.65z" fill-rule="nonzero"/>
        <path d="M7.81 2C4.17 2 2 4.17 2 7.81v8.37C2 19.83 4.17 22 7.81 22h8.37c3.64 0 5.81-2.17 5.81-5.81V7.81C22 4.17 19.83 2 16.19 2H7.81zm9.07 12.31c0 1.29-1.05 2.34-2.34 2.34-1.29 0-2.34-1.05-2.34-2.34 0-1.29 1.05-2.34 2.34-2.34.23 0 .44.04.65.1v-1.42l-3.78 1.03v3.62c0 .01-.01.02-.01.03a2.337 2.337 0 0 1-2.34 2.31c-1.29 0-2.34-1.05-2.34-2.34 0-1.29 1.05-2.34 2.34-2.34.23 0 .44.04.65.1V9.29c0-.97.6-1.76 1.54-2.01l2.99-.82c.96-.26 1.56-.01 1.9.25.33.26.74.77.74 1.77v5.83z"/>
    </g>
</svg>
