<svg width="24" height="24" viewBox="0 0 24 24" xmlns="http://www.w3.org/2000/svg">
    <g fill="#292D32" fill-rule="evenodd">
        <path d="M7.25 7.75c-.41 0-.75-.34-.75-.75V5c0-2.56 1.19-3.75 3.75-3.75h3.5c2.56 0 3.75 1.19 3.75 3.75v2c0 .41-.34.75-.75.75h-9.5zM16 6.25V5c0-1.7-.55-2.25-2.25-2.25h-3.5C8.55 2.75 8 3.3 8 5v1.25h8z"/>
        <path d="M11 22.75c-2.04 0-3.34-.98-3.67-2.76-.07-.41.19-.8.6-.87.4-.08.8.19.87.6.13.71.5 1.53 2.19 1.53h2c1.58 0 2.25-.67 2.25-2.25v-3.25h-2.28c-.41 0-.75-.34-.75-.75s.34-.75.75-.75H16c.41 0 .75.34.75.75v4c0 2.42-1.33 3.75-3.75 3.75h-2zM2.25 15v-5c0-2.42 1.33-3.75 3.75-3.75h10.59c.41 0 .75.34.75.75s-.34.75-.75.75H6c-1.58 0-2.25.67-2.25 2.25v5c0 1.58.67 2.25 2.25 2.25.41 0 .75.34.75.75s-.34.75-.75.75c-2.42 0-3.75-1.33-3.75-3.75z" fill-rule="nonzero"/>
        <path d="M16 18.75c-.41 0-.75-.34-.75-.75v-2.25H13c-.41 0-.75-.34-.75-.75s.34-.75.75-.75h3c.41 0 .75.34.75.75v2.25H18c1.58 0 2.25-.67 2.25-2.25v-5c0-.92-.23-1.53-.71-1.87a.743.743 0 0 1-.18-1.04c.24-.34.71-.42 1.05-.18.89.63 1.34 1.67 1.34 3.09v5c0 2.42-1.33 3.75-3.75 3.75h-2z" fill-rule="nonzero"/>
        <path d="M15.79 15.75c-.41 0-.75-.34-.75-.75s.34-.75.75-.75H17c.41 0 .75.34.75.75s-.34.75-.75.75h-1.21zM7 11.75c-.41 0-.75-.34-.75-.75s.34-.75.75-.75h2c.41 0 .75.34.75.75s-.34.75-.75.75H7zM1.47 22.53a.754.754 0 0 1 0-1.06l20-20c.29-.29.77-.29 1.06 0 .29.29.29.77 0 1.06l-20 20c-.15.15-.34.22-.53.22s-.38-.07-.53-.22z" fill-rule="nonzero"/>
    </g>
</svg>
