<svg width="24" height="24" viewBox="0 0 24 24" xmlns="http://www.w3.org/2000/svg">
    <g fill="#292D32" fill-rule="evenodd">
        <path d="M4.69 10.75c-1.89 0-3.43-1.54-3.43-3.43V4.69c0-1.89 1.54-3.43 3.43-3.43h14.63c1.89 0 3.43 1.54 3.43 3.43v2.63c0 1.89-1.54 3.43-3.43 3.43H4.69zM2.75 4.68v2.63c0 1.07.87 1.93 1.93 1.93h14.63c1.07 0 1.93-.87 1.93-1.93V4.68c0-1.07-.87-1.93-1.93-1.93H4.68c-1.07 0-1.93.87-1.93 1.93zM4.69 22.75c-1.89 0-3.43-1.54-3.43-3.43v-2.63c0-1.89 1.54-3.43 3.43-3.43h14.63c1.89 0 3.43 1.54 3.43 3.43v2.63c0 1.89-1.54 3.43-3.43 3.43H4.69zm-1.94-6.07v2.63c0 1.07.87 1.93 1.93 1.93h14.63c1.07 0 1.93-.87 1.93-1.93v-2.63c0-1.07-.87-1.93-1.93-1.93H4.68c-1.07 0-1.93.87-1.93 1.93z"/>
        <path d="M5.25 7V5c0-.41.34-.75.75-.75s.75.34.75.75v2c0 .41-.34.75-.75.75s-.75-.34-.75-.75zM9.25 7V5c0-.41.34-.75.75-.75s.75.34.75.75v2c0 .41-.34.75-.75.75s-.75-.34-.75-.75zM5.25 19v-2c0-.41.34-.75.75-.75s.75.34.75.75v2c0 .41-.34.75-.75.75s-.75-.34-.75-.75zM9.25 19v-2c0-.41.34-.75.75-.75s.75.34.75.75v2c0 .41-.34.75-.75.75s-.75-.34-.75-.75zM14 6.75c-.41 0-.75-.34-.75-.75s.34-.75.75-.75h4c.41 0 .75.34.75.75s-.34.75-.75.75h-4zM14 18.75c-.41 0-.75-.34-.75-.75s.34-.75.75-.75h4c.41 0 .75.34.75.75s-.34.75-.75.75h-4z" fill-rule="nonzero"/>
    </g>
</svg>
