<svg width="24" height="24" viewBox="0 0 24 24" xmlns="http://www.w3.org/2000/svg">
    <g fill="#292D32" fill-rule="evenodd">
        <path d="M4.51 5.5c0-.55.44-1 1-1h.01c.55 0 1 .45 1 1a1.005 1.005 0 0 1-2.01 0zM17.51 18.5c0-.55.44-1 1-1h.01c.55 0 1 .45 1 1a1.005 1.005 0 0 1-2.01 0z" fill-rule="nonzero"/>
        <path d="M1.22 5.5a4.26 4.26 0 0 1 4.25-4.25A4.26 4.26 0 0 1 9.72 5.5c0 2.34-1.9 4.25-4.25 4.25A4.26 4.26 0 0 1 1.22 5.5zm1.5 0c0 1.52 1.23 2.75 2.75 2.75S8.22 7.02 8.22 5.5 6.99 2.75 5.47 2.75 2.72 3.98 2.72 5.5zM16.97 22.75c-1.52 0-2.75-1.23-2.75-2.75v-3c0-1.52 1.23-2.75 2.75-2.75h3c1.52 0 2.75 1.23 2.75 2.75v3c0 1.52-1.23 2.75-2.75 2.75h-3zM15.72 17v3c0 .69.56 1.25 1.25 1.25h3c.69 0 1.25-.56 1.25-1.25v-3c0-.69-.56-1.25-1.25-1.25h-3c-.69 0-1.25.56-1.25 1.25z"/>
        <path d="M9.32 19.75c-1.16 0-2.17-.7-2.57-1.78-.41-1.08-.11-2.27.76-3.04l7.99-6.99c.48-.42.49-.99.35-1.38-.15-.39-.53-.81-1.17-.81H12c-.41 0-.75-.34-.75-.75s.34-.75.75-.75h2.68c1.16 0 2.17.7 2.57 1.78.41 1.08.11 2.27-.76 3.04L8.5 16.06c-.48.42-.49.99-.35 1.38.15.39.53.81 1.17.81H12c.41 0 .75.34.75.75s-.34.75-.75.75H9.32z" fill-rule="nonzero"/>
    </g>
</svg>
