<svg width="24" height="24" viewBox="0 0 24 24" xmlns="http://www.w3.org/2000/svg">
    <g fill="#292D32" fill-rule="evenodd">
        <path d="M9 22.75c-3.44 0-5.75-2.31-5.75-5.75V7c0-3.44 2.31-5.75 5.75-5.75h7c3.44 0 5.75 2.31 5.75 5.75v10c0 3.44-2.31 5.75-5.75 5.75H9zM4.75 7v10c0 2.58 1.67 4.25 4.25 4.25h7c2.58 0 4.25-1.67 4.25-4.25V7c0-2.58-1.67-4.25-4.25-4.25H9C6.42 2.75 4.75 4.42 4.75 7z"/>
        <path d="M4 15.75c-.41 0-.75-.34-.75-.75s.34-.75.75-.75h17c.41 0 .75.34.75.75s-.34.75-.75.75H4zM7 12.75c-.41 0-.75-.34-.75-.75s.34-.75.75-.75h1c.41 0 .75.34.75.75s-.34.75-.75.75H7zM7 10.25c-.41 0-.75-.34-.75-.75s.34-.75.75-.75h1c.41 0 .75.34.75.75s-.34.75-.75.75H7zM7 7.75c-.41 0-.75-.34-.75-.75s.34-.75.75-.75h1c.41 0 .75.34.75.75s-.34.75-.75.75H7zM16.29 19.21c-.18-.19-.29-.45-.29-.71 0-.27.11-.52.29-.71.28-.28.72-.37 1.09-.21.12.05.23.12.33.21.18.19.29.45.29.71 0 .26-.11.52-.29.71-.1.09-.2.16-.33.21-.12.05-.25.08-.38.08-.26 0-.52-.11-.71-.29z" fill-rule="nonzero"/>
    </g>
</svg>
