<svg width="24" height="24" viewBox="0 0 24 24" xmlns="http://www.w3.org/2000/svg">
    <g fill="#292D32" fill-rule="evenodd">
        <path d="M4.58 21.47c-1.83 0-3.33-1.49-3.33-3.33v-5.8c0-.41.34-.75.75-.75h5.8c1.9 0 3.33 1.43 3.33 3.33v3.22c-.01 1.9-1.44 3.33-3.33 3.33H4.58zm-1.83-3.32c0 1.01.82 1.83 1.83 1.83H7.8c1.06 0 1.83-.77 1.83-1.83v-3.22c0-1.06-.77-1.83-1.83-1.83H2.75v5.05z"/>
        <path d="M1.25 12.35c0-6.25 1.27-7.56 4.9-9.71.36-.21.82-.09 1.03.26.21.36.09.82-.26 1.03-3.24 1.92-4.17 2.72-4.17 8.42 0 .41-.34.75-.75.75s-.75-.34-.75-.75z" fill-rule="nonzero"/>
        <path d="M16.201 21.47c-1.83 0-3.33-1.49-3.33-3.33v-5.8c0-.41.34-.75.75-.75h5.8c1.9 0 3.33 1.43 3.33 3.33v3.22c0 1.9-1.43 3.33-3.33 3.33h-3.22zm-1.82-3.32c0 1.01.82 1.83 1.83 1.83h3.22c1.06 0 1.83-.77 1.83-1.83v-3.22c0-1.06-.77-1.83-1.83-1.83h-5.05v5.05z"/>
        <path d="M12.879 12.35c0-6.25 1.27-7.56 4.9-9.71.36-.21.82-.09 1.03.26.21.36.09.82-.26 1.03-3.24 1.92-4.17 2.72-4.17 8.42 0 .41-.34.75-.75.75s-.75-.34-.75-.75z" fill-rule="nonzero"/>
    </g>
</svg>
