<svg width="24" height="24" viewBox="0 0 24 24" xmlns="http://www.w3.org/2000/svg">
    <g fill="#292D32" fill-rule="evenodd">
        <path d="m20.81 21.799-1.86-1.86a.706.706 0 0 1 0-.99c.27-.27.71-.27.99 0l1.86 1.86c.27.27.27.71 0 .99-.14.13-.32.2-.5.2s-.36-.07-.49-.2z" fill-rule="nonzero"/>
        <path d="M2 11.5c0 5.24 4.26 9.5 9.5 9.5s9.5-4.26 9.5-9.5S16.74 2 11.5 2 2 6.26 2 11.5zm9.5 3.31c-.69 0-2.6-.93-3.18-2.75-.38-1.19.05-2.74 1.41-3.17.62-.2 1.28-.08 1.77.29.48-.37 1.15-.49 1.78-.29 1.35.44 1.78 1.99 1.4 3.17-.56 1.78-2.51 2.75-3.18 2.75z"/>
    </g>
</svg>
