<svg width="24" height="24" viewBox="0 0 24 24" xmlns="http://www.w3.org/2000/svg">
    <g fill="#292D32" fill-rule="nonzero">
        <path d="M9.83 22c-1.54 0-2.68-1.25-2.38-2.58l.52-2.32c.1-.46.51-.78.98-.78h6.09c.47 0 .87.32.98.78l.52 2.31c.32 1.43-.75 2.59-2.39 2.59H9.83zM17.75 14.63c-.37.32-.84.5-1.32.5H7.59c-.49 0-.97-.18-1.33-.51l-1.05-.94c-1.72-1.41-1.73-2.49-.41-4.15l5.23-6.61c.35-.47.79-.77 1.24-.92v4.86c-.01.43.33.77.75.76.42.01.75-.33.76-.76V3.347a.697.697 0 0 1 1.24-.437l5.21 6.62c1.3 1.66 1.25 2.69-.41 4.16l-1.07.94z"/>
    </g>
</svg>
