<svg width="24" height="24" viewBox="0 0 24 24" xmlns="http://www.w3.org/2000/svg">
    <g fill="#292D32" fill-rule="nonzero">
        <path d="M11.25 22v-2c0-.41.34-.75.75-.75s.75.34.75.75v2c0 .41-.34.75-.75.75s-.75-.34-.75-.75zM11.25 18v-2c0-.41.34-.75.75-.75s.75.34.75.75v2c0 .41-.34.75-.75.75s-.75-.34-.75-.75zM11.25 14v-3c0-4.27 3.48-7.75 7.75-7.75h3c.41 0 .75.34.75.75s-.34.75-.75.75h-3c-3.45 0-6.25 2.8-6.25 6.25v3c0 .41-.34.75-.75.75s-.75-.34-.75-.75z"/>
        <path d="M11.25 14v-3c0-3.45-2.8-6.25-6.25-6.25H2c-.41 0-.75-.34-.75-.75s.34-.75.75-.75h3c4.27 0 7.75 3.48 7.75 7.75v3c0 .41-.34.75-.75.75s-.75-.34-.75-.75z"/>
        <path d="m3.47 6.53-2-2a.754.754 0 0 1 0-1.06l2-2c.29-.29.77-.29 1.06 0 .29.29.29.77 0 1.06L3.06 4l1.47 1.47c.29.29.29.77 0 1.06-.15.15-.34.22-.53.22s-.38-.07-.53-.22zM19.47 6.53a.754.754 0 0 1 0-1.06L20.94 4l-1.47-1.47a.754.754 0 0 1 0-1.06c.29-.29.77-.29 1.06 0l2 2c.29.29.29.77 0 1.06l-2 2c-.15.15-.34.22-.53.22s-.38-.07-.53-.22z"/>
    </g>
</svg>
