<svg width="24" height="24" viewBox="0 0 24 24" xmlns="http://www.w3.org/2000/svg">
    <g fill="#292D32" fill-rule="evenodd">
        <path d="M1.25 12C1.25 6.07 6.07 1.25 12 1.25S22.75 6.07 22.75 12 17.93 22.75 12 22.75 1.25 17.93 1.25 12zm1.5 0c0 5.1 4.15 9.25 9.25 9.25s9.25-4.15 9.25-9.25S17.1 2.75 12 2.75 2.75 6.9 2.75 12z"/>
        <path d="M7.49 12c0-2.62 2.13-4.75 4.75-4.75 1.15 0 2.27.42 3.13 1.19.31.27.34.75.07 1.06-.27.31-.75.34-1.06.07-.59-.52-1.35-.81-2.14-.81-1.79 0-3.25 1.46-3.25 3.25s1.46 3.25 3.25 3.25c.78 0 1.55-.29 2.14-.81.31-.27.79-.24 1.06.07s.24.79-.07 1.06A4.754 4.754 0 0 1 7.49 12z" fill-rule="nonzero"/>
    </g>
</svg>
