<svg width="24" height="24" viewBox="0 0 24 24" xmlns="http://www.w3.org/2000/svg">
    <g fill="#292D32" fill-rule="evenodd">
        <path d="M14.61 15.39 12.3 13.3v4.02l2.31-1.93zM12.3 10.64l2.31-2.12-2.31-1.84v3.96z" fill-rule="nonzero"/>
        <path d="M7.81 2C4.17 2 2 4.17 2 7.81v8.37C2 19.83 4.17 22 7.81 22h8.37c3.64 0 5.81-2.17 5.81-5.81V7.81C22 4.17 19.83 2 16.19 2H7.81zm-1.18 8.62c.76 0 1.37.62 1.37 1.38a1.374 1.374 0 1 1-2.75 0c0-.76.62-1.38 1.38-1.38zm6.53 7.93c-.41.35-.79.45-1.08.45-.23 0-.41-.06-.51-.11-.23-.11-.77-.46-.77-1.44v-3.39l-2.9 2.65c-.3.28-.78.26-1.06-.05a.746.746 0 0 1 .05-1.06l3.91-3.58v-.08L6.89 8.4a.746.746 0 0 1-.05-1.06c.28-.3.76-.33 1.06-.05l2.9 2.65V6.56c0-.98.54-1.34.77-1.44.23-.11.85-.29 1.6.34l2.41 2.01c.33.27.52.66.53 1.07.01.41-.16.81-.47 1.1L13.04 12l2.59 2.37c.31.29.49.69.48 1.1-.02.41-.21.8-.54 1.07l-2.41 2.01zM16 12c0-.76.62-1.38 1.38-1.38.76 0 1.38.62 1.38 1.38 0 .76-.63 1.38-1.38 1.38-.76 0-1.38-.62-1.38-1.38z"/>
    </g>
</svg>
