<svg width="24" height="24" viewBox="0 0 24 24" xmlns="http://www.w3.org/2000/svg">
    <g fill="#292D32" fill-rule="evenodd">
        <path d="M21 8.748H3c-.41 0-.75-.34-.75-.75s.34-.75.75-.75h1.02l.38-1.81c.36-1.75 1.11-3.36 4.09-3.36h7.02c2.98 0 3.73 1.61 4.09 3.36l.38 1.81H21c.41 0 .75.34.75.75s-.34.75-.75.75z" fill-rule="nonzero"/>
        <path d="M18.382 10.25H5.622c-3.21 0-3.64 1.76-3.8 3.41l-.56 6.09c-.07.76.18 1.52.7 2.09.53.58 1.28.91 2.08.91h1.88c1.62 0 1.93-.93 2.13-1.54l.2-.6c.23-.69.29-.86 1.19-.86h5.12c.9 0 .93.1 1.19.86l.2.6c.2.61.51 1.54 2.13 1.54h1.88c.79 0 1.55-.33 2.08-.91.52-.57.77-1.33.7-2.09l-.56-6.09c-.15-1.65-.59-3.41-3.8-3.41zm-12.38 5.5c-.41 0-.75-.34-.75-.75s.34-.75.75-.75h3c.41 0 .75.34.75.75s-.34.75-.75.75h-3zm9 0c-.41 0-.75-.34-.75-.75s.34-.75.75-.75h3c.41 0 .75.34.75.75s-.34.75-.75.75h-3z"/>
    </g>
</svg>
