<svg width="24" height="24" viewBox="0 0 24 24" xmlns="http://www.w3.org/2000/svg">
    <g fill="#292D32" fill-rule="evenodd">
        <path d="M1.25 9V6.5c0-2.9 2.36-5.25 5.25-5.25H9c.41 0 .75.34.75.75s-.34.75-.75.75H6.5c-2.07 0-3.75 1.68-3.75 3.75V9c0 .41-.34.75-.75.75s-.75-.34-.75-.75zM21.25 9V6.5c0-2.07-1.68-3.75-3.75-3.75H15c-.41 0-.75-.34-.75-.75s.34-.75.75-.75h2.5c2.89 0 5.25 2.35 5.25 5.25V9c0 .41-.34.75-.75.75s-.75-.34-.75-.75zM16 22.75c-.41 0-.75-.34-.75-.75s.34-.75.75-.75h1.5c2.07 0 3.75-1.68 3.75-3.75V16c0-.41.34-.75.75-.75s.75.34.75.75v1.5c0 2.9-2.36 5.25-5.25 5.25H16zM6.5 22.75c-2.89 0-5.25-2.35-5.25-5.25V15c0-.41.34-.75.75-.75s.75.34.75.75v2.5c0 2.07 1.68 3.75 3.75 3.75H9c.41 0 .75.34.75.75s-.34.75-.75.75H6.5z" fill-rule="nonzero"/>
        <path d="M5.25 8.5c0-1.79 1.46-3.25 3.25-3.25s3.25 1.46 3.25 3.25-1.46 3.25-3.25 3.25-3.25-1.46-3.25-3.25zm1.5 0c0 .96.79 1.75 1.75 1.75s1.75-.79 1.75-1.75-.79-1.75-1.75-1.75-1.75.79-1.75 1.75zM5.25 16.5c0-1.24 1.01-2.25 2.25-2.25s2.25 1.01 2.25 2.25-1.01 2.25-2.25 2.25-2.25-1.01-2.25-2.25zm1.5 0c0 .41.34.75.75.75s.75-.34.75-.75-.34-.75-.75-.75-.75.34-.75.75zM14.25 7.5c0-1.24 1.01-2.25 2.25-2.25s2.25 1.01 2.25 2.25-1.01 2.25-2.25 2.25-2.25-1.01-2.25-2.25zm1.5 0c0 .41.34.75.75.75s.75-.34.75-.75-.34-.75-.75-.75-.75.34-.75.75zM12.25 15.5c0-1.79 1.46-3.25 3.25-3.25s3.25 1.46 3.25 3.25-1.46 3.25-3.25 3.25-3.25-1.46-3.25-3.25zm1.5 0c0 .96.79 1.75 1.75 1.75s1.75-.79 1.75-1.75-.79-1.75-1.75-1.75-1.75.79-1.75 1.75z"/>
    </g>
</svg>
