<svg width="24" height="24" viewBox="0 0 24 24" xmlns="http://www.w3.org/2000/svg">
    <g fill="#292D32" fill-rule="evenodd">
        <path d="M6.95 20.75c-.22 0-.43-.1-.58-.27-.15-.17-.2-.4-.16-.62.02-.12.04-.24.04-.36 0-.96-.79-1.75-1.75-1.75-.12 0-.25.01-.36.04a.746.746 0 0 1-.89-.74V6.95c0-.22.1-.43.27-.58.17-.15.39-.2.62-.16.11.03.24.04.36.04.96 0 1.75-.79 1.75-1.75 0-.12-.01-.25-.04-.36a.746.746 0 0 1 .74-.89h10.1c.22 0 .43.1.58.27.15.17.2.4.16.62-.02.12-.04.24-.04.36 0 .96.79 1.75 1.75 1.75.12 0 .25-.01.36-.04a.746.746 0 0 1 .89.74v10.1c0 .22-.1.43-.27.58-.17.15-.4.2-.62.16-.12-.02-.24-.04-.36-.04-.96 0-1.75.79-1.75 1.75 0 .12.01.25.04.36.04.22-.02.45-.16.62-.14.17-.36.27-.58.27H6.95zm9.31-1.5c.12-1.59 1.4-2.87 2.99-2.99V7.74a3.257 3.257 0 0 1-2.99-2.99H7.74a3.257 3.257 0 0 1-2.99 2.99v8.52c1.59.12 2.87 1.4 2.99 2.99h8.52z"/>
        <path d="M3.86 7.69A3.263 3.263 0 0 1 1.25 4.5c0-1.79 1.46-3.25 3.25-3.25 1.54 0 2.88 1.09 3.19 2.6.04.22.06.43.06.65a3.256 3.256 0 0 1-3.89 3.19zM2.75 4.5c0 .83.59 1.55 1.4 1.71.1.03.23.04.35.04.96 0 1.75-.79 1.75-1.75 0-.12-.01-.25-.04-.36-.16-.8-.88-1.39-1.71-1.39-.96 0-1.75.79-1.75 1.75zM16.25 4.5c0-.22.02-.43.06-.64a3.263 3.263 0 0 1 3.19-2.61c1.79 0 3.25 1.46 3.25 3.25 0 1.54-1.09 2.88-2.6 3.19-.22.04-.43.06-.65.06-1.79 0-3.25-1.46-3.25-3.25zm1.54-.35c-.02.11-.04.23-.04.35 0 .96.79 1.75 1.75 1.75.12 0 .25-.01.36-.04.8-.16 1.39-.88 1.39-1.71 0-.96-.79-1.75-1.75-1.75-.83 0-1.55.59-1.71 1.4zM1.25 19.5c0-1.54 1.09-2.88 2.6-3.19.21-.04.43-.06.65-.06a3.256 3.256 0 0 1 3.19 3.89 3.263 3.263 0 0 1-3.19 2.61c-1.79 0-3.25-1.46-3.25-3.25zm2.89-1.71c-.8.16-1.39.88-1.39 1.71 0 .96.79 1.75 1.75 1.75.83 0 1.55-.59 1.71-1.4.02-.11.04-.23.04-.35 0-.96-.79-1.75-1.75-1.75-.12 0-.25.01-.36.04zM16.31 20.15c-.04-.21-.06-.43-.06-.65a3.256 3.256 0 0 1 3.89-3.19c1.52.31 2.61 1.65 2.61 3.19 0 1.79-1.46 3.25-3.25 3.25-1.54 0-2.88-1.09-3.19-2.6zm1.44-.65c0 .12.01.25.04.36.16.8.88 1.39 1.71 1.39.96 0 1.75-.79 1.75-1.75 0-.83-.59-1.55-1.4-1.71-.1-.03-.23-.04-.35-.04-.96 0-1.75.79-1.75 1.75z"/>
    </g>
</svg>
