<svg width="24" height="24" viewBox="0 0 24 24" xmlns="http://www.w3.org/2000/svg">
    <g fill="#292D32" fill-rule="evenodd">
        <path d="M16.77 2c-2.18 0-3.33 1.15-3.33 3.33v1.9c0 2.18 1.15 3.33 3.33 3.33h1.9c2.18 0 3.33-1.15 3.33-3.33v-1.9C22 3.15 20.85 2 18.67 2h-1.9zM5.34 13.43C3.15 13.43 2 14.58 2 16.76v1.9C2 20.85 3.15 22 5.33 22h1.9c2.18 0 3.33-1.15 3.33-3.33v-1.9c.01-2.19-1.14-3.34-3.32-3.34h-1.9z" fill-rule="nonzero"/>
        <path d="M6.29 10.58a4.29 4.29 0 1 1 0-8.58 4.29 4.29 0 0 1 0 8.58zM17.71 22.002a4.29 4.29 0 1 1 0-8.58 4.29 4.29 0 0 1 0 8.58z"/>
    </g>
</svg>
