<svg width="24" height="24" viewBox="0 0 24 24" xmlns="http://www.w3.org/2000/svg">
    <g fill="#292D32" fill-rule="evenodd">
        <path d="M19.1 4.43c-.47-.14-.99-.21-1.52-.21h-3.3a.5.5 0 0 1-.4-.2l-1.15-1.53a5.98 5.98 0 0 0-.39-.49h3.38c1.81 0 3.37 1.09 4.04 2.65-.22-.1-.44-.17-.66-.22z" fill-rule="nonzero"/>
        <path d="M18.69 5.87c-.36-.1-.73-.15-1.11-.15h-3.72c-.58 0-.62-.05-.93-.46l-1.4-1.86C10.88 2.53 10.37 2 8.74 2H6.42C3.98 2 2 3.98 2 6.42v11.16C2 20.02 3.98 22 6.42 22h11.16c2.44 0 4.42-1.98 4.42-4.42v-7.44c0-1.49-.73-2.8-1.86-3.6a4.18 4.18 0 0 0-1.45-.67zM9.6 16.34c-.39 0-.69-.31-.69-.7 0-.38.3-.7.69-.7h4.79c.39 0 .7.32.7.7 0 .39-.31.7-.7.7H9.6z"/>
    </g>
</svg>
