<svg width="24" height="24" viewBox="0 0 24 24" xmlns="http://www.w3.org/2000/svg">
    <g fill="#292D32" fill-rule="evenodd">
        <path d="M12 20.75c-.41 0-.75-.34-.75-.75s.34-.75.75-.75h5c2.86 0 4.25-1.39 4.25-4.25V9c0-2.86-1.39-4.25-4.25-4.25H7C4.14 4.75 2.75 6.14 2.75 9v2c0 .41-.34.75-.75.75s-.75-.34-.75-.75V9c0-3.65 2.1-5.75 5.75-5.75h10c3.65 0 5.75 2.1 5.75 5.75v6c0 3.65-2.1 5.75-5.75 5.75h-5z" fill-rule="nonzero"/>
        <path d="M8.75 12c0-1.79 1.46-3.25 3.25-3.25s3.25 1.46 3.25 3.25-1.46 3.25-3.25 3.25S8.75 13.79 8.75 12zm1.5 0c0 .96.79 1.75 1.75 1.75s1.75-.79 1.75-1.75-.79-1.75-1.75-1.75-1.75.79-1.75 1.75z"/>
        <path d="M17.75 14.5v-5c0-.41.34-.75.75-.75s.75.34.75.75v5c0 .41-.34.75-.75.75s-.75-.34-.75-.75zM7.75 17.94v-1.28c0-.22-.18-.41-.41-.41H2c-.41 0-.75-.34-.75-.75s.34-.75.75-.75h5.34c1.05 0 1.91.86 1.91 1.91v1.28c0 .41-.34.75-.75.75s-.75-.34-.75-.75z" fill-rule="nonzero"/>
        <path d="m2.69 17.25-1.22-1.22a.755.755 0 0 1 0-1.06l1.22-1.22c.29-.29.77-.29 1.06 0 .29.29.29.77 0 1.06l-.69.69.69.69c.29.29.29.77 0 1.06-.15.15-.34.22-.53.22s-.38-.07-.53-.22zM3.16 21.53c-1.05 0-1.91-.86-1.91-1.91v-1.28c0-.41.34-.75.75-.75s.75.34.75.75v1.28c0 .22.18.41.41.41H8.5c.41 0 .75.34.75.75s-.34.75-.75.75H3.16z" fill-rule="nonzero"/>
        <path d="M6.749 22.53a.755.755 0 0 1 0-1.06l.69-.69-.69-.69a.754.754 0 0 1 0-1.06c.29-.29.77-.29 1.06 0l1.22 1.22c.29.29.29.77 0 1.06l-1.22 1.22c-.14.15-.34.22-.53.22s-.38-.07-.53-.22z" fill-rule="nonzero"/>
    </g>
</svg>
