<svg width="24" height="24" viewBox="0 0 24 24" xmlns="http://www.w3.org/2000/svg">
    <g fill="#292D32" fill-rule="nonzero">
        <path d="M1.25 12c0-3.58 2.92-6.5 6.5-6.5.41 0 .75.34.75.75S8.16 7 7.75 7c-2.76 0-5 2.24-5 5s2.24 5 5 5 5-2.24 5-5c0-.41.34-.75.75-.75s.75.34.75.75c0 3.58-2.92 6.5-6.5 6.5s-6.5-2.92-6.5-6.5z"/>
        <path d="M15.25 18c0-.41.34-.75.75-.75 2.89 0 5.25-2.36 5.25-5.25S18.89 6.75 16 6.75 10.75 9.11 10.75 12c0 .41-.34.75-.75.75s-.75-.34-.75-.75c0-3.72 3.03-6.75 6.75-6.75s6.75 3.03 6.75 6.75-3.03 6.75-6.75 6.75c-.41 0-.75-.34-.75-.75z"/>
    </g>
</svg>
