<svg width="24" height="24" viewBox="0 0 24 24" xmlns="http://www.w3.org/2000/svg">
    <g fill="#292D32" fill-rule="evenodd">
        <path d="M8.19 16.78c-1.07 0-1.94-.87-1.94-1.94v-2.67c0-.41.34-.75.75-.75h2.68c1.09 0 1.94.85 1.94 1.94v1.49a1.933 1.933 0 0 1-1.94 1.93H8.19zm-.44-1.95c0 .24.2.44.44.44h1.49c.32 0 .44-.24.44-.44v-1.49c0-.2-.11-.44-.44-.44H7.75v1.93z"/>
        <path d="M6.25 12.16c0-3.08.67-3.77 2.46-4.83a.76.76 0 0 1 1.03.26c.21.35.09.82-.26 1.03-1.36.81-1.73 1.02-1.73 3.54a.749.749 0 1 1-1.5 0z" fill-rule="nonzero"/>
        <path d="M14.319 16.78c-1.07 0-1.94-.87-1.94-1.94v-2.67c0-.41.34-.75.75-.75h2.68c1.09 0 1.94.85 1.94 1.94v1.49c0 1.07-.85 1.93-1.94 1.93h-1.49zm-.43-1.95c0 .24.2.44.44.44h1.49c.32 0 .44-.24.44-.44v-1.49c0-.2-.11-.44-.44-.44h-1.93v1.93z"/>
        <path d="M12.39 12.16c0-3.08.67-3.77 2.46-4.83.36-.21.82-.09 1.03.26.21.36.09.82-.26 1.03-1.36.81-1.73 1.02-1.73 3.54a.749.749 0 1 1-1.5 0z" fill-rule="nonzero"/>
        <path d="M1.25 12C1.25 6.07 6.07 1.25 12 1.25S22.75 6.07 22.75 12 17.93 22.75 12 22.75 1.25 17.93 1.25 12zm1.5 0c0 5.1 4.15 9.25 9.25 9.25s9.25-4.15 9.25-9.25S17.1 2.75 12 2.75 2.75 6.9 2.75 12z"/>
    </g>
</svg>
