<svg width="24" height="24" viewBox="0 0 24 24" xmlns="http://www.w3.org/2000/svg">
    <g fill="#292D32" fill-rule="evenodd">
        <path d="M8 16.75c-.41 0-.75-.34-.75-.75V8c0-.41.34-.75.75-.75h8c.41 0 .75.34.75.75v8c0 .41-.34.75-.75.75H8zm7.25-1.5v-6.5h-6.5v6.5h6.5z"/>
        <path d="M1.25 19c0-2.07 1.68-3.75 3.75-3.75h3c.41 0 .75.34.75.75v3c0 2.07-1.68 3.75-3.75 3.75-2.07 0-3.75-1.68-3.75-3.75zm1.5 0c0 1.24 1.01 2.25 2.25 2.25S7.25 20.24 7.25 19v-2.25H5c-1.24 0-2.25 1.01-2.25 2.25zM5 8.75C2.93 8.75 1.25 7.07 1.25 5c0-2.07 1.68-3.75 3.75-3.75 2.07 0 3.75 1.68 3.75 3.75v3c0 .41-.34.75-.75.75H5zM2.75 5c0 1.24 1.01 2.25 2.25 2.25h2.25V5c0-1.24-1.01-2.25-2.25-2.25S2.75 3.76 2.75 5zM16 8.75c-.41 0-.75-.34-.75-.75V5c0-2.07 1.68-3.75 3.75-3.75 2.07 0 3.75 1.68 3.75 3.75 0 2.07-1.68 3.75-3.75 3.75h-3zm3-1.5c1.24 0 2.25-1.01 2.25-2.25S20.24 2.75 19 2.75 16.75 3.76 16.75 5v2.25H19zM15.25 19v-3c0-.41.34-.75.75-.75h3c2.07 0 3.75 1.68 3.75 3.75 0 2.07-1.68 3.75-3.75 3.75-2.07 0-3.75-1.68-3.75-3.75zm1.5 0c0 1.24 1.01 2.25 2.25 2.25s2.25-1.01 2.25-2.25-1.01-2.25-2.25-2.25h-2.25V19z"/>
    </g>
</svg>
