<svg width="24" height="24" viewBox="0 0 24 24" xmlns="http://www.w3.org/2000/svg">
    <g fill="#292D32" fill-rule="evenodd">
        <path d="M14.93 15.73a.751.751 0 0 1-.7-.69c-.22-2.79-2.49-5.05-5.27-5.27a.751.751 0 0 1-.69-.7c-.01-.19-.02-.38-.02-.57 0-4 3.25-7.25 7.25-7.25s7.25 3.25 7.25 7.25a7.255 7.255 0 0 1-7.82 7.23zm.71-1.48a5.755 5.755 0 0 0 5.61-5.75c0-3.17-2.58-5.75-5.75-5.75-3.12 0-5.67 2.5-5.75 5.61 2.98.52 5.37 2.91 5.89 5.89z"/>
        <path d="M1.25 15.5a7.255 7.255 0 0 1 7.82-7.23c3.53.28 6.39 3.14 6.66 6.65.01.2.02.39.02.58 0 4-3.25 7.25-7.25 7.25S1.25 19.5 1.25 15.5zm1.5 0c0 3.17 2.58 5.75 5.75 5.75a5.757 5.757 0 0 0 5.73-6.22c-.22-2.77-2.48-5.04-5.27-5.26a5.757 5.757 0 0 0-6.21 5.73zM2.33 7.21c-.66-.27-1.08-.91-1.08-1.62V3c0-.96.79-1.75 1.75-1.75h2.59a1.752 1.752 0 0 1 1.24 2.99L4.24 6.83a1.774 1.774 0 0 1-1.91.38zM2.75 3v2.59c0 .15.1.21.15.23.06.02.17.05.27-.05l2.59-2.59c.1-.1.08-.21.05-.27-.03-.06-.09-.15-.23-.15H3v-.01c-.14 0-.25.11-.25.25zM18.409 22.75a1.752 1.752 0 0 1-1.24-2.99l2.59-2.59c.5-.5 1.25-.65 1.91-.38.66.27 1.08.91 1.08 1.62V21c0 .96-.79 1.75-1.75 1.75h-2.59zm2.41-4.51-2.59 2.59c-.1.1-.08.21-.05.27.03.06.09.15.23.15h2.59c.14 0 .25-.11.25-.25v-2.59c0-.15-.1-.21-.15-.23a.36.36 0 0 0-.11-.02.24.24 0 0 0-.17.08z"/>
    </g>
</svg>
