<svg width="24" height="24" viewBox="0 0 24 24" xmlns="http://www.w3.org/2000/svg">
    <g fill="#292D32" fill-rule="evenodd">
        <path d="M2 21.25c-.41 0-.75.34-.75.75s.34.75.75.75h20c.41 0 .75-.34.75-.75s-.34-.75-.75-.75H2z" fill-rule="nonzero"/>
        <path d="M7 2C4 2 3 3.79 3 6v16h6v-6.06c0-.52.42-.94.94-.94h4.13c.51 0 .94.42.94.94V22h6V6C21 3.79 20 2 17 2H7zm5.75 7.25V11c0 .41-.34.75-.75.75s-.75-.34-.75-.75V9.25H9.5c-.41 0-.75-.34-.75-.75s.34-.75.75-.75h1.75V6c0-.41.34-.75.75-.75s.75.34.75.75v1.75h1.75c.41 0 .75.34.75.75s-.34.75-.75.75h-1.75z"/>
    </g>
</svg>
