<svg width="24" height="24" viewBox="0 0 24 24" xmlns="http://www.w3.org/2000/svg">
    <g fill="#292D32" fill-rule="evenodd">
        <path d="M9 22.75c-2.75 0-4.75-2-4.75-4.75V6c0-2.75 2-4.75 4.75-4.75h6c2.75 0 4.75 2 4.75 4.75v12c0 2.75-2 4.75-4.75 4.75H9zM5.75 6v12c0 1.62 1 3.25 3.25 3.25h6c2.25 0 3.25-1.63 3.25-3.25V6c0-1.62-1-3.25-3.25-3.25H9C6.75 2.75 5.75 4.38 5.75 6z"/>
        <path d="M5 16.76c-.41 0-.75-.34-.75-.75s.34-.75.75-.75h14c.41 0 .75.34.75.75s-.34.75-.75.75H5zM1.25 20V4c0-.41.34-.75.75-.75s.75.34.75.75v16c0 .41-.34.75-.75.75s-.75-.34-.75-.75zM21.25 20V4c0-.41.34-.75.75-.75s.75.34.75.75v16c0 .41-.34.75-.75.75s-.75-.34-.75-.75z" fill-rule="nonzero"/>
    </g>
</svg>
