<svg width="24" height="24" viewBox="0 0 24 24" xmlns="http://www.w3.org/2000/svg">
    <g fill="#292D32" fill-rule="evenodd">
        <path d="m16.04 19.64-8.29-4.78A3.284 3.284 0 0 1 6.1 12c0-1.19.62-2.26 1.65-2.86l8.29-4.78c1.03-.6 2.26-.6 3.3 0s1.65 1.66 1.65 2.86v9.57c0 1.19-.62 2.26-1.65 2.86-.52.29-1.08.44-1.65.44-.57 0-1.13-.15-1.65-.45zm.75-13.99L8.5 10.43c-.56.33-.9.91-.9 1.56s.34 1.23.9 1.56l8.29 4.78c.56.33 1.24.33 1.8 0s.9-.91.9-1.56V7.2c0-.65-.34-1.23-.9-1.56-.28-.14-.59-.23-.9-.23-.31 0-.62.08-.9.24z"/>
        <path d="M3.01 18.18V5.82c0-.41.34-.75.75-.75s.75.34.75.75v12.36c0 .41-.34.75-.75.75s-.75-.34-.75-.75z" fill-rule="nonzero"/>
    </g>
</svg>
