<svg width="24" height="24" viewBox="0 0 24 24" xmlns="http://www.w3.org/2000/svg">
    <g fill="#292D32" fill-rule="nonzero">
        <path d="M12.75 9.898v5.48c0 .41-.34.75-.75.75s-.75-.34-.75-.75v-5.48H2.86c-.48 0-.86.38-.86.86 0 5.89 4.11 10 10 10s10-4.11 10-10c0-.48-.38-.86-.86-.86h-8.39z"/>
        <path d="M14.308 7.36c.29.29.77.29 1.06 0 .29-.29.29-.77 0-1.06l-2.85-2.84a.754.754 0 0 0-1.06 0l-2.84 2.85c-.14.15-.22.34-.22.53s.07.38.22.53c.29.29.77.29 1.06 0l1.56-1.56V9.9h1.5V5.8h.01l1.56 1.56z"/>
    </g>
</svg>
