<svg width="24" height="24" viewBox="0 0 24 24" xmlns="http://www.w3.org/2000/svg">
    <path d="M2 12c0 5.52 4.48 10 10 10s10-4.48 10-10S17.52 2 12 2 2 6.48 2 12zm8.21-2.86c0 .81-.66 1.48-1.48 1.48-.81 0-1.48-.66-1.48-1.48s.66-1.48 1.48-1.48c.81 0 1.48.66 1.48 1.48zm-1.89 6.88c-.19 0-.38-.07-.53-.22a.754.754 0 0 1 0-1.06l6.55-6.55c.29-.29.77-.29 1.06 0 .29.29.29.77 0 1.06L8.85 15.8c-.15.15-.34.22-.53.22zm5.47-1.16c0-.81.66-1.48 1.48-1.48.81 0 1.48.66 1.48 1.48s-.66 1.48-1.48 1.48c-.81 0-1.48-.66-1.48-1.48z" fill="#292D32" fill-rule="evenodd"/>
</svg>
