<svg width="24" height="24" viewBox="0 0 24 24" xmlns="http://www.w3.org/2000/svg">
    <g fill="#292D32" fill-rule="nonzero">
        <path d="M14 5.25c-.41 0-.75-.34-.75-.75s.34-.75.75-.75h7c.41 0 .75.34.75.75s-.34.75-.75.75h-7zM14 10.25c-.41 0-.75-.34-.75-.75s.34-.75.75-.75h7c.41 0 .75.34.75.75s-.34.75-.75.75h-7zM3 15.25c-.41 0-.75-.34-.75-.75s.34-.75.75-.75h18c.41 0 .75.34.75.75s-.34.75-.75.75H3zM3 20.25c-.41 0-.75-.34-.75-.75s.34-.75.75-.75h18c.41 0 .75.34.75.75s-.34.75-.75.75H3zM5.08 3.5C3.68 3.5 3 4.18 3 5.58v2.85c0 1.4.68 2.08 2.08 2.08h2.85c1.4 0 2.08-.68 2.08-2.08V5.58C10 4.18 9.32 3.5 7.92 3.5H5.08z"/>
    </g>
</svg>
