<svg width="24" height="24" viewBox="0 0 24 24" xmlns="http://www.w3.org/2000/svg">
    <g fill="#292D32" fill-rule="evenodd">
        <path d="M6.98 20.25C4.97 20.25 4 19.32 4 17.4V6.6c0-1.92.98-2.85 2.98-2.85h1.04c2 0 2.98.93 2.98 2.85v10.8c0 1.92-.98 2.85-2.98 2.85H6.98zM5.5 6.6v10.8c0 1.01.21 1.35 1.48 1.35h1.04c1.27 0 1.48-.34 1.48-1.35V6.6c0-1.01-.21-1.35-1.48-1.35H6.98c-1.27 0-1.48.34-1.48 1.35zM15.48 18.25c-2.01 0-2.98-.93-2.98-2.85V8.6c0-1.92.98-2.85 2.98-2.85h1.04c2.01 0 2.98.93 2.98 2.85v6.8c0 1.92-.98 2.85-2.98 2.85h-1.04zM14 8.6v6.8c0 1.01.21 1.35 1.48 1.35h1.04c1.27 0 1.48-.34 1.48-1.35V8.6c0-1.01-.21-1.35-1.48-1.35h-1.04c-1.27 0-1.48.34-1.48 1.35z"/>
        <path d="M2 12.75a.749.749 0 1 1 0-1.5h2.4a.749.749 0 1 1 0 1.5H2zM11 12.75c-.41 0-.75-.34-.75-.75s.34-.75.75-.75h2c.41 0 .75.34.75.75s-.34.75-.75.75h-2zM19.3 12.75c-.41 0-.75-.34-.75-.75s.34-.75.75-.75H22a.749.749 0 1 1 0 1.5h-2.7z" fill-rule="nonzero"/>
    </g>
</svg>
