<svg width="24" height="24" viewBox="0 0 24 24" xmlns="http://www.w3.org/2000/svg">
    <g fill="#292D32" fill-rule="nonzero">
        <path d="M20.25 9V3.75H15c-.41 0-.75-.34-.75-.75s.34-.75.75-.75h6c.41 0 .75.34.75.75v6c0 .41-.34.75-.75.75s-.75-.34-.75-.75zM3 21.75c-.41 0-.75-.34-.75-.75v-6c0-.41.34-.75.75-.75s.75.34.75.75v5.25H9c.41 0 .75.34.75.75s-.34.75-.75.75H3z"/>
        <path d="M12.97 11.03a.754.754 0 0 1 0-1.06l7.5-7.5c.29-.29.77-.29 1.06 0 .29.29.29.77 0 1.06l-7.5 7.5c-.15.15-.34.22-.53.22s-.38-.07-.53-.22zM2.47 21.53a.754.754 0 0 1 0-1.06l7.5-7.5c.29-.29.77-.29 1.06 0 .29.29.29.77 0 1.06l-7.5 7.5c-.15.15-.34.22-.53.22s-.38-.07-.53-.22z"/>
    </g>
</svg>
