<svg width="24" height="24" viewBox="0 0 24 24" xmlns="http://www.w3.org/2000/svg">
    <g fill="#292D32" fill-rule="evenodd">
        <path d="M9 22.75c-5.43 0-7.75-2.32-7.75-7.75V9c0-5.43 2.32-7.75 7.75-7.75h6c5.43 0 7.75 2.32 7.75 7.75v6c0 5.43-2.32 7.75-7.75 7.75H9zM2.75 9v6c0 4.61 1.64 6.25 6.25 6.25h6c4.61 0 6.25-1.64 6.25-6.25V9c0-4.61-1.64-6.25-6.25-6.25H9C4.39 2.75 2.75 4.39 2.75 9z"/>
        <path d="M13.25 8.25C13.25 7.01 14.26 6 15.5 6s2.25 1.01 2.25 2.25-1.01 2.25-2.25 2.25-2.25-1.01-2.25-2.25zm1.5 0c0 .41.34.75.75.75s.75-.34.75-.75-.34-.75-.75-.75-.75.34-.75.75zM6.25 8.25C6.25 7.01 7.26 6 8.5 6s2.25 1.01 2.25 2.25S9.74 10.5 8.5 10.5 6.25 9.49 6.25 8.25zm1.5 0c0 .41.34.75.75.75s.75-.34.75-.75-.34-.75-.75-.75-.75.34-.75.75zM6.75 14.2c0-.91.74-1.65 1.65-1.65h7.2c.91 0 1.65.74 1.65 1.65 0 2.89-2.35 5.25-5.25 5.25s-5.25-2.36-5.25-5.25zm1.5 0c0 2.07 1.68 3.75 3.75 3.75 2.07 0 3.75-1.68 3.75-3.75 0-.08-.07-.15-.15-.15H8.4c-.08 0-.15.07-.15.15z"/>
    </g>
</svg>
