<svg width="24" height="24" viewBox="0 0 24 24" xmlns="http://www.w3.org/2000/svg">
    <g fill="#292D32" fill-rule="evenodd">
        <path d="M7 16.531c0 .74.16 1.44.46 2.06.08.18.17.35.27.51a4.961 4.961 0 0 0 4.27 2.43c1.82 0 3.41-.98 4.27-2.43.1-.16.19-.33.27-.51.3-.62.46-1.32.46-2.06 0-2.76-2.24-5-5-5s-5 2.24-5 5zm4.94 1.54c-.14.13-.33.2-.51.2-.19 0-.38-.07-.53-.22l-.99-.99a.754.754 0 0 1 0-1.06c.29-.29.77-.29 1.06 0l.48.48 1.6-1.48c.31-.28.78-.26 1.06.04s.26.77-.04 1.06l-2.13 1.97z"/>
        <path d="M19.03 17.881c-.36.18-.72-.17-.66-.57.04-.29.06-.59.06-.9 0-3.58-2.92-6.5-6.5-6.5s-6.5 2.92-6.5 6.5c0 .46.05.9.14 1.33.07.35-.2.7-.55.61-3.95-.96-3.97-7.04.45-7.35h.05c-3.21-8.93 10.33-12.5 11.88-3.12 4.33.55 6.08 6.32 2.8 9.19-.36.32-.75.59-1.17.81z" fill-rule="nonzero"/>
    </g>
</svg>
