<?xml version="1.0" encoding="UTF-8"?>
<svg width="24px" height="24px" viewBox="0 0 24 24" version="1.1" xmlns="http://www.w3.org/2000/svg" xmlns:xlink="http://www.w3.org/1999/xlink">
    <title>3E98A34A-950E-4C3A-B2EF-E0C08EDBF74D</title>
    <g id="Outline-Icons" stroke="none" stroke-width="1" fill="none" fill-rule="evenodd">
        <g id="Essetional" transform="translate(-300.000000, -508.000000)">
            <g id="3dcube" transform="translate(300.000000, 508.000000)">
                <path d="M10.7200003,11.9300976 L4.21000004,8.42009783 C3.62000006,8.10009784 3.25,7.47009772 3.25,6.77009773 C3.25,6.07009774 3.62000006,5.44009763 4.21000004,5.12009764 L10.7200003,1.61009765 C11.5200003,1.18009764 12.4800004,1.18009764 13.2700005,1.61009765 L19.7800007,5.12009764 C20.3700007,5.44009763 20.7399998,6.07009774 20.7399998,6.77009773 C20.7399998,7.47009772 20.3700007,8.10009784 19.7800007,8.42009783 L13.2700005,11.9300976 C12.8800005,12.1500976 12.44,12.2500973 12,12.2500973 C11.56,12.2500973 11.1200003,12.1400976 10.7200003,11.9300976 Z M11.4300003,2.9300977 L4.92999983,6.43009758 C4.75999983,6.52009758 4.75,6.71009773 4.75,6.77009773 C4.75,6.83009773 4.75999983,7.02009766 4.92999983,7.10009766 L11.4399996,10.6100969 C11.7999996,10.8000969 12.2099997,10.8000969 12.5699997,10.6100969 L19.0799999,7.10009766 C19.2399999,7.01009765 19.2600002,6.82009773 19.2600002,6.77009773 C19.2600002,6.71009773 19.25,6.52009781 19.0799999,6.44009781 L12.5699997,2.9300977 C12.3899997,2.8300977 12.19,2.7800976 12,2.7800976 C11.81,2.7800976 11.6100003,2.8300977 11.4300003,2.9300977 Z" id="Vector" fill="#292D32"></path>
                <path d="M8.94999981,22.5200129 L2.8900001,19.5000124 C1.88000011,18.9900124 1.25,17.970013 1.25,16.840013 L1.25,11.1200125 C1.25,10.4700125 1.5800001,9.8800126 2.13000011,9.5400126 C2.69000012,9.20001259 3.36000007,9.1700127 3.94000006,9.46001269 L10,12.4800122 C11.01,12.9900122 11.6400003,14.0000132 11.6400003,15.1400132 L11.6400003,20.860013 C11.6400003,21.510013 11.3100002,22.1000129 10.7600002,22.4400129 C10.4600002,22.6300129 10.1199997,22.7200117 9.77999973,22.7200117 C9.49999973,22.7200117 9.2099998,22.6500129 8.94999981,22.5200129 Z M2.92000008,10.8100131 C2.86000008,10.8500131 2.75,10.9400125 2.75,11.1200125 L2.75,16.840013 C2.75,17.400013 3.05999994,17.9100122 3.55999994,18.1600122 L9.60999966,21.1900129 C9.76999965,21.2700129 9.90000004,21.2100127 9.96000004,21.1800127 C10.02,21.1400127 10.1300001,21.0500132 10.1300001,20.8700132 L10.1300001,15.1500125 C10.1300001,14.5900125 9.81999969,14.0800128 9.31999969,13.8300128 L3.26999998,10.8000128 C3.20999998,10.7700128 3.1599999,10.7600129 3.1099999,10.7600129 C3.0299999,10.7600129 2.96000008,10.7900131 2.92000008,10.8100131 Z" id="Vector" fill="#292D32"></path>
                <path d="M13.2393751,22.4400034 C12.6893751,22.1000034 12.359375,21.5100034 12.359375,20.8600035 L12.359375,15.1400037 C12.359375,14.0100037 12.9893754,12.9900026 13.9993753,12.4800026 L20.0493746,9.45000292 C20.6293746,9.16000293 21.3093759,9.19000283 21.859375,9.53000283 C22.409376,9.87000284 22.7393751,10.4600028 22.7393751,11.1100028 L22.7393751,16.8300033 C22.7393751,17.9600033 22.1093757,18.9800026 21.0993757,19.4900026 L15.0493755,22.5200033 C14.7893755,22.6600033 14.4993756,22.7200022 14.2193756,22.7200022 C13.8793756,22.7200022 13.5393751,22.6300034 13.2393751,22.4400034 Z M20.7293749,10.8000033 L14.6793756,13.8300033 C14.1793756,14.0800033 13.8693752,14.580003 13.8693752,15.150003 L13.8693752,20.8700037 C13.8693752,21.0500037 13.9793753,21.1400032 14.0393753,21.1800032 C14.0993753,21.2200032 14.2293757,21.2700034 14.3893757,21.1900034 L20.4393759,18.1600027 C20.9393759,17.9100027 21.2493753,17.4000035 21.2493753,16.8400035 L21.2493753,11.120003 C21.2493753,10.940003 21.1393753,10.8500035 21.0793753,10.8100035 C21.0393753,10.7900035 20.9693747,10.7600033 20.8893747,10.7600033 C20.8393747,10.7600033 20.7893749,10.7700033 20.7293749,10.8000033 Z" id="Vector" fill="#292D32"></path>
                <path d="M24,0 L24,24 L0,24 L0,0 L24,0 Z" id="Vector" opacity="0"></path>
            </g>
        </g>
    </g>
</svg>