<svg width="24" height="24" viewBox="0 0 24 24" xmlns="http://www.w3.org/2000/svg">
    <g fill="#292D32" fill-rule="evenodd">
        <path d="M15 18.25c-.41 0-.75-.34-.75-.75s.34-.75.75-.75h7c.41 0 .75.34.75.75s-.34.75-.75.75h-7zM2 18.25c-.41 0-.75-.34-.75-.75s.34-.75.75-.75h3c.41 0 .75.34.75.75s-.34.75-.75.75H2zM19 7.25c-.41 0-.75-.34-.75-.75s.34-.75.75-.75h3c.41 0 .75.34.75.75s-.34.75-.75.75h-3zM2 7.25c-.41 0-.75-.34-.75-.75s.34-.75.75-.75h7c.41 0 .75.34.75.75s-.34.75-.75.75H2z" fill-rule="nonzero"/>
        <path d="M7 21.25c-1.72 0-2.75-1.03-2.75-2.75v-2c0-1.72 1.03-2.75 2.75-2.75h6c1.72 0 2.75 1.03 2.75 2.75v2c0 1.72-1.03 2.75-2.75 2.75H7zM5.75 16.5v2c0 .89.36 1.25 1.25 1.25h6c.89 0 1.25-.36 1.25-1.25v-2c0-.89-.36-1.25-1.25-1.25H7c-.89 0-1.25.36-1.25 1.25zM11 10.25c-1.72 0-2.75-1.03-2.75-2.75v-2c0-1.72 1.03-2.75 2.75-2.75h6c1.72 0 2.75 1.03 2.75 2.75v2c0 1.72-1.03 2.75-2.75 2.75h-6zM9.75 5.5v2c0 .89.36 1.25 1.25 1.25h6c.89 0 1.25-.36 1.25-1.25v-2c0-.89-.36-1.25-1.25-1.25h-6c-.89 0-1.25.36-1.25 1.25z"/>
    </g>
</svg>
