<svg width="24" height="24" viewBox="0 0 24 24" xmlns="http://www.w3.org/2000/svg">
    <g fill="#292D32" fill-rule="nonzero">
        <path d="M9.92 7.25 6.73 4.06 3.54 7.25c-.29.29-.77.29-1.06 0a.754.754 0 0 1 0-1.06L6.2 2.47a.75.75 0 0 1 1.06 0l3.72 3.72c.29.29.29.77 0 1.06-.15.15-.34.22-.53.22s-.38-.07-.53-.22z"/>
        <path d="M5.98 21V3c0-.41.34-.75.75-.75s.75.34.75.75v18c0 .41-.34.75-.75.75s-.75-.34-.75-.75zM16.75 21.53l-3.72-3.72a.754.754 0 0 1 0-1.06c.29-.29.77-.29 1.06 0l3.19 3.19 3.19-3.19c.29-.29.77-.29 1.06 0 .29.29.29.77 0 1.06l-3.72 3.72a.75.75 0 0 1-1.06 0z"/>
        <path d="M16.52 21V3c0-.41.34-.75.75-.75s.75.34.75.75v18a.749.749 0 1 1-1.5 0z"/>
    </g>
</svg>
