<svg width="24" height="24" viewBox="0 0 24 24" xmlns="http://www.w3.org/2000/svg">
    <g fill="#292D32" fill-rule="evenodd">
        <path d="M9.317 19.75c-1.16 0-2.17-.7-2.57-1.78-.41-1.08-.11-2.27.76-3.04l7.99-6.99c.48-.42.49-.99.35-1.38-.15-.39-.53-.81-1.17-.81h-2.68c-.41 0-.75-.34-.75-.75s.34-.75.75-.75h2.68c1.16 0 2.17.7 2.57 1.78.41 1.08.11 2.27-.76 3.04l-7.99 6.99c-.48.42-.49.99-.35 1.38.15.39.53.81 1.17.81h2.68c.41 0 .75.34.75.75s-.34.75-.75.75h-2.68z" fill-rule="nonzero"/>
        <path d="M17 15c-1.1 0-2 .9-2 2v3c0 1.1.9 2 2 2h3c1.1 0 2-.9 2-2v-3c0-1.1-.9-2-2-2h-3zm.51 3.5c0-.55.44-1 1-1h.01c.55 0 1 .45 1 1a1.005 1.005 0 0 1-2.01 0zM1.969 5.5c0 1.93 1.57 3.5 3.5 3.5s3.5-1.57 3.5-3.5S7.409 2 5.469 2c-1.93 0-3.5 1.57-3.5 3.5zm2.54 0c0-.55.44-1 1-1h.01c.55 0 1 .45 1 1a1.005 1.005 0 0 1-2.01 0z"/>
    </g>
</svg>
