<?xml version="1.0" encoding="UTF-8"?>
<svg width="24px" height="24px" viewBox="0 0 24 24" version="1.1" xmlns="http://www.w3.org/2000/svg" xmlns:xlink="http://www.w3.org/1999/xlink">
    <title>25049396-1EAB-4676-A272-2CEAC7F6747C</title>
    <g id="Outline-Icons" stroke="none" stroke-width="1" fill="none" fill-rule="evenodd">
        <g id="Essetional" transform="translate(-300.000000, -572.000000)">
            <g id="box-2" transform="translate(300.000000, 572.000000)">
                <path d="M11.8293762,22.7300377 C11.7693762,22.7200377 11.7093759,22.6900456 11.6493759,22.6600456 L9.43937683,21.5600395 C9.06937683,21.3700395 8.91937286,20.920045 9.09937286,20.550045 C9.28937286,20.180045 9.739375,20.0300487 10.109375,20.2100487 L11.2493744,20.7800407 L11.2493744,19.2200432 C11.2493744,18.8100432 11.5893744,18.4700432 11.9993744,18.4700432 C12.4093744,18.4700432 12.7493744,18.8100432 12.7493744,19.2200432 L12.7493744,20.7800407 L13.8893738,20.2100487 C14.2593738,20.0300487 14.7093759,20.180045 14.8993759,20.550045 C15.0893759,20.920045 14.9393719,21.3700395 14.5593719,21.5600395 L12.3493729,22.6600456 C12.2893729,22.6900456 12.2293726,22.7100377 12.1693726,22.7300377 C12.1093726,22.7400377 12.0593744,22.750042 11.9993744,22.750042 C11.9393744,22.750042 11.8793762,22.7400377 11.8293762,22.7300377 Z M17.9993744,19.0100365 C17.8093744,18.6400365 17.9593707,18.190042 18.3393707,18.000042 L20.1493759,17.1000481 L20.1493759,14.7900352 C20.1493759,14.3800353 20.4893759,14.0400352 20.8993759,14.0400352 C21.3093759,14.0400352 21.6493759,14.3800353 21.6493759,14.7900352 L21.6493759,17.5700493 C21.6493759,17.8500493 21.4893723,18.1100475 21.2393723,18.2400475 L19.019371,19.3500481 C18.889371,19.3900481 18.7793726,19.4200401 18.6693726,19.4200401 C18.3993725,19.4200401 18.1293744,19.2700365 17.9993744,19.0100365 Z M4.99937439,19.3400383 L2.77937317,18.2300377 C2.52937317,18.1000377 2.36937714,17.8400395 2.36937714,17.5600395 L2.36937714,14.7800407 C2.36937714,14.3700407 2.70937714,14.0300407 3.11937714,14.0300407 C3.52937713,14.0300407 3.86937714,14.3700407 3.86937714,14.7800407 L3.86937714,17.0900383 L5.67937469,17.9900475 C6.0493747,18.1800475 6.19937104,18.630042 6.01937103,19.000042 C5.86937103,19.260042 5.60937622,19.4200401 5.32937622,19.4200401 C5.21937622,19.4200401 5.09937439,19.3900383 4.99937439,19.3400383 Z M11.2493744,13.6700401 L11.2493744,11.3600426 L9.43937683,10.4600487 C9.06937683,10.2700487 8.91937286,9.82003891 9.09937286,9.45003891 C9.28937286,9.08003891 9.739375,8.93004209 10.109375,9.1100421 L11.9993744,10.050045 L13.8893738,9.1100421 C14.2593738,8.93004209 14.7093759,9.07003891 14.8993759,9.45003891 C15.0893759,9.83003891 14.9393719,10.2700487 14.5593719,10.4600487 L12.7493744,11.3600426 L12.7493744,13.6700401 C12.7493744,14.0800401 12.4093744,14.4200401 11.9993744,14.4200401 C11.5893744,14.4200401 11.2493744,14.0800401 11.2493744,13.6700401 Z M20.1393738,9.22004271 L20.1393738,7.66004515 L18.9993744,8.23003721 C18.6293744,8.42003721 18.1793723,8.27004087 17.9893723,7.89004087 C17.7993723,7.52004087 17.9493762,7.07004637 18.3293762,6.88004637 L19.2093735,6.44004393 L18.3293762,6.00004148 C17.9593762,5.81004149 17.8093722,5.36004698 17.9893723,4.99004698 C18.1793723,4.62004697 18.6293744,4.47003537 18.9993744,4.65003538 L21.2093735,5.75004148 C21.2293735,5.76004148 21.2593732,5.77003477 21.2793732,5.79003477 C21.3393732,5.82003477 21.3893768,5.87003965 21.4393768,5.92003965 C21.4693768,5.96003965 21.4993732,6.00003477 21.5293732,6.04003477 C21.5693732,6.11003477 21.5993771,6.18003599 21.6193771,6.26003599 C21.6293771,6.32003599 21.6393738,6.38003416 21.6393738,6.43003416 L21.6393738,6.44004393 L21.6393738,9.20003843 C21.6393738,9.64003843 21.2993738,9.97004318 20.8893738,9.97004318 C20.4793738,9.97004318 20.1393738,9.6300427 20.1393738,9.22004271 Z M2.359375,9.22004271 L2.359375,6.4600482 L2.359375,6.45003843 C2.359375,6.39003843 2.36937164,6.33004026 2.37937164,6.28004026 C2.39937164,6.20004027 2.42937561,6.13003904 2.46937561,6.06003904 C2.49937561,6.01003904 2.52937409,5.97003416 2.56937408,5.93003416 C2.60937408,5.89003416 2.65937347,5.85004881 2.70937347,5.82004881 C2.72937347,5.81004881 2.75937317,5.79004026 2.77937317,5.78004026 L4.98937225,4.68003416 C5.359375,4.50003415 5.80937439,4.64004576 5.99937439,5.02004576 C6.18937439,5.40004575 6.03937805,5.84004027 5.65937805,6.03004026 L4.77937317,6.47004271 L5.65937805,6.91004515 C6.02937806,7.10004514 6.1793744,7.55003965 5.99937439,7.92003965 C5.80937439,8.29003966 5.36937225,8.440036 4.98937225,8.26003599 L3.84937286,7.69004393 L3.84937286,9.25004196 C3.859375,9.64004195 3.52937499,9.97004318 3.109375,9.97004318 C2.699375,9.97004318 2.359375,9.6300427 2.359375,9.22004271 Z M13.8893738,3.78004026 L11.9993744,2.84003782 L10.109375,3.78004026 C9.739375,3.97004026 9.28937286,3.82004392 9.09937286,3.44004393 C8.90937287,3.07004392 9.05937684,2.62003416 9.43937683,2.43003416 L11.6593781,1.32004882 C11.869378,1.21004882 12.1193762,1.21004882 12.3293762,1.32004882 L14.5493774,2.43003416 C14.9193774,2.62003416 15.0693738,3.07004392 14.8893738,3.44004393 C14.7593738,3.71004394 14.4993756,3.8600421 14.2193756,3.8600421 C14.1093756,3.8600421 13.9893738,3.83004026 13.8893738,3.78004026 Z" id="Vector" fill="#292D32"></path>
                <path d="M24,0 L24,24 L0,24 L0,0 L24,0 Z" id="Vector" opacity="0"></path>
            </g>
        </g>
    </g>
</svg>