<svg width="24" height="24" viewBox="0 0 24 24" xmlns="http://www.w3.org/2000/svg">
    <g fill="#292D32" fill-rule="evenodd">
        <path d="M5.25 14.14V9.85c0-.41.34-.75.75-.75s.75.34.75.75v4.29a.749.749 0 1 1-1.5 0zM8.25 15.57V8.43c0-.41.34-.75.75-.75s.75.34.75.75v7.14a.749.749 0 1 1-1.5 0zM11.25 17V7c0-.41.34-.75.75-.75s.75.34.75.75v10c0 .41-.34.75-.75.75s-.75-.34-.75-.75zM14.25 15.57V8.43c0-.41.34-.75.75-.75s.75.34.75.75v7.14a.749.749 0 1 1-1.5 0zM17.25 14.14V9.85c0-.41.34-.75.75-.75s.75.34.75.75v4.29a.749.749 0 1 1-1.5 0z" fill-rule="nonzero"/>
        <path d="M1.25 12C1.25 6.07 6.07 1.25 12 1.25S22.75 6.07 22.75 12 17.93 22.75 12 22.75 1.25 17.93 1.25 12zm1.5 0c0 5.1 4.15 9.25 9.25 9.25s9.25-4.15 9.25-9.25S17.1 2.75 12 2.75 2.75 6.9 2.75 12z"/>
    </g>
</svg>
