<svg width="24" height="24" viewBox="0 0 24 24" xmlns="http://www.w3.org/2000/svg">
    <g fill="#292D32" fill-rule="evenodd">
        <path d="M11.65 17.2c0-3.06 2.49-5.55 5.55-5.55 3.06 0 5.55 2.49 5.55 5.55 0 3.06-2.49 5.55-5.55 5.55-3.06 0-5.55-2.49-5.55-5.55zm1.5 0c0 2.23 1.82 4.05 4.05 4.05 2.23 0 4.05-1.82 4.05-4.05 0-2.23-1.82-4.05-4.05-4.05-2.23 0-4.05 1.82-4.05 4.05z"/>
        <path d="M15.4 18.01c-.41 0-.75-.34-.75-.75s.34-.75.75-.75h3.59a.749.749 0 1 1 0 1.5H15.4z" fill-rule="nonzero"/>
        <path d="M16.45 19.1v-3.59c0-.41.34-.75.75-.75s.75.34.75.75v3.59c0 .41-.34.75-.75.75s-.75-.34-.75-.75z" fill-rule="nonzero"/>
        <path d="M11.13 21.52c-2.56-.87-9.88-5.11-9.88-12.83 0-3.5 2.83-6.34 6.31-6.34 1.67 0 3.27.67 4.44 1.84a6.308 6.308 0 0 1 4.44-1.84c3.48 0 6.31 2.84 6.31 6.34 0 1.95-.47 3.82-1.4 5.57a.74.74 0 0 1-.56.39.747.747 0 0 1-.65-.23 4.05 4.05 0 0 0-2.95-1.28c-2.23 0-4.05 1.82-4.05 4.05 0 .99.37 1.95 1.04 2.7.16.18.22.42.17.65-.05.23-.21.43-.42.53-.4.18-.76.33-1.09.44-.23.1-.53.14-.84.14-.31 0-.62-.04-.87-.13zM2.75 8.69c0 6.84 6.57 10.62 8.87 11.41.18.07.57.06.75 0l.09-.03c-.52-.86-.81-1.85-.81-2.87a5.557 5.557 0 0 1 8.79-4.51c.54-1.28.81-2.62.81-4 0-2.67-2.16-4.84-4.81-4.84-1.5 0-2.94.72-3.84 1.93-.28.38-.92.38-1.2 0a4.812 4.812 0 0 0-3.84-1.93c-2.65 0-4.81 2.17-4.81 4.84z"/>
    </g>
</svg>
