<svg width="24" height="24" viewBox="0 0 24 24" xmlns="http://www.w3.org/2000/svg">
    <g fill="#292D32" fill-rule="nonzero">
        <path d="M4.47 18.03a.754.754 0 0 1 0-1.06l14-14c.29-.29.77-.29 1.06 0 .29.29.29.77 0 1.06l-14 14c-.15.15-.34.22-.53.22s-.38-.07-.53-.22z"/>
        <path d="M5 18.25c-.41 0-.75-.34-.75-.75V7.23c0-.41.34-.75.75-.75s.75.34.75.75v9.52h9.52c.41 0 .75.34.75.75s-.34.75-.75.75H5zM3.5 22.75c-.41 0-.75-.34-.75-.75s.34-.75.75-.75h17c.41 0 .75.34.75.75s-.34.75-.75.75h-17z"/>
    </g>
</svg>
