<svg width="24" height="24" viewBox="0 0 24 24" xmlns="http://www.w3.org/2000/svg">
    <g fill="#292D32" fill-rule="evenodd">
        <path d="M10 2h4c1.66 0 3 1.34 3 3 0 .55-.45 1-1 1H8c-.55 0-1-.45-1-1 0-1.66 1.34-3 3-3zM17 15.75h-1V19c0 1.66-1.34 3-3 3h-2c-1.66 0-3-1.34-3-3v-3.25H7c-.41 0-.75-.34-.75-.75s.34-.75.75-.75h10c.41 0 .75.34.75.75s-.34.75-.75.75z" fill-rule="nonzero"/>
        <path d="M6 7c-2 0-3 1-3 3v5c0 2 1 3 3 3h.375c.345 0 .625-.28.625-.625v-.126a.8.8 0 0 0-.424-.706C5.692 16.07 5.25 15.557 5.25 15c0-.96.79-1.75 1.75-1.75h10c.96 0 1.75.79 1.75 1.75s-.79 1.75-1.75 1.75v.45a.8.8 0 0 0 .8.8h.2c2 0 3-1 3-3v-5c0-2-1-3-3-3H6zm1 4.75c-.41 0-.75-.34-.75-.75s.34-.75.75-.75h3c.41 0 .75.34.75.75s-.34.75-.75.75H7z"/>
    </g>
</svg>
