<svg width="24" height="24" viewBox="0 0 24 24" xmlns="http://www.w3.org/2000/svg">
    <path d="M7.81 2C4.17 2 2 4.17 2 7.81v8.37C2 19.83 4.17 22 7.81 22h8.37c3.64 0 5.81-2.17 5.81-5.81V7.81C22 4.17 19.83 2 16.19 2H7.81zm.8 15.4H5.82c-.28 0-.5-.22-.5-.5v-4.62c0-.63.51-1.14 1.14-1.14h2.15c.28 0 .5.22.5.5v5.26c0 .28-.22.5-.5.5zm4.78 0H10.6c-.28 0-.5-.22-.5-.5V7.74c0-.63.51-1.14 1.14-1.14h1.52c.63 0 1.14.51 1.14 1.14v9.16h-.01c0 .28-.22.5-.5.5zm4.79 0h-2.79c-.28 0-.5-.22-.5-.5v-3.55c0-.28.22-.5.5-.5h2.15c.63 0 1.14.51 1.14 1.14v2.91c0 .28-.22.5-.5.5z" fill="#292D32" fill-rule="evenodd"/>
</svg>
