<svg width="24" height="24" viewBox="0 0 24 24" xmlns="http://www.w3.org/2000/svg">
    <g fill="#292D32" fill-rule="evenodd">
        <path d="M7.54 17.75c-.99 0-1.94-.42-2.61-1.15A3.573 3.573 0 0 1 4 13.9l.83-9.96c.03-.31-.08-.61-.29-.84-.21-.23-.5-.35-.81-.35H2c-.41 0-.75-.34-.75-.75s.34-.75.75-.75h1.74c.73 0 1.42.31 1.91.84.27.3.47.65.58 1.04h12.49c1.01 0 1.94.4 2.62 1.12.67.73 1.01 1.68.93 2.69l-.54 7.5c-.11 1.83-1.71 3.31-3.54 3.31H7.54zM5.5 14.02c-.05.58.14 1.13.53 1.56.39.43.93.66 1.51.66h10.65c1.04 0 1.98-.88 2.06-1.92l.54-7.5a2.04 2.04 0 0 0-2.06-2.21H6.28v.01l-.78 9.4zM14.25 20.75c0-1.1.9-2 2-2s2 .9 2 2-.9 2-2 2-2-.9-2-2zm1.5 0c0 .28.22.5.5.5s.5-.22.5-.5-.22-.5-.5-.5-.5.22-.5.5zM6.25 20.75c0-1.1.9-2 2-2s2 .9 2 2-.9 2-2 2-2-.9-2-2zm1.5 0c0 .28.22.5.5.5s.5-.22.5-.5-.22-.5-.5-.5-.5.22-.5.5z"/>
        <path d="M9 8.75c-.41 0-.75-.34-.75-.75s.34-.75.75-.75h12c.41 0 .75.34.75.75s-.34.75-.75.75H9z" fill-rule="nonzero"/>
    </g>
</svg>
