<svg width="24" height="24" viewBox="0 0 24 24" xmlns="http://www.w3.org/2000/svg">
    <g fill="#292D32" fill-rule="evenodd">
        <path d="M5.9 17.75c-2.32 0-3.65-1.33-3.65-3.65V2c0-.41.34-.75.75-.75h18c.41 0 .75.34.75.75v12.1c0 2.32-1.33 3.65-3.65 3.65H5.9zM3.75 14.1c0 1.49.66 2.15 2.15 2.15h12.19c1.49 0 2.15-.66 2.15-2.15V2.75H3.75V14.1z"/>
        <path d="M2 2.75c-.41 0-.75-.34-.75-.75s.34-.75.75-.75h20c.41 0 .75.34.75.75s-.34.75-.75.75H2zM7.33 22.34a.745.745 0 0 1 .34-1.01l3.58-1.79V17c0-.41.34-.75.75-.75s.75.34.75.75v3c0 .28-.16.54-.42.67l-4 2a.742.742 0 0 1-1-.33z" fill-rule="nonzero"/>
        <path d="m15.67 22.67-4-2a.763.763 0 0 1-.34-1.01c.19-.37.64-.52 1.01-.34l4 2c.37.19.52.64.34 1.01a.77.77 0 0 1-.68.42c-.11 0-.23-.03-.33-.08zM6.92 11.48a.75.75 0 0 1 .1-1.06l3.15-2.63c.29-.24.66-.34 1.01-.28.36.06.67.28.86.6l1.05 1.75 2.93-2.44c.32-.26.79-.22 1.06.1s.22.79-.1 1.06l-3.15 2.63c-.29.24-.66.34-1.01.28-.36-.06-.67-.28-.86-.6l-1.05-1.75-2.93 2.44a.759.759 0 0 1-1.06-.1z" fill-rule="nonzero"/>
    </g>
</svg>
