<svg width="24" height="24" viewBox="0 0 24 24" xmlns="http://www.w3.org/2000/svg">
    <g fill="#292D32" fill-rule="evenodd">
        <path d="M3.22 18c0-2.62 2.13-4.75 4.75-4.75s4.75 2.13 4.75 4.75-2.13 4.75-4.75 4.75S3.22 20.62 3.22 18zm1.5 0c0 1.79 1.46 3.25 3.25 3.25s3.25-1.46 3.25-3.25a3.25 3.25 0 0 0-3.25-3.25c-1.79 0-3.25 1.46-3.25 3.25z"/>
        <path d="M11.22 18V4c0-.41.34-.75.75-.75s.75.34.75.75v14a.749.749 0 1 1-1.5 0z" fill-rule="nonzero"/>
        <path d="m18.11 10.06-4.42-1.47c-1.38-.46-2.46-1.96-2.46-3.41V4c0-.97.4-1.81 1.08-2.31.69-.5 1.61-.6 2.53-.3l4.42 1.47c1.38.46 2.46 1.96 2.46 3.41v1.17c0 .97-.4 1.81-1.08 2.31-.43.33-.96.48-1.51.48-.33 0-.68-.06-1.02-.17zm-4.92-7.15c-.3.21-.46.6-.46 1.09v1.17c0 .8.67 1.73 1.43 1.99l4.42 1.47c.46.16.89.12 1.18-.09.3-.21.46-.6.46-1.09V6.28c0-.8-.67-1.73-1.43-1.99l-4.42-1.47c-.19-.07-.38-.1-.55-.1-.24 0-.46.06-.63.19z"/>
    </g>
</svg>
