<svg width="24" height="24" viewBox="0 0 24 24" xmlns="http://www.w3.org/2000/svg">
    <g fill="#292D32" fill-rule="evenodd">
        <path d="M7.05 14.4v-4.2c0-.41.34-.75.75-.75s.75.34.75.75v4.2c0 .41-.34.75-.75.75s-.75-.34-.75-.75z" fill-rule="nonzero"/>
        <path d="M5.25 7.95c0-1.49 1.21-2.7 2.7-2.7 1.49 0 2.7 1.21 2.7 2.7 0 1.49-1.21 2.7-2.7 2.7-1.49 0-2.7-1.21-2.7-2.7zm1.5 0c0 .66.54 1.2 1.2 1.2.66 0 1.2-.54 1.2-1.2 0-.66-.54-1.2-1.2-1.2-.66 0-1.2.54-1.2 1.2zM5.25 16.2c0-1.41 1.14-2.55 2.55-2.55s2.55 1.14 2.55 2.55-1.14 2.55-2.55 2.55-2.55-1.14-2.55-2.55zm1.5 0a1.05 1.05 0 1 0 2.1 0 1.05 1.05 0 0 0-2.1 0zM13.65 16.2c0-1.41 1.14-2.55 2.55-2.55s2.55 1.14 2.55 2.55-1.14 2.55-2.55 2.55-2.55-1.14-2.55-2.55zm1.5 0a1.05 1.05 0 1 0 2.1 0 1.05 1.05 0 0 0-2.1 0z"/>
        <path d="M14.99 14.67c-.4-1.14-1.47-1.9-2.68-1.9h-.01l-2.06.01h-.01c-1.45 0-2.72-.98-3.08-2.38-.1-.4.14-.81.54-.91.39-.1.81.14.91.54.19.74.86 1.26 1.63 1.26h.01l2.06-.01h.02c1.84 0 3.49 1.17 4.1 2.91.14.39-.07.82-.46.96-.09.01-.18.02-.26.02-.31 0-.6-.19-.71-.5z" fill-rule="nonzero"/>
        <path d="M9 22.75c-5.43 0-7.75-2.32-7.75-7.75V9c0-5.43 2.32-7.75 7.75-7.75h6c5.43 0 7.75 2.32 7.75 7.75v6c0 5.43-2.32 7.75-7.75 7.75H9zM2.75 9v6c0 4.61 1.64 6.25 6.25 6.25h6c4.61 0 6.25-1.64 6.25-6.25V9c0-4.61-1.64-6.25-6.25-6.25H9C4.39 2.75 2.75 4.39 2.75 9z"/>
    </g>
</svg>
