<svg width="24" height="24" viewBox="0 0 24 24" xmlns="http://www.w3.org/2000/svg">
    <g fill="#292D32" fill-rule="evenodd">
        <path d="M8.75 11.2v1.6c0 1.79 1.46 3.25 3.25 3.25s3.25-1.46 3.25-3.25v-1.6c0-1.79-1.46-3.25-3.25-3.25S8.75 9.41 8.75 11.2zM12 14.14c-.5 0-.9-.4-.9-.9v-2.47c0-.49.4-.9.9-.9s.9.4.9.9v2.47c0 .5-.4.9-.9.9z"/>
        <path d="M2 12c0 5.52 4.48 10 10 10s10-4.48 10-10S17.52 2 12 2 2 6.48 2 12zm10 5.55c-2.62 0-4.75-2.13-4.75-4.75v-1.6c0-2.62 2.13-4.75 4.75-4.75s4.75 2.13 4.75 4.75v1.6c0 2.62-2.13 4.75-4.75 4.75z"/>
    </g>
</svg>
