<svg width="24" height="24" viewBox="0 0 24 24" xmlns="http://www.w3.org/2000/svg">
    <g fill="#292D32" fill-rule="nonzero">
        <path d="M13.27 10.73a.754.754 0 0 1 0-1.06l8.2-8.2c.29-.29.77-.29 1.06 0 .29.29.29.77 0 1.06l-8.2 8.2a.75.75 0 0 1-1.06 0z"/>
        <path d="M13 11.75c-.41 0-.75-.34-.75-.75V6.17c0-.41.34-.75.75-.75s.75.34.75.75v4.08h4.08c.41 0 .75.34.75.75s-.34.75-.75.75H13z"/>
        <path d="M9 22.75c-5.43 0-7.75-2.32-7.75-7.75V9c0-5.43 2.32-7.75 7.75-7.75h2c.41 0 .75.34.75.75s-.34.75-.75.75H9C4.39 2.75 2.75 4.39 2.75 9v6c0 4.61 1.64 6.25 6.25 6.25h6c4.61 0 6.25-1.64 6.25-6.25v-2c0-.41.34-.75.75-.75s.75.34.75.75v2c0 5.43-2.32 7.75-7.75 7.75H9z"/>
    </g>
</svg>
