<svg width="24" height="24" viewBox="0 0 24 24" xmlns="http://www.w3.org/2000/svg">
    <g fill="#292D32" fill-rule="evenodd">
        <path d="M6.25 8c0-1.52 1.23-2.75 2.75-2.75S11.75 6.48 11.75 8 10.52 10.75 9 10.75 6.25 9.52 6.25 8zm1.5 0a1.25 1.25 0 1 0 2.5 0 1.25 1.25 0 0 0-2.5 0z"/>
        <path d="M9 22.75c-5.43 0-7.75-2.32-7.75-7.75V9c0-5.43 2.32-7.75 7.75-7.75h4c.41 0 .75.34.75.75s-.34.75-.75.75H9C4.39 2.75 2.75 4.39 2.75 9v6c0 4.61 1.64 6.25 6.25 6.25h6c4.61 0 6.25-1.64 6.25-6.25v-5c0-.41.34-.75.75-.75s.75.34.75.75v5c0 5.43-2.32 7.75-7.75 7.75H9z" fill-rule="nonzero"/>
        <path d="M15.75 5.75c-.41 0-.75-.34-.75-.75s.34-.75.75-.75h5.5c.41 0 .75.34.75.75s-.34.75-.75.75h-5.5z" fill-rule="nonzero"/>
        <path d="M17.75 7.75v-5.5c0-.41.34-.75.75-.75s.75.34.75.75v5.5c0 .41-.34.75-.75.75s-.75-.34-.75-.75zM2.05 19.37a.753.753 0 0 1 .2-1.04l4.93-3.31c1.08-.72 2.57-.64 3.55.19l.33.29c.5.43 1.35.43 1.84 0l4.16-3.57c1.07-.91 2.73-.91 3.8 0l1.63 1.4c.31.27.35.74.08 1.06-.27.31-.74.35-1.06.08l-1.63-1.4c-.5-.43-1.35-.43-1.84 0l-4.16 3.57c-1.06.91-2.73.91-3.8 0l-.33-.29c-.46-.39-1.22-.43-1.73-.08L3.1 19.58c-.14.08-.29.12-.43.12-.24 0-.48-.12-.62-.33z" fill-rule="nonzero"/>
    </g>
</svg>
