<svg width="24" height="24" viewBox="0 0 24 24" xmlns="http://www.w3.org/2000/svg">
    <g fill="#292D32" fill-rule="evenodd">
        <path d="M6.44 17.97c-3.98 0-5.19-1.21-5.19-5.19V6.44c0-3.98 1.21-5.19 5.19-5.19h11.11c3.98 0 5.19 1.21 5.19 5.19v6.33c.01 3.99-1.2 5.2-5.18 5.2H6.44zM2.75 6.44v6.33c0 3.14.55 3.69 3.69 3.69h11.11c3.14 0 3.69-.55 3.69-3.69V6.44c0-3.14-.55-3.69-3.69-3.69H6.44c-3.14 0-3.69.55-3.69 3.69z"/>
        <path d="M11.25 22v-4.78c0-.41.34-.75.75-.75s.75.34.75.75V22c0 .41-.34.75-.75.75s-.75-.34-.75-.75zM2 13.75c-.41 0-.75-.34-.75-.75s.34-.75.75-.75h20c.41 0 .75.34.75.75s-.34.75-.75.75H2z" fill-rule="nonzero"/>
        <path d="M7.5 22.75c-.41 0-.75-.34-.75-.75s.34-.75.75-.75h9c.41 0 .75.34.75.75s-.34.75-.75.75h-9z" fill-rule="nonzero"/>
    </g>
</svg>
