<svg width="24" height="24" viewBox="0 0 24 24" xmlns="http://www.w3.org/2000/svg">
    <g fill="#292D32" fill-rule="evenodd">
        <path d="M9.5 11.4c-.41 0-.75-.34-.75-.75s.34-.75.75-.75h5c.41 0 .75.34.75.75s-.34.75-.75.75h-5z" fill-rule="nonzero"/>
        <path d="M11.25 13.21v-5c0-.41.34-.75.75-.75s.75.34.75.75v5c0 .41-.34.75-.75.75s-.75-.34-.75-.75z" fill-rule="nonzero"/>
        <path d="m17.46 22.29-4.88-2.71c-.29-.16-.86-.16-1.15 0l-4.88 2.71c-.99.55-2 .61-2.77.15-.77-.45-1.21-1.36-1.21-2.49V5.86c0-2.54 2.07-4.61 4.61-4.61h9.65c2.54 0 4.61 2.07 4.61 4.61v14.09c0 1.13-.44 2.04-1.21 2.49-.35.21-.75.31-1.16.31-.51 0-1.07-.15-1.61-.46zm-4.16-4.02 4.88 2.71c.51.29.98.35 1.28.17.3-.18.47-.61.47-1.2V5.86c0-1.71-1.4-3.11-3.11-3.11H7.18a3.12 3.12 0 0 0-3.11 3.11v14.09c0 .59.17 1.03.47 1.2.3.17.77.12 1.28-.17l4.88-2.71c.37-.21.83-.31 1.3-.31.47 0 .93.1 1.3.31z"/>
    </g>
</svg>
