<svg width="24" height="24" viewBox="0 0 24 24" xmlns="http://www.w3.org/2000/svg">
    <g fill="#292D32" fill-rule="evenodd">
        <path d="M9.11 3.45c-.4 0-.72-.32-.72-.72 0-.4.32-.73.72-.73h5.78c.4 0 .72.32.72.72 0 .4-.32.73-.72.73H9.11z" fill-rule="nonzero"/>
        <path d="M14 17.028c0-1.81 1.22-3.03 3.03-3.03h2.94c.23 0 .45.02.66.06.02-.24.04-.48.04-.73 0-4.79-3.89-8.68-8.67-8.68-4.78 0-8.67 3.89-8.67 8.68 0 4.78 3.89 8.67 8.67 8.67.85 0 1.66-.14 2.44-.36a3.22 3.22 0 0 1-.44-1.67v-2.94zm-2-3.28c-.41 0-.75-.34-.75-.75v-5c0-.41.34-.75.75-.75s.75.34.75.75v5c0 .41-.34.75-.75.75z"/>
        <path d="M17.04 15c-1.28 0-2.04.76-2.04 2.03v2.94c0 1.27.76 2.03 2.04 2.03h2.93c1.27 0 2.03-.76 2.03-2.03v-2.94c0-1.27-.76-2.03-2.03-2.03h-2.93zm.29 5.64a.58.58 0 0 1-.58-.58v-3.12c0-.32.26-.58.58-.58.33 0 .59.26.59.58v3.12c0 .32-.26.58-.59.58zm2.34 0c-.32 0-.59-.26-.59-.58v-3.12c0-.32.27-.58.59-.58.32 0 .58.26.58.58v3.12c0 .32-.26.58-.58.58z"/>
    </g>
</svg>
