<svg width="24" height="24" viewBox="0 0 24 24" xmlns="http://www.w3.org/2000/svg">
    <path d="M2 12c0 5.52 4.48 10 10 10s10-4.48 10-10S17.52 2 12 2 2 6.48 2 12zm6.53 2.53c-.15.15-.34.22-.53.22s-.38-.07-.53-.22l-2-2a.754.754 0 0 1 0-1.06l2-2c.29-.29.77-.29 1.06 0 .29.29.29.77 0 1.06L7.06 12l1.47 1.47c.29.29.29.77 0 1.06zm3.16.1a.752.752 0 0 1-.98.39.745.745 0 0 1-.39-.99l2-4.67c.16-.38.6-.56.98-.39.38.17.55.61.39.99l-2 4.67zm4.84-.1c-.15.15-.34.22-.53.22s-.38-.07-.53-.22a.754.754 0 0 1 0-1.06L16.94 12l-1.47-1.47a.754.754 0 0 1 0-1.06c.29-.29.77-.29 1.06 0l2 2c.29.29.29.77 0 1.06l-2 2z" fill="#292D32" fill-rule="evenodd"/>
</svg>
