<svg width="24" height="24" viewBox="0 0 24 24" xmlns="http://www.w3.org/2000/svg">
    <g fill="#292D32" fill-rule="evenodd">
        <path d="M6.25 7c0-3.17 2.58-5.75 5.75-5.75S17.75 3.83 17.75 7s-2.58 5.75-5.75 5.75S6.25 10.17 6.25 7zm1.5 0A4.26 4.26 0 0 0 12 11.25 4.26 4.26 0 0 0 16.25 7 4.26 4.26 0 0 0 12 2.75 4.26 4.26 0 0 0 7.75 7z"/>
        <path d="M2.66 22c0-4.27 4.19-7.75 9.34-7.75.41 0 .75.34.75.75s-.34.75-.75.75c-4.32 0-7.84 2.8-7.84 6.25 0 .41-.34.75-.75.75s-.75-.34-.75-.75z" fill-rule="nonzero"/>
        <path d="M14.25 18.2c0-2.18 1.77-3.95 3.95-3.95s3.95 1.77 3.95 3.95-1.77 3.95-3.95 3.95-3.95-1.77-3.95-3.95zm1.5 0c0 1.35 1.1 2.45 2.45 2.45s2.45-1.1 2.45-2.45-1.1-2.45-2.45-2.45-2.45 1.1-2.45 2.45z"/>
        <path d="m21.47 22.53-1-1a.755.755 0 0 1 0-1.06c.29-.29.77-.29 1.06 0l1 1c.29.29.29.77 0 1.06-.15.15-.34.22-.53.22s-.38-.07-.53-.22z" fill-rule="nonzero"/>
    </g>
</svg>
