<svg width="24" height="24" viewBox="0 0 24 24" xmlns="http://www.w3.org/2000/svg">
    <g fill="#292D32" fill-rule="evenodd">
        <path d="M6.36 7.781v3.47H2v-3.47h4.36z"/>
        <path d="M6.358 2.129c-2.28.42-3.77 1.89-4.21 4.15h4.18c.01 0 .02.01.03.01v-4.16zM6.36 12.75H2v3.53h4.24c.04 0 .08.02.12.03v-3.56zM17.86 2.18v4.1h3.99c-.43-2.19-1.83-3.63-3.99-4.1zM16.36 2.01C16.31 2 16.25 2 16.19 2H7.86v9.25h8.5V2.01z" fill-rule="nonzero"/>
        <path d="M22 12.75v3.53h-4.14v-3.53H22z"/>
        <path d="M21.84 17.781h-3.98v4.04c2.14-.47 3.54-1.89 3.98-4.04zM2.16 17.782c.46 2.22 1.94 3.67 4.2 4.09v-4.11c-.04.01-.08.02-.12.02H2.16z" fill-rule="nonzero"/>
        <path d="M22 7.781v3.47h-4.14v-3.47H22z"/>
        <path d="M7.86 22h8.33c.06 0 .12 0 .17-.01v-9.24h-8.5V22z" fill-rule="nonzero"/>
    </g>
</svg>
