<svg width="24" height="24" viewBox="0 0 24 24" xmlns="http://www.w3.org/2000/svg">
    <g fill="#292D32" fill-rule="nonzero">
        <path d="M21.25 9c0 2.29-.83 3.02-3.12 3.02v-1.64c0-3.12-1.39-4.51-4.51-4.51h-.983a.5.5 0 0 1-.475-.655C12.697 3.572 13.643 2.75 15 2.75h3.23c2.29 0 3.02.73 3.02 3.02V9z"/>
        <path d="M16.63 13.621c0 2.28-.73 3.01-3.01 3.01h-3.24c-2.28 0-3.01-.73-3.01-3.01v-3.24c0-2.28.73-3.01 3.01-3.01h3.24c2.28 0 3.01.73 3.01 3.01v3.24z"/>
        <path d="M9 21.25H5.77c-2.29 0-3.02-.73-3.02-3.02V15c0-2.29.83-3.02 3.12-3.02v1.64c0 3.12 1.39 4.51 4.51 4.51h.983a.5.5 0 0 1 .476.655C11.303 20.43 10.357 21.25 9 21.25z"/>
    </g>
</svg>
