<?xml version="1.0" encoding="UTF-8"?>
<svg width="24px" height="24px" viewBox="0 0 24 24" version="1.1" xmlns="http://www.w3.org/2000/svg" xmlns:xlink="http://www.w3.org/1999/xlink">
    <title>0731CE4F-2767-4BE4-9983-A784D4538129</title>
    <g id="Outline-Icons" stroke="none" stroke-width="1" fill="none" fill-rule="evenodd">
        <g id="Essetional" transform="translate(-236.000000, -444.000000)">
            <g id="chrome" transform="translate(236.000000, 444.000000)">
                <path d="M1.25,12 C1.25,6.07000017 6.07000017,1.25 12,1.25 C17.9299998,1.25 22.75,6.07000017 22.75,12 C22.75,17.9299998 17.9299998,22.75 12,22.75 C6.07000017,22.75 1.25,17.9299998 1.25,12 Z M2.75,12 C2.75,17.0999999 6.9000001,21.25 12,21.25 C17.0999999,21.25 21.25,17.0999999 21.25,12 C21.25,6.9000001 17.0999999,2.75 12,2.75 C6.9000001,2.75 2.75,6.9000001 2.75,12 Z" id="Vector" fill="#292D32"></path>
                <path d="M7.25,12 C7.25,9.38000011 9.38000011,7.25 12,7.25 C14.6199999,7.25 16.75,9.38000011 16.75,12 C16.75,14.6199999 14.6199999,16.75 12,16.75 C9.38000011,16.75 7.25,14.6199999 7.25,12 Z M8.75,12 C8.75,13.79 10.21,15.25 12,15.25 C13.79,15.25 15.25,13.79 15.25,12 C15.25,10.21 13.79,8.75 12,8.75 C10.21,8.75 8.75,10.21 8.75,12 Z" id="Vector" fill="#292D32"></path>
                <path d="M21.0097847,8.72994101 C18.0697846,8.08994102 15.0997841,8.08994102 12.159784,8.72994101 C11.749784,8.81994101 11.3597846,8.55994132 11.2697846,8.15994132 C11.1797846,7.74994132 11.4397843,7.35994139 11.8397843,7.26994139 C14.9897844,6.57994139 18.1797843,6.57994139 21.3297844,7.26994139 C21.7297844,7.35994139 21.9897841,7.75994131 21.8997841,8.15994132 C21.8297841,8.50994131 21.5197845,8.74994147 21.1697845,8.74994147 C21.1197845,8.74994147 21.0597847,8.73994101 21.0097847,8.72994101 Z" id="Vector" fill="#292D32" fill-rule="nonzero"></path>
                <path d="M7.96976566,14.4900684 C5.88976574,12.1000683 4.30976558,9.37006807 3.25976562,6.37006807 L3.94976568,6.06006813 L4.65976548,5.82006836 L4.67976546,5.8800683 C5.65976548,8.69006824 7.14976501,11.2600684 9.10976505,13.5100684 C9.37976506,13.8200684 9.34976536,14.3000683 9.03976536,14.5700684 C8.88976535,14.6900684 8.70976536,14.7500687 8.53976536,14.7500687 C8.32976536,14.7500687 8.11976567,14.6600684 7.96976566,14.4900684 Z" id="Vector" fill="#292D32" fill-rule="nonzero"></path>
                <path d="M10.3798409,22.4999695 C10.0698409,22.2199695 10.0498407,21.74997 10.3298407,21.43997 C12.3298407,19.23997 13.8098403,16.6899686 14.7298403,13.8599687 C14.8598403,13.4699687 15.2998403,13.2099692 15.6898403,13.3399692 C16.0798403,13.4699692 16.3098413,13.8499689 16.1898413,14.2399688 C15.1798413,17.3599687 13.5898408,20.0999687 11.4498407,22.4599686 C11.2898407,22.6099686 11.079841,22.68997 10.879841,22.68997 C10.699841,22.68997 10.5198409,22.6299695 10.3798409,22.4999695 Z" id="Vector" fill="#292D32" fill-rule="nonzero"></path>
                <path d="M24,0 L24,24 L0,24 L0,0 L24,0 Z" id="Vector" opacity="0"></path>
            </g>
        </g>
    </g>
</svg>