<svg width="24" height="24" viewBox="0 0 24 24" xmlns="http://www.w3.org/2000/svg">
    <g fill="#292D32" fill-rule="evenodd">
        <path d="m10.2 21.85-1.5-2a.377.377 0 0 0-.21-.1H8c-4.17 0-6.75-1.13-6.75-6.75V8c0-4.42 2.33-6.75 6.75-6.75h6c.41 0 .75.34.75.75s-.34.75-.75.75H8C4.42 2.75 2.75 4.42 2.75 8v5c0 4.52 1.55 5.25 5.25 5.25h.5c.51 0 1.09.29 1.4.7l1.5 2c.35.46.85.46 1.2 0l1.5-2c.33-.44.85-.7 1.4-.7h.5c3.58 0 5.25-1.67 5.25-5.25v-3c0-.41.34-.75.75-.75s.75.34.75.75v3c0 4.42-2.33 6.75-6.75 6.75h-.5c-.08 0-.15.04-.2.1l-1.5 2c-.46.61-1.11.96-1.8.96s-1.34-.35-1.8-.96z" fill-rule="nonzero"/>
        <path d="M11 11c0-.55.45-1 1-1s1 .45 1 1-.44 1-1 1-1-.45-1-1zM15 11c0-.55.45-1 1-1s1 .45 1 1-.44 1-1 1-1-.45-1-1zM7 11c0-.55.45-1 1-1s1 .45 1 1-.44 1-1 1-1-.45-1-1z" fill-rule="nonzero"/>
        <path d="M16.25 4.5c0-1.79 1.46-3.25 3.25-3.25s3.25 1.46 3.25 3.25-1.46 3.25-3.25 3.25-3.25-1.46-3.25-3.25zm1.5 0c0 .96.79 1.75 1.75 1.75s1.75-.79 1.75-1.75-.79-1.75-1.75-1.75-1.75.79-1.75 1.75z"/>
    </g>
</svg>
