<svg width="24" height="24" viewBox="0 0 24 24" xmlns="http://www.w3.org/2000/svg">
    <g fill="#292D32" fill-rule="evenodd">
        <path d="M9.6 15.15c-.41 0-.75-.34-.75-.75V9.6c0-.41.34-.75.75-.75h4.8c.41 0 .75.34.75.75v4.8c0 .41-.34.75-.75.75H9.6zm4.05-1.5v-3.3h-3.3v3.3h3.3z"/>
        <path d="M5.25 16.2c0-1.41 1.14-2.55 2.55-2.55h1.8c.41 0 .75.34.75.75v1.8c0 1.41-1.14 2.55-2.55 2.55s-2.55-1.14-2.55-2.55zm1.5 0a1.05 1.05 0 1 0 2.1 0v-1.05H7.8c-.58 0-1.05.47-1.05 1.05zM7.8 10.35c-1.41 0-2.55-1.14-2.55-2.55S6.39 5.25 7.8 5.25s2.55 1.14 2.55 2.55v1.8c0 .41-.34.75-.75.75H7.8zM6.75 7.8c0 .58.47 1.05 1.05 1.05h1.05V7.8a1.05 1.05 0 1 0-2.1 0zM14.4 10.35c-.41 0-.75-.34-.75-.75V7.8c0-1.41 1.14-2.55 2.55-2.55s2.55 1.14 2.55 2.55-1.14 2.55-2.55 2.55h-1.8zm1.8-1.5a1.05 1.05 0 1 0-1.05-1.05v1.05h1.05zM13.65 16.2v-1.8c0-.41.34-.75.75-.75h1.8c1.41 0 2.55 1.14 2.55 2.55s-1.14 2.55-2.55 2.55-2.55-1.14-2.55-2.55zm1.5 0a1.05 1.05 0 1 0 1.05-1.05h-1.05v1.05z"/>
        <path d="M9 22.75c-5.43 0-7.75-2.32-7.75-7.75V9c0-5.43 2.32-7.75 7.75-7.75h6c5.43 0 7.75 2.32 7.75 7.75v6c0 5.43-2.32 7.75-7.75 7.75H9zM2.75 9v6c0 4.61 1.64 6.25 6.25 6.25h6c4.61 0 6.25-1.64 6.25-6.25V9c0-4.61-1.64-6.25-6.25-6.25H9C4.39 2.75 2.75 4.39 2.75 9z"/>
    </g>
</svg>
