<svg width="24" height="24" viewBox="0 0 24 24" xmlns="http://www.w3.org/2000/svg">
    <g fill="#292D32" fill-rule="evenodd">
        <path d="M6.21 17.7c-3.8 0-4.96-1.16-4.96-4.96v-6c0-3.8 1.16-4.96 4.96-4.96h10.53c3.8 0 4.96 1.16 4.96 4.96 0 .41-.34.75-.75.75s-.75-.34-.75-.75c0-2.94-.52-3.46-3.46-3.46H6.21c-2.94 0-3.46.52-3.46 3.46v6c0 2.94.52 3.46 3.46 3.46H10c.41 0 .75.34.75.75s-.34.75-.75.75H6.21z" fill-rule="nonzero"/>
        <path d="M9.25 21.47v-4.53c0-.41.34-.75.75-.75s.75.34.75.75v4.53a.749.749 0 1 1-1.5 0zM2 13.7c-.41 0-.75-.34-.75-.75s.34-.75.75-.75h8c.41 0 .75.34.75.75s-.34.75-.75.75H2z" fill-rule="nonzero"/>
        <path d="M6.74 22.22c-.41 0-.75-.34-.75-.75s.34-.75.75-.75H10c.41 0 .75.34.75.75s-.34.75-.75.75H6.74z" fill-rule="nonzero"/>
        <path d="M15.49 22.22c-2.77 0-3.71-.94-3.71-3.71V12.8c0-2.77.94-3.71 3.71-3.71h3.55c2.77 0 3.71.94 3.71 3.71v5.71c0 2.78-.94 3.71-3.71 3.71h-3.55zm-2.21-9.42v5.71c0 1.96.25 2.21 2.21 2.21h3.55c1.96 0 2.21-.25 2.21-2.21V12.8c0-1.96-.25-2.21-2.21-2.21h-3.55c-1.96 0-2.21.25-2.21 2.21z"/>
        <path d="M16.59 18.68a.988.988 0 0 1-.21-.32c-.05-.13-.08-.26-.08-.39 0-.26.11-.52.29-.7.23-.23.58-.34.91-.28l.18.06c.06.03.12.06.17.09a1.009 1.009 0 0 1 .45.83c0 .13-.03.26-.08.39-.05.12-.12.23-.21.32a.61.61 0 0 1-.16.12.95.95 0 0 1-.17.1c-.06.02-.12.04-.18.05-.07.02-.13.02-.2.02-.26 0-.52-.1-.71-.29z" fill-rule="nonzero"/>
    </g>
</svg>
