<svg width="24" height="24" viewBox="0 0 24 24" xmlns="http://www.w3.org/2000/svg">
    <g fill="#292D32" fill-rule="nonzero">
        <path d="M7.549 20.93c-1.94-.96-3.52-2.55-4.49-4.49 0-.03.02-.07.02-.1 1.22.36 2.48.63 3.73.84.22 1.26.48 2.51.84 3.73-.03 0-.07.02-.1.02zM16.29 21.02c.38-1.27.7-2.55.91-3.84 1.26-.21 2.5-.48 3.72-.84-.01.04.02.08.02.11-.99 1.99-2.64 3.6-4.65 4.57zM17.2 6.8c-.21-1.29-.52-2.57-.91-3.82 2.07.99 3.74 2.66 4.73 4.73-1.26-.38-2.53-.69-3.82-.91zM6.82 6.809c-1.29.2-2.57.52-3.84.9.97-2.01 2.58-3.66 4.57-4.65.03 0 .07.03.1.03-.36 1.22-.62 2.46-.83 3.72zM8.512 6.59c.25-1.37.57-2.74 1.02-4.06.02-.08.01-.14.02-.22.79-.19 1.6-.31 2.45-.31.84 0 1.66.12 2.44.31.01.08.01.14.03.22.45 1.33.77 2.69 1.02 4.06-2.32-.26-4.66-.26-6.98 0zM2.53 14.472c-.08-.02-.14-.01-.22-.02-.19-.79-.31-1.6-.31-2.45 0-.84.12-1.66.31-2.44.08-.01.14-.01.22-.03 1.33-.44 2.68-.77 4.06-1.02-.25 2.32-.25 4.66 0 6.98-1.38-.25-2.74-.57-4.06-1.02zM21.69 14.452c-.08.01-.14 0-.22.02-1.33.44-2.69.77-4.06 1.02.26-2.32.26-4.66 0-6.98 1.37.25 2.74.57 4.06 1.02.08.02.14.03.22.03.19.79.31 1.6.31 2.44 0 .85-.12 1.66-.31 2.45zM14.472 21.47c-.02.08-.02.14-.03.22-.78.19-1.6.31-2.44.31-.85 0-1.66-.12-2.45-.31-.01-.08 0-.14-.02-.22a29.77 29.77 0 0 1-1.02-4.06c1.16.13 2.32.22 3.49.22 1.17 0 2.34-.09 3.49-.22-.25 1.38-.57 2.74-1.02 4.06zM8.237 15.763a30.04 30.04 0 0 1 0-7.526 30.04 30.04 0 0 1 7.526 0 30.04 30.04 0 0 1 0 7.526 30.04 30.04 0 0 1-7.526 0z"/>
    </g>
</svg>
