<svg width="24" height="24" viewBox="0 0 24 24" xmlns="http://www.w3.org/2000/svg">
    <g fill="#292D32" fill-rule="evenodd">
        <path d="M1.25 11c0-5.38 4.37-9.75 9.75-9.75.41 0 .75.34.75.75s-.34.75-.75.75c-4.55 0-8.25 3.7-8.25 8.25s3.7 8.25 8.25 8.25 8.25-3.7 8.25-8.25c0-.41.34-.75.75-.75s.75.34.75.75c0 5.38-4.37 9.75-9.75 9.75S1.25 16.38 1.25 11z" fill-rule="nonzero"/>
        <path d="M12.78 6.36c-.45-1.41.07-3.26 1.7-3.79.7-.23 1.43-.12 2.01.25.57-.37 1.32-.47 2.02-.25 1.63.53 2.16 2.38 1.7 3.79-.65 2.1-2.9 3.18-3.71 3.18-.92 0-3.06-1.12-3.72-3.18zm3.73 1.69c.32-.03 1.85-.77 2.27-2.13.23-.73 0-1.67-.73-1.91-.31-.1-.73-.04-.93.25a.745.745 0 0 1-1.23.03c-.23-.33-.65-.38-.95-.29-.72.24-.96 1.18-.73 1.91.46 1.45 2.02 2.11 2.3 2.14zM19.93 22.77c-.47-.06-1.32-.38-1.8-1.81-.25-.75-.16-1.5.25-2.07.41-.57 1.1-.89 1.89-.89 1.02 0 1.82.39 2.18 1.08.36.69.26 1.57-.31 2.42-.71 1.07-1.48 1.29-1.98 1.29-.08 0-.16-.01-.23-.02zm.2-1.48c.16.02.46-.17.77-.62.29-.43.31-.74.24-.88s-.35-.29-.87-.29c-.31 0-.54.1-.67.27-.12.17-.14.43-.04.72.17.52.41.78.57.8z"/>
    </g>
</svg>
