<svg width="24" height="24" viewBox="0 0 24 24" xmlns="http://www.w3.org/2000/svg">
    <g fill="#292D32" fill-rule="evenodd">
        <path d="M9 22.75c-5.43 0-7.75-2.32-7.75-7.75V9c0-5.43 2.32-7.75 7.75-7.75h6c5.43 0 7.75 2.32 7.75 7.75v6c0 5.43-2.32 7.75-7.75 7.75H9zM2.75 9v6c0 4.61 1.64 6.25 6.25 6.25h6c4.61 0 6.25-1.64 6.25-6.25V9c0-4.61-1.64-6.25-6.25-6.25H9C4.39 2.75 2.75 4.39 2.75 9z"/>
        <path d="M2 12.75c-.41 0-.75-.34-.75-.75s.34-.75.75-.75h20c.41 0 .75.34.75.75s-.34.75-.75.75H2z" fill-rule="nonzero"/>
        <path d="M7.5 21.5V12c0-.41.34-.75.75-.75s.75.34.75.75v9.5c0 .41-.34.75-.75.75s-.75-.34-.75-.75zM15 22V12c0-.41.34-.75.75-.75s.75.34.75.75v10c0 .41-.34.75-.75.75S15 22.41 15 22z" fill-rule="nonzero"/>
        <path d="M7.5 12V2c0-.41.34-.75.75-.75S9 1.59 9 2v10c0 .41-.34.75-.75.75s-.75-.34-.75-.75zM15 12V2.54c0-.41.34-.75.75-.75s.75.34.75.75V12c0 .41-.34.75-.75.75S15 12.41 15 12z" fill-rule="nonzero"/>
    </g>
</svg>
