<svg width="24" height="24" viewBox="0 0 24 24" xmlns="http://www.w3.org/2000/svg">
    <g fill="#292D32" fill-rule="nonzero">
        <path d="M4 8c-1.1 0-2-.9-2-2V4c0-1.1.9-2 2-2h3c1.1 0 2 .9 2 2v2c0 1.1-.9 2-2 2H4zM17.2 7c-.66 0-1.2-.54-1.2-1.2V4.2c0-.66.54-1.2 1.2-1.2h3.6c.66 0 1.2.54 1.2 1.2v1.6c0 .66-.54 1.2-1.2 1.2h-3.6zM17.2 14.5c-.66 0-1.2-.54-1.2-1.2v-1.6c0-.66.54-1.2 1.2-1.2h3.6c.66 0 1.2.54 1.2 1.2v1.6c0 .66-.54 1.2-1.2 1.2h-3.6z"/>
        <path d="M16.75 12.5c0-.41-.34-.75-.75-.75h-2.75v-6H16c.41 0 .75-.34.75-.75s-.34-.75-.75-.75H9c-.41 0-.75.34-.75.75s.34.75.75.75h2.75V18c0 1.52 1.23 2.75 2.75 2.75H16c.41 0 .75-.34.75-.75s-.34-.75-.75-.75h-1.5c-.69 0-1.25-.56-1.25-1.25v-4.75H16c.41 0 .75-.34.75-.75z" opacity=".96"/>
        <path d="M17.2 22c-.66 0-1.2-.54-1.2-1.2v-1.6c0-.66.54-1.2 1.2-1.2h3.6c.66 0 1.2.54 1.2 1.2v1.6c0 .66-.54 1.2-1.2 1.2h-3.6z"/>
    </g>
</svg>
