<svg width="24" height="24" viewBox="0 0 24 24" xmlns="http://www.w3.org/2000/svg">
    <g fill="#292D32" fill-rule="evenodd">
        <path d="M7.75 7.8H2C2 4.19 4.15 2.02 7.75 2v5.8zM16.25 7.8V2c3.6.02 5.75 2.19 5.75 5.8h-5.75zM16.25 22v-5.7H22c-.04 3.55-2.18 5.68-5.75 5.7zM7.75 22c-3.57-.02-5.71-2.15-5.75-5.7h5.75V22z" fill-rule="nonzero"/>
        <path d="M7.75 9.3v5.5H2V9.3h5.75zM22 9.3v5.5h-5.75V9.3H22zM14.75 9.3v5.5h-5.5V9.3h5.5zM14.75 2v5.8h-5.5V2h5.5zM14.75 16.3V22h-5.5v-5.7h5.5z"/>
    </g>
</svg>
