<svg width="24" height="24" viewBox="0 0 24 24" xmlns="http://www.w3.org/2000/svg">
    <g fill="#292D32" fill-rule="nonzero">
        <path d="M2 9.25c-.41 0-.75-.34-.75-.75s.34-.75.75-.75h11.5c.41 0 .75.34.75.75s-.34.75-.75.75H2zM6 17.25c-.41 0-.75-.34-.75-.75s.34-.75.75-.75h2c.41 0 .75.34.75.75s-.34.75-.75.75H6zM10.5 17.25c-.41 0-.75-.34-.75-.75s.34-.75.75-.75h4c.41 0 .75.34.75.75s-.34.75-.75.75h-4z"/>
        <path d="M6.44 21.25c-3.98 0-5.19-1.2-5.19-5.14V7.89c0-3.94 1.21-5.14 5.19-5.14h7.06c.41 0 .75.34.75.75s-.34.75-.75.75H6.44c-3.14 0-3.69.54-3.69 3.64v8.21c0 3.1.55 3.64 3.69 3.64h11.11c3.14 0 3.69-.54 3.69-3.64v-4.08c0-.41.34-.75.75-.75s.75.34.75.75v4.08c.01 3.95-1.2 5.15-5.18 5.15H6.44z"/>
        <path d="M16.5 7c-.41 0-.75-.34-.75-.75s.34-.75.75-.75H22c.41 0 .75.34.75.75S22.41 7 22 7h-5.5z"/>
        <path d="M18.5 9V3.5c0-.41.34-.75.75-.75s.75.34.75.75V9c0 .41-.34.75-.75.75s-.75-.34-.75-.75z"/>
    </g>
</svg>
