<svg width="24" height="24" viewBox="0 0 24 24" xmlns="http://www.w3.org/2000/svg">
    <g fill="#292D32" fill-rule="evenodd">
        <path d="M9 22.75c-5.43 0-7.75-2.32-7.75-7.75V9c0-5.43 2.32-7.75 7.75-7.75h6c5.43 0 7.75 2.32 7.75 7.75v6c0 5.43-2.32 7.75-7.75 7.75H9zM2.75 9v6c0 4.61 1.64 6.25 6.25 6.25h6c4.61 0 6.25-1.64 6.25-6.25V9c0-4.61-1.64-6.25-6.25-6.25H9C4.39 2.75 2.75 4.39 2.75 9z"/>
        <path d="M7.75 12A4.26 4.26 0 0 1 12 7.75 4.26 4.26 0 0 1 16.25 12 4.26 4.26 0 0 1 12 16.25 4.26 4.26 0 0 1 7.75 12zm1.5 0c0 1.52 1.23 2.75 2.75 2.75s2.75-1.23 2.75-2.75S13.52 9.25 12 9.25 9.25 10.48 9.25 12z"/>
        <path d="M16.62 7.42c-.12-.05-.23-.12-.33-.21-.09-.1-.17-.21-.22-.33A.986.986 0 0 1 16 6.5c0-.13.02-.26.07-.38.06-.13.13-.23.22-.33.05-.04.1-.09.15-.12.06-.04.12-.07.18-.09a1.006 1.006 0 0 1 1.09.21c.09.1.16.2.21.33.05.12.08.25.08.38s-.03.26-.08.38-.12.23-.21.33c-.1.09-.21.16-.33.21-.12.05-.25.08-.38.08s-.26-.03-.38-.08z" fill-rule="nonzero"/>
    </g>
</svg>
