<svg width="24" height="24" viewBox="0 0 24 24" xmlns="http://www.w3.org/2000/svg">
    <g fill="#292D32" fill-rule="nonzero">
        <path d="M19 17.012v.99c0 2.2-1.5 4-4 4H9c-2.5 0-4-1.8-4-4v-.99c0-.55.45-1 1-1h12c.55 0 1 .45 1 1zM19 13.5c0 .55-.45 1-1 1H6c-.55 0-1-.45-1-1V6c0-2.2 1.5-4 4-4h6c2.5 0 4 1.8 4 4v7.5zM2.25 20V4c0-.41.34-.75.75-.75s.75.34.75.75v16c0 .41-.34.75-.75.75s-.75-.34-.75-.75zM20.25 20V4c0-.41.34-.75.75-.75s.75.34.75.75v16c0 .41-.34.75-.75.75s-.75-.34-.75-.75z"/>
    </g>
</svg>
