<svg width="24" height="24" viewBox="0 0 24 24" xmlns="http://www.w3.org/2000/svg">
    <g fill="#292D32" fill-rule="evenodd">
        <path d="M11.14 21.52c-3.82-1.31-9.89-5.95-9.89-12.83 0-3.5 2.83-6.34 6.31-6.34 1.69 0 3.27.66 4.44 1.84a6.214 6.214 0 0 1 4.44-1.84c3.48 0 6.31 2.84 6.31 6.34 0 1.21-.18 2.4-.54 3.54a.75.75 0 1 1-1.43-.45c.31-.99.47-2.03.47-3.08 0-2.67-2.16-4.84-4.81-4.84-1.52 0-2.93.71-3.84 1.93-.28.38-.92.38-1.2 0a4.756 4.756 0 0 0-3.84-1.93c-2.65 0-4.81 2.17-4.81 4.84 0 6.84 6.57 10.63 8.88 11.42.06.02.2.05.37.05.41 0 .75.34.75.75s-.34.73-.75.73c-.22 0-.55-.02-.86-.13z" fill-rule="nonzero"/>
        <path d="M13.79 17.8c0-2.18 1.77-3.95 3.95-3.95s3.95 1.77 3.95 3.95-1.77 3.95-3.95 3.95-3.95-1.77-3.95-3.95zm1.5 0c0 1.35 1.1 2.45 2.45 2.45s2.45-1.1 2.45-2.45-1.1-2.45-2.45-2.45-2.45 1.1-2.45 2.45z"/>
        <path d="m21.01 22.13-1-1a.754.754 0 0 1 0-1.06c.29-.29.77-.29 1.06 0l1 1c.29.29.29.77 0 1.06-.15.14-.34.22-.53.22s-.38-.07-.53-.22z" fill-rule="nonzero"/>
    </g>
</svg>
