<svg width="24" height="24" viewBox="0 0 24 24" xmlns="http://www.w3.org/2000/svg">
    <g fill="#292D32" fill-rule="evenodd">
        <path d="M14.898 19.031c0 2.21 1.79 4 4 4s4-1.79 4-4-1.79-4-4-4-4 1.79-4 4zm5.07 1.87c-.19 0-.38-.07-.53-.22l-.53-.53-.55.55c-.15.15-.34.22-.53.22s-.38-.07-.53-.22a.754.754 0 0 1 0-1.06l.55-.55-.53-.53a.754.754 0 0 1 0-1.06c.29-.29.77-.29 1.06 0l.53.53.5-.5c.29-.29.77-.29 1.06 0 .29.29.29.77 0 1.06l-.5.5.53.53c.29.29.29.77 0 1.06-.15.15-.34.22-.53.22z"/>
        <path d="M22 7.998c0 .55-.45 1-1 1H3c-.55 0-1-.45-1-1v-.46c0-2.29 1.85-4.14 4.14-4.14h11.71c2.29 0 4.15 1.86 4.15 4.15v.45z" fill-rule="nonzero"/>
        <path d="M2 16.458c0 2.29 1.85 4.14 4.14 4.14h6.26c.58 0 1.08-.49 1.03-1.07-.14-1.53.35-3.19 1.71-4.51.56-.55 1.25-.97 2-1.21 1.25-.4 2.46-.35 3.53.01a1 1 0 0 0 1.33-.94v-1.39c0-.55-.45-1-1-1H3c-.55.01-1 .46-1 1.01v4.96zm4 .79c-.41 0-.75-.34-.75-.75s.34-.75.75-.75h2c.41 0 .75.34.75.75s-.34.75-.75.75H6z"/>
    </g>
</svg>
