<svg width="24" height="24" viewBox="0 0 24 24" xmlns="http://www.w3.org/2000/svg">
    <g fill="#292D32" fill-rule="evenodd">
        <path d="M16.02 16.75H6.36c-2.63-.18-3.81-2.2-3.81-4 0-1.58.91-3.33 2.89-3.85-.52-2.17-.04-4.2 1.37-5.68 1.64-1.72 4.26-2.4 6.53-1.7 2.06.63 3.51 2.31 4.05 4.64 1.79.43 3.22 1.79 3.79 3.67.63 2.06.05 4.17-1.5 5.52-.97.9-2.26 1.4-3.62 1.4h-.04zm-11.95-4c0 1.16.73 2.38 2.36 2.5H16.07c.98 0 1.92-.36 2.63-1.02 1.32-1.15 1.41-2.8 1.06-3.97-.36-1.17-1.35-2.49-3.09-2.71a.753.753 0 0 1-.65-.62c-.34-2.05-1.45-3.46-3.11-3.97-1.71-.52-3.76.01-5 1.31-1.21 1.27-1.49 3.04-.79 5a.75.75 0 0 1-.45.96c-.09.02-.17.04-.27.03-1.61.13-2.33 1.34-2.33 2.49z"/>
        <path d="M11.25 19v-3c0-.41.34-.75.75-.75s.75.34.75.75v3c0 .41-.34.75-.75.75s-.75-.34-.75-.75z" fill-rule="nonzero"/>
        <path d="M9.25 21c0-1.52 1.23-2.75 2.75-2.75s2.75 1.23 2.75 2.75-1.23 2.75-2.75 2.75S9.25 22.52 9.25 21zm1.5 0a1.25 1.25 0 1 0 2.5 0 1.25 1.25 0 0 0-2.5 0z"/>
        <path d="M14 21.75c-.41 0-.75-.34-.75-.75s.34-.75.75-.75h4c.41 0 .75.34.75.75s-.34.75-.75.75h-4zM6 21.75c-.41 0-.75-.34-.75-.75s.34-.75.75-.75h4c.41 0 .75.34.75.75s-.34.75-.75.75H6z" fill-rule="nonzero"/>
    </g>
</svg>
