<svg width="24" height="24" viewBox="0 0 24 24" xmlns="http://www.w3.org/2000/svg">
    <g fill="#292D32" fill-rule="evenodd">
        <path d="M9 22.75c-5.43 0-7.75-2.32-7.75-7.75V9c0-5.43 2.32-7.75 7.75-7.75h6c5.43 0 7.75 2.32 7.75 7.75v6c0 5.43-2.32 7.75-7.75 7.75H9zM2.75 9v6c0 4.61 1.64 6.25 6.25 6.25h6c4.61 0 6.25-1.64 6.25-6.25V9c0-4.61-1.64-6.25-6.25-6.25H9C4.39 2.75 2.75 4.39 2.75 9z"/>
        <path d="M2.03 9.25c-.41 0-.75-.34-.75-.75s.34-.75.75-.75H22c.41 0 .75.34.75.75s-.34.75-.75.75H2.03zM2.03 16.25c-.41 0-.75-.34-.75-.75s.34-.75.75-.75H22c.41 0 .75.34.75.75s-.34.75-.75.75H2.03z" fill-rule="nonzero"/>
        <path d="M7.76 21.99V2.01c0-.41.34-.75.75-.75s.75.34.75.75v19.97c0 .42-.33.76-.75.76-.41 0-.75-.34-.75-.75zM14.76 21.99V2.01c0-.41.34-.75.75-.75s.75.34.75.75v19.97c0 .42-.33.76-.75.76-.41 0-.75-.34-.75-.75z" fill-rule="nonzero"/>
    </g>
</svg>
