<svg width="24" height="24" viewBox="0 0 24 24" xmlns="http://www.w3.org/2000/svg">
    <g fill="#292D32" fill-rule="evenodd">
        <path d="M5.09 3C3.1 3 2.1 4.01 2.1 6.02V22h5.4v-3.75a.749.749 0 1 1 1.5 0V22h5.3V6.02c0-2.01-.99-3.02-2.98-3.02H5.09zm.71 9.75c-.41 0-.75-.34-.75-.75s.34-.75.75-.75h4.95c.41 0 .75.34.75.75s-.34.75-.75.75H5.8zM5.8 9c-.41 0-.75-.34-.75-.75s.34-.75.75-.75h4.95c.41 0 .75.34.75.75s-.34.75-.75.75H5.8z"/>
        <path d="M20.73 21.251v-3c.95-.31 1.64-1.2 1.64-2.25v-2c0-1.31-1.07-2.38-2.38-2.38-1.31 0-2.38 1.07-2.38 2.38v2c0 1.04.68 1.92 1.61 2.24v3.01H1c-.41 0-.75.34-.75.75s.34.75.75.75h18.93c.02 0 .03.01.05.01.02 0 .03-.01.05-.01H23c.41 0 .75-.34.75-.75s-.34-.75-.75-.75h-2.27z" fill-rule="nonzero"/>
    </g>
</svg>
