<svg width="24" height="24" viewBox="0 0 24 24" xmlns="http://www.w3.org/2000/svg">
    <g fill="#292D32" fill-rule="evenodd">
        <path d="M6.25 12.26c0-1.14.33-2.25.97-3.19.23-.34.7-.44 1.04-.21.34.23.44.7.21 1.04a4.26 4.26 0 0 0 3.54 6.61 4.26 4.26 0 0 0 4.25-4.25 4.26 4.26 0 0 0-4.25-4.25c-.5 0-.98.07-1.45.21a.76.76 0 0 1-.94-.5c-.12-.4.1-.82.5-.94.61-.19 1.24-.28 1.89-.28 3.17 0 5.75 2.58 5.75 5.75s-2.59 5.76-5.76 5.76-5.75-2.58-5.75-5.75z" fill-rule="nonzero"/>
        <path d="M9.13 8.22a.756.756 0 0 1-.07-1.06l1.67-1.91c.27-.31.75-.35 1.06-.07.31.27.34.75.07 1.06l-1.67 1.91c-.16.16-.36.25-.57.25-.17 0-.35-.06-.49-.18z" fill-rule="nonzero"/>
        <path d="M11.12 9.68 9.18 8.26a.75.75 0 0 1-.16-1.05.75.75 0 0 1 1.05-.16l1.94 1.42c.33.24.41.71.16 1.05-.15.19-.38.3-.61.3-.15 0-.31-.05-.44-.14z" fill-rule="nonzero"/>
        <path d="M9 22.75c-5.43 0-7.75-2.32-7.75-7.75V9c0-5.43 2.32-7.75 7.75-7.75h6c5.43 0 7.75 2.32 7.75 7.75v6c0 5.43-2.32 7.75-7.75 7.75H9zM2.75 9v6c0 4.61 1.64 6.25 6.25 6.25h6c4.61 0 6.25-1.64 6.25-6.25V9c0-4.61-1.64-6.25-6.25-6.25H9C4.39 2.75 2.75 4.39 2.75 9z"/>
    </g>
</svg>
