<svg width="24" height="24" viewBox="0 0 24 24" xmlns="http://www.w3.org/2000/svg">
    <g fill="#292D32" fill-rule="evenodd">
        <path d="M10.89 17.42c-1.64 0-2.97-1.38-2.97-3.08 0-.41.34-.75.75-.75s.75.34.75.75c0 .87.66 1.58 1.47 1.58h2.51c.65 0 1.19-.58 1.19-1.28 0-.87-.31-1.04-.82-1.22L9.74 12c-.78-.27-1.83-.85-1.83-2.64 0-1.54 1.21-2.78 2.69-2.78h2.51c1.64 0 2.97 1.38 2.97 3.08 0 .41-.34.75-.75.75s-.75-.34-.75-.75c0-.87-.66-1.58-1.47-1.58H10.6c-.65 0-1.19.58-1.19 1.28 0 .87.31 1.04.82 1.22L14.26 12c.78.27 1.83.85 1.83 2.64-.01 1.53-1.21 2.78-2.69 2.78h-2.51z" fill-rule="nonzero"/>
        <path d="M11.25 18V6c0-.41.34-.75.75-.75s.75.34.75.75v12c0 .41-.34.75-.75.75s-.75-.34-.75-.75z" fill-rule="nonzero"/>
        <path d="M9 22.75c-5.43 0-7.75-2.32-7.75-7.75V9c0-5.43 2.32-7.75 7.75-7.75h6c5.43 0 7.75 2.32 7.75 7.75v6c0 5.43-2.32 7.75-7.75 7.75H9zM2.75 9v6c0 4.61 1.64 6.25 6.25 6.25h6c4.61 0 6.25-1.64 6.25-6.25V9c0-4.61-1.64-6.25-6.25-6.25H9C4.39 2.75 2.75 4.39 2.75 9z"/>
    </g>
</svg>
