<svg width="24" height="24" viewBox="0 0 24 24" xmlns="http://www.w3.org/2000/svg">
    <g fill="#292D32" fill-rule="nonzero">
        <path d="M14.678 17.862c0-.4.33-.73.73-.73 2.82 0 5.12-2.3 5.12-5.12 0-2.82-2.3-5.12-5.12-5.12a5.13 5.13 0 0 0-5.12 5.12c0 .4-.33.73-.73.73-.4 0-.73-.33-.73-.73 0-3.63 2.95-6.59 6.59-6.59 3.64 0 6.58 2.95 6.58 6.58s-2.95 6.59-6.59 6.59c-.4 0-.73-.33-.73-.73z"/>
        <path d="M9.32 6.14c0 .4-.33.73-.73.73a5.13 5.13 0 0 0-5.12 5.12c0 2.82 2.3 5.12 5.12 5.12 2.82 0 5.12-2.3 5.12-5.12 0-.4.33-.73.73-.73.4 0 .73.33.73.73 0 3.63-2.95 6.59-6.59 6.59C4.94 18.58 2 15.63 2 12s2.95-6.59 6.59-6.59c.4 0 .73.33.73.73z"/>
    </g>
</svg>
