<svg width="24" height="24" viewBox="0 0 24 24" xmlns="http://www.w3.org/2000/svg">
    <g fill="#292D32" fill-rule="evenodd">
        <path d="M18.42 9.82v1.58c0 3.54-2.88 6.42-6.42 6.42s-6.42-2.88-6.42-6.42V9.81c0-.39-.31-.7-.7-.7-.39 0-.7.31-.7.7v1.58c0 4.07 3.13 7.42 7.12 7.78v2.13c0 .39.31.7.7.7.39 0 .7-.31.7-.7v-2.13c3.98-.35 7.12-3.71 7.12-7.78V9.81a.707.707 0 0 0-.7-.69c-.39 0-.7.31-.7.7z" fill-rule="nonzero"/>
        <path d="M7.578 6.42v5.12c0 2.44 1.98 4.42 4.42 4.42s4.42-1.98 4.42-4.42V6.42c0-2.44-1.98-4.42-4.42-4.42s-4.42 1.98-4.42 4.42zm5.17 2.96c-.05 0-.1-.01-.15-.02-.39-.11-.8-.11-1.19 0-.32.09-.63-.1-.71-.41-.09-.31.1-.63.41-.71.59-.16 1.21-.16 1.8 0a.582.582 0 0 1-.16 1.14zm.54-1.99c-.07 0-.13-.01-.2-.03-.7-.26-1.48-.26-2.18 0a.59.59 0 0 1-.75-.35c-.11-.3.05-.64.35-.74a4.36 4.36 0 0 1 2.98 0c.3.11.46.44.35.74a.58.58 0 0 1-.55.38z"/>
    </g>
</svg>
