<svg width="24" height="24" viewBox="0 0 24 24" xmlns="http://www.w3.org/2000/svg">
    <g fill="#292D32" fill-rule="evenodd">
        <path d="M3.75 12c0-4.55 3.7-8.25 8.25-8.25s8.25 3.7 8.25 8.25-3.7 8.25-8.25 8.25-8.25-3.7-8.25-8.25zm1.5 0c0 3.72 3.03 6.75 6.75 6.75s6.75-3.03 6.75-6.75S15.72 5.25 12 5.25 5.25 8.28 5.25 12z"/>
        <path d="M8.25 12c0-2.07 1.68-3.75 3.75-3.75 2.07 0 3.75 1.68 3.75 3.75 0 2.07-1.68 3.75-3.75 3.75-2.07 0-3.75-1.68-3.75-3.75zm1.5 0c0 1.24 1.01 2.25 2.25 2.25s2.25-1.01 2.25-2.25S13.24 9.75 12 9.75 9.75 10.76 9.75 12z"/>
        <path d="M11.25 4V2c0-.41.34-.75.75-.75s.75.34.75.75v2c0 .41-.34.75-.75.75s-.75-.34-.75-.75zM2 12.75c-.41 0-.75-.34-.75-.75s.34-.75.75-.75h2c.41 0 .75.34.75.75s-.34.75-.75.75H2zM11.25 22v-2c0-.41.34-.75.75-.75s.75.34.75.75v2c0 .41-.34.75-.75.75s-.75-.34-.75-.75zM20 12.75c-.41 0-.75-.34-.75-.75s.34-.75.75-.75h2c.41 0 .75.34.75.75s-.34.75-.75.75h-2z" fill-rule="nonzero"/>
    </g>
</svg>
