<svg width="24" height="24" viewBox="0 0 24 24" xmlns="http://www.w3.org/2000/svg">
    <g fill="#292D32" fill-rule="evenodd">
        <path d="M9 22.75c-5.43 0-7.75-2.32-7.75-7.75V9c0-5.43 2.32-7.75 7.75-7.75h6c5.43 0 7.75 2.32 7.75 7.75v6c0 5.43-2.32 7.75-7.75 7.75H9zM2.75 9v6c0 4.61 1.64 6.25 6.25 6.25h6c4.61 0 6.25-1.64 6.25-6.25V9c0-4.61-1.64-6.25-6.25-6.25H9C4.39 2.75 2.75 4.39 2.75 9z"/>
        <path d="M8.19 16.78c-1.07 0-1.94-.87-1.94-1.94v-2.67c0-.41.34-.75.75-.75h2.68c1.09 0 1.94.85 1.94 1.94v1.49a1.933 1.933 0 0 1-1.94 1.93H8.19zm-.44-1.95c0 .24.2.44.44.44h1.49c.32 0 .44-.24.44-.44v-1.49c0-.2-.11-.44-.44-.44H7.75v1.93z"/>
        <path d="M6.25 12.16c0-3.08.67-3.77 2.46-4.83a.76.76 0 0 1 1.03.26c.21.35.09.82-.26 1.03-1.36.81-1.73 1.02-1.73 3.54a.749.749 0 1 1-1.5 0z" fill-rule="nonzero"/>
        <path d="M14.319 16.78c-1.07 0-1.94-.87-1.94-1.94v-2.67c0-.41.34-.75.75-.75h2.68c1.09 0 1.94.85 1.94 1.94v1.49c0 1.07-.85 1.93-1.94 1.93h-1.49zm-.43-1.95c0 .24.2.44.44.44h1.49c.32 0 .44-.24.44-.44v-1.49c0-.2-.11-.44-.44-.44h-1.93v1.93z"/>
        <path d="M12.39 12.16c0-3.08.67-3.77 2.46-4.83.36-.21.82-.09 1.03.26.21.35.09.82-.26 1.03-1.36.81-1.73 1.02-1.73 3.54a.749.749 0 1 1-1.5 0z" fill-rule="nonzero"/>
    </g>
</svg>
