<svg width="24" height="24" viewBox="0 0 24 24" xmlns="http://www.w3.org/2000/svg">
    <g fill="#292D32" fill-rule="evenodd">
        <path d="M4.25 16V9c0-.41.34-.75.75-.75s.75.34.75.75v7c0 .41-.34.75-.75.75s-.75-.34-.75-.75z" fill-rule="nonzero"/>
        <path d="M1.25 5.25c0-2.21 1.79-4 4-4s4 1.79 4 4-1.79 4-4 4-4-1.79-4-4zm1.5 0a2.5 2.5 0 0 0 5 0 2.5 2.5 0 0 0-5 0zM1.25 19c0-2.07 1.68-3.75 3.75-3.75 2.07 0 3.75 1.68 3.75 3.75 0 2.07-1.68 3.75-3.75 3.75-2.07 0-3.75-1.68-3.75-3.75zm1.5 0c0 1.24 1.01 2.25 2.25 2.25S7.25 20.24 7.25 19 6.24 16.75 5 16.75 2.75 17.76 2.75 19zM15.25 19c0-2.07 1.68-3.75 3.75-3.75 2.07 0 3.75 1.68 3.75 3.75 0 2.07-1.68 3.75-3.75 3.75-2.07 0-3.75-1.68-3.75-3.75zm1.5 0c0 1.24 1.01 2.25 2.25 2.25s2.25-1.01 2.25-2.25-1.01-2.25-2.25-2.25-2.25 1.01-2.25 2.25z"/>
        <path d="M17.46 16.29a5.227 5.227 0 0 0-4.94-3.51h-.02l-3.43.01h-.02c-2.19 0-4.1-1.48-4.65-3.6a.75.75 0 0 1 1.45-.37 3.305 3.305 0 0 0 3.2 2.48h.01l3.43-.01h.03a6.72 6.72 0 0 1 6.35 4.52.74.74 0 0 1-.46.95c-.08.01-.16.03-.24.03a.75.75 0 0 1-.71-.5z" fill-rule="nonzero"/>
    </g>
</svg>
