<svg width="24" height="24" viewBox="0 0 24 24" xmlns="http://www.w3.org/2000/svg">
    <g fill="#292D32" fill-rule="evenodd">
        <path d="M5.43 16.75c-2.69 0-4.18-1.48-4.18-4.18V5.43c0-2.69 1.48-4.18 4.18-4.18H10c2.69 0 4.18 1.48 4.18 4.18 0 .41-.34.75-.75.75s-.75-.34-.75-.75c0-1.88-.8-2.68-2.68-2.68H5.43c-1.88 0-2.68.8-2.68 2.68v7.14c0 1.88.8 2.68 2.68 2.68H8c.41 0 .75.34.75.75s-.34.75-.75.75H5.43z" fill-rule="nonzero"/>
        <path d="M14 22.75c-2.69 0-4.18-1.48-4.18-4.18v-7.14c0-2.69 1.48-4.18 4.18-4.18h4.57c2.69 0 4.18 1.48 4.18 4.18v7.14c0 2.7-1.48 4.18-4.18 4.18H14zm-2.68-11.32v7.14c0 1.88.8 2.68 2.68 2.68h4.57c1.88 0 2.68-.8 2.68-2.68v-7.14c0-1.88-.8-2.68-2.68-2.68H14c-1.88 0-2.68.8-2.68 2.68z"/>
        <path d="M14.88 15.75c-.41 0-.75-.34-.75-.75s.34-.75.75-.75h3.25c.41 0 .75.34.75.75s-.34.75-.75.75h-3.25z" fill-rule="nonzero"/>
        <path d="M15.75 16.63v-3.25c0-.41.34-.75.75-.75s.75.34.75.75v3.25c0 .41-.34.75-.75.75s-.75-.34-.75-.75z" fill-rule="nonzero"/>
    </g>
</svg>
