<svg width="24" height="24" viewBox="0 0 24 24" xmlns="http://www.w3.org/2000/svg">
    <g fill="#292D32" fill-rule="evenodd">
        <path d="M12 19a7 7 0 1 1 0-14 7 7 0 0 1 0 14zM11 22v-.08c0-.55.45-1 1-1s1 .45 1 1-.45 1.04-1 1.04-1-.41-1-.96zm7.43-2.15-.13-.13a.996.996 0 1 1 1.41-1.41l.13.13a.996.996 0 1 1-1.41 1.41zm-14.28 0a.996.996 0 0 1 0-1.41l.13-.13a.996.996 0 1 1 1.41 1.41l-.13.13a1.001 1.001 0 0 1-1.41 0zM21.92 13c-.55 0-1-.45-1-1s.45-1 1-1 1.04.45 1.04 1-.41 1-.96 1h-.08zM2 13c-.55 0-1-.45-1-1s.45-1 1-1 1.04.45 1.04 1-.41 1-.96 1H2zm16.3-7.3a.996.996 0 0 1 0-1.41l.13-.13a.996.996 0 1 1 1.41 1.41l-.13.13c-.19.19-.44.29-.7.29-.26 0-.51-.1-.71-.29zm-14.02 0-.13-.14a.996.996 0 1 1 1.41-1.41l.13.13c.39.39.39 1.02 0 1.41-.19.2-.45.3-.7.3-.26 0-.51-.1-.71-.29zM11 2.08V2c0-.55.45-1 1-1s1 .45 1 1-.45 1.04-1 1.04-1-.41-1-.96z"/>
    </g>
</svg>
