<svg width="24" height="24" viewBox="0 0 24 24" xmlns="http://www.w3.org/2000/svg">
    <g fill="#292D32" fill-rule="nonzero">
        <path d="M20.25 12V3.75H12c-.41 0-.75-.34-.75-.75s.34-.75.75-.75h9c.41 0 .75.34.75.75v9c0 .41-.34.75-.75.75s-.75-.34-.75-.75z"/>
        <path d="M2.47 21.53a.755.755 0 0 1 0-1.06l18-18c.29-.29.77-.29 1.06 0 .29.29.29.77 0 1.06l-18 18c-.15.15-.34.22-.53.22s-.38-.07-.53-.22z"/>
        <path d="M16.87 17.93 6.07 7.13a.754.754 0 0 1 0-1.06c.29-.29.77-.29 1.06 0l10.8 10.8c.29.29.29.77 0 1.06-.15.15-.34.22-.53.22s-.38-.07-.53-.22z"/>
    </g>
</svg>
