<svg width="24" height="24" viewBox="0 0 24 24" xmlns="http://www.w3.org/2000/svg">
    <g fill="#292D32" fill-rule="evenodd">
        <path d="M6.21 22.75c-2.74 0-4.96-2.23-4.96-4.96v-7.32c0-2.74 2.23-4.96 4.96-4.96h7.37c2.74 0 4.96 2.23 4.96 4.96v7.32c0 2.73-2.23 4.96-4.96 4.96H6.21zM2.75 10.47v7.32c0 1.91 1.55 3.46 3.46 3.46h7.37c1.91 0 3.46-1.55 3.46-3.46v-7.32c0-1.91-1.55-3.46-3.46-3.46H6.21c-1.91 0-3.46 1.55-3.46 3.46z"/>
        <path d="M4.75 4V2.25c0-.41.34-.75.75-.75s.75.34.75.75V4c0 .41-.34.75-.75.75s-.75-.34-.75-.75zM8.75 4V2.25c0-.41.34-.75.75-.75s.75.34.75.75V4c0 .41-.34.75-.75.75s-.75-.34-.75-.75zM12.75 4V2.25c0-.41.34-.75.75-.75s.75.34.75.75V4c0 .41-.34.75-.75.75s-.75-.34-.75-.75z" fill-rule="nonzero"/>
        <path d="M17.04 17.37V8.95c0-.41.34-.75.75-.75 2.74 0 4.96 2.23 4.96 4.96s-2.23 4.96-4.96 4.96c-.41 0-.75-.34-.75-.75zm1.5-.83a3.464 3.464 0 0 0 0-6.76v6.76z"/>
        <path d="M2 12.75c-.41 0-.75-.34-.75-.75s.34-.75.75-.75h15.51c.41 0 .75.34.75.75s-.34.75-.75.75H2z" fill-rule="nonzero"/>
    </g>
</svg>
