<svg width="24" height="24" viewBox="0 0 24 24" xmlns="http://www.w3.org/2000/svg">
    <g fill="#292D32" fill-rule="evenodd">
        <path d="M5.79 15.44c-1.03 0-1.94-.42-2.5-1.15s-.72-1.72-.45-2.71l2.2-8.08c.34-1.26 1.64-2.25 2.95-2.25H16c1.31 0 2.6.99 2.95 2.25l2.2 8.08c.27.99.11 1.98-.45 2.71s-1.46 1.15-2.49 1.15H5.79zm.7-11.54-2.2 8.08c-.15.54-.08 1.04.2 1.41.28.37.74.56 1.3.56h12.42c.56 0 1.03-.2 1.3-.56.27-.36.35-.86.2-1.41l-2.2-8.08c-.17-.61-.87-1.15-1.5-1.15H7.99c-.63 0-1.34.54-1.5 1.15z"/>
        <path d="M11.25 22v-7c0-.41.34-.75.75-.75s.75.34.75.75v7c0 .41-.34.75-.75.75s-.75-.34-.75-.75z" fill-rule="nonzero"/>
        <path d="M8 22.75c-.41 0-.75-.34-.75-.75s.34-.75.75-.75h8c.41 0 .75.34.75.75s-.34.75-.75.75H8z" fill-rule="nonzero"/>
    </g>
</svg>
