<svg width="24" height="24" viewBox="0 0 24 24" xmlns="http://www.w3.org/2000/svg">
    <g fill="#292D32" fill-rule="evenodd">
        <path d="M2 3.75c-.41 0-.75-.34-.75-.75s.34-.75.75-.75h20c.41 0 .75.34.75.75s-.34.75-.75.75H2zM2 9.75c-.41 0-.75-.34-.75-.75s.34-.75.75-.75h9c.41 0 .75.34.75.75s-.34.75-.75.75H2zM2 15.75c-.41 0-.75-.34-.75-.75s.34-.75.75-.75h6c.41 0 .75.34.75.75s-.34.75-.75.75H2zM2 21.75c-.41 0-.75-.34-.75-.75s.34-.75.75-.75h4c.41 0 .75.34.75.75s-.34.75-.75.75H2z" fill-rule="nonzero"/>
        <path d="m19.51 7.398-4.35 1.18c-1.17.32-1.89 1.27-1.89 2.47v6.23c-.42-.24-.91-.39-1.43-.39-1.61 0-2.93 1.31-2.93 2.93 0 1.61 1.31 2.93 2.93 2.93s2.93-1.31 2.93-2.93v-5.65l6.48-1.77v3.43c-.42-.24-.91-.39-1.43-.39-1.61 0-2.93 1.31-2.93 2.93 0 1.61 1.31 2.93 2.93 2.93s2.93-1.31 2.93-2.93v-8.5c0-1.01-.3-1.75-.89-2.19-.59-.45-1.4-.54-2.35-.28zm-9.1 12.42a1.43 1.43 0 1 1 2.86 0 1.43 1.43 0 0 1-2.86 0zm7.98-1.45a1.43 1.43 0 1 1 2.86 0 1.43 1.43 0 0 1-2.86 0z"/>
    </g>
</svg>
