<svg width="24" height="24" viewBox="0 0 24 24" xmlns="http://www.w3.org/2000/svg">
    <g fill="#292D32" fill-rule="evenodd">
        <path d="M1.99 10.998c0 4.97 4.04 9.01 9.01 9.01s9.01-4.04 9.01-9.01-4.04-9.01-9.01-9.01-9.01 4.04-9.01 9.01zM8 13.248c-.41 0-.75-.34-.75-.75s.34-.75.75-.75h3c.41 0 .75.34.75.75s-.34.75-.75.75H8zm0-3c-.41 0-.75-.34-.75-.75s.34-.75.75-.75h6c.41 0 .75.34.75.75s-.34.75-.75.75H8z"/>
        <path d="M20.02 18c-.71 0-1.32.29-1.68.79-.36.5-.44 1.17-.22 1.84.43 1.3 1.18 1.59 1.59 1.64.06.01.12.01.19.01.44 0 1.12-.19 1.78-1.18.53-.77.63-1.54.31-2.15-.33-.61-1.03-.95-1.97-.95z" fill-rule="nonzero"/>
    </g>
</svg>
