<svg width="24" height="24" viewBox="0 0 24 24" xmlns="http://www.w3.org/2000/svg">
    <path d="M15.3 4.17a4.75 4.75 0 0 0-3.6-1.39l-5 .24c-2 .09-3.59 1.68-3.69 3.67l-.24 5c-.06 1.34.44 2.65 1.39 3.6l4.53 4.53a4.78 4.78 0 0 0 6.75 0l4.39-4.39a4.738 4.738 0 0 0 0-6.73L15.3 4.17zM6.62 9.5c0-1.59 1.3-2.88 2.88-2.88 1.58 0 2.88 1.29 2.88 2.88 0 1.59-1.3 2.88-2.88 2.88-1.58 0-2.88-1.29-2.88-2.88zm6.91 8.03c-.15.15-.34.22-.53.22s-.38-.07-.53-.22a.754.754 0 0 1 0-1.06l4-4c.29-.29.77-.29 1.06 0 .29.29.29.77 0 1.06l-4 4z" fill="#292D32" fill-rule="evenodd"/>
</svg>
