<svg width="24" height="24" viewBox="0 0 24 24" xmlns="http://www.w3.org/2000/svg">
    <path d="M7 3C4.24 3 2 5.24 2 8v8c0 2.76 2.24 5 5 5h10c2.76 0 5-2.24 5-5V8c0-2.76-2.24-5-5-5H7zm3.39 13.82c-.37 0-.69-.28-.74-.65-.13-1.02-.87-1.76-1.89-1.89a.753.753 0 0 1-.65-.84c.05-.41.43-.7.84-.65 1.69.22 2.97 1.5 3.19 3.19.05.4-.24.78-.65.83-.03 0-.06.01-.1.01zm3.05-.51c-.37 0-.69-.28-.74-.65-.31-2.38-2.04-4.12-4.43-4.43a.753.753 0 0 1-.65-.84c.05-.41.43-.7.84-.65 3.08.4 5.33 2.64 5.73 5.73.05.4-.24.77-.65.83-.03 0-.06.01-.1.01zm2.7-.87c-.37 0-.69-.28-.74-.65-.43-3.38-2.89-5.84-6.27-6.27a.753.753 0 0 1-.65-.84c.05-.41.43-.7.84-.65 4.07.52 7.04 3.49 7.57 7.57.05.41-.24.78-.65.83-.03 0-.06.01-.1.01z" fill="#292D32" fill-rule="evenodd"/>
</svg>
