<svg width="24" height="24" viewBox="0 0 24 24" xmlns="http://www.w3.org/2000/svg">
    <g fill="#292D32" fill-rule="evenodd">
        <path d="M7.5 20.75c-.75 0-1.3-.03-1.77-.1-3.32-.36-3.98-2.35-3.98-5.65V9c0-3.3.66-5.29 4.01-5.66.44-.06.99-.09 1.74-.09h9c.75 0 1.3.03 1.77.1 3.32.36 3.98 2.35 3.98 5.65v6c0 3.3-.66 5.29-4.01 5.66-.44.06-.99.09-1.74.09h-9zM5.95 4.83c-2.03.23-2.7.86-2.7 4.17v6c0 3.31.67 3.94 2.67 4.17.42.06.9.08 1.58.08h9c.68 0 1.16-.03 1.55-.08 2.03-.22 2.7-.86 2.7-4.17V9c0-3.31-.67-3.94-2.67-4.17-.42-.06-.9-.08-1.58-.08h-9c-.68 0-1.16.03-1.55.08z"/>
        <path d="M13.5 10.75c-.41 0-.75-.34-.75-.75s.34-.75.75-.75H17c.41 0 .75.34.75.75s-.34.75-.75.75h-3.5zM9.1 10c0-.55.44-1 1-1h.01c.55 0 1 .45 1 1a1.005 1.005 0 0 1-2.01 0zM6.1 10c0-.55.44-1 1-1 .55 0 1 .45 1 1s-.44 1-1 1c-.55 0-1-.45-1-1zM7.02 16.25c-.41 0-.76-.34-.76-.75s.33-.75.74-.75h10c.41 0 .75.34.75.75s-.34.75-.75.75H7.02z" fill-rule="nonzero"/>
    </g>
</svg>
