<svg width="24" height="24" viewBox="0 0 24 24" xmlns="http://www.w3.org/2000/svg">
    <g fill="#292D32" fill-rule="evenodd">
        <path d="M5.02 2C3 2 2 3 2 5.02v3.92C2 11 3 12 5.02 11.95h3.92C11 12 12 11 11.95 8.93V5.02C12 3 11 2 8.93 2H5.02zm2.1 7.04a3.7 3.7 0 0 1-2.18.72c-.41 0-.75-.34-.75-.75s.34-.75.75-.75c1.02 0 1.87-.7 2.18-1.66H4.94c-.41 0-.75-.34-.75-.75s.34-.75.75-.75h1.29c.04-.38.35-.68.74-.68s.7.3.74.68H9a.749.749 0 1 1 0 1.5h-.33c-.09.48-.28.93-.53 1.34.27.2.56.32.87.32.41 0 .75.34.75.75s-.34.75-.75.75c-.68 0-1.34-.26-1.89-.72z"/>
        <path d="M1.25 15c0-.41.34-.75.75-.75s.75.34.75.75c0 2.96 2.06 5.44 4.83 6.09l-.27-.45a.751.751 0 1 1 1.29-.77l1.05 1.75c.14.23.14.52.01.75-.14.23-.39.38-.66.38-4.27 0-7.75-3.48-7.75-7.75zM21.248 9c0-2.96-2.06-5.44-4.83-6.09l.27.45a.751.751 0 1 1-1.29.77l-1.05-1.75a.745.745 0 0 1-.01-.75c.14-.23.39-.38.66-.38 4.27 0 7.75 3.48 7.75 7.75 0 .41-.34.75-.75.75s-.75-.34-.75-.75z" fill-rule="nonzero"/>
        <path d="M11.84 16.932A5.08 5.08 0 1 0 22 16.93a5.08 5.08 0 0 0-10.161.002zm6.55 2.07-.17-.34h-2.59l-.17.34c-.13.26-.4.41-.67.41-.11 0-.23-.03-.33-.08a.763.763 0 0 1-.34-1.01l2.14-4.27a.76.76 0 0 1 .67-.41c.28 0 .54.16.67.42l2.14 4.27c.18.37.03.82-.34 1.01-.37.18-.82.04-1.01-.34z"/>
        <path d="m17.469 17.16-.55-1.09-.54 1.09h1.09z" fill-rule="nonzero"/>
    </g>
</svg>
