<svg width="24" height="24" viewBox="0 0 24 24" xmlns="http://www.w3.org/2000/svg">
    <g fill="#292D32" fill-rule="evenodd">
        <path d="M4.5 8.5c0-4 3.36-7.25 7.5-7.25 4.14 0 7.5 3.25 7.5 7.25s-3.36 7.25-7.5 7.25c-4.14 0-7.5-3.25-7.5-7.25zm1.5 0c0 3.17 2.69 5.75 6 5.75s6-2.58 6-5.75-2.69-5.75-6-5.75S6 5.33 6 8.5z"/>
        <path d="m14.77 22.55-2.69-1.27a.543.543 0 0 0-.18 0l-2.67 1.26c-.59.28-1.21.27-1.69-.04-.5-.32-.79-.91-.78-1.61l.01-7.38c0-.41.32-.77.75-.75.41 0 .75.34.75.75l-.01 7.38c0 .22.06.33.09.34.02.01.11.02.25-.05l2.68-1.27c.43-.2 1.02-.2 1.45 0l2.69 1.27c.14.07.23.06.25.05.03-.02.09-.13.09-.34v-7.56c0-.41.34-.75.75-.75s.75.34.75.75v7.56c0 .71-.29 1.29-.79 1.61-.26.17-.55.25-.85.25-.28 0-.56-.07-.85-.2z" fill-rule="nonzero"/>
    </g>
</svg>
