<svg width="24" height="24" viewBox="0 0 24 24" xmlns="http://www.w3.org/2000/svg">
    <path d="M3.667 12c0 4.592 3.741 8.333 8.333 8.333 4.592 0 8.333-3.741 8.333-8.333 0-4.592-3.741-8.333-8.333-8.333-4.592 0-8.333 3.741-8.333 8.333zM12 8.042a.63.63 0 0 1 .625.625v4.166a.63.63 0 0 1-.625.625.63.63 0 0 1-.625-.625V8.667A.63.63 0 0 1 12 8.042zm.592 7.883a.962.962 0 0 1-.275.175.83.83 0 0 1-.317.067.83.83 0 0 1-.317-.067.962.962 0 0 1-.275-.175.86.86 0 0 1-.175-.275.83.83 0 0 1-.066-.317.83.83 0 0 1 .066-.316c.042-.1.1-.192.175-.275a.962.962 0 0 1 .275-.175.833.833 0 0 1 .634 0c.1.041.191.1.275.175a.962.962 0 0 1 .175.275.83.83 0 0 1 .066.316.83.83 0 0 1-.066.317.86.86 0 0 1-.175.275z" fill="#FFAF00" fill-rule="evenodd"/>
</svg>
