<svg width="24" height="24" viewBox="0 0 24 24" xmlns="http://www.w3.org/2000/svg">
    <g fill="#292D32" fill-rule="evenodd">
        <path d="M8 22.75c-3.02 0-4.75-1.73-4.75-4.75V8.25C3.25 5.1 4.85 3.5 8 3.5c.41 0 .75.34.75.75a1.499 1.499 0 0 0 1.5 1.5h3.5c.83 0 1.5-.67 1.5-1.5 0-.41.34-.75.75-.75 3.15 0 4.75 1.6 4.75 4.75V18c0 3.02-1.73 4.75-4.75 4.75H8zM4.75 8.25V18c0 2.22 1.03 3.25 3.25 3.25h8c2.22 0 3.25-1.03 3.25-3.25V8.25c0-2.39-1.02-3.09-2.6-3.23a3.006 3.006 0 0 1-2.9 2.23h-3.5c-.8 0-1.55-.31-2.12-.88a3.02 3.02 0 0 1-.78-1.35c-1.58.13-2.6.84-2.6 3.23z"/>
        <path d="M10.25 7.25c-.8 0-1.55-.31-2.12-.88-.57-.57-.88-1.32-.88-2.12 0-1.65 1.35-3 3-3h3.5c.8 0 1.55.31 2.12.88.57.57.88 1.32.88 2.12 0 1.65-1.35 3-3 3h-3.5zm-1.5-3a1.499 1.499 0 0 0 1.5 1.5h3.5a1.498 1.498 0 0 0 1.06-2.56c-.28-.28-.66-.44-1.06-.44h-3.5c-.83 0-1.5.67-1.5 1.5z"/>
        <path d="M8 13.75c-.41 0-.75-.34-.75-.75s.34-.75.75-.75h4c.41 0 .75.34.75.75s-.34.75-.75.75H8zM8 17.75c-.41 0-.75-.34-.75-.75s.34-.75.75-.75h8c.41 0 .75.34.75.75s-.34.75-.75.75H8z" fill-rule="nonzero"/>
    </g>
</svg>
