<svg width="24" height="24" viewBox="0 0 24 24" xmlns="http://www.w3.org/2000/svg">
    <g fill="#292D32" fill-rule="evenodd">
        <path d="M14.94 15.73a.751.751 0 0 1-.7-.69c-.22-2.79-2.49-5.05-5.27-5.27a.751.751 0 0 1-.69-.7 7.255 7.255 0 0 1 7.23-7.81c4 0 7.25 3.25 7.25 7.25s-3.26 7.24-7.26 7.24c-.18 0-.38-.01-.56-.02zm.7-1.48a5.755 5.755 0 0 0 5.61-5.75c0-3.17-2.58-5.75-5.75-5.75-3.12 0-5.67 2.5-5.75 5.61 2.98.53 5.37 2.91 5.89 5.89z"/>
        <path d="M1.25 15.5a7.255 7.255 0 0 1 7.81-7.23c3.53.28 6.39 3.14 6.66 6.65.01.2.02.4.02.58.01 4-3.24 7.25-7.24 7.25S1.25 19.5 1.25 15.5zm1.5 0c0 3.17 2.58 5.75 5.75 5.75a5.757 5.757 0 0 0 5.73-6.23c-.22-2.77-2.49-5.04-5.27-5.26-.14 0-.3-.01-.46-.01-3.17 0-5.75 2.58-5.75 5.75z"/>
        <path d="m7.84 18.36-.78-1.42-1.42-.78a.745.745 0 0 1-.39-.66c0-.28.15-.53.39-.66l1.42-.78.78-1.42c.26-.48 1.05-.48 1.32 0l.78 1.42 1.42.78c.24.13.39.38.39.66s-.15.53-.39.66l-1.42.78-.78 1.42c-.13.24-.39.39-.66.39s-.53-.15-.66-.39zm.13-2.63c.13.07.23.17.3.3l.23.41.23-.41c.07-.13.17-.23.3-.3l.41-.23-.41-.23a.723.723 0 0 1-.3-.3l-.23-.41-.23.41c-.07.13-.17.23-.3.3l-.41.23.41.23z"/>
    </g>
</svg>
