<svg width="24" height="24" viewBox="0 0 24 24" xmlns="http://www.w3.org/2000/svg">
    <g fill="#292D32" fill-rule="evenodd">
        <path d="M5.58 7.5a.735.735 0 0 1-.06-.78c.17-.34.41-.67.72-.97l3.25-3.26a4.28 4.28 0 0 1 6.02 0l1.75 1.78C18 5 18.45 5.98 18.5 7.02a.752.752 0 0 1-.87.78c-.2-.03-.41-.04-.63-.04H7c-.24 0-.47.02-.7.05h-.11c-.24 0-.46-.11-.61-.31zm11.24-1.25c-.13-.34-.34-.65-.62-.93l-1.76-1.78c-1.07-1.06-2.82-1.06-3.9 0L7.86 6.25h8.96zM.94 21.44C.49 20.72.25 19.87.25 19c0-2.62 2.13-4.75 4.75-4.75S9.75 16.38 9.75 19c0 .87-.24 1.72-.69 2.45-.84 1.42-2.4 2.3-4.06 2.3-1.66 0-3.22-.88-4.06-2.31zM1.75 19c0 .59.16 1.17.47 1.67.59 1 1.63 1.58 2.78 1.58s2.19-.59 2.78-1.57c.31-.51.47-1.08.47-1.68 0-1.79-1.46-3.25-3.25-3.25S1.75 17.21 1.75 19z"/>
        <path d="M3.51 19.73c-.41 0-.75-.34-.75-.75s.34-.75.75-.75H6.5c.41 0 .75.34.75.75s-.34.75-.76.75H3.51z" fill-rule="nonzero"/>
        <path d="M4.25 20.51v-2.99c0-.41.34-.75.75-.75s.75.34.75.75v2.99a.749.749 0 1 1-1.5 0z" fill-rule="nonzero"/>
        <path d="M7.63 22.75c-.32 0-.6-.2-.71-.49-.11-.3-.02-.63.22-.83.24-.2.46-.46.62-.74.32-.51.48-1.09.48-1.68 0-1.79-1.46-3.25-3.25-3.25-.93 0-1.82.4-2.44 1.11-.21.23-.54.32-.83.21a.757.757 0 0 1-.49-.7V12c0-3.08 1.9-5.31 4.85-5.68.27-.04.58-.07.9-.07h10c.24 0 .55.01.87.06 2.95.34 4.88 2.58 4.88 5.69v5c.02 3.44-2.29 5.75-5.73 5.75H7.63zm9.37-1.5c2.58 0 4.25-1.67 4.25-4.25v-5c0-2.34-1.37-3.95-3.59-4.21-.24-.04-.45-.04-.66-.04H7c-.24 0-.47.02-.7.05-2.2.28-3.55 1.88-3.55 4.2v2.82c.68-.37 1.46-.57 2.25-.57 2.62 0 4.75 2.13 4.75 4.75 0 .79-.2 1.57-.57 2.25H17z"/>
        <path d="M19 17.25c-1.52 0-2.75-1.23-2.75-2.75s1.23-2.75 2.75-2.75h3c.41 0 .75.34.75.75s-.34.75-.75.75h-3a1.25 1.25 0 0 0 0 2.5h3c.41 0 .75.34.75.75s-.34.75-.75.75h-3z" fill-rule="nonzero"/>
    </g>
</svg>
