<svg width="24" height="24" viewBox="0 0 24 24" xmlns="http://www.w3.org/2000/svg">
    <g fill="#292D32" fill-rule="evenodd">
        <path d="M14 5.25c-.41 0-.75-.34-.75-.75s.34-.75.75-.75h7c.41 0 .75.34.75.75s-.34.75-.75.75h-7zM14 10.25c-.41 0-.75-.34-.75-.75s.34-.75.75-.75h7c.41 0 .75.34.75.75s-.34.75-.75.75h-7zM3 15.25c-.41 0-.75-.34-.75-.75s.34-.75.75-.75h18c.41 0 .75.34.75.75s-.34.75-.75.75H3zM3 20.25c-.41 0-.75-.34-.75-.75s.34-.75.75-.75h18c.41 0 .75.34.75.75s-.34.75-.75.75H3z" fill-rule="nonzero"/>
        <path d="M5.08 10.75c-1.54 0-2.33-.78-2.33-2.33V5.58c0-1.54.78-2.33 2.33-2.33h2.85c1.54 0 2.33.78 2.33 2.33v2.85c-.01 1.54-.79 2.32-2.34 2.32H5.08zm-.83-5.17v2.85c0 .71.12.83.83.83h2.85c.71 0 .83-.12.83-.83V5.58c0-.71-.12-.83-.83-.83H5.08c-.71 0-.83.12-.83.83z"/>
    </g>
</svg>
