<svg width="24" height="24" viewBox="0 0 24 24" xmlns="http://www.w3.org/2000/svg">
    <g fill="#292D32" fill-rule="nonzero">
        <path d="M3.38 16.96a7.244 7.244 0 0 1-2.13-5.13c0-4.01 3.25-7.27 7.25-7.27l6.07.02-1.09-1.04a.746.746 0 0 1-.02-1.06c.29-.3.76-.31 1.06-.02l2.44 2.34c.22.21.29.54.18.82-.11.28-.39.47-.7.47l-7.95-.02c-3.17 0-5.75 2.59-5.75 5.77 0 1.53.6 2.98 1.69 4.07.29.29.29.77 0 1.06-.14.14-.33.21-.52.21s-.38-.07-.53-.22zM9.48 21.54 7.04 19.2a.76.76 0 0 1-.18-.82c.11-.28.39-.47.7-.47l7.95.02c3.17 0 5.75-2.59 5.75-5.77 0-1.53-.6-2.98-1.69-4.07a.754.754 0 0 1 0-1.06c.29-.29.77-.29 1.06 0a7.244 7.244 0 0 1 2.13 5.13c0 4.01-3.25 7.27-7.25 7.27l-6.07-.02 1.09 1.04c.3.29.31.76.02 1.06-.16.16-.35.24-.55.24a.75.75 0 0 1-.52-.21z"/>
        <path d="M11.5 14.67v-3.39l-.19.21c-.28.31-.75.33-1.06.06a.755.755 0 0 1-.06-1.06l1.5-1.67c.21-.23.54-.31.83-.2.29.11.48.39.48.7v5.35a.749.749 0 1 1-1.5 0z"/>
    </g>
</svg>
