<svg width="24" height="24" viewBox="0 0 24 24" xmlns="http://www.w3.org/2000/svg">
    <g fill="#292D32" fill-rule="evenodd">
        <path d="M7 22.75c-3.44 0-5.75-2.31-5.75-5.75v-5c0-3.08 1.9-5.31 4.85-5.68.28-.04.59-.07.9-.07h10c.24 0 .55.01.87.06 2.95.34 4.88 2.58 4.88 5.69v5c0 3.44-2.31 5.75-5.75 5.75H7zM6.3 7.8c-2.2.28-3.55 1.88-3.55 4.2v5c0 2.58 1.67 4.25 4.25 4.25h10c2.58 0 4.25-1.67 4.25-4.25v-5c0-2.34-1.37-3.95-3.59-4.21-.24-.04-.45-.04-.66-.04H7c-.24 0-.47.02-.7.05z"/>
        <path d="M5.58 7.5a.735.735 0 0 1-.06-.78c.17-.34.41-.67.72-.97l3.25-3.26a4.28 4.28 0 0 1 6.02 0l1.75 1.77c.74.73 1.19 1.71 1.24 2.75a.752.752 0 0 1-.87.78c-.2-.03-.41-.04-.63-.04H7c-.24 0-.47.02-.7.05-.03.01-.07.01-.11.01-.24 0-.46-.11-.61-.31zm11.24-1.25c-.13-.34-.34-.65-.62-.93l-1.76-1.78c-1.07-1.06-2.82-1.06-3.9 0L7.86 6.25h8.96z"/>
        <path d="M19 17.25c-1.52 0-2.75-1.23-2.75-2.75s1.23-2.75 2.75-2.75h3c.41 0 .75.34.75.75s-.34.75-.75.75h-3a1.25 1.25 0 0 0 0 2.5h3c.41 0 .75.34.75.75s-.34.75-.75.75h-3z" fill-rule="nonzero"/>
    </g>
</svg>
