<svg width="24" height="24" viewBox="0 0 24 24" xmlns="http://www.w3.org/2000/svg">
    <g fill="#292D32" fill-rule="evenodd">
        <path d="M7.25 7.75c-.41 0-.75-.34-.75-.75V5c0-2.56 1.19-3.75 3.75-3.75h3.5c2.56 0 3.75 1.19 3.75 3.75v2c0 .41-.34.75-.75.75h-9.5zM16 6.25V5c0-1.7-.55-2.25-2.25-2.25h-3.5C8.55 2.75 8 3.3 8 5v1.25h8zM11 22.75c-2.42 0-3.75-1.33-3.75-3.75v-4c0-.41.34-.75.75-.75h8c.41 0 .75.34.75.75v4c0 2.42-1.33 3.75-3.75 3.75h-2zM8.75 19c0 1.58.67 2.25 2.25 2.25h2c1.58 0 2.25-.67 2.25-2.25v-3.25h-6.5V19z"/>
        <path d="M16 18.75c-.41 0-.75-.34-.75-.75v-2.25h-6.5V18c0 .41-.34.75-.75.75H6c-2.42 0-3.75-1.33-3.75-3.75v-5c0-2.42 1.33-3.75 3.75-3.75h12c2.42 0 3.75 1.33 3.75 3.75v5c0 2.42-1.33 3.75-3.75 3.75h-2zm2-1.5c1.58 0 2.25-.67 2.25-2.25v-5c0-1.58-.67-2.25-2.25-2.25H6c-1.58 0-2.25.67-2.25 2.25v5c0 1.58.67 2.25 2.25 2.25h1.25V15c0-.41.34-.75.75-.75h8c.41 0 .75.34.75.75v2.25H18z"/>
        <path d="M7 15.75c-.41 0-.75-.34-.75-.75s.34-.75.75-.75h10c.41 0 .75.34.75.75s-.34.75-.75.75H7zM7 11.75c-.41 0-.75-.34-.75-.75s.34-.75.75-.75h3c.41 0 .75.34.75.75s-.34.75-.75.75H7z" fill-rule="nonzero"/>
    </g>
</svg>
