<svg width="24" height="24" viewBox="0 0 24 24" xmlns="http://www.w3.org/2000/svg">
    <g fill="#292D32" fill-rule="evenodd">
        <path d="M1.25 12C1.25 6.07 6.07 1.25 12 1.25S22.75 6.07 22.75 12 17.93 22.75 12 22.75 1.25 17.93 1.25 12zm1.5 0c0 5.1 4.15 9.25 9.25 9.25s9.25-4.15 9.25-9.25S17.1 2.75 12 2.75 2.75 6.9 2.75 12z"/>
        <path d="M11.25 13V8c0-.41.34-.75.75-.75s.75.34.75.75v5c0 .41-.34.75-.75.75s-.75-.34-.75-.75zM11.62 16.92c-.12-.05-.23-.12-.33-.21-.09-.1-.16-.2-.21-.33A.995.995 0 0 1 11 16c0-.13.03-.26.08-.38s.12-.23.21-.33c.1-.09.21-.16.33-.21a1 1 0 0 1 .76 0c.12.05.23.12.33.21.09.1.16.21.21.33.05.12.08.25.08.38s-.03.26-.08.38c-.05.13-.12.23-.21.33-.1.09-.21.16-.33.21-.12.05-.25.08-.38.08s-.26-.03-.38-.08z" fill-rule="nonzero"/>
    </g>
</svg>
