<svg width="24" height="24" viewBox="0 0 24 24" xmlns="http://www.w3.org/2000/svg">
    <g fill="#292D32" fill-rule="evenodd">
        <path d="M7 22.75c-4.41 0-5.75-1.34-5.75-5.75V7c0-4.41 1.34-5.75 5.75-5.75h1.5c1.75 0 2.3.57 3 1.5l1.5 2c.33.44.38.5 1 .5h3c4.41 0 5.75 1.34 5.75 5.75v6c0 4.41-1.34 5.75-5.75 5.75H7zM2.75 7v10c0 3.57.67 4.25 4.25 4.25h10c3.58 0 4.25-.68 4.25-4.25v-6c0-3.57-.67-4.25-4.25-4.25h-3c-1.28 0-1.7-.44-2.2-1.1l-1.5-2c-.52-.69-.68-.9-1.8-.9H7c-3.58 0-4.25.68-4.25 4.25z"/>
        <path d="M19.25 6.38V5c0-1.58-.67-2.25-2.25-2.25H8c-.41 0-.75-.34-.75-.75s.34-.75.75-.75h9c2.42 0 3.75 1.33 3.75 3.75v1.38c0 .41-.34.75-.75.75s-.75-.34-.75-.75z" fill-rule="nonzero"/>
    </g>
</svg>
