<svg width="24" height="24" viewBox="0 0 24 24" xmlns="http://www.w3.org/2000/svg">
    <g fill="#292D32" fill-rule="nonzero">
        <path d="m11.35 14.77-2.56-2.56a.754.754 0 0 1 0-1.06c.29-.29.77-.29 1.06 0l2.03 2.03 2.03-2.03c.29-.29.77-.29 1.06 0 .29.29.29.77 0 1.06l-2.56 2.56c-.15.15-.34.22-.53.22s-.38-.07-.53-.22z"/>
        <path d="M11.13 14.17V4c0-.41.34-.75.75-.75s.75.34.75.75v10.17c0 .41-.34.75-.75.75s-.75-.34-.75-.75z"/>
        <path d="M3.25 12.18c0-.41.34-.75.75-.75s.75.34.75.75c0 4.27 2.98 7.25 7.25 7.25s7.25-2.98 7.25-7.25c0-.41.34-.75.75-.75s.75.34.75.75c0 5.15-3.6 8.75-8.75 8.75s-8.75-3.6-8.75-8.75z"/>
    </g>
</svg>
