<svg width="24" height="24" viewBox="0 0 24 24" xmlns="http://www.w3.org/2000/svg">
    <g fill="#292D32" fill-rule="evenodd">
        <path d="M1.75 13.75c0-4.69 3.81-8.5 8.5-8.5 4.69 0 8.5 3.81 8.5 8.5 0 4.69-3.81 8.5-8.5 8.5-4.69 0-8.5-3.81-8.5-8.5zm1.5 0c0 3.86 3.14 7 7 7s7-3.14 7-7-3.14-7-7-7-7 3.14-7 7z"/>
        <path d="M15.47 8.53a.754.754 0 0 1 0-1.06l5.5-5.5c.29-.29.77-.29 1.06 0 .29.29.29.77 0 1.06l-5.5 5.5c-.15.15-.34.22-.53.22s-.38-.07-.53-.22z" fill-rule="nonzero"/>
        <path d="M20.75 9V3.25H15c-.41 0-.75-.34-.75-.75s.34-.75.75-.75h6.5c.41 0 .75.34.75.75V9c0 .41-.34.75-.75.75s-.75-.34-.75-.75z" fill-rule="nonzero"/>
    </g>
</svg>
