<svg width="24" height="24" viewBox="0 0 24 24" xmlns="http://www.w3.org/2000/svg">
    <g fill="#292D32" fill-rule="evenodd">
        <path d="M1.25 12C1.25 6.07 6.07 1.25 12 1.25S22.75 6.07 22.75 12 17.93 22.75 12 22.75 1.25 17.93 1.25 12zm1.5 0c0 5.1 4.15 9.25 9.25 9.25s9.25-4.15 9.25-9.25S17.1 2.75 12 2.75 2.75 6.9 2.75 12z"/>
        <path d="M11.42 18.16c-2.15-.73-5.56-3.35-5.56-7.25 0-2.08 1.68-3.77 3.75-3.77.9 0 1.73.31 2.4.87.67-.56 1.51-.87 2.39-.87 2.07 0 3.75 1.69 3.75 3.77 0 3.89-3.41 6.51-5.57 7.25-.17.06-.38.09-.58.09-.21 0-.41-.03-.58-.09zm-4.07-7.24c0 3.49 3.37 5.43 4.55 5.83.04.01.14.01.18 0 1.18-.4 4.55-2.34 4.55-5.83 0-1.25-1.01-2.27-2.25-2.27-.7 0-1.37.34-1.79.91-.28.38-.92.38-1.2 0a2.18 2.18 0 0 0-1.79-.91c-1.24 0-2.25 1.02-2.25 2.27z"/>
    </g>
</svg>
