<svg width="24" height="24" viewBox="0 0 24 24" xmlns="http://www.w3.org/2000/svg">
    <g fill="#292D32" fill-rule="evenodd">
        <path d="M15.75 4V2.75c0-.41-.34-.75-.75-.75s-.75.34-.75.75v18.5c0 .41.34.75.75.75s.75-.34.75-.75V20H18c2.21 0 4-1.79 4-4V8c0-2.21-1.79-4-4-4h-2.25z" fill-rule="nonzero"/>
        <path d="M2.5 8v8c0 2.21 1.79 4 4 4h5c.55 0 1-.45 1-1V5c0-.55-.45-1-1-1h-5c-2.21 0-4 1.79-4 4zm3.96 4.71c-.1.09-.21.16-.33.21-.12.05-.25.08-.38.08s-.26-.03-.38-.08-.23-.12-.33-.21c-.09-.1-.16-.21-.22-.33a.986.986 0 0 1-.07-.38c0-.26.11-.52.29-.71l.15-.12c.06-.04.12-.07.18-.09.06-.03.12-.05.18-.06.34-.07.68.04.91.27.18.19.29.45.29.71 0 .13-.03.26-.08.38s-.12.23-.21.33zm3.5 0c-.1.09-.21.16-.33.21-.12.05-.25.08-.38.08s-.26-.03-.38-.08-.23-.12-.33-.21a.99.99 0 0 1-.21-1.09c.05-.13.12-.23.21-.33.37-.37 1.04-.37 1.42 0 .18.19.29.45.29.71 0 .13-.03.26-.08.38s-.12.23-.21.33z"/>
    </g>
</svg>
