<svg width="24" height="24" viewBox="0 0 24 24" xmlns="http://www.w3.org/2000/svg">
    <g fill="#292D32" fill-rule="evenodd">
        <path d="M1.25 12C1.25 6.07 6.07 1.25 12 1.25S22.75 6.07 22.75 12 17.93 22.75 12 22.75 1.25 17.93 1.25 12zm1.5 0c0 5.1 4.15 9.25 9.25 9.25s9.25-4.15 9.25-9.25S17.1 2.75 12 2.75 2.75 6.9 2.75 12z"/>
        <path d="M5.371 12a3.62 3.62 0 0 1 6.01-2.72c.31.27.34.75.07 1.06-.27.31-.75.34-1.06.07a2.12 2.12 0 0 0-1.4-.53 2.121 2.121 0 0 0 0 4.24c.51 0 1.01-.19 1.4-.53.31-.27.78-.24 1.06.07.27.31.24.79-.07 1.06A3.62 3.62 0 0 1 5.371 12zM12.371 12a3.62 3.62 0 0 1 6.01-2.72c.31.27.34.75.07 1.06-.27.31-.75.34-1.06.07a2.12 2.12 0 0 0-1.4-.53 2.121 2.121 0 0 0 0 4.24c.51 0 1.01-.19 1.4-.53.31-.27.78-.24 1.06.07.27.31.24.79-.07 1.06a3.62 3.62 0 0 1-6.01-2.72z" fill-rule="nonzero"/>
    </g>
</svg>
