<svg width="24" height="24" viewBox="0 0 24 24" xmlns="http://www.w3.org/2000/svg">
    <g fill="#292D32" fill-rule="evenodd">
        <path d="M2.852 12.78V10.9c0-.39.32-.7.7-.7.38 0 .7.32.7.7v1.88c0 4.27 3.47 7.74 7.74 7.74s7.74-3.47 7.74-7.74V10.9c0-.39.32-.7.7-.7.38 0 .7.32.7.7v1.88c.02 5.05-4.09 9.15-9.13 9.15-5.04 0-9.15-4.1-9.15-9.15z" fill-rule="nonzero"/>
        <path d="M5.898 8.1v4.69c0 3.36 2.74 6.1 6.1 6.1 3.36 0 6.1-2.74 6.1-6.1V8.1c0-3.36-2.74-6.1-6.1-6.1-3.36 0-6.1 2.74-6.1 6.1zm7.69 2.94c-.05 0-.11-.01-.16-.02a5.9 5.9 0 0 0-3.12 0c-.33.09-.66-.1-.75-.43a.61.61 0 0 1 .43-.75c1.23-.34 2.53-.34 3.76 0 .33.09.52.42.43.75a.61.61 0 0 1-.59.45zm.87-2.82c-.07 0-.14-.01-.21-.04a6.897 6.897 0 0 0-4.74 0 .61.61 0 0 1-.79-.36c-.11-.31.05-.66.37-.78 1.8-.65 3.78-.65 5.57 0 .32.12.48.47.37.78a.6.6 0 0 1-.57.4z"/>
    </g>
</svg>
