<svg width="24" height="24" viewBox="0 0 24 24" xmlns="http://www.w3.org/2000/svg">
    <path d="M7.81 2C4.17 2 2 4.17 2 7.81v8.37C2 19.83 4.17 22 7.81 22h8.37c3.64 0 5.81-2.17 5.81-5.81V7.81C22 4.17 19.83 2 16.19 2H7.81zm2.85 15c-.41 0-.75-.34-.75-.75s.34-.75.75-.75h2.67a.749.749 0 1 1 0 1.5h-2.67zM8 12.75c-.41 0-.75-.34-.75-.75s.34-.75.75-.75h8c.41 0 .75.34.75.75s-.34.75-.75.75H8zM6 8.5c-.41 0-.75-.34-.75-.75S5.59 7 6 7h12c.41 0 .75.34.75.75s-.34.75-.75.75H6z" fill="#292D32" fill-rule="evenodd"/>
</svg>
