<svg width="24" height="24" viewBox="0 0 24 24" xmlns="http://www.w3.org/2000/svg">
    <g fill="#292D32" fill-rule="nonzero">
        <path d="M3 22.75c-.41 0-.75-.34-.75-.75s.34-.75.75-.75h18c.41 0 .75.34.75.75s-.34.75-.75.75H3zM3 2.75c-.41 0-.75-.34-.75-.75s.34-.75.75-.75h18c.41 0 .75.34.75.75s-.34.75-.75.75H3zM11.25 18V6c0-.41.34-.75.75-.75s.75.34.75.75v12c0 .41-.34.75-.75.75s-.75-.34-.75-.75z"/>
        <path d="M14.3 8.25 12 5.95l-2.3 2.3c-.29.29-.77.29-1.06 0a.754.754 0 0 1 0-1.06l2.83-2.83c.28-.28.78-.28 1.06 0l2.83 2.83c.29.29.29.77 0 1.06-.15.15-.34.22-.53.22s-.38-.07-.53-.22zM11.47 19.25l-2.83-2.83a.754.754 0 0 1 0-1.06c.29-.29.77-.29 1.06 0l2.3 2.3 2.3-2.3c.29-.29.77-.29 1.06 0 .29.29.29.77 0 1.06l-2.83 2.83a.75.75 0 0 1-1.06 0z"/>
    </g>
</svg>
