<svg width="24" height="24" viewBox="0 0 24 24" xmlns="http://www.w3.org/2000/svg">
    <g fill="#292D32" fill-rule="evenodd">
        <path d="M4.1 22.75c-1.92 0-2.85-.98-2.85-2.98v-4.04c0-2.01.93-2.98 2.85-2.98h15.8c1.92 0 2.85.98 2.85 2.98v4.04c0 2-.93 2.98-2.85 2.98H4.1zm-1.35-7.02v4.04c0 1.27.34 1.48 1.35 1.48h15.8c1.01 0 1.35-.21 1.35-1.48v-4.04c0-1.27-.34-1.48-1.35-1.48H4.1c-1.01 0-1.35.21-1.35 1.48zM4.1 11.25c-1.92 0-2.85-.98-2.85-2.98V4.23c0-2.01.93-2.98 2.85-2.98h8.8c1.92 0 2.85.98 2.85 2.98v4.04c0 2-.93 2.98-2.85 2.98H4.1zM2.75 4.23v4.04c0 1.27.34 1.48 1.35 1.48h8.8c1.01 0 1.35-.21 1.35-1.48V4.23c0-1.27-.34-1.48-1.35-1.48H4.1c-1.01 0-1.35.21-1.35 1.48z"/>
    </g>
</svg>
