<svg width="24" height="24" viewBox="0 0 24 24" xmlns="http://www.w3.org/2000/svg">
    <g fill="#292D32" fill-rule="evenodd">
        <path d="M9 22.75c-5.43 0-7.75-2.32-7.75-7.75V9c0-5.43 2.32-7.75 7.75-7.75h6c5.43 0 7.75 2.32 7.75 7.75v6c0 5.43-2.32 7.75-7.75 7.75H9zM2.75 9v6c0 4.61 1.64 6.25 6.25 6.25h6c4.61 0 6.25-1.64 6.25-6.25V9c0-4.61-1.64-6.25-6.25-6.25H9C4.39 2.75 2.75 4.39 2.75 9z"/>
        <path d="M14.47 10.04 12 7.57l-2.47 2.47c-.29.29-.77.29-1.06 0a.754.754 0 0 1 0-1.06l3-3c.29-.29.77-.29 1.06 0l3 3c.29.29.29.77 0 1.06-.15.15-.34.22-.53.22s-.38-.07-.53-.22z" fill-rule="nonzero"/>
        <path d="M11.25 14.51v-8c0-.41.34-.75.75-.75s.75.34.75.75v8a.749.749 0 1 1-1.5 0zM5.76 17.22a.753.753 0 0 1-.47-.95c.13-.39.56-.61.95-.47 3.72 1.24 7.81 1.24 11.53 0 .39-.13.82.08.95.47.13.39-.08.82-.47.95-2.02.68-4.14 1.01-6.25 1.01-2.11 0-4.23-.34-6.24-1.01z" fill-rule="nonzero"/>
    </g>
</svg>
