<svg width="24" height="24" viewBox="0 0 24 24" xmlns="http://www.w3.org/2000/svg">
    <g fill="#292D32" fill-rule="evenodd">
        <path d="M2 3.25c-.41 0-.75-.34-.75-.75s.34-.75.75-.75h20c.41 0 .75.34.75.75s-.34.75-.75.75H2z" fill-rule="nonzero"/>
        <path d="M3.67 14.47c0 .98.46 1.91 1.25 2.5l5.21 3.9c1.11.83 2.64.83 3.75 0l5.21-3.9c.79-.59 1.25-1.52 1.25-2.5V2.5H3.67v11.97zM8 13.75c-.41 0-.75-.34-.75-.75s.34-.75.75-.75h8c.41 0 .75.34.75.75s-.34.75-.75.75H8zm0-5c-.41 0-.75-.34-.75-.75s.34-.75.75-.75h8c.41 0 .75.34.75.75s-.34.75-.75.75H8z"/>
    </g>
</svg>
