<?xml version="1.0" encoding="UTF-8"?>
<svg width="24px" height="24px" viewBox="0 0 24 24" version="1.1" xmlns="http://www.w3.org/2000/svg" xmlns:xlink="http://www.w3.org/1999/xlink">
    <title>C81BB2FA-0F2D-4B32-ABBD-DF9410034646</title>
    <g id="Bold-Icons" stroke="none" stroke-width="1" fill="none" fill-rule="evenodd">
        <g id="Money-Bold" transform="translate(-108.000000, -636.000000)">
            <g id="math" transform="translate(108.000000, 636.000000)">
                <path d="M7.80999994,2 C4.16999984,2 2,4.16999984 2,7.80999994 L2,16.1800003 C2,19.8300004 4.16999984,22 7.80999994,22 L16.1800003,22 C19.8200004,22 21.9900341,19.8300006 21.9900341,16.1900005 L21.9900341,7.80999994 C22,4.16999984 19.8300006,2 16.1900005,2 L7.80999994,2 Z M11.0299997,18.7199993 C10.8799997,18.8699993 10.69,18.9400005 10.5,18.9400005 C10.31,18.9400005 10.1200003,18.8699993 9.97000027,18.7199993 L8.25,17 L6.53000021,18.7199993 C6.3800002,18.8599993 6.19,18.9400005 6,18.9400005 C5.81,18.9400005 5.6199998,18.8699993 5.46999979,18.7199993 C5.1799998,18.4299993 5.1799998,17.9499998 5.46999979,17.6599998 L7.19000006,15.9399996 L5.46999979,14.2200003 C5.1799998,13.9300003 5.1799998,13.4499998 5.46999979,13.1599998 C5.75999978,12.8699999 6.24000022,12.8699999 6.53000021,13.1599998 L8.25,14.8800001 L9.97000027,13.1599998 C10.2600003,12.8699999 10.7399997,12.8699999 11.0299997,13.1599998 C11.3199997,13.4499998 11.3199997,13.9300003 11.0299997,14.2200003 L9.31000042,15.9399996 L11.0299997,17.6599998 C11.3199997,17.9499998 11.3199997,18.4299993 11.0299997,18.7199993 Z M6,8.81000042 C5.59,8.81000042 5.25,8.47000042 5.25,8.06000042 C5.25,7.65000042 5.59,7.30999994 6,7.30999994 L10.5,7.30999994 C10.91,7.30999994 11.25,7.65000042 11.25,8.06000042 C11.25,8.47000042 10.91,8.81000042 10.5,8.81000042 L6,8.81000042 Z M13.5,18.5599995 C13.09,18.5599995 12.75,18.2199995 12.75,17.8099995 C12.75,17.3999995 13.09,17.0599995 13.5,17.0599995 L18,17.0599995 C18.41,17.0599995 18.75,17.3999995 18.75,17.8099995 C18.75,18.2199995 18.41,18.5599995 18,18.5599995 L13.5,18.5599995 Z M13.5,14.8100004 C13.09,14.8100004 12.75,14.4700004 12.75,14.0600004 C12.75,13.6500004 13.09,13.3100004 13.5,13.3100004 L18,13.3100004 C18.41,13.3100004 18.75,13.6500004 18.75,14.0600004 C18.75,14.4700004 18.41,14.8100004 18,14.8100004 L13.5,14.8100004 Z M16.5200005,8.81000042 L16.5200005,10.3100004 C16.5200005,10.7200004 16.1800005,11.0600004 15.7700005,11.0600004 C15.3600005,11.0600004 15.0200005,10.7200004 15.0200005,10.3100004 L15.0200005,8.81000042 L13.5,8.81000042 C13.09,8.81000042 12.75,8.47000042 12.75,8.06000042 C12.75,7.65000042 13.09,7.30999994 13.5,7.30999994 L15.0200005,7.30999994 L15.0200005,5.80999994 C15.0200005,5.39999995 15.3600005,5.05999994 15.7700005,5.05999994 C16.1800005,5.05999994 16.5200005,5.39999995 16.5200005,5.80999994 L16.5200005,7.30999994 L18,7.30999994 C18.41,7.30999994 18.75,7.65000042 18.75,8.06000042 C18.75,8.47000042 18.41,8.81000042 18,8.81000042 L16.5200005,8.81000042 Z" id="Vector" fill="#292D32"></path>
                <path d="M24,0 L24,24 L0,24 L0,0 L24,0 Z" id="Vector" opacity="0"></path>
            </g>
        </g>
    </g>
</svg>