<svg width="24" height="24" viewBox="0 0 24 24" xmlns="http://www.w3.org/2000/svg">
    <g fill="#292D32" fill-rule="evenodd">
        <path d="M9.53 22.39c-.89-.5-1.42-1.39-1.42-2.4v-5.35c0-.51-.33-1.26-.64-1.65L3.67 9c-.63-.63-1.12-1.73-1.12-2.54V4.14c0-1.61 1.22-2.87 2.77-2.87h13.34a2.77 2.77 0 0 1 2.77 2.77v2.22c0 1.05-.63 2.26-1.23 2.85-.29.29-.77.29-1.06 0a.754.754 0 0 1 0-1.06c.37-.37.79-1.2.79-1.79V4.04c0-.7-.57-1.27-1.27-1.27H5.32c-.71 0-1.27.6-1.27 1.37v2.32c0 .37.3 1.1.69 1.49L8.59 12c.51.63 1.01 1.69 1.01 2.64v5.35c0 .66.45.98.65 1.09.43.24.94.23 1.34-.01l1.4-.9c.29-.17.57-.72.57-1.09 0-.41.34-.75.75-.75s.75.34.75.75c0 .9-.56 1.93-1.27 2.36l-1.39.9a2.863 2.863 0 0 1-2.87.05z" fill-rule="nonzero"/>
        <path d="M12.121 13.32c0-2.18 1.77-3.95 3.95-3.95s3.95 1.77 3.95 3.95-1.77 3.95-3.95 3.95-3.95-1.77-3.95-3.95zm1.5 0c0 1.35 1.1 2.45 2.45 2.45s2.45-1.1 2.45-2.45-1.1-2.45-2.45-2.45-2.45 1.1-2.45 2.45z"/>
        <path d="m19.34 17.65-1-1a.754.754 0 0 1 0-1.06c.29-.29.77-.29 1.06 0l1 1c.29.29.29.77 0 1.06-.14.14-.34.22-.53.22s-.38-.07-.53-.22z" fill-rule="nonzero"/>
    </g>
</svg>
