<svg width="24" height="24" viewBox="0 0 24 24" xmlns="http://www.w3.org/2000/svg">
    <g fill="#292D32" fill-rule="evenodd">
        <path d="M20.5 18.5c0 1.93-1.57 3.5-3.5 3.5H7c-1.93 0-3.5-1.57-3.5-3.5v-.65C3.5 16.28 4.78 15 6.35 15H19.5c.55 0 1 .45 1 1v2.5z" fill-rule="nonzero"/>
        <path d="M8.5 2c-4 0-5 1-5 5v7.58c.76-.67 1.76-1.08 2.85-1.08H19.5c.55 0 1-.45 1-1V7c0-4-1-5-5-5h-7zM8 10.75c-.41 0-.75-.34-.75-.75s.34-.75.75-.75h5c.41 0 .75.34.75.75s-.34.75-.75.75H8zm0-3.5c-.41 0-.75-.34-.75-.75s.34-.75.75-.75h8c.41 0 .75.34.75.75s-.34.75-.75.75H8z"/>
    </g>
</svg>
