<svg width="24" height="24" viewBox="0 0 24 24" xmlns="http://www.w3.org/2000/svg">
    <g fill="#292D32" fill-rule="evenodd">
        <path d="M9.6 20.75c-4.39 0-6.35-1.96-6.35-6.35V9.6c0-4.39 1.96-6.35 6.35-6.35h4.8c4.39 0 6.35 1.96 6.35 6.35v4.8c0 4.39-1.96 6.35-6.35 6.35H9.6zM4.75 9.6v4.8c0 3.58 1.27 4.85 4.85 4.85h4.8c3.58 0 4.85-1.27 4.85-4.85V9.6c0-3.58-1.27-4.85-4.85-4.85H9.6c-3.58 0-4.85 1.27-4.85 4.85z"/>
        <path d="M10.5 17.75c-2.9 0-4.25-1.35-4.25-4.25v-3c0-2.9 1.35-4.25 4.25-4.25h3c2.9 0 4.25 1.35 4.25 4.25v3c0 2.9-1.35 4.25-4.25 4.25h-3zM7.75 10.5v3c0 2.08.67 2.75 2.75 2.75h3c2.08 0 2.75-.67 2.75-2.75v-3c0-2.08-.67-2.75-2.75-2.75h-3c-2.08 0-2.75.67-2.75 2.75z"/>
        <path d="M7.26 4V2c0-.41.34-.75.75-.75s.75.34.75.75v2a.749.749 0 1 1-1.5 0zM11.25 4V2c0-.41.34-.75.75-.75s.75.34.75.75v2c0 .41-.34.75-.75.75s-.75-.34-.75-.75zM15.25 4V2c0-.41.34-.75.75-.75s.75.34.75.75v2c0 .41-.34.75-.75.75s-.75-.34-.75-.75zM20 8.75c-.41 0-.75-.34-.75-.75s.34-.75.75-.75h2a.749.749 0 1 1 0 1.5h-2zM20 12.75c-.41 0-.75-.34-.75-.75s.34-.75.75-.75h2a.749.749 0 1 1 0 1.5h-2zM20 16.75c-.41 0-.75-.34-.75-.75s.34-.75.75-.75h2a.749.749 0 1 1 0 1.5h-2zM15.25 22v-2c0-.41.34-.75.75-.75s.75.34.75.75v2c0 .41-.34.75-.75.75s-.75-.34-.75-.75zM11.26 22v-2c0-.41.34-.75.75-.75s.75.34.75.75v2c0 .41-.34.75-.75.75s-.75-.34-.75-.75zM7.26 22v-2c0-.41.34-.75.75-.75s.75.34.75.75v2c0 .41-.34.75-.75.75s-.75-.34-.75-.75zM2 8.75a.749.749 0 1 1 0-1.5h2a.749.749 0 1 1 0 1.5H2zM2 12.75c-.41 0-.75-.34-.75-.75s.34-.75.75-.75h2a.749.749 0 1 1 0 1.5H2zM2 16.75c-.41 0-.75-.34-.75-.75s.34-.75.75-.75h2a.749.749 0 1 1 0 1.5H2z" fill-rule="nonzero"/>
    </g>
</svg>
