<svg width="24" height="24" viewBox="0 0 24 24" xmlns="http://www.w3.org/2000/svg">
    <g fill="#292D32" fill-rule="evenodd">
        <path d="M16.75 2c0-.41-.34-.75-.75-.75s-.75.34-.75.75v1.5h-6.5V2c0-.41-.34-.75-.75-.75s-.75.34-.75.75v1.56c-2.7.25-4.01 1.86-4.21 4.25-.02.29.22.53.5.53h16.92c.29 0 .53-.25.5-.53-.2-2.39-1.51-4-4.21-4.25V2z" fill-rule="nonzero"/>
        <path d="M4 9.84c-.55 0-1 .45-1 1V17c0 3 1.5 5 5 5h8c3.5 0 5-2 5-5v-6.16c0-.55-.45-1-1-1H4zm11.13 9.91c-.19 0-.38-.07-.53-.22l-.74-.74c-.58.38-1.28.61-2.03.61-2.04 0-3.7-1.66-3.7-3.7s1.66-3.7 3.7-3.7 3.7 1.66 3.7 3.7c0 .75-.23 1.45-.61 2.03l.74.74c.29.29.29.77 0 1.06-.15.15-.34.22-.53.22z"/>
    </g>
</svg>
