<svg width="24" height="24" viewBox="0 0 24 24" xmlns="http://www.w3.org/2000/svg">
    <g fill="#292D32" fill-rule="evenodd">
        <path d="M9 22.75c-5.43 0-7.75-2.32-7.75-7.75V9c0-5.43 2.32-7.75 7.75-7.75h6c5.43 0 7.75 2.32 7.75 7.75v6c0 5.43-2.32 7.75-7.75 7.75H9zM2.75 9v6c0 4.61 1.64 6.25 6.25 6.25h6c4.61 0 6.25-1.64 6.25-6.25V9c0-4.61-1.64-6.25-6.25-6.25H9C4.39 2.75 2.75 4.39 2.75 9z"/>
        <path d="M2.52 17.86c-.41 0-.75-.34-.75-.75s.34-.75.75-.75h18.96a.749.749 0 1 1 0 1.5H2.52zM2.52 7.86a.749.749 0 1 1 0-1.5h18.96a.749.749 0 1 1 0 1.5H2.52z" fill-rule="nonzero"/>
        <path d="M6.22 21.46v-4.35c0-.41.34-.75.75-.75s.75.34.75.75v4.35a.749.749 0 1 1-1.5 0zM11.25 21.97v-4.86c0-.41.34-.75.75-.75s.75.34.75.75v4.86c0 .41-.34.75-.75.75s-.75-.34-.75-.75zM16.22 21.52v-4.41c0-.41.34-.75.75-.75s.75.34.75.75v4.41a.749.749 0 1 1-1.5 0zM6.22 6.46V2.11c0-.41.34-.75.75-.75s.75.34.75.75v4.35a.749.749 0 1 1-1.5 0zM11.25 6.97V2.11c0-.41.34-.75.75-.75s.75.34.75.75v4.86c0 .41-.34.75-.75.75s-.75-.34-.75-.75z" fill-rule="nonzero"/>
        <path d="M11.25 18.03v-11c0-.41.34-.75.75-.75s.75.34.75.75v11c0 .41-.34.75-.75.75s-.75-.34-.75-.75zM16.22 6.52V2.11c0-.41.34-.75.75-.75s.75.34.75.75v4.41a.749.749 0 1 1-1.5 0z" fill-rule="nonzero"/>
    </g>
</svg>
