<?xml version="1.0" encoding="UTF-8"?>
<svg width="24px" height="24px" viewBox="0 0 24 24" version="1.1" xmlns="http://www.w3.org/2000/svg" xmlns:xlink="http://www.w3.org/1999/xlink">
    <title>4925F6AC-7850-476D-ACD3-06C867162F18</title>
    <g id="Outline-Icons" stroke="none" stroke-width="1" fill="none" fill-rule="evenodd">
        <g id="Money" transform="translate(-236.000000, -252.000000)">
            <g id="empty-wallet-time" transform="translate(236.000000, 252.000000)">
                <path d="M7.63952637,22.7502441 C7.32952636,22.7502441 7.04952942,22.5602539 6.93952942,22.2602539 C6.82952942,21.9602539 6.90952088,21.6402368 7.14952087,21.4302368 C7.84952086,20.8102368 8.25952148,19.9202344 8.25952148,18.9902344 C8.25952148,17.2002344 6.79952145,15.7402344 5.00952148,15.7402344 C4.26953125,15.7402344 3.56952268,15.9902661 2.97952271,16.4602661 C2.7495227,16.6402661 2.44952941,16.6702319 2.18952942,16.5502319 C1.92952943,16.4302319 1.76953125,16.1602392 1.76953125,15.8702393 L1.76953125,11.5002441 C1.76953125,9.01024413 3.78952575,6.99023438 6.27952576,6.99023438 L17.7595215,6.99023438 C20.2495215,6.99023438 22.2695312,9.01024413 22.2695312,11.5002441 L22.2695312,12.9402466 C22.2695312,13.3502466 21.9295312,13.6902466 21.5195312,13.6902466 L19.499527,13.6902466 C19.149527,13.6902466 18.8295331,13.8202417 18.5995331,14.0602417 L18.5895233,14.0702515 C18.3095233,14.3402515 18.1795337,14.710271 18.2095337,15.090271 C18.2695312,15.750271 18.8995221,16.2802734 19.6195221,16.2802734 L21.5195312,16.2802734 C21.9295312,16.2802734 22.2695312,16.6202734 22.2695312,17.0302734 L22.2695312,18.2202148 C22.2495313,20.7302148 20.2295325,22.7502441 17.7395325,22.7502441 L7.63952637,22.7502441 Z M17.7395325,21.2502441 C19.3995324,21.2502441 20.749527,19.9002343 20.749527,18.2402344 L20.749527,17.8002319 L19.5995331,17.8002319 C18.0895331,17.8002319 16.8095294,16.6802344 16.6895294,15.2402344 C16.6095294,14.4202344 16.9095215,13.6102636 17.5095215,13.0202637 C18.0295215,12.4902637 18.7295227,12.2002563 19.4795227,12.2002563 L20.749527,12.2002563 L20.749527,11.5102539 C20.749527,9.85025394 19.3995324,8.50024414 17.7395325,8.50024414 L6.25952148,8.50024414 C4.59952152,8.50024414 3.24952698,9.85025394 3.24952698,11.5102539 L3.24952698,14.590271 C3.80952698,14.370271 4.39952695,14.2502441 4.99952698,14.2502441 C7.61952686,14.2502441 9.74952698,16.3802443 9.74952698,19.0002441 C9.74952698,19.7902442 9.54951966,20.5702441 9.17951965,21.2502441 L17.7395325,21.2502441 Z" id="Vector" fill="#292D32"></path>
                <path d="M1.75,11.510335 L1.75,7.84035254 C1.75,6.35035253 2.68000734,4.99029636 4.07000732,4.47029638 L12.0099945,1.47029632 C12.8299945,1.17029631 13.75,1.28035492 14.4600067,1.78035492 C15.1700067,2.28035492 15.6000061,3.09033787 15.6000061,3.95033789 L15.6000061,7.75032568 C15.6000061,8.16032568 15.2600061,8.50032568 14.8500061,8.50032568 C14.4400061,8.50032568 14.1000061,8.16032568 14.1000061,7.75032568 L14.1000061,3.95033789 C14.1000061,3.57033789 13.9200006,3.23033533 13.6100006,3.01033533 C13.2900006,2.79033533 12.8999933,2.74032068 12.5399933,2.87032068 L4.6000061,5.8703208 C3.78000611,6.1803208 3.25,6.95035255 3.25,7.84035254 L3.25,11.510335 C3.25,11.920335 2.91,12.260335 2.5,12.260335 C2.09,12.260335 1.75,11.920335 1.75,11.510335 Z" id="Vector" fill="#292D32" fill-rule="nonzero"></path>
                <path d="M16.6904611,15.2401733 C16.6104611,14.4101734 16.9104531,13.6001928 17.5104532,13.0101929 C18.0204532,12.4901929 18.7204599,12.2001953 19.4704599,12.2001953 L21.5504618,12.2001953 C22.5404618,12.2301953 23.3004618,13.0101538 23.3004618,13.9701538 L23.3004618,16.0302124 C23.3004618,16.9902124 22.5404605,17.7701709 21.5804605,17.8001709 L19.6004648,17.8001709 C18.0904648,17.8001709 16.8104611,16.6801734 16.6904611,15.2401733 Z M19.4804544,13.7001953 C19.1304545,13.7001953 18.8104604,13.8301904 18.5804604,14.0701904 C18.2904604,14.3501904 18.150461,14.7301685 18.190461,15.1101685 C18.250461,15.7701685 18.8804648,16.3001709 19.6004648,16.3001709 L21.5604563,16.3001709 C21.6904563,16.3001709 21.8104563,16.1802124 21.8104563,16.0302124 L21.8104563,13.9701538 C21.8104563,13.8201538 21.6904575,13.7101953 21.5304575,13.7001953 L19.4804544,13.7001953 Z" id="Vector" fill="#292D32"></path>
                <path d="M7,12.75 C6.59,12.75 6.25,12.41 6.25,12 C6.25,11.59 6.59,11.25 7,11.25 L14,11.25 C14.41,11.25 14.75,11.59 14.75,12 C14.75,12.41 14.41,12.75 14,12.75 L7,12.75 Z" id="Vector" fill="#292D32" fill-rule="nonzero"></path>
                <path d="M0.25,19 C0.25,17.54 0.899998784,16.189978 2.02999878,15.289978 C2.86999875,14.619978 3.92999995,14.25 5,14.25 C7.61999989,14.25 9.75,16.3800001 9.75,19 C9.75,20.36 9.15999937,21.6599976 8.13999939,22.5599976 C7.25999939,23.3299975 6.14999998,23.75 5,23.75 C2.38000011,23.75 0.25,21.6199999 0.25,19 Z M2.97000122,16.4699707 C2.20000124,17.0799707 1.75,18.01 1.75,19 C1.75,20.79 3.21000004,22.25 5,22.25 C5.77999997,22.25 6.53999388,21.9600024 7.1499939,21.4400024 C7.84999388,20.8200024 8.25,19.94 8.25,19 C8.25,17.21 6.78999996,15.75 5,15.75 C4.25999999,15.75 3.56000119,15.9999707 2.97000122,16.4699707 Z" id="Vector" fill="#292D32"></path>
                <path d="M3.35988362,20.3900146 C3.14988363,20.0300146 3.25987813,19.5699853 3.61987814,19.3599854 L4.50987756,18.8300171 L4.50987756,17.75 C4.50987756,17.34 4.84987745,17 5.25987744,17 C5.66987744,17 6.00987744,17.34 6.00987744,17.75 L6.00987744,19.25 C6.00987744,19.51 5.86987683,19.7600147 5.64987683,19.8900146 L4.39987695,20.6400146 C4.26987696,20.7200146 4.12988299,20.75 3.999883,20.75 C3.749883,20.75 3.49988362,20.6200147 3.35988362,20.3900146 Z" id="Vector" fill="#292D32" fill-rule="nonzero"></path>
                <path d="M24,0 L24,24 L0,24 L0,0 L24,0 Z" id="Vector" opacity="0"></path>
            </g>
        </g>
    </g>
</svg>