<svg width="24" height="24" viewBox="0 0 24 24" xmlns="http://www.w3.org/2000/svg">
    <g fill="#292D32" fill-rule="evenodd">
        <path d="M9 22.75c-5.43 0-7.75-2.32-7.75-7.75V9c0-5.43 2.32-7.75 7.75-7.75h6c5.43 0 7.75 2.32 7.75 7.75v6c0 5.43-2.32 7.75-7.75 7.75H9zM2.75 9v6c0 4.61 1.64 6.25 6.25 6.25h6c4.61 0 6.25-1.64 6.25-6.25V9c0-4.61-1.64-6.25-6.25-6.25H9C4.39 2.75 2.75 4.39 2.75 9z"/>
        <path d="M10 17.75c-2.07 0-3.75-1.68-3.75-3.75v-4c0-2.07 1.68-3.75 3.75-3.75h4c2.07 0 3.75 1.68 3.75 3.75v4c0 2.07-1.68 3.75-3.75 3.75h-4zM7.75 10v4c0 1.24 1.01 2.25 2.25 2.25h4c1.24 0 2.25-1.01 2.25-2.25v-4c0-1.24-1.01-2.25-2.25-2.25h-4c-1.24 0-2.25 1.01-2.25 2.25z"/>
        <path d="M11.25 17V7c0-.41.34-.75.75-.75s.75.34.75.75v10c0 .41-.34.75-.75.75s-.75-.34-.75-.75z" fill-rule="nonzero"/>
        <path d="M7 12.75c-.41 0-.75-.34-.75-.75s.34-.75.75-.75h10c.41 0 .75.34.75.75s-.34.75-.75.75H7z" fill-rule="nonzero"/>
    </g>
</svg>
