<svg width="24" height="24" viewBox="0 0 24 24" xmlns="http://www.w3.org/2000/svg">
    <g fill="#292D32" fill-rule="nonzero">
        <path d="M17.86 5.93V4.42c0-.6-.49-1.1-1.1-1.1H3.83c-.6 0-1.1.49-1.1 1.1v1.51c0 .41-.34.75-.75.75s-.74-.34-.74-.75V4.42c0-1.43 1.17-2.6 2.6-2.6h12.92c1.43 0 2.6 1.16 2.6 2.6v1.51c0 .41-.34.75-.75.75s-.75-.34-.75-.75z"/>
        <path d="M9.55 18.1V3.32c0-.41.34-.75.75-.75s.75.34.75.75V18.1a.749.749 0 1 1-1.5 0z"/>
        <path d="M6.9 18.85c-.41 0-.75-.34-.75-.75s.34-.75.75-.75h5.58c.41 0 .75.34.75.75s-.34.75-.75.75H6.9zM21.26 12.45v-.8c0-.31-.26-.57-.57-.57h-7.01c-.41 0-.75-.34-.75-.75s.34-.75.75-.75h7.01c1.14 0 2.07.93 2.07 2.07v.8c0 .42-.33.75-.75.75-.41 0-.75-.34-.75-.75z"/>
        <path d="M15.33 21.43V10.87c0-.41.34-.75.75-.75s.75.34.75.75v10.56c0 .41-.34.75-.75.75s-.75-.34-.75-.75z"/>
        <path d="M13.94 22.18c-.41 0-.75-.34-.75-.75s.34-.75.75-.75h4.28c.41 0 .75.34.75.75s-.34.75-.75.75h-4.28z"/>
    </g>
</svg>
