<svg width="24" height="24" viewBox="0 0 24 24" xmlns="http://www.w3.org/2000/svg">
    <g fill="#292D32" fill-rule="evenodd">
        <path d="M7 21.75c-4.41 0-5.75-1.34-5.75-5.75V8c0-4.41 1.34-5.75 5.75-5.75h10c4.41 0 5.75 1.34 5.75 5.75v8c0 4.41-1.34 5.75-5.75 5.75H7zM2.75 8v8c0 3.57.67 4.25 4.25 4.25h10c3.58 0 4.25-.68 4.25-4.25V8c0-3.57-.67-4.25-4.25-4.25H7c-3.58 0-4.25.68-4.25 4.25z"/>
        <path d="M14 8.75c-.41 0-.75-.34-.75-.75s.34-.75.75-.75h5c.41 0 .75.34.75.75s-.34.75-.75.75h-5zM15 12.75c-.41 0-.75-.34-.75-.75s.34-.75.75-.75h4c.41 0 .75.34.75.75s-.34.75-.75.75h-4zM17 16.75c-.41 0-.75-.34-.75-.75s.34-.75.75-.75h2c.41 0 .75.34.75.75s-.34.75-.75.75h-2z" fill-rule="nonzero"/>
        <path d="M5.94 9.48c0-1.41 1.15-2.56 2.56-2.56 1.41 0 2.56 1.15 2.56 2.56 0 1.41-1.15 2.56-2.56 2.56-1.41 0-2.56-1.15-2.56-2.56zm1.5 0c0 .58.48 1.06 1.06 1.06.58 0 1.06-.48 1.06-1.06 0-.58-.48-1.06-1.06-1.06-.58 0-1.06.48-1.06 1.06z"/>
        <path d="M11.25 16.4a2.301 2.301 0 0 0-2.07-2.05 7.95 7.95 0 0 0-1.38 0c-1.09.1-1.96.96-2.07 2.05-.04.41-.41.72-.82.67a.75.75 0 0 1-.67-.82c.18-1.8 1.61-3.23 3.42-3.39.55-.05 1.11-.05 1.66 0 1.8.17 3.24 1.6 3.42 3.39a.75.75 0 0 1-.67.82c-.02.01-.05.01-.07.01-.38 0-.71-.29-.75-.68z" fill-rule="nonzero"/>
    </g>
</svg>
