<svg width="24" height="24" viewBox="0 0 24 24" xmlns="http://www.w3.org/2000/svg">
    <g fill="#292D32" fill-rule="evenodd">
        <path d="M8.75 12c0-1.79 1.46-3.25 3.25-3.25s3.25 1.46 3.25 3.25-1.46 3.25-3.25 3.25S8.75 13.79 8.75 12zm1.5 0c0 .96.79 1.75 1.75 1.75s1.75-.79 1.75-1.75-.79-1.75-1.75-1.75-1.75.79-1.75 1.75z"/>
        <path d="M17.75 14.5v-5c0-.41.34-.75.75-.75s.75.34.75.75v5c0 .41-.34.75-.75.75s-.75-.34-.75-.75z" fill-rule="nonzero"/>
        <path d="M.25 18c0-2.62 2.13-4.75 4.75-4.75S9.75 15.38 9.75 18 7.62 22.75 5 22.75.25 20.62.25 18zm1.5 0c0 1.79 1.46 3.25 3.25 3.25S8.25 19.79 8.25 18 6.79 14.75 5 14.75 1.75 16.21 1.75 18z"/>
        <path d="M3.36 19.39c-.21-.35-.1-.82.26-1.03l.76-.46c.07-.04.12-.13.12-.21v-.93c0-.41.34-.75.75-.75s.75.34.75.75v.93c0 .61-.33 1.19-.85 1.5l-.76.46c-.12.07-.26.1-.39.1-.25 0-.5-.13-.64-.36z" fill-rule="nonzero"/>
        <path d="M8.5 20.75c-.41 0-.75-.34-.75-.75s.34-.75.75-.75H17c2.86 0 4.25-1.39 4.25-4.25V9c0-2.86-1.39-4.25-4.25-4.25H7C4.14 4.75 2.75 6.14 2.75 9v6.2c0 .41-.34.75-.75.75s-.75-.34-.75-.75V9c0-3.65 2.1-5.75 5.75-5.75h10c3.65 0 5.75 2.1 5.75 5.75v6c0 3.65-2.1 5.75-5.75 5.75H8.5z" fill-rule="nonzero"/>
    </g>
</svg>
