<svg width="24" height="24" viewBox="0 0 24 24" xmlns="http://www.w3.org/2000/svg">
    <path d="M16.88 7.638v-.76c0-1.37-.58-2.69-1.6-3.61a4.847 4.847 0 0 0-3.76-1.25c-2.39.23-4.4 2.54-4.4 5.04v.58c-1.4.15-2.41.58-3.08 1.32-.97 1.08-.94 2.52-.83 3.52l.7 5.57c.21 1.95 1 3.95 5.3 3.95h5.58c4.3 0 5.09-2 5.3-3.94l.7-5.59c.11-.99.13-2.43-.83-3.51-.67-.74-1.68-1.17-3.08-1.32zm-2.53-3.34c.73.66 1.14 1.6 1.14 2.58v.7H8.51v-.52c0-1.78 1.47-3.49 3.15-3.65 1-.09 1.95.22 2.69.89zm-5.94 8.85c-.55 0-1-.45-1-1s.45-1 1-1c.56 0 1.01.45 1.01 1s-.45 1-1 1h-.01zm7 0c-.55 0-1-.45-1-1s.45-1 1-1c.56 0 1.01.45 1.01 1s-.45 1-1 1h-.01z" fill="#292D32" fill-rule="evenodd"/>
</svg>
