<?xml version="1.0" encoding="UTF-8"?>
<svg width="24px" height="24px" viewBox="0 0 24 24" version="1.1" xmlns="http://www.w3.org/2000/svg" xmlns:xlink="http://www.w3.org/1999/xlink">
    <title>F7D30BC5-600A-452E-BDA9-8E08F130A560</title>
    <g id="Outline-Icons" stroke="none" stroke-width="1" fill="none" fill-rule="evenodd">
        <g id="Video,-Audio,-Image" transform="translate(-748.000000, -444.000000)">
            <g id="backward-15-seconds" transform="translate(748.000000, 444.000000)">
                <path d="M12.1394573,16.9202881 C11.7294573,16.9202881 11.3894573,16.5802881 11.3894573,16.1702881 C11.3894573,15.7602881 11.7294573,15.4202881 12.1394573,15.4202881 L14.4294353,15.4202881 C14.8594353,15.4202881 15.2094646,15.0703125 15.2094646,14.6403198 C15.2094646,14.2103198 14.8594353,13.8602905 14.4294353,13.8602905 L12.1394573,13.8602905 C11.8994573,13.8602905 11.669472,13.740293 11.529472,13.550293 C11.389472,13.360293 11.3494353,13.1003003 11.4294353,12.8703003 L12.1894451,10.5803223 C12.2894451,10.2703223 12.5794671,10.0703125 12.8994671,10.0703125 L15.9594646,10.0703125 C16.3694645,10.0703125 16.7094646,10.4103125 16.7094646,10.8203125 C16.7094646,11.2303125 16.3694645,11.5703125 15.9594646,11.5703125 L13.439445,11.5703125 L13.1794354,12.3602905 L14.4294353,12.3602905 C15.6894352,12.3602905 16.7094646,13.3803198 16.7094646,14.6403198 C16.7094646,15.9003198 15.6794353,16.9202881 14.4294353,16.9202881 L12.1394573,16.9202881 Z" id="Vector" fill="#292D32" fill-rule="nonzero"></path>
                <path d="M8.78954875,16.1698108 L8.78954875,12.7798572 L8.59954631,12.9998279 C8.31954631,13.3098279 7.84954877,13.3298254 7.53954877,13.0598254 C7.22954877,12.7798254 7.2095512,12.3098279 7.47955121,11.9998279 L8.9795512,10.329845 C9.18955119,10.0998449 9.51956841,10.0198327 9.80956841,10.1298327 C10.0995684,10.2398327 10.2895489,10.5198449 10.2895489,10.829845 L10.2895489,16.1798205 C10.2895489,16.5898205 9.95954886,16.9198108 9.53954887,16.9198108 C9.12954888,16.9198108 8.78954875,16.5798108 8.78954875,16.1698108 Z" id="Vector" fill="#292D32" fill-rule="nonzero"></path>
                <path d="M9.54997233,5.04994845 C9.22997233,4.78994846 9.17997719,4.31996065 9.42997719,3.99996066 L11.4099576,1.52999005 C11.6699576,1.20999005 12.1400065,1.15993391 12.4600065,1.40993391 C12.7800065,1.65993391 12.8300016,2.13998276 12.5800016,2.45998275 L10.5999601,4.92995334 C10.4599601,5.11995333 10.240004,5.21993136 10.020004,5.21993136 C9.85000403,5.21993136 9.68997233,5.16994845 9.54997233,5.04994845 Z" id="Vector" fill="#292D32" fill-rule="nonzero"></path>
                <path d="M2.359375,13.1097412 C2.359375,11.0397413 3.02938724,9.04973149 4.30938721,7.34973145 C4.55938721,7.01973143 5.02937499,6.94976807 5.359375,7.19976807 C5.68937501,7.44976807 5.75939941,7.91975585 5.50939941,8.24975586 C4.42939937,9.68975592 3.859375,11.3697412 3.859375,13.1097412 C3.859375,17.599741 7.50938988,21.2497559 11.9993896,21.2497559 C16.4893894,21.2497559 20.1394043,17.599741 20.1394043,13.1097412 C20.1394043,8.61974144 16.4893894,4.96972656 11.9993896,4.96972656 C11.4193897,4.96972656 10.8293921,5.03975829 10.1893921,5.1897583 C9.77939209,5.2797583 9.37936768,5.02976075 9.28936768,4.62976074 C9.19936767,4.22976074 9.44936523,3.81973633 9.84936523,3.72973633 C10.5993652,3.55973633 11.3093897,3.46972656 11.9993896,3.46972656 C17.3093896,3.46972656 21.6394043,7.78974104 21.6394043,13.1097412 C21.6394043,18.4297414 17.3093896,22.7497559 11.9993896,22.7497559 C6.68938971,22.7497559 2.359375,18.4297414 2.359375,13.1097412 Z" id="Vector" fill="#292D32" fill-rule="nonzero"></path>
                <path d="M24,0 L24,24 L0,24 L0,0 L24,0 Z" id="Vector" opacity="0"></path>
            </g>
        </g>
    </g>
</svg>