<svg width="24" height="24" viewBox="0 0 24 24" xmlns="http://www.w3.org/2000/svg">
    <g fill="#292D32" fill-rule="evenodd">
        <path d="M2.97 21.03c-.54-.54-.84-1.26-.84-2.03 0-.77.3-1.49.84-2.03l13-13a2.873 2.873 0 0 1 4.06 0c.54.54.84 1.26.84 2.03 0 .77-.3 1.49-.84 2.03l-13 13c-.56.56-1.29.84-2.03.84-.74 0-1.47-.28-2.03-.84zm14.06-16-13 13c-.26.26-.4.6-.4.97s.14.71.4.97c.53.53 1.41.53 1.94 0l13-13c.26-.26.4-.6.4-.97s-.14-.71-.4-.97c-.27-.27-.62-.4-.97-.4s-.7.13-.97.4z"/>
        <path d="m17.48 9.52-3-3a.754.754 0 0 1 0-1.06c.29-.29.77-.29 1.06 0l3 3c.29.29.29.77 0 1.06-.15.15-.34.22-.53.22s-.38-.07-.53-.22z" fill-rule="nonzero"/>
        <path d="m9.86 5.48-1.36-.4-1.36.4c-.18.05-.37 0-.49-.13a.494.494 0 0 1-.13-.49l.4-1.36-.4-1.36c-.05-.18 0-.37.13-.49a.5.5 0 0 1 .49-.13l1.36.4 1.36-.4c.18-.05.36 0 .49.13a.5.5 0 0 1 .13.49l-.4 1.36.4 1.36c.05.18 0 .37-.13.49a.47.47 0 0 1-.35.15c-.05 0-.09-.01-.14-.02zm-1.22-1.4.62.18-.18-.62a.447.447 0 0 1 0-.28l.18-.62-.62.18c-.09.03-.19.03-.28 0l-.62-.18.18.62c.03.09.03.19 0 .28l-.18.62.62-.18c.05-.01.09-.02.14-.02.05 0 .09.01.14.02zM5.86 11.48l-1.36-.4-1.36.4c-.18.05-.36 0-.49-.13a.5.5 0 0 1-.13-.49l.4-1.36-.4-1.36c-.05-.18 0-.37.13-.49s.32-.18.49-.13l1.36.4 1.36-.4a.5.5 0 0 1 .49.13.5.5 0 0 1 .13.49l-.4 1.36.4 1.36c.05.18 0 .37-.13.49a.47.47 0 0 1-.35.15c-.05 0-.09-.01-.14-.02zm-1.22-1.4.62.18-.18-.62a.447.447 0 0 1 0-.28l.18-.62-.62.18c-.09.03-.19.03-.28 0l-.62-.18.18.62c.03.09.03.19 0 .28l-.18.62.62-.18c.05-.01.09-.02.14-.02.05 0 .09.01.14.02zM20.86 16.48l-1.36-.4-1.36.4c-.18.05-.36 0-.49-.13a.5.5 0 0 1-.13-.49l.4-1.36-.4-1.36c-.05-.18 0-.37.13-.49s.32-.18.49-.13l1.36.4 1.36-.4a.5.5 0 0 1 .49.13.5.5 0 0 1 .13.49l-.4 1.36.4 1.36c.05.18 0 .37-.13.49a.47.47 0 0 1-.35.15c-.05 0-.09-.01-.14-.02zm-1.22-1.4.62.18-.18-.62a.447.447 0 0 1 0-.28l.18-.62-.62.18c-.09.03-.19.03-.28 0l-.62-.18.18.62c.03.09.03.19 0 .28l-.18.62.62-.18c.05-.01.09-.02.14-.02.05 0 .09.01.14.02z"/>
    </g>
</svg>
