<svg width="24" height="24" viewBox="0 0 24 24" xmlns="http://www.w3.org/2000/svg">
    <g fill="#292D32" fill-rule="nonzero">
        <path d="M1.25 9V6.5c0-2.9 2.36-5.25 5.25-5.25H9c.41 0 .75.34.75.75s-.34.75-.75.75H6.5c-2.07 0-3.75 1.68-3.75 3.75V9c0 .41-.34.75-.75.75s-.75-.34-.75-.75zM21.25 9V6.5c0-2.07-1.68-3.75-3.75-3.75H15c-.41 0-.75-.34-.75-.75s.34-.75.75-.75h2.5c2.89 0 5.25 2.35 5.25 5.25V9c0 .41-.34.75-.75.75s-.75-.34-.75-.75zM16 22.75c-.41 0-.75-.34-.75-.75s.34-.75.75-.75h1.5c2.07 0 3.75-1.68 3.75-3.75V16c0-.41.34-.75.75-.75s.75.34.75.75v1.5c0 2.9-2.36 5.25-5.25 5.25H16zM6.5 22.75c-2.89 0-5.25-2.35-5.25-5.25V15c0-.41.34-.75.75-.75s.75.34.75.75v2.5c0 2.07 1.68 3.75 3.75 3.75H9c.41 0 .75.34.75.75s-.34.75-.75.75H6.5z"/>
        <path d="M7 5.25c-1.14 0-1.75.6-1.75 1.75v2c0 1.15.61 1.75 1.75 1.75h2c1.14 0 1.75-.6 1.75-1.75V7c0-1.15-.61-1.75-1.75-1.75H7zM15 5.25c-1.14 0-1.75.6-1.75 1.75v2c0 1.15.61 1.75 1.75 1.75h2c1.14 0 1.75-.6 1.75-1.75V7c0-1.15-.61-1.75-1.75-1.75h-2zM7 13.25c-1.14 0-1.75.6-1.75 1.75v2c0 1.15.61 1.75 1.75 1.75h2c1.14 0 1.75-.6 1.75-1.75v-2c0-1.15-.61-1.75-1.75-1.75H7zM15 13.25c-1.14 0-1.75.6-1.75 1.75v2c0 1.15.61 1.75 1.75 1.75h2c1.14 0 1.75-.6 1.75-1.75v-2c0-1.15-.61-1.75-1.75-1.75h-2z"/>
    </g>
</svg>
