<svg width="24" height="24" viewBox="0 0 24 24" xmlns="http://www.w3.org/2000/svg">
    <g fill="#292D32" fill-rule="evenodd">
        <path d="M6.97 15.03a.754.754 0 0 1 0-1.06l3.2-3.2a.741.741 0 0 1 1.15.11l1.09 1.64 3.55-3.55c.29-.29.77-.29 1.06 0 .29.29.29.77 0 1.06l-4.2 4.2a.741.741 0 0 1-1.15-.11l-1.09-1.64-2.55 2.55c-.15.15-.34.22-.53.22s-.38-.07-.53-.22z" fill-rule="nonzero"/>
        <path d="M15.75 11.5v-1.25H14.5c-.41 0-.75-.34-.75-.75s.34-.75.75-.75h2c.41 0 .75.34.75.75v2c0 .41-.34.75-.75.75s-.75-.34-.75-.75z" fill-rule="nonzero"/>
        <path d="M9 22.75c-5.43 0-7.75-2.32-7.75-7.75V9c0-5.43 2.32-7.75 7.75-7.75h6c5.43 0 7.75 2.32 7.75 7.75v6c0 5.43-2.32 7.75-7.75 7.75H9zM2.75 9v6c0 4.61 1.64 6.25 6.25 6.25h6c4.61 0 6.25-1.64 6.25-6.25V9c0-4.61-1.64-6.25-6.25-6.25H9C4.39 2.75 2.75 4.39 2.75 9z"/>
    </g>
</svg>
