<svg width="24" height="24" viewBox="0 0 24 24" xmlns="http://www.w3.org/2000/svg">
    <g fill="#292D32" fill-rule="nonzero">
        <path d="M19.41 7.35V2.7c0-.5-.4-.9-.9-.9s-.9.4-.9.9v4.65c0 .49.41.9.9.9.5 0 .9-.4.9-.9zM11.1 16.65v4.65c0 .5.4.9.9.9s.9-.4.9-.9v-4.65c0-.49-.4-.9-.9-.9s-.9.4-.9.9zM6.39 7.35V2.7c0-.5-.4-.9-.9-.9s-.9.4-.9.9v4.65c0 .49.4.9.9.9s.9-.4.9-.9zM3.63 10.172c-.5 0-.9.4-.9.9s.4.9.9.9h.96v9.33c0 .5.4.9.9.9s.9-.4.9-.9v-9.33h.96c.5 0 .9-.4.9-.9s-.41-.9-.9-.9H3.63zM16.65 10.172c-.5 0-.9.4-.9.9s.4.9.9.9h.96v9.33c0 .5.4.9.9.9s.9-.4.9-.9v-9.33h.96c.5 0 .9-.4.9-.9s-.4-.9-.9-.9h-3.72zM12.9 12.03V2.7c0-.5-.4-.9-.9-.9s-.9.4-.9.9v9.33h-.96c-.5 0-.9.4-.9.9s.4.9.9.9h3.72c.5 0 .9-.4.9-.9s-.4-.9-.9-.9h-.96z"/>
    </g>
</svg>
