<svg width="24" height="24" viewBox="0 0 24 24" xmlns="http://www.w3.org/2000/svg">
    <g fill="#292D32" fill-rule="evenodd">
        <path d="M9 22.75c-5.43 0-7.75-2.32-7.75-7.75V9c0-5.43 2.32-7.75 7.75-7.75h6c5.43 0 7.75 2.32 7.75 7.75v6c0 5.43-2.32 7.75-7.75 7.75H9zM2.75 9v6c0 4.61 1.64 6.25 6.25 6.25h6c4.61 0 6.25-1.64 6.25-6.25V9c0-4.61-1.64-6.25-6.25-6.25H9C4.39 2.75 2.75 4.39 2.75 9z"/>
        <path d="M12.75 16.5v-9c0-1.52 1.23-2.75 2.75-2.75s2.75 1.23 2.75 2.75v9c0 1.52-1.23 2.75-2.75 2.75s-2.75-1.23-2.75-2.75zm1.5-9v9a1.25 1.25 0 0 0 2.5 0v-9a1.25 1.25 0 0 0-2.5 0zM5.75 16.5V13c0-1.52 1.23-2.75 2.75-2.75s2.75 1.23 2.75 2.75v3.5c0 1.52-1.23 2.75-2.75 2.75s-2.75-1.23-2.75-2.75zm1.5-3.5v3.5a1.25 1.25 0 0 0 2.5 0V13a1.25 1.25 0 0 0-2.5 0z"/>
    </g>
</svg>
