<svg width="24" height="24" viewBox="0 0 24 24" xmlns="http://www.w3.org/2000/svg">
    <g fill="#292D32" fill-rule="evenodd">
        <path d="M7.75 5H7c-.26 0-.51.01-.75.05V2c0-.41.34-.75.75-.75s.75.34.75.75v3z" fill-rule="nonzero"/>
        <path d="M7 5c-.26 0-.51.01-.75.05C3.67 5.35 2 7.26 2 10v7c0 3 2 5 5 5h10c3 0 5-2 5-5v-7c0-3-2-5-5-5H7zm-1.62 8.5a2.5 2.5 0 0 1 5 0 2.5 2.5 0 0 1-5 0zm8.5 2.75c-.41 0-.75-.34-.75-.75s.34-.75.75-.75h.5c.41 0 .75.34.75.75s-.34.75-.75.75h-.5zm3.5 0c-.41 0-.75-.34-.75-.75s.34-.75.75-.75h.5c.41 0 .75.34.75.75s-.34.75-.75.75h-.5zm-3.5-4c-.41 0-.75-.34-.75-.75s.34-.75.75-.75h4c.41 0 .75.34.75.75s-.34.75-.75.75h-4z"/>
    </g>
</svg>
