<svg width="24" height="24" viewBox="0 0 24 24" xmlns="http://www.w3.org/2000/svg">
    <g fill="#292D32" fill-rule="nonzero">
        <path d="M11 4.1C11 2.6 10.36 2 8.77 2H4.73C3.14 2 2.5 2.6 2.5 4.1v15.8c0 1.5.64 2.1 2.23 2.1h4.04c1.59 0 2.23-.6 2.23-2.1V4.1zM21.5 15.36c0-1.3-1-2.36-2.23-2.36h-4.04C14 13 13 14.06 13 15.36v4.28c0 1.3 1 2.36 2.23 2.36h4.04c1.23 0 2.23-1.06 2.23-2.36v-4.28zM21.5 4.36c0-1.3-1-2.36-2.23-2.36h-4.04C14 2 13 3.06 13 4.36v4.28c0 1.3 1 2.36 2.23 2.36h4.04c1.23 0 2.23-1.06 2.23-2.36V4.36z"/>
    </g>
</svg>
