<svg width="24" height="24" viewBox="0 0 24 24" xmlns="http://www.w3.org/2000/svg">
    <g fill="none" fill-rule="evenodd">
        <path d="M3 22.75c-.96 0-1.75-.79-1.75-1.75V8c0-4.42 2.33-6.75 6.75-6.75h8c4.42 0 6.75 2.33 6.75 6.75v8c0 4.42-2.33 6.75-6.75 6.75H3zM2.75 8v13c0 .14.11.25.25.25h13c3.58 0 5.25-1.67 5.25-5.25V8c0-3.58-1.67-5.25-5.25-5.25H8C4.42 2.75 2.75 4.42 2.75 8z" fill="#292D32"/>
        <path fill="#FFF" d="M8.5 12h7"/>
        <path d="M8.5 12.75c-.41 0-.75-.34-.75-.75s.34-.75.75-.75h7c.41 0 .75.34.75.75s-.34.75-.75.75h-7z" fill="#292D32" fill-rule="nonzero"/>
        <path fill="#FFF" d="M12 15.5v-7"/>
        <path d="M11.25 15.5v-7c0-.41.34-.75.75-.75s.75.34.75.75v7c0 .41-.34.75-.75.75s-.75-.34-.75-.75z" fill="#292D32" fill-rule="nonzero"/>
    </g>
</svg>
