<svg width="24" height="24" viewBox="0 0 24 24" xmlns="http://www.w3.org/2000/svg">
    <path d="M7 3.5c-3 0-5 1.5-5 5v7c0 3.5 2 5 5 5h10c3 0 5-1.5 5-5v-7c0-3.5-2-5-5-5H7zm0 1.75h1.5c.41 0 .75.34.75.75s-.34.75-.75.75H7c-.96 0-1.75.79-1.75 1.75V10c0 .41-.34.75-.75.75s-.75-.34-.75-.75V8.5c0-1.79 1.46-3.25 3.25-3.25zm0 13.5c-1.79 0-3.25-1.46-3.25-3.25V14c0-.41.34-.75.75-.75s.75.34.75.75v1.5c0 .96.79 1.75 1.75 1.75h1.5c.41 0 .75.34.75.75s-.34.75-.75.75H7zM9 12c0-1.66 1.34-3 3-3s3 1.34 3 3-1.34 3-3 3-3-1.34-3-3zm8 6.75h-1.5c-.41 0-.75-.34-.75-.75s.34-.75.75-.75H17c.96 0 1.75-.79 1.75-1.75V14c0-.41.34-.75.75-.75s.75.34.75.75v1.5c0 1.79-1.46 3.25-3.25 3.25zm2.5-8c-.41 0-.75-.34-.75-.75V8.5c0-.96-.79-1.75-1.75-1.75h-1.5c-.41 0-.75-.34-.75-.75s.34-.75.75-.75H17c1.79 0 3.25 1.46 3.25 3.25V10c0 .41-.34.75-.75.75z" fill="#292D32" fill-rule="evenodd"/>
</svg>
