<svg width="24" height="24" viewBox="0 0 24 24" xmlns="http://www.w3.org/2000/svg">
    <g fill="#292D32" fill-rule="evenodd">
        <path d="M15.72 7.58c-.39 0-.7-.31-.7-.7 0-.39.31-.7.7-.7h5.58c.39 0 .7.31.7.7 0 .39-.31.7-.7.7h-5.58zM2.7 7.58c-.39 0-.7-.31-.7-.7 0-.39.31-.7.7-.7h3.72c.39 0 .7.31.7.7 0 .39-.32.7-.7.7H2.7z" fill-rule="nonzero"/>
        <path d="M10.14 10.83a3.95 3.95 0 1 1 0-7.9 3.95 3.95 0 0 1 0 7.9z"/>
        <path d="M17.58 17.81c-.39 0-.7-.31-.7-.7 0-.39.31-.7.7-.7h3.72c.39 0 .7.31.7.7 0 .39-.31.7-.7.7h-3.72zM2.7 17.81c-.39 0-.7-.31-.7-.7 0-.39.31-.7.7-.7h5.58c.39 0 .7.31.7.7 0 .39-.32.7-.7.7H2.7z" fill-rule="nonzero"/>
        <path d="M13.86 21.072a3.95 3.95 0 1 1 0-7.9 3.95 3.95 0 0 1 0 7.9z"/>
    </g>
</svg>
