<svg width="24" height="24" viewBox="0 0 24 24" xmlns="http://www.w3.org/2000/svg">
    <g fill="#292D32" fill-rule="evenodd">
        <path d="M18.25 16V6.5c0-.69-.56-1.25-1.25-1.25h-5.5c-.41 0-.75-.34-.75-.75s.34-.75.75-.75H17c1.52 0 2.75 1.23 2.75 2.75V16c0 .41-.34.75-.75.75s-.75-.34-.75-.75z" fill-rule="nonzero"/>
        <path d="m13.52 7.58-3-2.5a.761.761 0 0 1 0-1.16l3-2.5a.75.75 0 0 1 1.06.1c.27.32.22.79-.1 1.06L12.17 4.5l2.31 1.92c.32.27.36.74.1 1.06a.759.759 0 0 1-1.06.1z" fill-rule="nonzero"/>
        <path d="M15.25 19c0-2.07 1.68-3.75 3.75-3.75 2.07 0 3.75 1.68 3.75 3.75 0 2.07-1.68 3.75-3.75 3.75-2.07 0-3.75-1.68-3.75-3.75zm1.5 0c0 1.24 1.01 2.25 2.25 2.25s2.25-1.01 2.25-2.25-1.01-2.25-2.25-2.25-2.25 1.01-2.25 2.25z"/>
        <path d="M7 20.25c-1.52 0-2.75-1.23-2.75-2.75V8c0-.41.34-.75.75-.75s.75.34.75.75v9.5c0 .69.56 1.25 1.25 1.25h5.5c.41 0 .75.34.75.75s-.34.75-.75.75H7z" fill-rule="nonzero"/>
        <path d="M9.42 22.48a.75.75 0 0 1 .1-1.06l2.31-1.92-2.31-1.92a.758.758 0 0 1-.1-1.06c.27-.32.74-.36 1.06-.1l3 2.5a.761.761 0 0 1 0 1.16l-3 2.5a.759.759 0 0 1-1.06-.1z" fill-rule="nonzero"/>
        <path d="M1.25 5c0-2.07 1.68-3.75 3.75-3.75 2.07 0 3.75 1.68 3.75 3.75 0 2.07-1.68 3.75-3.75 3.75-2.07 0-3.75-1.68-3.75-3.75zm1.5 0c0 1.24 1.01 2.25 2.25 2.25S7.25 6.24 7.25 5 6.24 2.75 5 2.75 2.75 3.76 2.75 5z"/>
    </g>
</svg>
