<svg width="24" height="24" viewBox="0 0 24 24" xmlns="http://www.w3.org/2000/svg">
    <path d="M7.81 2C4.17 2 2 4.17 2 7.81v8.38C2 19.83 4.17 22 7.81 22h8.38c3.64 0 5.81-2.17 5.81-5.81V7.81C22 4.17 19.83 2 16.19 2H7.81zm-.09 15.15c-.15.15-.34.22-.53.22s-.39-.07-.53-.22l-.75-.75c-.3-.29-.3-.77 0-1.06.29-.29.76-.29 1.06 0l.22.22 1.72-1.72c.29-.29.76-.29 1.06 0 .29.29.29.77 0 1.06l-2.25 2.25zm0-7c-.15.15-.34.22-.53.22s-.39-.07-.53-.22l-.75-.75c-.3-.29-.3-.77 0-1.06.29-.29.76-.29 1.06 0l.22.22 1.72-1.72c.29-.29.76-.29 1.06 0 .29.29.29.77 0 1.06l-2.25 2.25zm4.59 6.47c-.41 0-.75-.34-.75-.75s.34-.75.75-.75h5.25a.749.749 0 1 1 0 1.5h-5.25zm0-7c-.41 0-.75-.34-.75-.75s.34-.75.75-.75h5.25a.749.749 0 1 1 0 1.5h-5.25z" fill="#292D32" fill-rule="evenodd"/>
</svg>
