<svg width="24" height="24" viewBox="0 0 24 24" xmlns="http://www.w3.org/2000/svg">
    <g fill="#292D32" fill-rule="evenodd">
        <path d="M18.03 16c-1.27 0-2.03.76-2.03 2.03v2.94c0 1.27.76 2.03 2.03 2.03h2.94c1.27 0 2.03-.76 2.03-2.03v-2.94c0-1.27-.76-2.03-2.03-2.03h-2.94zm1.23 5.22a.51.51 0 0 1-.38.18h-.02c-.13 0-.27-.05-.36-.15l-1.1-1.08c-.2-.2-.2-.53 0-.74.2-.2.53-.2.74 0l.69.69 2.01-2.34c.18-.22.51-.25.73-.06.22.19.24.52.06.73l-2.37 2.77z"/>
        <path d="M18.03 16c-1.27 0-2.03.76-2.03 2.03v2.94c0 1.27.76 2.03 2.03 2.03h2.94c1.27 0 2.03-.76 2.03-2.03v-2.94c0-1.27-.76-2.03-2.03-2.03h-2.94zm1.23 5.22a.51.51 0 0 1-.38.18h-.02c-.13 0-.27-.05-.36-.15l-1.1-1.08c-.2-.2-.2-.53 0-.74.2-.2.53-.2.74 0l.69.69 2.01-2.34c.18-.22.51-.25.73-.06.22.19.24.52.06.73l-2.37 2.77z"/>
        <path d="M16.79 2.03c-.2-.02-.4-.03-.6-.03H7.81A5.812 5.812 0 0 0 2 7.81v8.38A5.812 5.812 0 0 0 7.81 22H14c.55 0 1-.45 1-1v-2.97c0-1.67 1.36-3.03 3.03-3.03H21c.55 0 1-.45 1-1V7.81a5.812 5.812 0 0 0-5.21-5.78zM7 14.25c-.41 0-.75-.34-.75-.75v-3c0-.41.34-.75.75-.75s.75.34.75.75v3c0 .41-.34.75-.75.75zm5 0c-.41 0-.75-.34-.75-.75v-3c0-.41.34-.75.75-.75s.75.34.75.75v3c0 .41-.34.75-.75.75z"/>
    </g>
</svg>
