<svg width="24" height="24" viewBox="0 0 24 24" xmlns="http://www.w3.org/2000/svg">
    <g fill="none" fill-rule="evenodd">
        <path d="M5.25 8.25v-2c0-.41.34-.75.75-.75s.75.34.75.75v2c0 .41-.34.75-.75.75s-.75-.34-.75-.75z" fill="#292D32" fill-rule="nonzero"/>
        <path d="M9 22.75c-5.43 0-7.75-2.32-7.75-7.75V9c0-5.43 2.32-7.75 7.75-7.75h6c5.43 0 7.75 2.32 7.75 7.75v3c0 .41-.34.75-.75.75s-.75-.34-.75-.75V9c0-4.61-1.64-6.25-6.25-6.25H9C4.39 2.75 2.75 4.39 2.75 9v6c0 4.61 1.64 6.25 6.25 6.25h3c.41 0 .75.34.75.75s-.34.75-.75.75H9z" fill="#292D32" fill-rule="nonzero"/>
        <path d="M9.25 8.25v-2c0-.41.34-.75.75-.75s.75.34.75.75v2c0 .41-.34.75-.75.75s-.75-.34-.75-.75zM5.25 18v-2c0-.41.34-.75.75-.75s.75.34.75.75v2c0 .41-.34.75-.75.75s-.75-.34-.75-.75zM9.25 18v-2c0-.41.34-.75.75-.75s.75.34.75.75v2c0 .41-.34.75-.75.75s-.75-.34-.75-.75zM14 8c-.41 0-.75-.34-.75-.75s.34-.75.75-.75h4c.41 0 .75.34.75.75S18.41 8 18 8h-4zM2 12.75c-.41 0-.75-.34-.75-.75s.34-.75.75-.75h20c.41 0 .75.34.75.75s-.34.75-.75.75H2z" fill="#292D32" fill-rule="nonzero"/>
        <path d="M15.86 20.14V22m5.7-1.67a3.24 3.24 0 0 1-2.81 1.62c-1.194 0-2.157-.6-2.89-1.8m.07-3.06c.56-.98 1.61-1.63 2.82-1.63 1.446 0 2.53.6 3.25 1.8m0-2.01v2h-2m-4.14 2.89h2" stroke="#292D32" stroke-width="1.5" stroke-linecap="round" stroke-linejoin="round" stroke-dasharray="0,0"/>
    </g>
</svg>
