<svg width="24" height="24" viewBox="0 0 24 24" xmlns="http://www.w3.org/2000/svg">
    <g fill="#292D32" fill-rule="evenodd">
        <path d="M2 22h20"/>
        <path d="M2 22.75c-.41 0-.75-.34-.75-.75s.34-.75.75-.75h20c.41 0 .75.34.75.75s-.34.75-.75.75H2z" fill-rule="nonzero"/>
        <path d="M3 22.75c-.41 0-.75-.34-.75-.75V6c0-3.02 1.73-4.75 4.75-4.75h10c3.02 0 4.75 1.73 4.75 4.75v16c0 .41-.34.75-.75.75H3zm17.25-1.5V6c0-2.22-1.03-3.25-3.25-3.25H7C4.78 2.75 3.75 3.78 3.75 6v15.25h16.5z"/>
        <path d="M7 17.25c-.41 0-.75-.34-.75-.75s.34-.75.75-.75h3c.41 0 .75.34.75.75s-.34.75-.75.75H7zM14 17.25c-.41 0-.75-.34-.75-.75s.34-.75.75-.75h3c.41 0 .75.34.75.75s-.34.75-.75.75h-3zM7 12.75c-.41 0-.75-.34-.75-.75s.34-.75.75-.75h3c.41 0 .75.34.75.75s-.34.75-.75.75H7zM14 12.75c-.41 0-.75-.34-.75-.75s.34-.75.75-.75h3c.41 0 .75.34.75.75s-.34.75-.75.75h-3zM7 8.25c-.41 0-.75-.34-.75-.75s.34-.75.75-.75h3c.41 0 .75.34.75.75s-.34.75-.75.75H7zM14 8.25c-.41 0-.75-.34-.75-.75s.34-.75.75-.75h3c.41 0 .75.34.75.75s-.34.75-.75.75h-3z" fill-rule="nonzero"/>
    </g>
</svg>
