<svg width="24" height="24" viewBox="0 0 24 24" xmlns="http://www.w3.org/2000/svg">
    <path d="M13.57 2.42c-.97-.56-2.17-.56-3.15 0L4.49 5.85a3.15 3.15 0 0 0-1.57 2.73v6.84c0 1.12.6 2.16 1.57 2.73l5.94 3.43c.97.56 2.17.56 3.15 0l5.94-3.43a3.15 3.15 0 0 0 1.57-2.73V8.58a3.192 3.192 0 0 0-1.58-2.73l-5.94-3.43zM12 7c.41 0 .75.34.75.75V13c0 .41-.34.75-.75.75s-.75-.34-.75-.75V7.75c0-.41.34-.75.75-.75zm.71 9.96a.99.99 0 0 1-1.09.21c-.13-.05-.23-.12-.33-.21-.09-.1-.16-.21-.22-.33a.986.986 0 0 1-.07-.38c0-.26.1-.52.29-.71.1-.09.2-.16.33-.21.37-.16.81-.07 1.09.21.09.1.16.2.21.33.05.12.08.25.08.38s-.03.26-.08.38-.12.23-.21.33z" fill="#292D32" fill-rule="evenodd"/>
</svg>
