<svg width="24" height="24" viewBox="0 0 24 24" xmlns="http://www.w3.org/2000/svg">
    <g fill="#292D32" fill-rule="evenodd">
        <path d="M1.25 12C1.25 6.07 6.07 1.25 12 1.25S22.75 6.07 22.75 12c0 .41-.34.75-.75.75s-.75-.34-.75-.75c0-5.1-4.15-9.25-9.25-9.25S2.75 6.9 2.75 12 6.9 21.25 12 21.25c.41 0 .75.34.75.75s-.34.75-.75.75C6.07 22.75 1.25 17.93 1.25 12z" fill-rule="nonzero"/>
        <path d="M8 21.75c-.41 0-.75-.34-.75-.75s.32-.74.73-.75a29.49 29.49 0 0 1 0-16.5.752.752 0 0 1-.73-.75c0-.41.34-.75.75-.75h1c.24 0 .47.12.61.31.14.2.18.45.1.68a27.948 27.948 0 0 0 0 17.53c.08.23.04.48-.1.68-.14.2-.37.3-.61.3H8zM15.71 12c0-2.98-.48-5.93-1.42-8.76-.13-.39.08-.82.47-.95.39-.13.82.08.95.47.99 2.98 1.5 6.09 1.5 9.24 0 .41-.34.75-.75.75s-.75-.34-.75-.75z" fill-rule="nonzero"/>
        <path d="M3.75 16.02c-.01.4-.34.73-.75.73s-.75-.34-.75-.75v-1c0-.24.12-.47.31-.61.2-.14.45-.18.68-.1 2.83.94 5.78 1.42 8.76 1.42.41 0 .75.34.75.75s-.34.75-.75.75c-2.8 0-5.57-.4-8.25-1.19zM20.76 9.71a27.948 27.948 0 0 0-17.53 0 .753.753 0 0 1-.95-.47c-.13-.39.08-.82.47-.95a29.318 29.318 0 0 1 18.47 0c.39.13.6.56.47.95-.08.31-.38.51-.69.51-.08 0-.16-.01-.24-.04z" fill-rule="nonzero"/>
        <path d="M14.25 18.2c0-2.18 1.77-3.95 3.95-3.95s3.95 1.77 3.95 3.95-1.77 3.95-3.95 3.95-3.95-1.77-3.95-3.95zm1.5 0c0 1.35 1.1 2.45 2.45 2.45s2.45-1.1 2.45-2.45-1.1-2.45-2.45-2.45-2.45 1.1-2.45 2.45z"/>
        <path d="m21.47 22.53-1-1a.755.755 0 0 1 0-1.06c.29-.29.77-.29 1.06 0l1 1c.29.29.29.77 0 1.06-.15.15-.34.22-.53.22s-.38-.07-.53-.22z" fill-rule="nonzero"/>
    </g>
</svg>
