<svg width="24" height="24" viewBox="0 0 24 24" xmlns="http://www.w3.org/2000/svg">
    <g fill="#292D32" fill-rule="nonzero">
        <path d="M20.95 14.23c.28.28.77.13.85-.26.13-.64.2-1.3.2-1.97 0-2.29-.78-4.4-2.07-6.08-.18-.24-.54-.25-.75-.04l-2.94 2.94c-.19.19-.19.51 0 .7l4.71 4.71zM12.71 12.35c-.2.2-.2.51 0 .71l5.82 5.82c.2.2.52.2.71 0 .62-.65 1.15-1.38 1.58-2.17.1-.19.06-.44-.09-.59l-5.54-5.54a.513.513 0 0 0-.71 0l-1.77 1.77zM9.18 15.88c-.2.2-.2.51 0 .71l4.92 4.93a.5.5 0 0 0 .49.13c.93-.25 1.81-.63 2.61-1.13.27-.17.31-.55.08-.78l-5.63-5.63a.523.523 0 0 0-.71.01l-1.76 1.76zM10.77 2.07c-4.51.54-8.16 4.2-8.7 8.7-.33 2.76.47 5.32 2 7.31.18.24.54.25.75.04l13.3-13.3c.21-.21.2-.57-.04-.75a9.942 9.942 0 0 0-7.31-2zM5.88 19.19c-.21.21-.2.57.04.75a9.872 9.872 0 0 0 5.39 2.05c.43.03.64-.48.33-.79l-3.53-3.53c-.19-.2-.51-.2-.71 0l-1.52 1.52z"/>
    </g>
</svg>
