<svg width="24" height="24" viewBox="0 0 24 24" xmlns="http://www.w3.org/2000/svg">
    <g fill="#292D32" fill-rule="evenodd">
        <path d="M4.68 2C3.21 2 2 3.21 2 4.68v2.63C2 8.79 3.21 10 4.68 10h14.63C20.79 10 22 8.79 22 7.32V4.68C22 3.21 20.79 2 19.32 2H4.68zM6 7.75c-.41 0-.75-.34-.75-.75V5c0-.41.34-.75.75-.75s.75.34.75.75v2c0 .41-.34.75-.75.75zm4 0c-.41 0-.75-.34-.75-.75V5c0-.41.34-.75.75-.75s.75.34.75.75v2c0 .41-.34.75-.75.75zm4-1c-.41 0-.75-.34-.75-.75s.34-.75.75-.75h4c.41 0 .75.34.75.75s-.34.75-.75.75h-4zM4.68 14C3.21 14 2 15.21 2 16.68v2.63C2 20.79 3.21 22 4.68 22h14.63c1.48 0 2.68-1.21 2.68-2.68v-2.63A2.68 2.68 0 0 0 19.32 14H4.68zM6 19.75c-.41 0-.75-.34-.75-.75v-2c0-.41.34-.75.75-.75s.75.34.75.75v2c0 .41-.34.75-.75.75zm4 0c-.41 0-.75-.34-.75-.75v-2c0-.41.34-.75.75-.75s.75.34.75.75v2c0 .41-.34.75-.75.75zm4-1c-.41 0-.75-.34-.75-.75s.34-.75.75-.75h4c.41 0 .75.34.75.75s-.34.75-.75.75h-4z"/>
    </g>
</svg>
