<svg width="100%" height="100%" viewBox="0 0 50 50" xmlns="http://www.w3.org/2000/svg" xmlns:xlink="http://www.w3.org/1999/xlink">
    <defs>
        <path d="M19.872.359c-5.46-1.04-9.821.18-13.087 3.658C3.52 7.496 1.258 11.14 0 14.947l5.81 6.132c5.956-2.353 10.01-5.427 12.164-9.224C20.127 8.058 20.759 4.226 19.872.36z" id="a"/>
    </defs>
    <g fill="none" fill-rule="evenodd">
        <rect fill="#009ED7" width="50" height="50" rx="6"/>
        <path d="M16.07 28.18c-1.7 1.463-2.827 3.016-3.38 4.66-.827 2.466-.788 4.423-.513 4.871.274.448 3.22.448 5.121-.53 1.268-.654 2.624-1.79 4.068-3.408L16.07 28.18z" fill="#FFE137"/>
        <path d="M31.816 27.473c.128 1.685-.229 3.429-1.07 5.231-1.26 2.705-3.264 4.065-3.782 4.065-.345 0-1.095-1.355-2.25-4.065l7.102-5.231zM17.069 24.717c-2.504-1.043-3.818-1.797-3.94-2.261-.184-.697 1.75-3.06 4.261-4.263 1.674-.802 3.302-1.11 4.885-.922l-5.206 7.446z" fill="#005776"/>
        <g transform="translate(15.74 13)">
            <mask id="b" fill="#fff">
                <use xlink:href="#a"/>
            </mask>
            <use fill="#FFF" xlink:href="#a"/>
            <path d="M11.996.64c-.134 2.246.588 4.094 2.165 5.543 1.577 1.448 3.365 2.173 5.362 2.173l1.816-2.852-.852-5.979-7.41-.415L11.996.64z" fill="#005776" mask="url(#b)"/>
            <g mask="url(#b)">
                <g transform="translate(7.81 6.15)">
                    <ellipse fill="#009ED7" cx="3.195" cy="3.321" rx="3.195" ry="3.321"/>
                    <ellipse fill="#48CFFF" cx="3.195" cy="3.321" rx="1.775" ry="1.845"/>
                </g>
            </g>
        </g>
        <path d="m16.404 32.245 6.197-6.44a.6.6 0 0 1 .864 0l.172.179a.6.6 0 0 1 0 .832l-6.197 6.44a.6.6 0 0 1-.865 0l-.171-.179a.6.6 0 0 1 0-.832z" fill="#009ED7"/>
    </g>
</svg>
