<svg width="128" height="16" viewBox="0 0 128 16" xmlns="http://www.w3.org/2000/svg">
    <g fill="none" fill-rule="evenodd">
        <path d="M126.29 2.262h.159c.187 0 .335-.061.335-.216 0-.134-.096-.224-.309-.224-.09 0-.152.01-.186.017v.423zm-.01.836h-.337V1.625c.131-.027.317-.046.558-.046.275 0 .398.046.506.11a.41.41 0 0 1 .142.322c0 .161-.126.29-.303.342v.018c.142.053.22.16.267.36.044.225.072.314.105.367h-.363c-.045-.053-.071-.188-.114-.36-.026-.162-.117-.233-.303-.233h-.158v.593zm-.897-.771c0 .654.477 1.176 1.137 1.176.637 0 1.11-.522 1.11-1.167 0-.659-.473-1.187-1.12-1.187-.65 0-1.127.528-1.127 1.178zm2.617 0c0 .835-.65 1.489-1.49 1.489a1.482 1.482 0 0 1-1.498-1.49c0-.819.664-1.473 1.498-1.473.84 0 1.49.654 1.49 1.474z" fill="#FFF"/>
        <path fill="#009ED7" d="M0 15.627h10.778v-2.554H2.522V9.277h6.453V6.703H2.522V2.927h8.256V.353H0zM16.74.327H14.2v4.064h-2.152v2.574h2.151v8.694h2.541V6.965h2.151V4.391h-2.15zM25.57 3.631c-1.11 0-2.071.35-2.868 1.042V.353h-2.52v15.274h2.52v-6.91c0-.706.24-1.292.733-1.791a2.372 2.372 0 0 1 1.767-.74c.696 0 1.274.242 1.767.74.492.499.732 1.085.732 1.79v6.91h2.541v-6.91c0-1.332-.438-2.512-1.3-3.503-.903-1.049-2.037-1.582-3.372-1.582M33.233 0c-.454 0-.842.159-1.152.473-.31.313-.467.706-.467 1.167 0 .462.158.854.467 1.167a1.56 1.56 0 0 0 1.152.472c.453 0 .843-.157 1.16-.468.318-.314.48-.707.48-1.17 0-.464-.162-.858-.48-1.172A1.599 1.599 0 0 0 33.232 0M31.983 15.627h2.52V3.985h-2.52zM39.538 7.258c.713-.723 1.546-1.073 2.547-1.073 1.1 0 2.006.433 2.774 1.325l.21.244 2.098-1.369-.239-.321a5.935 5.935 0 0 0-2.14-1.792 6.02 6.02 0 0 0-2.703-.64c-1.679 0-3.131.61-4.319 1.811-1.186 1.201-1.787 2.674-1.787 4.374 0 1.686.6 3.15 1.787 4.352 1.2 1.215 2.653 1.83 4.319 1.83.94 0 1.85-.218 2.704-.65a6.005 6.005 0 0 0 2.14-1.801l.238-.322-2.098-1.367-.21.243c-.767.892-1.674 1.325-2.774 1.325-1.015 0-1.848-.344-2.542-1.049-.702-.735-1.044-1.574-1.044-2.561 0-.515.087-.983.258-1.39.172-.412.437-.807.781-1.169M56.214 9.178c-.044-.018-.137-.056-.992-.236-.554-.119-1.364-.287-2.435-.51-1.523-.295-1.523-.89-1.523-1.086 0-.244.071-.601.684-.883.402-.185.896-.278 1.467-.278.57 0 1.055.092 1.446.278.612.282.684.64.684.883v.375h2.542v-.375c0-1.166-.538-2.116-1.601-2.824-.891-.59-1.925-.89-3.071-.89-1.177 0-2.212.3-3.069.89-1.064.692-1.603 1.643-1.603 2.824 0 1.534.686 2.581 2.056 3.116.04.014.147.05.993.228.553.118 1.364.288 2.435.51 1.502.294 1.502.875 1.502 1.064 0 .288 0 1.163-2.314 1.163-.67 0-1.194-.081-1.567-.245-.689-.27-.769-.653-.769-.918v-.374h-2.52v.374c0 1.198.561 2.163 1.676 2.876.462.277.961.493 1.483.64.52.146 1.09.22 1.697.22.606 0 1.174-.074 1.688-.221a6.14 6.14 0 0 0 1.48-.646c1.106-.706 1.668-1.671 1.668-2.869 0-1.518-.686-2.558-2.037-3.086"/>
        <path d="M67.06 9.277h4.508v2.191c-1.072 1.318-2.427 1.959-4.14 1.959-1.482 0-2.717-.522-3.775-1.595-1.071-1.07-1.591-2.327-1.591-3.842 0-1.515.52-2.772 1.592-3.845 1.057-1.071 2.291-1.592 3.775-1.592.837 0 1.648.193 2.408.573.755.38 1.39.918 1.884 1.599l.213.293 2.081-1.464-.224-.309A7.71 7.71 0 0 0 70.996.849 7.817 7.817 0 0 0 67.429 0c-2.168 0-4.047.79-5.591 2.354-1.525 1.572-2.297 3.469-2.297 5.636 0 2.166.772 4.07 2.301 5.66C63.395 15.21 65.275 16 67.43 16a7.716 7.716 0 0 0 3.763-.958 7.85 7.85 0 0 0 2.836-2.656l.06-.092v-5.59H67.06v2.573zM75.83 15.627h2.52V.353h-2.52zM85.93 13.427c-1.014 0-1.846-.344-2.54-1.048-.703-.736-1.044-1.575-1.044-2.562 0-.515.086-.983.257-1.39.172-.412.438-.806.783-1.169.712-.723 1.545-1.073 2.544-1.073.985 0 1.803.35 2.505 1.073.714.722 1.06 1.56 1.06 2.559 0 .998-.346 1.835-1.062 2.56-.685.706-1.503 1.05-2.503 1.05m0-9.796c-1.678 0-3.13.61-4.317 1.812-1.187 1.202-1.788 2.674-1.788 4.374 0 1.686.6 3.15 1.788 4.352 1.2 1.215 2.652 1.83 4.317 1.83 1.637 0 3.089-.614 4.319-1.83 1.186-1.202 1.788-2.666 1.788-4.352 0-1.7-.602-3.172-1.79-4.375-1.2-1.201-2.653-1.81-4.317-1.81M103.182 9.817c0 .998-.347 1.835-1.062 2.56-.686.706-1.504 1.05-2.503 1.05-1.014 0-1.847-.344-2.54-1.049-.704-.735-1.044-1.574-1.044-2.561 0-.515.086-.983.257-1.39.171-.412.437-.806.781-1.169.713-.722 1.547-1.073 2.546-1.073.985 0 1.803.35 2.505 1.073.713.722 1.06 1.56 1.06 2.559M99.966 3.63c-1.56 0-2.878.558-3.933 1.66V.353H93.51v15.274h2.522v-1.292C97.096 15.441 98.415 16 99.966 16c1.646 0 3.035-.636 4.124-1.885 1.083-1.2 1.633-2.647 1.633-4.298 0-1.639-.556-3.091-1.648-4.315-1.08-1.241-2.463-1.87-4.109-1.87M115.358 7.258c.712.722 1.06 1.56 1.06 2.559 0 .998-.348 1.835-1.062 2.56-.685.706-1.504 1.05-2.503 1.05-1.013 0-1.846-.344-2.541-1.049-.702-.735-1.044-1.574-1.044-2.561 0-.515.086-.983.257-1.39.172-.412.437-.806.782-1.169.713-.723 1.546-1.073 2.546-1.073.985 0 1.802.35 2.505 1.073zm1.06-1.974c-1.048-1.097-2.366-1.653-3.934-1.653-1.632 0-3.014.629-4.106 1.867-1.082 1.214-1.63 2.667-1.63 4.319 0 1.666.542 3.112 1.61 4.295 1.105 1.253 2.494 1.888 4.126 1.888 1.558 0 2.878-.557 3.934-1.658v1.285h2.541V3.985h-2.541v1.3zM120.884 15.627h2.522V.353h-2.522z" fill="#5D5E5E"/>
    </g>
</svg>
