<svg width="20" height="20" viewBox="0 0 20 20" xmlns="http://www.w3.org/2000/svg">
    <g fill-rule="nonzero" fill="none">
        <circle fill="#A1B3BC" cx="10" cy="10" r="10"/>
        <path d="m8.65 8.303.33-.33c.002-.002.004-.002.004-.004a1.975 1.975 0 0 1 .633-.297 2.562 2.562 0 0 1 .637-.086h.113c.01 0 .02 0 .03.002.01 0 .021 0 .03.002l.03.002.031.002.03.002.03.004.03.004.031.003.03.004.029.004c.01.002.02.004.03.004a.15.15 0 0 0 .029.004l.029.006.03.006.028.006.028.005.027.006.027.006.028.006.027.006.028.006.025.006.025.005.026.006c.008.002.017.004.025.008l.024.006.025.008c.008.002.016.004.023.008l.024.007c.008.002.015.004.021.008.008.002.016.004.024.008l.021.006a.07.07 0 0 1 .022.008l.02.006a.095.095 0 0 1 .02.007l.02.006c.006.002.014.004.02.008l.017.006.018.006a.135.135 0 0 1 .016.006l.017.006.016.005.015.006.014.006.014.006.011.006.014.006c.004.002.008.002.01.004a.028.028 0 0 0 .012.004l.01.003.01.004.007.004.008.004.006.004.005.002c.002.002.004.002.006.002l.004.002.004.002a1.936 1.936 0 0 0 .096.045l.013.006.088.037c.006.002.012.004.018.008l.088.035a.028.028 0 0 0 .012.004l.087.03.006.003.09.03.016.005c.03.01.058.018.086.025a.06.06 0 0 0 .015.004l.088.024.01.002.086.02.01.001.088.018.015.004.086.015.016.002.09.014h.005c.03.004.06.008.088.01.004 0 .008 0 .012.002.03.004.059.005.086.007.006 0 .012 0 .016.002l.086.006h.013l.09.004.09.002h.012c.04 0 .082 0 .123-.002l.123-.006h.01c.039-.002.076-.006.113-.01l.012-.001.115-.012h.008l.12-.016h.005c.039-.006.078-.011.117-.02l.01-.001c.037-.006.074-.014.109-.022l.012-.002c.037-.008.074-.015.113-.025.002 0 .004 0 .006-.002.039-.01.078-.018.115-.03l.006-.001.11-.03.011-.004.105-.03.01-.005.11-.035c.002 0 .002 0 .003-.002.038-.011.075-.025.112-.037l.008-.002.103-.037.012-.004.1-.039.01-.004c.034-.013.07-.027.105-.043l.011.01c.04.031.077.062.114.096a2.937 2.937 0 0 1 .197.181c.021.022.043.041.062.063l.06.06c.02.024.042.045.062.069.044.049.085.097.127.146.019.024.039.047.056.07l.072.094a3.176 3.176 0 0 1 .293.473c.024.047.047.092.067.139.021.046.04.093.06.14a2.8 2.8 0 0 1 .16.582c-.187.043-.369.088-.542.133l-.319.086-.181.053-.06.017-.116.035-.33.104-.053.018c-.104.033-.201.068-.295.1-.047.015-.092.032-.135.048a13.85 13.85 0 0 0-.566.219l-.076.031c-.045.02-.084.035-.116.05-.138-.12-.652-.568-1.09-.943a48.263 48.263 0 0 0-1.462-1.226h-.004c-.303-.223-.49-.291-.678-.326h-.004a.956.956 0 0 0-.389.035c-.212.058-.496.224-.841.492l-.043.035c-.223.176-.434.344-.592.373l-.006.002-.006.002a.745.745 0 0 1-.18.02c-.187 0-.363-.057-.435-.11L7.91 9.19l-.01-.005a.13.13 0 0 1-.04-.04c.003-.005.007-.013.015-.019l.004-.004.004-.004.562-.619.065-.064.14-.131zm1.416 4.226a.471.471 0 0 0-.039-.103c-.007-.016-.017-.033-.025-.049a.566.566 0 0 0-.484-.273l-.05.003-.048.008c-.031.006-.063.016-.088.024-.014.004-.025.01-.037.013l-.004.002-.037.014a.084.084 0 0 1-.02.006c-.005 0-.005-.008-.005-.022a.635.635 0 0 1 .02-.064c.001-.006.01-.027.019-.06l.007-.038.008-.045.006-.049c.002-.025.004-.052.004-.082 0-.02 0-.039-.002-.058a.499.499 0 0 0-.098-.258.457.457 0 0 0-.173-.133l-.032-.013-.01-.004-.021-.008-.012-.004-.02-.006-.01-.004c-.007-.002-.013-.004-.019-.004l-.01-.002-.019-.004-.008-.002-.027-.003h-.004l-.021-.002h-.065l-.027.002h-.006l-.02.003c-.002 0-.003 0-.005.002l-.024.006h-.002l-.021.006-.006.002-.018.006-.004.002-.02.008-.005.002c-.006.002-.01.006-.016.007l-.004.002-.017.01-.002.002a.06.06 0 0 0-.014.01l-.004.004c-.004.004-.01.006-.013.01 0 0-.002 0-.002.002a.06.06 0 0 1-.014.01l-.004.001-.01.008-.002.002-.01.01-.001.002-.008.008-.002.002-.008.007c-.008.008-.014.01-.02.01-.005 0-.01-.004-.01-.01v-.008a.388.388 0 0 0-.003-.042l-.004-.026a.678.678 0 0 0-.039-.119l-.018-.031a.455.455 0 0 0-.26-.195l-.033-.01-.01-.002-.025-.006-.008-.002-.03-.006c-.003 0-.007 0-.009-.002l-.023-.004h-.008l-.03-.002h-.068l-.02.002h-.007a.535.535 0 0 0-.055.01c-.002 0-.003.002-.007.002l-.02.006-.008.002-.017.006-.008.002c-.006.001-.014.005-.02.007l-.004.002-.023.01s-.002 0-.002.002l-.02.01-.005.004-.016.008-.006.003-.015.01-.004.002-.04.026-.003.001-.014.012c-.002.002-.004.002-.004.004l-.012.01c-.002.002-.004.002-.004.004-.003.004-.01.008-.013.011l-.002.002-.03.028-.003.004-.01.01-.004.003-.01.01-.004.004-.01.01v.002l-.001.002-.01.011-.002.002-.008.01-.004.004-.006.008-.002.004-.006.008-.001.002-.006.01-.002-.018a.447.447 0 0 0-.451-.381.45.45 0 0 0-.456.453c0 .256.2.453.454.453a.424.424 0 0 0 .312-.127v.014a.775.775 0 0 0 .04.375.517.517 0 0 0 .222.256c.031.02.068.035.107.05l.028.01.005.002c.01.004.018.006.028.008h.004l.023.006h.006l.025.004h.006c.008 0 .016 0 .024.002h.007c.01 0 .02 0 .032-.002.004 0 .006 0 .01-.002l.027-.004c.002 0 .006 0 .008-.002l.033-.008.008-.002a.136.136 0 0 0 .025-.01l.01-.003.027-.012.006-.002c.01-.006.022-.01.031-.016a.146.146 0 0 0 .031-.018l.008-.005c.01-.006.02-.012.03-.02.004-.004.01-.006.011-.008l.004-.002.008-.003s.002 0 .002-.002l.006-.002h.002c.002 0 .004 0 .004.002.002 0 .002.002.002.004l.002.005v.02l-.002.02-.002.023v.012c0 .007 0 .017.002.025.002.018.004.037.01.057a.297.297 0 0 0 .037.093.405.405 0 0 0 .074.094c.012.01.023.022.035.031a.673.673 0 0 0 .172.096l.025.01.008.002a.135.135 0 0 1 .016.006c.004 0 .006.002.007.002l.016.004.008.001.016.004.007.002.018.004h.004c.008.002.014.002.021.002h.006c.004 0 .01 0 .014.002h.047l.02-.002h.005l.016-.002h.004l.02-.004h.003l.016-.004.006-.002.015-.005h.002a.04.04 0 0 0 .016-.008l.004-.002.011-.006.004-.002.016-.008.004-.002c.004-.002.008-.004.012-.008l.003-.001.014-.01.014-.01.004-.002.01-.008.001-.002.012-.01.002-.001.01-.008.002-.002c.004-.004.008-.006.01-.01l.01-.01.001-.002c.004-.002.006-.006.01-.006h.002c.002-.002.004-.002.008-.003h.002l.006-.002h.005s.002 0 .002.002l.002.001.002.004.002.006v.002c0 .002 0 .004.002.006v.033a.67.67 0 0 0 .016.11.632.632 0 0 0 .092.193c.021.03.045.055.07.08.014.012.025.024.041.035a.593.593 0 0 0 .215.108l.053.01a.58.58 0 0 0 .427-.112l.016-.012a.406.406 0 0 0 .094-.1l.015-.02a.547.547 0 0 0 .098-.315.49.49 0 0 0-.018-.145zm3.52-1.34a.267.267 0 0 0-.057-.068l-.084-.072-.205-.178c-.531-.46-1.94-1.684-2.314-1.963-.219-.154-.344-.228-.44-.262a.713.713 0 0 0-.183-.027.804.804 0 0 0-.233.04l-.004.001-.004.002c-.187.05-.404.22-.613.387l-.068.053c-.256.209-.527.416-.76.47h-.004a1.493 1.493 0 0 1-.308.033c-.295 0-.543-.091-.663-.246l-.001-.002-.002-.002c-.096-.126-.077-.302.045-.43l.548-.605.004-.004.004-.004.164-.162c-.088.016-.174.036-.26.055l-.191.047-.117.031-.078.02c-.04.01-.076.02-.114.027a1.557 1.557 0 0 1-.187.03l-.074.005H7.35c-.084 0-.54-.07-.623-.1-.05-.013-.098-.027-.147-.038l-.096-.028-.142-.04-.096-.03-.049-.016-.144-.047c-.033-.01-.065-.021-.098-.033l-.15-.054-.104-.04c-.023-.007-.045-.017-.068-.027l-.078-.031-.04-.016c-.046-.02-.095-.039-.146-.06a6.963 6.963 0 0 1-.303-.135 6.543 6.543 0 0 0-.428.357l-.064.063a2.548 2.548 0 0 0-.125.127l-.119.129c-.039.043-.076.088-.111.133-.037.044-.07.09-.106.134a2.992 2.992 0 0 0-.186.28c-.029.046-.054.095-.081.142a2.833 2.833 0 0 0-.295.83c.113.03.312.086.383.1.488.11.888.219 1.212.324l.167.055c.158.054.296.107.416.156.06.025.117.049.167.072a4.762 4.762 0 0 1 .316.156l.042.024.02.012.056.035.016.01a.108.108 0 0 1 .015.011l.014.01.02.014.013.01.006.003.018.014a.681.681 0 0 1 .505-.217c.213 0 .403.092.528.24a.79.79 0 0 1 .437-.13.84.84 0 0 1 .266.043c.197.06.32.18.395.304a.667.667 0 0 1 .212-.033.85.85 0 0 1 .342.078c.176.08.303.215.365.39.04.112.05.225.045.327a.802.802 0 0 1 .7 1.17l.017.008.014.006c.006.004.013.005.02.01l.015.005.021.008.016.006.022.01.015.006.024.007a.135.135 0 0 1 .015.006.112.112 0 0 0 .028.008l.015.006c.012.004.024.008.037.01l.006.002a.34.34 0 0 0 .043.01l.014.001.031.006.018.002.027.004.02.002.027.002h.06a.32.32 0 0 0 .043-.004l.069-.012.056-.013c.018-.006.034-.01.047-.016.022-.008.04-.018.055-.025.01-.006.02-.012.027-.018a.208.208 0 0 0 .022-.018c.01-.007.015-.017.021-.025.004-.01.01-.017.016-.027a.043.043 0 0 1 .006-.01.06.06 0 0 0 .006-.025c0-.008-.004-.014-.012-.022l-.262-.29-.26-.29s-.056-.057-.062-.092a.022.022 0 0 1 .006-.021c.002-.002.004-.004.006-.004 0 0 .002 0 .002-.002.002 0 .002-.002.003-.002h.012c.004 0 .006 0 .01.002h.002c.004 0 .006.002.01.004h.002l.011.006s.002 0 .002.002l.01.005h.002a.04.04 0 0 1 .012.008l.002.002a.04.04 0 0 1 .011.008h.002l.012.008c.004.002.008.006.014.008l.076.066c.035.031.068.06.101.092l.075.07.07.069a7.97 7.97 0 0 1 .256.255l.01.01a.26.26 0 0 0 .076.043l.017.006.04.012.017.002h.1l.02-.002h.007l.018-.002c.002 0 .005 0 .007-.002l.02-.004h.006l.025-.006.006-.002.02-.006.007-.002.018-.006.008-.002c.008-.001.015-.005.021-.007l.004-.002.026-.012.007-.004.018-.01a.015.015 0 0 1 .008-.004c.006-.003.011-.005.015-.01a.015.015 0 0 1 .008-.003c.008-.006.016-.01.022-.016a.546.546 0 0 1 .049-.043l.021-.021c.004-.004.006-.008.01-.01a.34.34 0 0 0 .045-.078c.002-.008.006-.014.006-.022a.07.07 0 0 0 .003-.02.248.248 0 0 0-.002-.098l-.005-.02-.002-.006c-.006-.022-.016-.04-.024-.055-.015-.031-.031-.049-.031-.049l-.61-.68-.013-.013-.006-.008-.014-.016c-.004-.005-.01-.011-.013-.017l-.006-.01a.068.068 0 0 1-.012-.035c0-.006.002-.01.006-.014.002-.002.004-.004.006-.004 0 0 .002 0 .002-.002l.004-.002h.002l.004-.001h.005l.01.001h.002c.004 0 .006.002.01.004h.002l.012.006.002.002a.043.043 0 0 1 .01.006h.001a.04.04 0 0 1 .012.008l.004.002c.004.002.008.004.01.008h.002l.011.007.014.01.037.031c.065.053.137.12.211.19l.045.043c.06.058.123.123.187.187l.24.243.007.005s.002 0 .002.002l.005.004.002.002.006.004.004.002.008.006s.002 0 .002.002c.004.002.008.004.012.008 0 0 .002 0 .002.002l.01.006.003.001c.004.002.006.004.01.004l.006.002c.004.002.008.004.012.004.002 0 .003.002.003.002l.016.006.018.006.006.002c.003.002.01.002.013.004l.008.002c.004 0 .008.002.014.004.002 0 .004 0 .006.002l.015.002c.002 0 .004 0 .006.002l.022.001h.003l.018.002h.06l.02-.002h.006l.016-.002.007-.001c.006 0 .01-.002.016-.004.002 0 .004 0 .006-.002l.021-.006h.002l.022-.006.008-.002.015-.006.008-.002c.006-.002.012-.006.02-.008l.005-.002.024-.011c.002 0 .004-.002.006-.004l.02-.01c.001-.002.005-.002.007-.004l.018-.01.007-.004.026-.015a.569.569 0 0 0 .064-.05c.02-.019.037-.034.051-.052a.378.378 0 0 0 .064-.096c.008-.015.014-.033.02-.048a.206.206 0 0 0 .012-.047c.002-.008.002-.016.002-.024 0-.007 0-.015.002-.023 0-.016 0-.03-.002-.043a.356.356 0 0 0-.037-.121c-.004-.008-.008-.014-.01-.022a.615.615 0 0 0-.024-.037c-.029-.047-.058-.074-.058-.074l-.822-.836s-.086-.07-.057-.113c.002-.002.004-.004.006-.004h.002l.004-.002h.011c.004 0 .006 0 .01.002h.002l.01.002h.002l.012.006.001.002.01.006h.002a.04.04 0 0 1 .012.007l.004.002c.004.002.008.004.012.008l.011.008.012.008c.018.014.035.03.055.047l.064.054a2.515 2.515 0 0 0 .11.096.705.705 0 0 0 .039.035l.08.073.123.11.234.214.035.033.238.219h.004l.004.002h.002l.006.002a.043.043 0 0 0 .01.005h.002a.015.015 0 0 0 .008.004l.004.002c.003.002.005.004.01.004 0 0 .001.002.003.002l.014.006h.002l.014.006.003.002.012.006.006.002a.987.987 0 0 0 .04.011l.005.002.016.004.007.002.018.004h.004l.023.004h.006l.02.002h.07l.023-.002c.004 0 .006 0 .008-.002l.031-.006.034-.008.01-.002c.01-.002.017-.005.027-.01l.008-.001.035-.014.008-.004.029-.014.01-.005.037-.022c.029-.02.056-.039.08-.062l.008-.01a.375.375 0 0 0 .03-.4h-.001z" fill="#FFF"/>
    </g>
</svg>
