<svg width="41" height="41" viewBox="0 0 41 41" xmlns="http://www.w3.org/2000/svg" xmlns:xlink="http://www.w3.org/1999/xlink">
    <defs>
        <path d="M33.782.587c-9.28-1.7-16.696.295-22.247 5.985C5.985 12.262 2.14 18.222 0 24.452l9.878 10.033c10.125-3.849 17.017-8.879 20.677-15.09S35.291 6.915 33.782.587z" id="a"/>
    </defs>
    <g fill="none" fill-rule="evenodd">
        <path d="M7.119 24.834c-2.891 2.394-4.806 4.935-5.745 7.624C-.034 36.492.033 39.695.5 40.428c.467.733 5.475.733 8.707-.87 2.155-1.068 4.46-2.925 6.915-5.573l-9.003-9.151z" fill="#FFE137"/>
        <path d="M33.887 23.678c.217 2.756-.389 5.609-1.818 8.558-2.143 4.424-5.55 6.65-6.43 6.65-.587 0-1.861-2.217-3.824-6.65l12.072-8.558zM8.816 19.169c-4.256-1.707-6.489-2.94-6.697-3.7-.312-1.14 2.977-5.006 7.244-6.974 2.845-1.312 5.613-1.814 8.304-1.508L8.817 19.17z" fill="#005776"/>
        <g transform="translate(6.557)">
            <mask id="b" fill="#fff">
                <use xlink:href="#a"/>
            </mask>
            <use fill="#FFF" xlink:href="#a"/>
            <path d="M20.393 1.048c-.227 3.674 1 6.696 3.681 9.067 2.681 2.37 5.72 3.555 9.115 3.555l3.087-4.665-1.448-9.782-12.598-.679-1.837 2.504z" fill="#009ED7" mask="url(#b)"/>
            <g mask="url(#b)">
                <g transform="translate(13.278 10.06)">
                    <circle fill="#009ED7" cx="5.432" cy="5.432" r="5.432"/>
                    <circle fill="#48CFFF" cx="5.432" cy="5.432" r="3.018"/>
                </g>
            </g>
        </g>
        <path d="M7.713 31.458 18.25 20.922a1 1 0 0 1 1.414 0l.293.293a1 1 0 0 1 0 1.414L9.42 33.166a1 1 0 0 1-1.414 0l-.293-.293a1 1 0 0 1 0-1.415z" fill="#009ED7"/>
    </g>
</svg>
