<svg width="24" height="24" viewBox="0 0 24 24" xmlns="http://www.w3.org/2000/svg">
    <g fill="#292D32" fill-rule="nonzero">
        <path d="M21 21.25V15a9 9 0 0 0-18 0v6.25H2c-.41 0-.75.34-.75.75s.34.75.75.75h20c.41 0 .75-.34.75-.75s-.34-.75-.75-.75h-1zM11.25 3V2c0-.41.34-.75.75-.75s.75.34.75.75v1c0 .41-.34.75-.75.75s-.75-.34-.75-.75zM4.471 5.531l-1-1a.754.754 0 0 1 0-1.06c.29-.29.77-.29 1.06 0l1 1c.29.29.29.77 0 1.06-.15.15-.34.22-.53.22s-.38-.07-.53-.22zM18.471 5.531a.754.754 0 0 1 0-1.06l1-1c.29-.29.77-.29 1.06 0 .29.29.29.77 0 1.06l-1 1c-.15.15-.34.22-.53.22s-.38-.07-.53-.22z"/>
    </g>
</svg>
