<svg width="24" height="24" viewBox="0 0 24 24" xmlns="http://www.w3.org/2000/svg">
    <g fill="#292D32" fill-rule="nonzero">
        <path d="M13.06 2.301c-.66-.36-1.46-.36-2.12 0l-6.27 3.38c-.46.25-.74.73-.74 1.28 0 .54.28 1.03.74 1.28l6.27 3.38c.33.18.7.27 1.06.27.36 0 .73-.09 1.06-.27l6.27-3.38c.46-.25.74-.73.74-1.28s-.28-1.03-.74-1.28l-6.27-3.38zM4.07 9.87c-.45-.22-.97-.2-1.39.06-.43.27-.68.72-.68 1.22v5.51c0 .95.53 1.81 1.38 2.24l5.83 2.92a1.442 1.442 0 0 0 1.39-.06c.43-.26.68-.72.68-1.22v-5.51c.01-.96-.52-1.82-1.37-2.24L4.07 9.87zM19.93 9.87l-5.83 2.92c-.85.43-1.38 1.28-1.38 2.24v5.51c0 .5.25.96.68 1.22a1.442 1.442 0 0 0 1.39.06l5.83-2.92c.85-.43 1.38-1.28 1.38-2.24v-5.51c0-.5-.25-.95-.68-1.22-.43-.26-.95-.29-1.39-.06z"/>
    </g>
</svg>
